%TF.GenerationSoftware,KiCad,Pcbnew,9.0.5*%
%TF.CreationDate,2025-10-16T19:16:23+10:00*%
%TF.ProjectId,12v-2x6,3132762d-3278-4362-9e6b-696361645f70,1*%
%TF.SameCoordinates,Original*%
%TF.FileFunction,Legend,Bot*%
%TF.FilePolarity,Positive*%
%FSLAX46Y46*%
G04 Gerber Fmt 4.6, Leading zero omitted, Abs format (unit mm)*
G04 Created by KiCad (PCBNEW 9.0.5) date 2025-10-16 19:16:23*
%MOMM*%
%LPD*%
G01*
G04 APERTURE LIST*
G04 Aperture macros list*
%AMRoundRect*
0 Rectangle with rounded corners*
0 $1 Rounding radius*
0 $2 $3 $4 $5 $6 $7 $8 $9 X,Y pos of 4 corners*
0 Add a 4 corners polygon primitive as box body*
4,1,4,$2,$3,$4,$5,$6,$7,$8,$9,$2,$3,0*
0 Add four circle primitives for the rounded corners*
1,1,$1+$1,$2,$3*
1,1,$1+$1,$4,$5*
1,1,$1+$1,$6,$7*
1,1,$1+$1,$8,$9*
0 Add four rect primitives between the rounded corners*
20,1,$1+$1,$2,$3,$4,$5,0*
20,1,$1+$1,$4,$5,$6,$7,0*
20,1,$1+$1,$6,$7,$8,$9,0*
20,1,$1+$1,$8,$9,$2,$3,0*%
G04 Aperture macros list end*
%ADD10C,0.150000*%
%ADD11C,0.000000*%
%ADD12RoundRect,0.250000X0.625000X-0.350000X0.625000X0.350000X-0.625000X0.350000X-0.625000X-0.350000X0*%
%ADD13O,1.750000X1.200000*%
%ADD14C,3.200000*%
%ADD15C,1.100000*%
%ADD16R,1.730000X2.030000*%
%ADD17O,1.730000X2.030000*%
%ADD18R,1.700000X1.700000*%
%ADD19C,1.700000*%
%ADD20C,1.520000*%
%ADD21RoundRect,0.510000X-0.890000X0.000010X-0.890000X-0.000010X0.890000X-0.000010X0.890000X0.000010X0*%
%ADD22C,4.300000*%
%ADD23C,0.900000*%
%ADD24C,0.650000*%
%ADD25O,2.100000X1.000000*%
%ADD26O,1.600000X1.000000*%
G04 APERTURE END LIST*
D10*
X116217731Y-41454819D02*
X115646303Y-41454819D01*
X115932017Y-42454819D02*
X115932017Y-41454819D01*
X115408207Y-41454819D02*
X114741541Y-42454819D01*
X114741541Y-41454819D02*
X115408207Y-42454819D01*
X117217731Y-36254819D02*
X116598684Y-36254819D01*
X116598684Y-36254819D02*
X116932017Y-36635771D01*
X116932017Y-36635771D02*
X116789160Y-36635771D01*
X116789160Y-36635771D02*
X116693922Y-36683390D01*
X116693922Y-36683390D02*
X116646303Y-36731009D01*
X116646303Y-36731009D02*
X116598684Y-36826247D01*
X116598684Y-36826247D02*
X116598684Y-37064342D01*
X116598684Y-37064342D02*
X116646303Y-37159580D01*
X116646303Y-37159580D02*
X116693922Y-37207200D01*
X116693922Y-37207200D02*
X116789160Y-37254819D01*
X116789160Y-37254819D02*
X117074874Y-37254819D01*
X117074874Y-37254819D02*
X117170112Y-37207200D01*
X117170112Y-37207200D02*
X117217731Y-37159580D01*
X116312969Y-36254819D02*
X115979636Y-37254819D01*
X115979636Y-37254819D02*
X115646303Y-36254819D01*
X115408207Y-36254819D02*
X114789160Y-36254819D01*
X114789160Y-36254819D02*
X115122493Y-36635771D01*
X115122493Y-36635771D02*
X114979636Y-36635771D01*
X114979636Y-36635771D02*
X114884398Y-36683390D01*
X114884398Y-36683390D02*
X114836779Y-36731009D01*
X114836779Y-36731009D02*
X114789160Y-36826247D01*
X114789160Y-36826247D02*
X114789160Y-37064342D01*
X114789160Y-37064342D02*
X114836779Y-37159580D01*
X114836779Y-37159580D02*
X114884398Y-37207200D01*
X114884398Y-37207200D02*
X114979636Y-37254819D01*
X114979636Y-37254819D02*
X115265350Y-37254819D01*
X115265350Y-37254819D02*
X115360588Y-37207200D01*
X115360588Y-37207200D02*
X115408207Y-37159580D01*
X116884398Y-44102438D02*
X116979636Y-44054819D01*
X116979636Y-44054819D02*
X117122493Y-44054819D01*
X117122493Y-44054819D02*
X117265350Y-44102438D01*
X117265350Y-44102438D02*
X117360588Y-44197676D01*
X117360588Y-44197676D02*
X117408207Y-44292914D01*
X117408207Y-44292914D02*
X117455826Y-44483390D01*
X117455826Y-44483390D02*
X117455826Y-44626247D01*
X117455826Y-44626247D02*
X117408207Y-44816723D01*
X117408207Y-44816723D02*
X117360588Y-44911961D01*
X117360588Y-44911961D02*
X117265350Y-45007200D01*
X117265350Y-45007200D02*
X117122493Y-45054819D01*
X117122493Y-45054819D02*
X117027255Y-45054819D01*
X117027255Y-45054819D02*
X116884398Y-45007200D01*
X116884398Y-45007200D02*
X116836779Y-44959580D01*
X116836779Y-44959580D02*
X116836779Y-44626247D01*
X116836779Y-44626247D02*
X117027255Y-44626247D01*
X116408207Y-45054819D02*
X116408207Y-44054819D01*
X116408207Y-44054819D02*
X115836779Y-45054819D01*
X115836779Y-45054819D02*
X115836779Y-44054819D01*
X115360588Y-45054819D02*
X115360588Y-44054819D01*
X115360588Y-44054819D02*
X115122493Y-44054819D01*
X115122493Y-44054819D02*
X114979636Y-44102438D01*
X114979636Y-44102438D02*
X114884398Y-44197676D01*
X114884398Y-44197676D02*
X114836779Y-44292914D01*
X114836779Y-44292914D02*
X114789160Y-44483390D01*
X114789160Y-44483390D02*
X114789160Y-44626247D01*
X114789160Y-44626247D02*
X114836779Y-44816723D01*
X114836779Y-44816723D02*
X114884398Y-44911961D01*
X114884398Y-44911961D02*
X114979636Y-45007200D01*
X114979636Y-45007200D02*
X115122493Y-45054819D01*
X115122493Y-45054819D02*
X115360588Y-45054819D01*
X115741541Y-39854819D02*
X116074874Y-39378628D01*
X116312969Y-39854819D02*
X116312969Y-38854819D01*
X116312969Y-38854819D02*
X115932017Y-38854819D01*
X115932017Y-38854819D02*
X115836779Y-38902438D01*
X115836779Y-38902438D02*
X115789160Y-38950057D01*
X115789160Y-38950057D02*
X115741541Y-39045295D01*
X115741541Y-39045295D02*
X115741541Y-39188152D01*
X115741541Y-39188152D02*
X115789160Y-39283390D01*
X115789160Y-39283390D02*
X115836779Y-39331009D01*
X115836779Y-39331009D02*
X115932017Y-39378628D01*
X115932017Y-39378628D02*
X116312969Y-39378628D01*
X115408207Y-38854819D02*
X114741541Y-39854819D01*
X114741541Y-38854819D02*
X115408207Y-39854819D01*
D11*
%TO.C,SYM2*%
G36*
X91292440Y-85933347D02*
G01*
X60865358Y-85933347D01*
X60865358Y-82626054D01*
X91292440Y-82626054D01*
X91292440Y-85933347D01*
G37*
G36*
X76851990Y-48505911D02*
G01*
X76876401Y-48515800D01*
X76902166Y-48530826D01*
X76929421Y-48550930D01*
X76958305Y-48576057D01*
X76988955Y-48606150D01*
X77021509Y-48641153D01*
X77056103Y-48681009D01*
X77131964Y-48775055D01*
X77217638Y-48887836D01*
X77314226Y-49018899D01*
X77379794Y-49120286D01*
X77441769Y-49239908D01*
X77500061Y-49377223D01*
X77554584Y-49531692D01*
X77605250Y-49702771D01*
X77651971Y-49889921D01*
X77694658Y-50092598D01*
X77733225Y-50310263D01*
X77767583Y-50542373D01*
X77797645Y-50788388D01*
X77844529Y-51319965D01*
X77873174Y-51900662D01*
X77882879Y-52526149D01*
X77887682Y-53016211D01*
X77902059Y-53457450D01*
X77912822Y-53659735D01*
X77925960Y-53849784D01*
X77941466Y-54027587D01*
X77959335Y-54193134D01*
X77979559Y-54346415D01*
X78002133Y-54487419D01*
X78027051Y-54616136D01*
X78054305Y-54732557D01*
X78083891Y-54836671D01*
X78115801Y-54928468D01*
X78150030Y-55007938D01*
X78186572Y-55075071D01*
X78225419Y-55129858D01*
X78266566Y-55172287D01*
X78310006Y-55202348D01*
X78332585Y-55212738D01*
X78355734Y-55220032D01*
X78379454Y-55224230D01*
X78403743Y-55225329D01*
X78428601Y-55223329D01*
X78454026Y-55218228D01*
X78506578Y-55198720D01*
X78561393Y-55166794D01*
X78618463Y-55122440D01*
X78677784Y-55065648D01*
X78739348Y-54996408D01*
X78803149Y-54914710D01*
X78869181Y-54820543D01*
X78937438Y-54713899D01*
X79007914Y-54594766D01*
X79080602Y-54463134D01*
X79128129Y-54380085D01*
X79182795Y-54294832D01*
X79243955Y-54208007D01*
X79310965Y-54120248D01*
X79383182Y-54032187D01*
X79459961Y-53944460D01*
X79540658Y-53857702D01*
X79624629Y-53772547D01*
X79711230Y-53689630D01*
X79799816Y-53609585D01*
X79889744Y-53533048D01*
X79980369Y-53460652D01*
X80071048Y-53393033D01*
X80161135Y-53330825D01*
X80249988Y-53274664D01*
X80336961Y-53225183D01*
X80474952Y-53152358D01*
X80596045Y-53091540D01*
X80700898Y-53043738D01*
X80790173Y-53009962D01*
X80829175Y-52998649D01*
X80864529Y-52991222D01*
X80896319Y-52987807D01*
X80924627Y-52988530D01*
X80949535Y-52993517D01*
X80971125Y-53002894D01*
X80989481Y-53016789D01*
X81004685Y-53035326D01*
X81016819Y-53058633D01*
X81025966Y-53086835D01*
X81032208Y-53120059D01*
X81035628Y-53158432D01*
X81036308Y-53202078D01*
X81034331Y-53251126D01*
X81022735Y-53365928D01*
X81001499Y-53503849D01*
X80971285Y-53665897D01*
X80886560Y-54066421D01*
X80859234Y-54213047D01*
X80835535Y-54386097D01*
X80799024Y-54802679D01*
X80777031Y-55298588D01*
X80769565Y-55856242D01*
X80776629Y-56458060D01*
X80798232Y-57086463D01*
X80834379Y-57723870D01*
X80885076Y-58352701D01*
X81166170Y-61352372D01*
X82473539Y-60085222D01*
X83780906Y-58818071D01*
X84019599Y-60544626D01*
X84148006Y-61380823D01*
X84321177Y-62381275D01*
X84516422Y-63420377D01*
X84711053Y-64372526D01*
X84783508Y-64703143D01*
X84850831Y-64996132D01*
X84914188Y-65253154D01*
X84944743Y-65368695D01*
X84974743Y-65475866D01*
X85004334Y-65574875D01*
X85033661Y-65665928D01*
X85062870Y-65749235D01*
X85092106Y-65825001D01*
X85121515Y-65893434D01*
X85151242Y-65954741D01*
X85181433Y-66009131D01*
X85212234Y-66056810D01*
X85243790Y-66097986D01*
X85276246Y-66132866D01*
X85309749Y-66161658D01*
X85344443Y-66184569D01*
X85380475Y-66201806D01*
X85417989Y-66213577D01*
X85457132Y-66220090D01*
X85498049Y-66221551D01*
X85540885Y-66218168D01*
X85585786Y-66210149D01*
X85632898Y-66197700D01*
X85682366Y-66181030D01*
X85734336Y-66160345D01*
X85788953Y-66135854D01*
X85846363Y-66107763D01*
X85906711Y-66076280D01*
X86060718Y-65996413D01*
X86213622Y-65921904D01*
X86361417Y-65854384D01*
X86500096Y-65795484D01*
X86564765Y-65769776D01*
X86625653Y-65746834D01*
X86682258Y-65726862D01*
X86734081Y-65710065D01*
X86780619Y-65696646D01*
X86821373Y-65686808D01*
X86855841Y-65680756D01*
X86883523Y-65678693D01*
X86906027Y-65702091D01*
X86925301Y-65770742D01*
X86954203Y-66034556D01*
X86970316Y-66451637D01*
X86973729Y-67003488D01*
X86964530Y-67671611D01*
X86942805Y-68437508D01*
X86908644Y-69282682D01*
X86862133Y-70188634D01*
X86786427Y-71297553D01*
X86688417Y-72328209D01*
X86566606Y-73283812D01*
X86496308Y-73734473D01*
X86419500Y-74167574D01*
X86335994Y-74583518D01*
X86245603Y-74982706D01*
X86148142Y-75365539D01*
X86043422Y-75732418D01*
X85931257Y-76083746D01*
X85811461Y-76419922D01*
X85683846Y-76741349D01*
X85548225Y-77048428D01*
X85404412Y-77341561D01*
X85252220Y-77621148D01*
X85091461Y-77887591D01*
X84921950Y-78141291D01*
X84743499Y-78382650D01*
X84555921Y-78612070D01*
X84359029Y-78829950D01*
X84152637Y-79036694D01*
X83936558Y-79232702D01*
X83710605Y-79418375D01*
X83474590Y-79594116D01*
X83228328Y-79760324D01*
X82971631Y-79917403D01*
X82704313Y-80065752D01*
X82426186Y-80205774D01*
X82137064Y-80337869D01*
X81886301Y-80438615D01*
X81619380Y-80530630D01*
X81340767Y-80613481D01*
X81054922Y-80686745D01*
X80766307Y-80750001D01*
X80479383Y-80802827D01*
X80198611Y-80844800D01*
X79928453Y-80875498D01*
X79673371Y-80894498D01*
X79437825Y-80901380D01*
X79226276Y-80895720D01*
X79043187Y-80877097D01*
X78963709Y-80862792D01*
X78893018Y-80845088D01*
X78831673Y-80823932D01*
X78780231Y-80799271D01*
X78739250Y-80771053D01*
X78709287Y-80739224D01*
X78690901Y-80703733D01*
X78684648Y-80664525D01*
X78691148Y-80631885D01*
X78710218Y-80585636D01*
X78741217Y-80526636D01*
X78783502Y-80455743D01*
X78899361Y-80281713D01*
X79052658Y-80070417D01*
X79238253Y-79828721D01*
X79451009Y-79563495D01*
X79685787Y-79281606D01*
X79937448Y-78989923D01*
X80102973Y-78794527D01*
X80267038Y-78587506D01*
X80588941Y-78143447D01*
X80899462Y-77667454D01*
X81194907Y-77169240D01*
X81471580Y-76658515D01*
X81725787Y-76144989D01*
X81953834Y-75638373D01*
X82152026Y-75148378D01*
X82316669Y-74684714D01*
X82444067Y-74257091D01*
X82530527Y-73875222D01*
X82557251Y-73704479D01*
X82572354Y-73548815D01*
X82575376Y-73409445D01*
X82565853Y-73287582D01*
X82543325Y-73184441D01*
X82507330Y-73101234D01*
X82457405Y-73039176D01*
X82393090Y-72999480D01*
X82313921Y-72983361D01*
X82219438Y-72992032D01*
X82134950Y-73007057D01*
X82059455Y-73013266D01*
X81992248Y-73008545D01*
X81932624Y-72990780D01*
X81905435Y-72976345D01*
X81879877Y-72957856D01*
X81833304Y-72907659D01*
X81792197Y-72838072D01*
X81755852Y-72746983D01*
X81723564Y-72632276D01*
X81694627Y-72491836D01*
X81668337Y-72323549D01*
X81643987Y-72125300D01*
X81598290Y-71630458D01*
X81551893Y-70990392D01*
X81527582Y-70743123D01*
X81511074Y-70635193D01*
X81491887Y-70537599D01*
X81470190Y-70450240D01*
X81446151Y-70373014D01*
X81419938Y-70305821D01*
X81391719Y-70248560D01*
X81361662Y-70201130D01*
X81329935Y-70163431D01*
X81296707Y-70135361D01*
X81262145Y-70116820D01*
X81226418Y-70107707D01*
X81189693Y-70107921D01*
X81152139Y-70117360D01*
X81113924Y-70135926D01*
X81075215Y-70163515D01*
X81036181Y-70200028D01*
X80996990Y-70245364D01*
X80957810Y-70299422D01*
X80918810Y-70362101D01*
X80880156Y-70433300D01*
X80804563Y-70600856D01*
X80732375Y-70801282D01*
X80664938Y-71033773D01*
X80603595Y-71297520D01*
X80549692Y-71591718D01*
X80523379Y-71742428D01*
X80492984Y-71893376D01*
X80458700Y-72044235D01*
X80420716Y-72194674D01*
X80379224Y-72344363D01*
X80334416Y-72492975D01*
X80235612Y-72785643D01*
X80125833Y-73070044D01*
X80006609Y-73343542D01*
X79879468Y-73603501D01*
X79745939Y-73847285D01*
X79677257Y-73962288D01*
X79607551Y-74072259D01*
X79537012Y-74176869D01*
X79465832Y-74275788D01*
X79394202Y-74368687D01*
X79322312Y-74455236D01*
X79250354Y-74535106D01*
X79178519Y-74607967D01*
X79106998Y-74673490D01*
X79035982Y-74731345D01*
X78965663Y-74781204D01*
X78896230Y-74822736D01*
X78827876Y-74855612D01*
X78760792Y-74879503D01*
X78695168Y-74894079D01*
X78631196Y-74899011D01*
X78610332Y-74897307D01*
X78589916Y-74892252D01*
X78569972Y-74883928D01*
X78550520Y-74872419D01*
X78531582Y-74857809D01*
X78513180Y-74840181D01*
X78478071Y-74796206D01*
X78445364Y-74741162D01*
X78415232Y-74675716D01*
X78387850Y-74600537D01*
X78363390Y-74516292D01*
X78342025Y-74423650D01*
X78323927Y-74323279D01*
X78309271Y-74215846D01*
X78298229Y-74102020D01*
X78290973Y-73982468D01*
X78287678Y-73857859D01*
X78288516Y-73728860D01*
X78293661Y-73596139D01*
X78306737Y-73305783D01*
X78316519Y-72979546D01*
X78326036Y-72263829D01*
X78321878Y-71537776D01*
X78314568Y-71198620D01*
X78303716Y-70890176D01*
X78242441Y-69487085D01*
X77618898Y-70990396D01*
X77553470Y-71143535D01*
X77486131Y-71292379D01*
X77417390Y-71436159D01*
X77347755Y-71574104D01*
X77277734Y-71705442D01*
X77207835Y-71829403D01*
X77138568Y-71945216D01*
X77070439Y-72052111D01*
X77003958Y-72149316D01*
X76939632Y-72236062D01*
X76877971Y-72311576D01*
X76848299Y-72344881D01*
X76819483Y-72375089D01*
X76791587Y-72402105D01*
X76764675Y-72425830D01*
X76738810Y-72446170D01*
X76714056Y-72463028D01*
X76690477Y-72476307D01*
X76668135Y-72485912D01*
X76647095Y-72491745D01*
X76627420Y-72493711D01*
X76559679Y-72487103D01*
X76493329Y-72467439D01*
X76428422Y-72434954D01*
X76365011Y-72389886D01*
X76242886Y-72262950D01*
X76127373Y-72088525D01*
X76018891Y-71868509D01*
X75917858Y-71604797D01*
X75824693Y-71299285D01*
X75739817Y-70953870D01*
X75663646Y-70570447D01*
X75596601Y-70150914D01*
X75539101Y-69697165D01*
X75491564Y-69211097D01*
X75454409Y-68694607D01*
X75428056Y-68149590D01*
X75412923Y-67577943D01*
X75409429Y-66981561D01*
X75409259Y-66317195D01*
X75403561Y-65697401D01*
X75392857Y-65135742D01*
X75377666Y-64645785D01*
X75358511Y-64241094D01*
X75335911Y-63935234D01*
X75323482Y-63823605D01*
X75310388Y-63741770D01*
X75296692Y-63691426D01*
X75289639Y-63678593D01*
X75282461Y-63674268D01*
X75264050Y-63681027D01*
X75238093Y-63700860D01*
X75205068Y-63733098D01*
X75165452Y-63777073D01*
X75068359Y-63897563D01*
X74950641Y-64056987D01*
X74816122Y-64250000D01*
X74668625Y-64471259D01*
X74511977Y-64715420D01*
X74350000Y-64977140D01*
X74163099Y-65306770D01*
X73991565Y-65654323D01*
X73835770Y-66017392D01*
X73696086Y-66393569D01*
X73572885Y-66780446D01*
X73466537Y-67175617D01*
X73377416Y-67576673D01*
X73305892Y-67981207D01*
X73252337Y-68386812D01*
X73217124Y-68791079D01*
X73200623Y-69191602D01*
X73203207Y-69585973D01*
X73225247Y-69971784D01*
X73267115Y-70346628D01*
X73329182Y-70708098D01*
X73411821Y-71053785D01*
X73495821Y-71380742D01*
X73555334Y-71663485D01*
X73576041Y-71788282D01*
X73590784Y-71902033D01*
X73599617Y-72004740D01*
X73602592Y-72096406D01*
X73599762Y-72177033D01*
X73591180Y-72246623D01*
X73576899Y-72305180D01*
X73556971Y-72352705D01*
X73531449Y-72389201D01*
X73500386Y-72414671D01*
X73463835Y-72429116D01*
X73421848Y-72432540D01*
X73374479Y-72424945D01*
X73321780Y-72406333D01*
X73263803Y-72376707D01*
X73200602Y-72336069D01*
X73132230Y-72284422D01*
X73058738Y-72221768D01*
X72980181Y-72148110D01*
X72896610Y-72063450D01*
X72714639Y-71861133D01*
X72513248Y-71614839D01*
X72292860Y-71324587D01*
X72053895Y-70990396D01*
X71006620Y-69487085D01*
X71140024Y-71387307D01*
X71159852Y-71685046D01*
X71174748Y-71949570D01*
X71184147Y-72182473D01*
X71186610Y-72287565D01*
X71187487Y-72385350D01*
X71186709Y-72476026D01*
X71184205Y-72559794D01*
X71179906Y-72636851D01*
X71173739Y-72707398D01*
X71165636Y-72771634D01*
X71155525Y-72829758D01*
X71143337Y-72881969D01*
X71129001Y-72928466D01*
X71112447Y-72969449D01*
X71093604Y-73005117D01*
X71072402Y-73035669D01*
X71048771Y-73061304D01*
X71022640Y-73082222D01*
X70993939Y-73098622D01*
X70962598Y-73110703D01*
X70928545Y-73118664D01*
X70891712Y-73122704D01*
X70852028Y-73123024D01*
X70809421Y-73119821D01*
X70763823Y-73113295D01*
X70715162Y-73103646D01*
X70663368Y-73091073D01*
X70608371Y-73075775D01*
X70550100Y-73057950D01*
X70429678Y-73020822D01*
X70325078Y-72991979D01*
X70236188Y-72973001D01*
X70162897Y-72965470D01*
X70132067Y-72966490D01*
X70105095Y-72970965D01*
X70081968Y-72979092D01*
X70062670Y-72991068D01*
X70047189Y-73007091D01*
X70035511Y-73027358D01*
X70027622Y-73052068D01*
X70023507Y-73081417D01*
X70023153Y-73115603D01*
X70026547Y-73154825D01*
X70044519Y-73249162D01*
X70077313Y-73366009D01*
X70124817Y-73506947D01*
X70186920Y-73673557D01*
X70263512Y-73867418D01*
X70459714Y-74343217D01*
X70634875Y-74740994D01*
X70825651Y-75134089D01*
X71030962Y-75521161D01*
X71249725Y-75900867D01*
X71480860Y-76271866D01*
X71723286Y-76632817D01*
X71975920Y-76982377D01*
X72237682Y-77319205D01*
X72507491Y-77641958D01*
X72784264Y-77949296D01*
X73066921Y-78239877D01*
X73354381Y-78512358D01*
X73645561Y-78765398D01*
X73939381Y-78997656D01*
X74234759Y-79207789D01*
X74530614Y-79394456D01*
X74829288Y-79578835D01*
X75079978Y-79751222D01*
X75282684Y-79911623D01*
X75366041Y-79987330D01*
X75437400Y-80060043D01*
X75496762Y-80129761D01*
X75544125Y-80196486D01*
X75579489Y-80260218D01*
X75602854Y-80320958D01*
X75614220Y-80378707D01*
X75613585Y-80433464D01*
X75600951Y-80485231D01*
X75576315Y-80534008D01*
X75539678Y-80579797D01*
X75491040Y-80622596D01*
X75430400Y-80662408D01*
X75357757Y-80699233D01*
X75273111Y-80733071D01*
X75176463Y-80763924D01*
X75067811Y-80791791D01*
X74947154Y-80816673D01*
X74669829Y-80857486D01*
X74344482Y-80886367D01*
X73971112Y-80903323D01*
X73549715Y-80908357D01*
X73083916Y-80890073D01*
X72603206Y-80838366D01*
X72111588Y-80755098D01*
X71613060Y-80642132D01*
X71111623Y-80501331D01*
X70611277Y-80334557D01*
X70116024Y-80143674D01*
X69629863Y-79930543D01*
X69156794Y-79697028D01*
X68700819Y-79444990D01*
X68265937Y-79176294D01*
X67856149Y-78892802D01*
X67475456Y-78596376D01*
X67127857Y-78288879D01*
X66817353Y-77972173D01*
X66677262Y-77810949D01*
X66547945Y-77648122D01*
X66308475Y-77311327D01*
X66083981Y-76954687D01*
X65875093Y-76580603D01*
X65682438Y-76191476D01*
X65506645Y-75789708D01*
X65348344Y-75377701D01*
X65208163Y-74957857D01*
X65086730Y-74532576D01*
X64984676Y-74104261D01*
X64902627Y-73675313D01*
X64841213Y-73248134D01*
X64801064Y-72825125D01*
X64782807Y-72408687D01*
X64787071Y-72001223D01*
X64814485Y-71605134D01*
X64865678Y-71222822D01*
X64909967Y-70965193D01*
X64950950Y-70739286D01*
X64989584Y-70544133D01*
X65008319Y-70457788D01*
X65026824Y-70378769D01*
X65045220Y-70306955D01*
X65063626Y-70242226D01*
X65082162Y-70184460D01*
X65100947Y-70133537D01*
X65120100Y-70089336D01*
X65139740Y-70051736D01*
X65159989Y-70020617D01*
X65180964Y-69995857D01*
X65202786Y-69977335D01*
X65214051Y-69970376D01*
X65225573Y-69964932D01*
X65237366Y-69960986D01*
X65249446Y-69958525D01*
X65261826Y-69957533D01*
X65274523Y-69957995D01*
X65300925Y-69963219D01*
X65328770Y-69974079D01*
X65358179Y-69990452D01*
X65389270Y-70012217D01*
X65422164Y-70039255D01*
X65456979Y-70071444D01*
X65493835Y-70108663D01*
X65532852Y-70150791D01*
X65617845Y-70249293D01*
X65712915Y-70365983D01*
X65803713Y-70476110D01*
X65883439Y-70564361D01*
X65952352Y-70628918D01*
X66010714Y-70667964D01*
X66036020Y-70677351D01*
X66058787Y-70679679D01*
X66079046Y-70674720D01*
X66096831Y-70662247D01*
X66112174Y-70642033D01*
X66125107Y-70613850D01*
X66143878Y-70532669D01*
X66153403Y-70416887D01*
X66153944Y-70264686D01*
X66145762Y-70074248D01*
X66129119Y-69843756D01*
X66071492Y-69255335D01*
X65983152Y-68484880D01*
X65912505Y-67856705D01*
X65853690Y-67259565D01*
X65806735Y-66692843D01*
X65771669Y-66155918D01*
X65748520Y-65648173D01*
X65737316Y-65168989D01*
X65738085Y-64717748D01*
X65750857Y-64293830D01*
X65775659Y-63896618D01*
X65812519Y-63525492D01*
X65861466Y-63179834D01*
X65922528Y-62859025D01*
X65995733Y-62562447D01*
X66081110Y-62289480D01*
X66178687Y-62039508D01*
X66288492Y-61811910D01*
X66347438Y-61704293D01*
X66405428Y-61603542D01*
X66462490Y-61509656D01*
X66518649Y-61422635D01*
X66573930Y-61342476D01*
X66628361Y-61269181D01*
X66681967Y-61202748D01*
X66734775Y-61143177D01*
X66786810Y-61090467D01*
X66838099Y-61044616D01*
X66888667Y-61005625D01*
X66938542Y-60973492D01*
X66987749Y-60948218D01*
X67036313Y-60929801D01*
X67084263Y-60918240D01*
X67131622Y-60913535D01*
X67178419Y-60915686D01*
X67224677Y-60924691D01*
X67270425Y-60940549D01*
X67315688Y-60963261D01*
X67360492Y-60992825D01*
X67404862Y-61029240D01*
X67448827Y-61072506D01*
X67492410Y-61122623D01*
X67535640Y-61179589D01*
X67578541Y-61243404D01*
X67621139Y-61314067D01*
X67663462Y-61391577D01*
X67705535Y-61475934D01*
X67747384Y-61567137D01*
X67789035Y-61665185D01*
X67830514Y-61770078D01*
X67941426Y-62053502D01*
X67988041Y-62163351D01*
X68029816Y-62251438D01*
X68067542Y-62317374D01*
X68085135Y-62341914D01*
X68102011Y-62360770D01*
X68118271Y-62373894D01*
X68134014Y-62381237D01*
X68149337Y-62382751D01*
X68164341Y-62378386D01*
X68179123Y-62368095D01*
X68193782Y-62351828D01*
X68208419Y-62329536D01*
X68223131Y-62301172D01*
X68253176Y-62226031D01*
X68284709Y-62126014D01*
X68318521Y-62000733D01*
X68355403Y-61849798D01*
X68441541Y-61469411D01*
X68585107Y-60830709D01*
X68722130Y-60242439D01*
X68853706Y-59701581D01*
X68980931Y-59205112D01*
X69104902Y-58750010D01*
X69226715Y-58333254D01*
X69347466Y-57951822D01*
X69468252Y-57602692D01*
X69590169Y-57282842D01*
X69714313Y-56989250D01*
X69841780Y-56718895D01*
X69973667Y-56468754D01*
X70111070Y-56235807D01*
X70255085Y-56017030D01*
X70406809Y-55809403D01*
X70567338Y-55609903D01*
X70786966Y-55355354D01*
X70989565Y-55134372D01*
X71084642Y-55036465D01*
X71175658Y-54946943D01*
X71262678Y-54865805D01*
X71345767Y-54793050D01*
X71424992Y-54728674D01*
X71500416Y-54672677D01*
X71572105Y-54625056D01*
X71640126Y-54585809D01*
X71704542Y-54554933D01*
X71765420Y-54532429D01*
X71822824Y-54518292D01*
X71876821Y-54512521D01*
X71927474Y-54515115D01*
X71974850Y-54526071D01*
X72019014Y-54545387D01*
X72060032Y-54573061D01*
X72097968Y-54609092D01*
X72132888Y-54653477D01*
X72164857Y-54706214D01*
X72193940Y-54767302D01*
X72220203Y-54836738D01*
X72243712Y-54914520D01*
X72264531Y-55000647D01*
X72282725Y-55095116D01*
X72298361Y-55197926D01*
X72311503Y-55309074D01*
X72322217Y-55428558D01*
X72330568Y-55556377D01*
X72390634Y-56658807D01*
X72552740Y-55607187D01*
X72578240Y-55489531D01*
X72620660Y-55354516D01*
X72679028Y-55203720D01*
X72752373Y-55038723D01*
X72839723Y-54861105D01*
X72940108Y-54672446D01*
X73052557Y-54474324D01*
X73176096Y-54268320D01*
X73309757Y-54056014D01*
X73452567Y-53838984D01*
X73603555Y-53618812D01*
X73761750Y-53397076D01*
X73926180Y-53175355D01*
X74095875Y-52955231D01*
X74269862Y-52738282D01*
X74447172Y-52526088D01*
X74625109Y-52313499D01*
X74800937Y-52095392D01*
X74973624Y-51873385D01*
X75142136Y-51649098D01*
X75305440Y-51424147D01*
X75462503Y-51200153D01*
X75612291Y-50978734D01*
X75753771Y-50761508D01*
X75885910Y-50550095D01*
X76007675Y-50346113D01*
X76118032Y-50151180D01*
X76215948Y-49966915D01*
X76300390Y-49794938D01*
X76370324Y-49636866D01*
X76424718Y-49494318D01*
X76462537Y-49368913D01*
X76510901Y-49178280D01*
X76554782Y-49012257D01*
X76595279Y-48870392D01*
X76633493Y-48752233D01*
X76652087Y-48701902D01*
X76670522Y-48657329D01*
X76688937Y-48618455D01*
X76707468Y-48585226D01*
X76726253Y-48557585D01*
X76745429Y-48535474D01*
X76765134Y-48518838D01*
X76785505Y-48507620D01*
X76806680Y-48501764D01*
X76828796Y-48501213D01*
X76851990Y-48505911D01*
G37*
%TD*%
G36*
X98746694Y-78669753D02*
G01*
X98929372Y-78677513D01*
X98934625Y-78677848D01*
X99116802Y-78693353D01*
X99122036Y-78693910D01*
X99303434Y-78717139D01*
X99308641Y-78717919D01*
X99488833Y-78748817D01*
X99494000Y-78749816D01*
X99672758Y-78788341D01*
X99677879Y-78789559D01*
X99854821Y-78835631D01*
X99859886Y-78837065D01*
X100034731Y-78890611D01*
X100039730Y-78892259D01*
X100212138Y-78953174D01*
X100217063Y-78955033D01*
X100386718Y-79023206D01*
X100391560Y-79025272D01*
X100558174Y-79100586D01*
X100562923Y-79102855D01*
X100726197Y-79185176D01*
X100730847Y-79187646D01*
X100890476Y-79276821D01*
X100895015Y-79279484D01*
X101050727Y-79375359D01*
X101055150Y-79378214D01*
X101206633Y-79480599D01*
X101210931Y-79483638D01*
X101357938Y-79592364D01*
X101362102Y-79595583D01*
X101504377Y-79710461D01*
X101508402Y-79713855D01*
X101645654Y-79834653D01*
X101649530Y-79838213D01*
X101781541Y-79964735D01*
X101785264Y-79968458D01*
X101911786Y-80100469D01*
X101915346Y-80104345D01*
X102036144Y-80241597D01*
X102039538Y-80245622D01*
X102154416Y-80387897D01*
X102157635Y-80392061D01*
X102266361Y-80539068D01*
X102269400Y-80543366D01*
X102371785Y-80694849D01*
X102374640Y-80699272D01*
X102470515Y-80854984D01*
X102473178Y-80859523D01*
X102562353Y-81019152D01*
X102564823Y-81023802D01*
X102647144Y-81187076D01*
X102649413Y-81191825D01*
X102724727Y-81358439D01*
X102726793Y-81363281D01*
X102794966Y-81532936D01*
X102796825Y-81537861D01*
X102857740Y-81710269D01*
X102859388Y-81715268D01*
X102912934Y-81890113D01*
X102914368Y-81895178D01*
X102960440Y-82072120D01*
X102961658Y-82077241D01*
X103000183Y-82255999D01*
X103001182Y-82261166D01*
X103032080Y-82441358D01*
X103032860Y-82446565D01*
X103056089Y-82627963D01*
X103056646Y-82633197D01*
X103072151Y-82815374D01*
X103072486Y-82820627D01*
X103080247Y-83003306D01*
X103080359Y-83008569D01*
X103080359Y-83191430D01*
X103080247Y-83196693D01*
X103072486Y-83379372D01*
X103072151Y-83384625D01*
X103056646Y-83566802D01*
X103056089Y-83572036D01*
X103032860Y-83753434D01*
X103032080Y-83758641D01*
X103001182Y-83938833D01*
X103000183Y-83944000D01*
X102961658Y-84122758D01*
X102960440Y-84127879D01*
X102914368Y-84304821D01*
X102912934Y-84309886D01*
X102859388Y-84484731D01*
X102857740Y-84489730D01*
X102796825Y-84662138D01*
X102794966Y-84667063D01*
X102726793Y-84836718D01*
X102724727Y-84841560D01*
X102649413Y-85008174D01*
X102647144Y-85012923D01*
X102564823Y-85176197D01*
X102562353Y-85180847D01*
X102473178Y-85340476D01*
X102470515Y-85345015D01*
X102374640Y-85500727D01*
X102371785Y-85505150D01*
X102269400Y-85656633D01*
X102266361Y-85660931D01*
X102157635Y-85807938D01*
X102154416Y-85812102D01*
X102039538Y-85954377D01*
X102036144Y-85958402D01*
X101915346Y-86095654D01*
X101911786Y-86099530D01*
X101785264Y-86231541D01*
X101781541Y-86235264D01*
X101649530Y-86361786D01*
X101645654Y-86365346D01*
X101508402Y-86486144D01*
X101504377Y-86489538D01*
X101362102Y-86604416D01*
X101357938Y-86607635D01*
X101210931Y-86716361D01*
X101206633Y-86719400D01*
X101055150Y-86821785D01*
X101050727Y-86824640D01*
X100895015Y-86920515D01*
X100890476Y-86923178D01*
X100730847Y-87012353D01*
X100726197Y-87014823D01*
X100562923Y-87097144D01*
X100558174Y-87099413D01*
X100391560Y-87174727D01*
X100386718Y-87176793D01*
X100217063Y-87244966D01*
X100212138Y-87246825D01*
X100039730Y-87307740D01*
X100034731Y-87309388D01*
X99859886Y-87362934D01*
X99854821Y-87364368D01*
X99677879Y-87410440D01*
X99672758Y-87411658D01*
X99494000Y-87450183D01*
X99488833Y-87451182D01*
X99308641Y-87482080D01*
X99303434Y-87482860D01*
X99122036Y-87506089D01*
X99116802Y-87506646D01*
X98934625Y-87522151D01*
X98929372Y-87522486D01*
X98746694Y-87530247D01*
X98741431Y-87530359D01*
X98558569Y-87530359D01*
X98553306Y-87530247D01*
X98370627Y-87522486D01*
X98365374Y-87522151D01*
X98183197Y-87506646D01*
X98177963Y-87506089D01*
X97996565Y-87482860D01*
X97991358Y-87482080D01*
X97811166Y-87451182D01*
X97805999Y-87450183D01*
X97627241Y-87411658D01*
X97622120Y-87410440D01*
X97445178Y-87364368D01*
X97440113Y-87362934D01*
X97265268Y-87309388D01*
X97260269Y-87307740D01*
X97087861Y-87246825D01*
X97082936Y-87244966D01*
X96913281Y-87176793D01*
X96908439Y-87174727D01*
X96741825Y-87099413D01*
X96737076Y-87097144D01*
X96573802Y-87014823D01*
X96569152Y-87012353D01*
X96409523Y-86923178D01*
X96404984Y-86920515D01*
X96401510Y-86918376D01*
X97825048Y-86918376D01*
X97951775Y-87045103D01*
X98056754Y-87063104D01*
X98225503Y-87084714D01*
X98394970Y-87099137D01*
X98491540Y-87103240D01*
X98676403Y-86918376D01*
X99097840Y-86918376D01*
X99242645Y-87063181D01*
X99243244Y-87063104D01*
X99410921Y-87034353D01*
X99577192Y-86998519D01*
X99741810Y-86955656D01*
X99904503Y-86905831D01*
X99928259Y-86897437D01*
X99523519Y-86492697D01*
X99097840Y-86918376D01*
X98676403Y-86918376D01*
X98676404Y-86918375D01*
X98250726Y-86492697D01*
X97825048Y-86918376D01*
X96401510Y-86918376D01*
X96249272Y-86824640D01*
X96244849Y-86821785D01*
X96093366Y-86719400D01*
X96089068Y-86716361D01*
X96012309Y-86659590D01*
X96811039Y-86659590D01*
X96922283Y-86715678D01*
X97077280Y-86785742D01*
X97235134Y-86849173D01*
X97388649Y-86903412D01*
X96977933Y-86492696D01*
X96811039Y-86659590D01*
X96012309Y-86659590D01*
X95942061Y-86607635D01*
X95937897Y-86604416D01*
X95795622Y-86489538D01*
X95791597Y-86486144D01*
X95654345Y-86365346D01*
X95650469Y-86361786D01*
X95518458Y-86235264D01*
X95514735Y-86231541D01*
X95434971Y-86148317D01*
X96049520Y-86148317D01*
X96066936Y-86163646D01*
X96199307Y-86270527D01*
X96336072Y-86371678D01*
X96477012Y-86466937D01*
X96542150Y-86507044D01*
X96767215Y-86281980D01*
X97188651Y-86281980D01*
X97614330Y-86707658D01*
X98040009Y-86281980D01*
X98461444Y-86281980D01*
X98887122Y-86707658D01*
X99312801Y-86281980D01*
X99734236Y-86281980D01*
X100159915Y-86707659D01*
X100585594Y-86281980D01*
X101007028Y-86281980D01*
X101040266Y-86315218D01*
X101100691Y-86270527D01*
X101233062Y-86163646D01*
X101360737Y-86051277D01*
X101483560Y-85933561D01*
X101496483Y-85920077D01*
X101432707Y-85856301D01*
X101007028Y-86281980D01*
X100585594Y-86281980D01*
X100159915Y-85856301D01*
X99734236Y-86281980D01*
X99312801Y-86281980D01*
X98887122Y-85856301D01*
X98461444Y-86281980D01*
X98040009Y-86281980D01*
X97614330Y-85856301D01*
X97188651Y-86281980D01*
X96767215Y-86281980D01*
X96767216Y-86281979D01*
X96341537Y-85856300D01*
X96049520Y-86148317D01*
X95434971Y-86148317D01*
X95388213Y-86099530D01*
X95384653Y-86095654D01*
X95263855Y-85958402D01*
X95260461Y-85954377D01*
X95145583Y-85812102D01*
X95142364Y-85807938D01*
X95033638Y-85660931D01*
X95030599Y-85656633D01*
X94928214Y-85505150D01*
X94925359Y-85500727D01*
X94918917Y-85490265D01*
X95434780Y-85490265D01*
X95479471Y-85550691D01*
X95586352Y-85683062D01*
X95698721Y-85810737D01*
X95816437Y-85933560D01*
X95829920Y-85946482D01*
X96130820Y-85645583D01*
X96552255Y-85645583D01*
X96977934Y-86071262D01*
X97403612Y-85645583D01*
X97825048Y-85645583D01*
X98250726Y-86071262D01*
X98676405Y-85645583D01*
X99097840Y-85645583D01*
X99523519Y-86071262D01*
X99949197Y-85645583D01*
X100370632Y-85645583D01*
X100796311Y-86071262D01*
X101221988Y-85645584D01*
X101643424Y-85645584D01*
X101698318Y-85700478D01*
X101713646Y-85683061D01*
X101820527Y-85550691D01*
X101921678Y-85413926D01*
X102016937Y-85272986D01*
X102018406Y-85270601D01*
X101643424Y-85645584D01*
X101221988Y-85645584D01*
X101221989Y-85645583D01*
X100796311Y-85219905D01*
X100370632Y-85645583D01*
X99949197Y-85645583D01*
X99523519Y-85219905D01*
X99097840Y-85645583D01*
X98676405Y-85645583D01*
X98250726Y-85219905D01*
X97825048Y-85645583D01*
X97403612Y-85645583D01*
X96977934Y-85219905D01*
X96552255Y-85645583D01*
X96130820Y-85645583D01*
X95705141Y-85219904D01*
X95434780Y-85490265D01*
X94918917Y-85490265D01*
X94829484Y-85345015D01*
X94826821Y-85340476D01*
X94737646Y-85180847D01*
X94735176Y-85176197D01*
X94652855Y-85012923D01*
X94650586Y-85008174D01*
X94575272Y-84841560D01*
X94573206Y-84836718D01*
X94511534Y-84683241D01*
X94969013Y-84683241D01*
X95034320Y-84827715D01*
X95110915Y-84979634D01*
X95193877Y-85128141D01*
X95263078Y-85240531D01*
X95494424Y-85009187D01*
X95915859Y-85009187D01*
X96341538Y-85434866D01*
X96767216Y-85009187D01*
X97188651Y-85009187D01*
X97614330Y-85434866D01*
X98040008Y-85009187D01*
X98461444Y-85009187D01*
X98887122Y-85434866D01*
X99312801Y-85009187D01*
X99734236Y-85009187D01*
X100159915Y-85434866D01*
X100585593Y-85009187D01*
X101007028Y-85009187D01*
X101432707Y-85434866D01*
X101858385Y-85009187D01*
X101432707Y-84583509D01*
X101007028Y-85009187D01*
X100585593Y-85009187D01*
X100159915Y-84583509D01*
X99734236Y-85009187D01*
X99312801Y-85009187D01*
X98887122Y-84583509D01*
X98461444Y-85009187D01*
X98040008Y-85009187D01*
X97614330Y-84583509D01*
X97188651Y-85009187D01*
X96767216Y-85009187D01*
X96341538Y-84583509D01*
X95915859Y-85009187D01*
X95494424Y-85009187D01*
X95068746Y-84583509D01*
X94969013Y-84683241D01*
X94511534Y-84683241D01*
X94505033Y-84667063D01*
X94503174Y-84662138D01*
X94442259Y-84489730D01*
X94440611Y-84484731D01*
X94406330Y-84372791D01*
X95279463Y-84372791D01*
X95705142Y-84798470D01*
X96130820Y-84372791D01*
X96552255Y-84372791D01*
X96977934Y-84798469D01*
X97403612Y-84372791D01*
X97825048Y-84372791D01*
X98250726Y-84798469D01*
X98676405Y-84372791D01*
X99097840Y-84372791D01*
X99523519Y-84798470D01*
X99949197Y-84372791D01*
X100370632Y-84372791D01*
X100796311Y-84798470D01*
X101221989Y-84372791D01*
X101643424Y-84372791D01*
X102069102Y-84798469D01*
X102424558Y-84443013D01*
X102455835Y-84354490D01*
X102460675Y-84338685D01*
X102069103Y-83947112D01*
X101643424Y-84372791D01*
X101221989Y-84372791D01*
X100796311Y-83947112D01*
X100370632Y-84372791D01*
X99949197Y-84372791D01*
X99523519Y-83947112D01*
X99097840Y-84372791D01*
X98676405Y-84372791D01*
X98250726Y-83947112D01*
X97825048Y-84372791D01*
X97403612Y-84372791D01*
X96977934Y-83947112D01*
X96552255Y-84372791D01*
X96130820Y-84372791D01*
X95705142Y-83947112D01*
X95279463Y-84372791D01*
X94406330Y-84372791D01*
X94387065Y-84309886D01*
X94385631Y-84304821D01*
X94339559Y-84127879D01*
X94338341Y-84122758D01*
X94299816Y-83944000D01*
X94298817Y-83938833D01*
X94267919Y-83758641D01*
X94267139Y-83753434D01*
X94259355Y-83692644D01*
X94686816Y-83692644D01*
X94686891Y-83693230D01*
X94704894Y-83798222D01*
X95068746Y-84162074D01*
X95494424Y-83736395D01*
X95915859Y-83736395D01*
X96341538Y-84162074D01*
X96767216Y-83736395D01*
X97188651Y-83736395D01*
X97614330Y-84162073D01*
X98040008Y-83736395D01*
X98461444Y-83736395D01*
X98887122Y-84162073D01*
X99312801Y-83736395D01*
X99734236Y-83736395D01*
X100159915Y-84162074D01*
X100585593Y-83736395D01*
X101007028Y-83736395D01*
X101432707Y-84162074D01*
X101858385Y-83736395D01*
X102279820Y-83736395D01*
X102552437Y-84009012D01*
X102584353Y-83860921D01*
X102613104Y-83693244D01*
X102634714Y-83524495D01*
X102648016Y-83368199D01*
X102279820Y-83736395D01*
X101858385Y-83736395D01*
X101432707Y-83310716D01*
X101007028Y-83736395D01*
X100585593Y-83736395D01*
X100159915Y-83310716D01*
X99734236Y-83736395D01*
X99312801Y-83736395D01*
X98887122Y-83310716D01*
X98461444Y-83736395D01*
X98040008Y-83736395D01*
X97614330Y-83310716D01*
X97188651Y-83736395D01*
X96767216Y-83736395D01*
X96341538Y-83310716D01*
X95915859Y-83736395D01*
X95494424Y-83736395D01*
X95068745Y-83310716D01*
X94686816Y-83692644D01*
X94259355Y-83692644D01*
X94243910Y-83572036D01*
X94243353Y-83566802D01*
X94227848Y-83384625D01*
X94227513Y-83379372D01*
X94219738Y-83196358D01*
X94219628Y-83191752D01*
X94219145Y-83100657D01*
X94219145Y-83099999D01*
X94643147Y-83099999D01*
X94643592Y-83183927D01*
X94648910Y-83309115D01*
X94858027Y-83099999D01*
X95279463Y-83099999D01*
X95705142Y-83525678D01*
X96130820Y-83099999D01*
X96552255Y-83099999D01*
X96977934Y-83525677D01*
X97403612Y-83099999D01*
X97825048Y-83099999D01*
X98250726Y-83525677D01*
X98676405Y-83099999D01*
X99097840Y-83099999D01*
X99523519Y-83525678D01*
X99949197Y-83099999D01*
X100370632Y-83099999D01*
X100796311Y-83525678D01*
X101221989Y-83099999D01*
X101643424Y-83099999D01*
X102069103Y-83525678D01*
X102494781Y-83099999D01*
X102069103Y-82674320D01*
X101643424Y-83099999D01*
X101221989Y-83099999D01*
X100796311Y-82674320D01*
X100370632Y-83099999D01*
X99949197Y-83099999D01*
X99523519Y-82674320D01*
X99097840Y-83099999D01*
X98676405Y-83099999D01*
X98250726Y-82674320D01*
X97825048Y-83099999D01*
X97403612Y-83099999D01*
X96977934Y-82674320D01*
X96552255Y-83099999D01*
X96130820Y-83099999D01*
X95705142Y-82674320D01*
X95279463Y-83099999D01*
X94858027Y-83099999D01*
X94858028Y-83099998D01*
X94648910Y-82890881D01*
X94643592Y-83016071D01*
X94643147Y-83099999D01*
X94219145Y-83099999D01*
X94219145Y-83099343D01*
X94219628Y-83008247D01*
X94219738Y-83003641D01*
X94227513Y-82820627D01*
X94227848Y-82815374D01*
X94243353Y-82633197D01*
X94243910Y-82627963D01*
X94259355Y-82507352D01*
X94686816Y-82507352D01*
X95068746Y-82889282D01*
X95494425Y-82463603D01*
X95915859Y-82463603D01*
X96341538Y-82889282D01*
X96767217Y-82463603D01*
X97188651Y-82463603D01*
X97614330Y-82889281D01*
X98040009Y-82463603D01*
X98461444Y-82463603D01*
X98887122Y-82889281D01*
X99312801Y-82463603D01*
X99734236Y-82463603D01*
X100159915Y-82889282D01*
X100585594Y-82463603D01*
X101007028Y-82463603D01*
X101432707Y-82889282D01*
X101858386Y-82463603D01*
X101858385Y-82463602D01*
X102279820Y-82463602D01*
X102648016Y-82831799D01*
X102634714Y-82675503D01*
X102613104Y-82506754D01*
X102584353Y-82339077D01*
X102552437Y-82190985D01*
X102279820Y-82463602D01*
X101858385Y-82463602D01*
X101432707Y-82037924D01*
X101007028Y-82463603D01*
X100585594Y-82463603D01*
X100159915Y-82037924D01*
X99734236Y-82463603D01*
X99312801Y-82463603D01*
X98887122Y-82037924D01*
X98461444Y-82463603D01*
X98040009Y-82463603D01*
X97614330Y-82037924D01*
X97188651Y-82463603D01*
X96767217Y-82463603D01*
X96341538Y-82037924D01*
X95915859Y-82463603D01*
X95494425Y-82463603D01*
X95068745Y-82037923D01*
X94704894Y-82401774D01*
X94686891Y-82506768D01*
X94686816Y-82507352D01*
X94259355Y-82507352D01*
X94267139Y-82446565D01*
X94267919Y-82441358D01*
X94298817Y-82261166D01*
X94299816Y-82255999D01*
X94338341Y-82077241D01*
X94339559Y-82072120D01*
X94385631Y-81895178D01*
X94387065Y-81890113D01*
X94406330Y-81827207D01*
X95279463Y-81827207D01*
X95705142Y-82252886D01*
X96130821Y-81827207D01*
X96552255Y-81827207D01*
X96977934Y-82252885D01*
X97403613Y-81827207D01*
X97825048Y-81827207D01*
X98250726Y-82252885D01*
X98676405Y-81827207D01*
X99097840Y-81827207D01*
X99523519Y-82252886D01*
X99949198Y-81827207D01*
X100370632Y-81827207D01*
X100796311Y-82252886D01*
X101221990Y-81827207D01*
X101643424Y-81827207D01*
X102069102Y-82252885D01*
X102460675Y-81861312D01*
X102455831Y-81845494D01*
X102424558Y-81756983D01*
X102069103Y-81401528D01*
X101643424Y-81827207D01*
X101221990Y-81827207D01*
X100796311Y-81401528D01*
X100370632Y-81827207D01*
X99949198Y-81827207D01*
X99523519Y-81401528D01*
X99097840Y-81827207D01*
X98676405Y-81827207D01*
X98250726Y-81401528D01*
X97825048Y-81827207D01*
X97403613Y-81827207D01*
X96977934Y-81401528D01*
X96552255Y-81827207D01*
X96130821Y-81827207D01*
X95705142Y-81401528D01*
X95279463Y-81827207D01*
X94406330Y-81827207D01*
X94440611Y-81715268D01*
X94442259Y-81710269D01*
X94503174Y-81537861D01*
X94505033Y-81532936D01*
X94511534Y-81516757D01*
X94969013Y-81516757D01*
X95068746Y-81616490D01*
X95494425Y-81190811D01*
X95915859Y-81190811D01*
X96341538Y-81616490D01*
X96767217Y-81190811D01*
X97188651Y-81190811D01*
X97614330Y-81616489D01*
X98040009Y-81190811D01*
X98461444Y-81190811D01*
X98887122Y-81616489D01*
X99312801Y-81190811D01*
X99734236Y-81190811D01*
X100159915Y-81616490D01*
X100585594Y-81190811D01*
X101007028Y-81190811D01*
X101432707Y-81616490D01*
X101858386Y-81190811D01*
X101432707Y-80765132D01*
X101007028Y-81190811D01*
X100585594Y-81190811D01*
X100159915Y-80765132D01*
X99734236Y-81190811D01*
X99312801Y-81190811D01*
X98887122Y-80765132D01*
X98461444Y-81190811D01*
X98040009Y-81190811D01*
X97614330Y-80765132D01*
X97188651Y-81190811D01*
X96767217Y-81190811D01*
X96341538Y-80765132D01*
X95915859Y-81190811D01*
X95494425Y-81190811D01*
X95263079Y-80959465D01*
X95193877Y-81071857D01*
X95110915Y-81220364D01*
X95034320Y-81372283D01*
X94969013Y-81516757D01*
X94511534Y-81516757D01*
X94573206Y-81363281D01*
X94575272Y-81358439D01*
X94650586Y-81191825D01*
X94652855Y-81187076D01*
X94735176Y-81023802D01*
X94737646Y-81019152D01*
X94826821Y-80859523D01*
X94829484Y-80854984D01*
X94918919Y-80709732D01*
X95434780Y-80709732D01*
X95705142Y-80980094D01*
X96130821Y-80554415D01*
X96552255Y-80554415D01*
X96977934Y-80980093D01*
X97403613Y-80554415D01*
X97825048Y-80554415D01*
X98250726Y-80980093D01*
X98676405Y-80554415D01*
X99097840Y-80554415D01*
X99523519Y-80980094D01*
X99949198Y-80554415D01*
X100370632Y-80554415D01*
X100796311Y-80980094D01*
X101221990Y-80554415D01*
X101221989Y-80554414D01*
X101643423Y-80554414D01*
X102018406Y-80929397D01*
X102016937Y-80927012D01*
X101921678Y-80786072D01*
X101820527Y-80649307D01*
X101713646Y-80516936D01*
X101698317Y-80499520D01*
X101643423Y-80554414D01*
X101221989Y-80554414D01*
X100796311Y-80128736D01*
X100370632Y-80554415D01*
X99949198Y-80554415D01*
X99523519Y-80128736D01*
X99097840Y-80554415D01*
X98676405Y-80554415D01*
X98250726Y-80128736D01*
X97825048Y-80554415D01*
X97403613Y-80554415D01*
X96977934Y-80128736D01*
X96552255Y-80554415D01*
X96130821Y-80554415D01*
X95829921Y-80253515D01*
X95816438Y-80266437D01*
X95698721Y-80389261D01*
X95586352Y-80516936D01*
X95479471Y-80649307D01*
X95434780Y-80709732D01*
X94918919Y-80709732D01*
X94925359Y-80699272D01*
X94928214Y-80694849D01*
X95030599Y-80543366D01*
X95033638Y-80539068D01*
X95142364Y-80392061D01*
X95145583Y-80387897D01*
X95260461Y-80245622D01*
X95263855Y-80241597D01*
X95384653Y-80104345D01*
X95388213Y-80100469D01*
X95434973Y-80051680D01*
X96049520Y-80051680D01*
X96341538Y-80343698D01*
X96767217Y-79918019D01*
X97188651Y-79918019D01*
X97614330Y-80343697D01*
X98040009Y-79918019D01*
X98461444Y-79918019D01*
X98887122Y-80343697D01*
X99312801Y-79918019D01*
X99734236Y-79918019D01*
X100159915Y-80343698D01*
X100585594Y-79918019D01*
X100585593Y-79918018D01*
X101007027Y-79918018D01*
X101432706Y-80343697D01*
X101496482Y-80279920D01*
X101483560Y-80266437D01*
X101360737Y-80148721D01*
X101233062Y-80036352D01*
X101100691Y-79929471D01*
X101040265Y-79884780D01*
X101007027Y-79918018D01*
X100585593Y-79918018D01*
X100159915Y-79492340D01*
X99734236Y-79918019D01*
X99312801Y-79918019D01*
X98887122Y-79492340D01*
X98461444Y-79918019D01*
X98040009Y-79918019D01*
X97614330Y-79492340D01*
X97188651Y-79918019D01*
X96767217Y-79918019D01*
X96542151Y-79692953D01*
X96477012Y-79733061D01*
X96336072Y-79828320D01*
X96199307Y-79929471D01*
X96066938Y-80036351D01*
X96049520Y-80051680D01*
X95434973Y-80051680D01*
X95514735Y-79968458D01*
X95518458Y-79964735D01*
X95650469Y-79838213D01*
X95654345Y-79834653D01*
X95791597Y-79713855D01*
X95795622Y-79710461D01*
X95937897Y-79595583D01*
X95942061Y-79592364D01*
X96012311Y-79540407D01*
X96811040Y-79540407D01*
X96977934Y-79707301D01*
X97388649Y-79296586D01*
X97235134Y-79350825D01*
X97077280Y-79414256D01*
X96922283Y-79484320D01*
X96811040Y-79540407D01*
X96012311Y-79540407D01*
X96089068Y-79483638D01*
X96093366Y-79480599D01*
X96244849Y-79378214D01*
X96249272Y-79375359D01*
X96401510Y-79281623D01*
X97825048Y-79281623D01*
X98250726Y-79707301D01*
X98676405Y-79281623D01*
X99097840Y-79281623D01*
X99523519Y-79707301D01*
X99928260Y-79302560D01*
X99904511Y-79294170D01*
X99741810Y-79244342D01*
X99577192Y-79201479D01*
X99410921Y-79165645D01*
X99243226Y-79136891D01*
X99242645Y-79136816D01*
X99097840Y-79281623D01*
X98676405Y-79281623D01*
X98491540Y-79096758D01*
X98394970Y-79100861D01*
X98225503Y-79115284D01*
X98056750Y-79136894D01*
X97951776Y-79154894D01*
X97825048Y-79281623D01*
X96401510Y-79281623D01*
X96404984Y-79279484D01*
X96409523Y-79276821D01*
X96569152Y-79187646D01*
X96573802Y-79185176D01*
X96737076Y-79102855D01*
X96741825Y-79100586D01*
X96908439Y-79025272D01*
X96913281Y-79023206D01*
X97082936Y-78955033D01*
X97087861Y-78953174D01*
X97260269Y-78892259D01*
X97265268Y-78890611D01*
X97440113Y-78837065D01*
X97445178Y-78835631D01*
X97622120Y-78789559D01*
X97627241Y-78788341D01*
X97805999Y-78749816D01*
X97811166Y-78748817D01*
X97991358Y-78717919D01*
X97996565Y-78717139D01*
X98177963Y-78693910D01*
X98183197Y-78693353D01*
X98365374Y-78677848D01*
X98370627Y-78677513D01*
X98553306Y-78669753D01*
X98558569Y-78669641D01*
X98741431Y-78669641D01*
X98746694Y-78669753D01*
G37*
G36*
X98746694Y-46669753D02*
G01*
X98929372Y-46677513D01*
X98934625Y-46677848D01*
X99116802Y-46693353D01*
X99122036Y-46693910D01*
X99303434Y-46717139D01*
X99308641Y-46717919D01*
X99488833Y-46748817D01*
X99494000Y-46749816D01*
X99672758Y-46788341D01*
X99677879Y-46789559D01*
X99854821Y-46835631D01*
X99859886Y-46837065D01*
X100034731Y-46890611D01*
X100039730Y-46892259D01*
X100212138Y-46953174D01*
X100217063Y-46955033D01*
X100386718Y-47023206D01*
X100391560Y-47025272D01*
X100558174Y-47100586D01*
X100562923Y-47102855D01*
X100726197Y-47185176D01*
X100730847Y-47187646D01*
X100890476Y-47276821D01*
X100895015Y-47279484D01*
X101050727Y-47375359D01*
X101055150Y-47378214D01*
X101206633Y-47480599D01*
X101210931Y-47483638D01*
X101357938Y-47592364D01*
X101362102Y-47595583D01*
X101504377Y-47710461D01*
X101508402Y-47713855D01*
X101645654Y-47834653D01*
X101649530Y-47838213D01*
X101781541Y-47964735D01*
X101785264Y-47968458D01*
X101911786Y-48100469D01*
X101915346Y-48104345D01*
X102036144Y-48241597D01*
X102039538Y-48245622D01*
X102154416Y-48387897D01*
X102157635Y-48392061D01*
X102266361Y-48539068D01*
X102269400Y-48543366D01*
X102371785Y-48694849D01*
X102374640Y-48699272D01*
X102470515Y-48854984D01*
X102473178Y-48859523D01*
X102562353Y-49019152D01*
X102564823Y-49023802D01*
X102647144Y-49187076D01*
X102649413Y-49191825D01*
X102724727Y-49358439D01*
X102726793Y-49363281D01*
X102794966Y-49532936D01*
X102796825Y-49537861D01*
X102857740Y-49710269D01*
X102859388Y-49715268D01*
X102912934Y-49890113D01*
X102914368Y-49895178D01*
X102960440Y-50072120D01*
X102961658Y-50077241D01*
X103000183Y-50255999D01*
X103001182Y-50261166D01*
X103032080Y-50441358D01*
X103032860Y-50446565D01*
X103056089Y-50627963D01*
X103056646Y-50633197D01*
X103072151Y-50815374D01*
X103072486Y-50820627D01*
X103080247Y-51003306D01*
X103080359Y-51008569D01*
X103080359Y-51191430D01*
X103080247Y-51196693D01*
X103072486Y-51379372D01*
X103072151Y-51384625D01*
X103056646Y-51566802D01*
X103056089Y-51572036D01*
X103032860Y-51753434D01*
X103032080Y-51758641D01*
X103001182Y-51938833D01*
X103000183Y-51944000D01*
X102961658Y-52122758D01*
X102960440Y-52127879D01*
X102914368Y-52304821D01*
X102912934Y-52309886D01*
X102859388Y-52484731D01*
X102857740Y-52489730D01*
X102796825Y-52662138D01*
X102794966Y-52667063D01*
X102726793Y-52836718D01*
X102724727Y-52841560D01*
X102649413Y-53008174D01*
X102647144Y-53012923D01*
X102564823Y-53176197D01*
X102562353Y-53180847D01*
X102473178Y-53340476D01*
X102470515Y-53345015D01*
X102374640Y-53500727D01*
X102371785Y-53505150D01*
X102269400Y-53656633D01*
X102266361Y-53660931D01*
X102157635Y-53807938D01*
X102154416Y-53812102D01*
X102039538Y-53954377D01*
X102036144Y-53958402D01*
X101915346Y-54095654D01*
X101911786Y-54099530D01*
X101785264Y-54231541D01*
X101781541Y-54235264D01*
X101649530Y-54361786D01*
X101645654Y-54365346D01*
X101508402Y-54486144D01*
X101504377Y-54489538D01*
X101362102Y-54604416D01*
X101357938Y-54607635D01*
X101210931Y-54716361D01*
X101206633Y-54719400D01*
X101055150Y-54821785D01*
X101050727Y-54824640D01*
X100895015Y-54920515D01*
X100890476Y-54923178D01*
X100730847Y-55012353D01*
X100726197Y-55014823D01*
X100562923Y-55097144D01*
X100558174Y-55099413D01*
X100391560Y-55174727D01*
X100386718Y-55176793D01*
X100217063Y-55244966D01*
X100212138Y-55246825D01*
X100039730Y-55307740D01*
X100034731Y-55309388D01*
X99859886Y-55362934D01*
X99854821Y-55364368D01*
X99677879Y-55410440D01*
X99672758Y-55411658D01*
X99494000Y-55450183D01*
X99488833Y-55451182D01*
X99308641Y-55482080D01*
X99303434Y-55482860D01*
X99122036Y-55506089D01*
X99116802Y-55506646D01*
X98934625Y-55522151D01*
X98929372Y-55522486D01*
X98746694Y-55530247D01*
X98741431Y-55530359D01*
X98558569Y-55530359D01*
X98553306Y-55530247D01*
X98370627Y-55522486D01*
X98365374Y-55522151D01*
X98183197Y-55506646D01*
X98177963Y-55506089D01*
X97996565Y-55482860D01*
X97991358Y-55482080D01*
X97811166Y-55451182D01*
X97805999Y-55450183D01*
X97627241Y-55411658D01*
X97622120Y-55410440D01*
X97445178Y-55364368D01*
X97440113Y-55362934D01*
X97265268Y-55309388D01*
X97260269Y-55307740D01*
X97087861Y-55246825D01*
X97082936Y-55244966D01*
X96913281Y-55176793D01*
X96908439Y-55174727D01*
X96741825Y-55099413D01*
X96737076Y-55097144D01*
X96573802Y-55014823D01*
X96569152Y-55012353D01*
X96409523Y-54923178D01*
X96404984Y-54920515D01*
X96401510Y-54918376D01*
X97825048Y-54918376D01*
X97951775Y-55045103D01*
X98056754Y-55063104D01*
X98225503Y-55084714D01*
X98394970Y-55099137D01*
X98491540Y-55103240D01*
X98676403Y-54918376D01*
X99097840Y-54918376D01*
X99242645Y-55063181D01*
X99243244Y-55063104D01*
X99410921Y-55034353D01*
X99577192Y-54998519D01*
X99741810Y-54955656D01*
X99904503Y-54905831D01*
X99928259Y-54897437D01*
X99523519Y-54492697D01*
X99097840Y-54918376D01*
X98676403Y-54918376D01*
X98676404Y-54918375D01*
X98250726Y-54492697D01*
X97825048Y-54918376D01*
X96401510Y-54918376D01*
X96249272Y-54824640D01*
X96244849Y-54821785D01*
X96093366Y-54719400D01*
X96089068Y-54716361D01*
X96012309Y-54659590D01*
X96811039Y-54659590D01*
X96922283Y-54715678D01*
X97077280Y-54785742D01*
X97235134Y-54849173D01*
X97388649Y-54903412D01*
X96977933Y-54492696D01*
X96811039Y-54659590D01*
X96012309Y-54659590D01*
X95942061Y-54607635D01*
X95937897Y-54604416D01*
X95795622Y-54489538D01*
X95791597Y-54486144D01*
X95654345Y-54365346D01*
X95650469Y-54361786D01*
X95518458Y-54235264D01*
X95514735Y-54231541D01*
X95434971Y-54148317D01*
X96049520Y-54148317D01*
X96066936Y-54163646D01*
X96199307Y-54270527D01*
X96336072Y-54371678D01*
X96477012Y-54466937D01*
X96542150Y-54507044D01*
X96767215Y-54281980D01*
X97188651Y-54281980D01*
X97614330Y-54707658D01*
X98040009Y-54281980D01*
X98461444Y-54281980D01*
X98887122Y-54707658D01*
X99312801Y-54281980D01*
X99734236Y-54281980D01*
X100159915Y-54707659D01*
X100585594Y-54281980D01*
X101007028Y-54281980D01*
X101040266Y-54315218D01*
X101100691Y-54270527D01*
X101233062Y-54163646D01*
X101360737Y-54051277D01*
X101483560Y-53933561D01*
X101496483Y-53920077D01*
X101432707Y-53856301D01*
X101007028Y-54281980D01*
X100585594Y-54281980D01*
X100159915Y-53856301D01*
X99734236Y-54281980D01*
X99312801Y-54281980D01*
X98887122Y-53856301D01*
X98461444Y-54281980D01*
X98040009Y-54281980D01*
X97614330Y-53856301D01*
X97188651Y-54281980D01*
X96767215Y-54281980D01*
X96767216Y-54281979D01*
X96341537Y-53856300D01*
X96049520Y-54148317D01*
X95434971Y-54148317D01*
X95388213Y-54099530D01*
X95384653Y-54095654D01*
X95263855Y-53958402D01*
X95260461Y-53954377D01*
X95145583Y-53812102D01*
X95142364Y-53807938D01*
X95033638Y-53660931D01*
X95030599Y-53656633D01*
X94928214Y-53505150D01*
X94925359Y-53500727D01*
X94918917Y-53490265D01*
X95434780Y-53490265D01*
X95479471Y-53550691D01*
X95586352Y-53683062D01*
X95698721Y-53810737D01*
X95816437Y-53933560D01*
X95829920Y-53946482D01*
X96130820Y-53645583D01*
X96552255Y-53645583D01*
X96977934Y-54071262D01*
X97403612Y-53645583D01*
X97825048Y-53645583D01*
X98250726Y-54071262D01*
X98676405Y-53645583D01*
X99097840Y-53645583D01*
X99523519Y-54071262D01*
X99949197Y-53645583D01*
X100370632Y-53645583D01*
X100796311Y-54071262D01*
X101221988Y-53645584D01*
X101643424Y-53645584D01*
X101698318Y-53700478D01*
X101713646Y-53683061D01*
X101820527Y-53550691D01*
X101921678Y-53413926D01*
X102016937Y-53272986D01*
X102018406Y-53270601D01*
X101643424Y-53645584D01*
X101221988Y-53645584D01*
X101221989Y-53645583D01*
X100796311Y-53219905D01*
X100370632Y-53645583D01*
X99949197Y-53645583D01*
X99523519Y-53219905D01*
X99097840Y-53645583D01*
X98676405Y-53645583D01*
X98250726Y-53219905D01*
X97825048Y-53645583D01*
X97403612Y-53645583D01*
X96977934Y-53219905D01*
X96552255Y-53645583D01*
X96130820Y-53645583D01*
X95705141Y-53219904D01*
X95434780Y-53490265D01*
X94918917Y-53490265D01*
X94829484Y-53345015D01*
X94826821Y-53340476D01*
X94737646Y-53180847D01*
X94735176Y-53176197D01*
X94652855Y-53012923D01*
X94650586Y-53008174D01*
X94575272Y-52841560D01*
X94573206Y-52836718D01*
X94511534Y-52683241D01*
X94969013Y-52683241D01*
X95034320Y-52827715D01*
X95110915Y-52979634D01*
X95193877Y-53128141D01*
X95263078Y-53240531D01*
X95494424Y-53009187D01*
X95915859Y-53009187D01*
X96341538Y-53434866D01*
X96767216Y-53009187D01*
X97188651Y-53009187D01*
X97614330Y-53434866D01*
X98040008Y-53009187D01*
X98461444Y-53009187D01*
X98887122Y-53434866D01*
X99312801Y-53009187D01*
X99734236Y-53009187D01*
X100159915Y-53434866D01*
X100585593Y-53009187D01*
X101007028Y-53009187D01*
X101432707Y-53434866D01*
X101858385Y-53009187D01*
X101432707Y-52583509D01*
X101007028Y-53009187D01*
X100585593Y-53009187D01*
X100159915Y-52583509D01*
X99734236Y-53009187D01*
X99312801Y-53009187D01*
X98887122Y-52583509D01*
X98461444Y-53009187D01*
X98040008Y-53009187D01*
X97614330Y-52583509D01*
X97188651Y-53009187D01*
X96767216Y-53009187D01*
X96341538Y-52583509D01*
X95915859Y-53009187D01*
X95494424Y-53009187D01*
X95068746Y-52583509D01*
X94969013Y-52683241D01*
X94511534Y-52683241D01*
X94505033Y-52667063D01*
X94503174Y-52662138D01*
X94442259Y-52489730D01*
X94440611Y-52484731D01*
X94406330Y-52372791D01*
X95279463Y-52372791D01*
X95705142Y-52798470D01*
X96130820Y-52372791D01*
X96552255Y-52372791D01*
X96977934Y-52798469D01*
X97403612Y-52372791D01*
X97825048Y-52372791D01*
X98250726Y-52798469D01*
X98676405Y-52372791D01*
X99097840Y-52372791D01*
X99523519Y-52798470D01*
X99949197Y-52372791D01*
X100370632Y-52372791D01*
X100796311Y-52798470D01*
X101221989Y-52372791D01*
X101643424Y-52372791D01*
X102069102Y-52798469D01*
X102424558Y-52443013D01*
X102455835Y-52354490D01*
X102460675Y-52338685D01*
X102069103Y-51947112D01*
X101643424Y-52372791D01*
X101221989Y-52372791D01*
X100796311Y-51947112D01*
X100370632Y-52372791D01*
X99949197Y-52372791D01*
X99523519Y-51947112D01*
X99097840Y-52372791D01*
X98676405Y-52372791D01*
X98250726Y-51947112D01*
X97825048Y-52372791D01*
X97403612Y-52372791D01*
X96977934Y-51947112D01*
X96552255Y-52372791D01*
X96130820Y-52372791D01*
X95705142Y-51947112D01*
X95279463Y-52372791D01*
X94406330Y-52372791D01*
X94387065Y-52309886D01*
X94385631Y-52304821D01*
X94339559Y-52127879D01*
X94338341Y-52122758D01*
X94299816Y-51944000D01*
X94298817Y-51938833D01*
X94267919Y-51758641D01*
X94267139Y-51753434D01*
X94259355Y-51692644D01*
X94686816Y-51692644D01*
X94686891Y-51693230D01*
X94704894Y-51798222D01*
X95068746Y-52162074D01*
X95494424Y-51736395D01*
X95915859Y-51736395D01*
X96341538Y-52162074D01*
X96767216Y-51736395D01*
X97188651Y-51736395D01*
X97614330Y-52162073D01*
X98040008Y-51736395D01*
X98461444Y-51736395D01*
X98887122Y-52162073D01*
X99312801Y-51736395D01*
X99734236Y-51736395D01*
X100159915Y-52162074D01*
X100585593Y-51736395D01*
X101007028Y-51736395D01*
X101432707Y-52162074D01*
X101858385Y-51736395D01*
X102279820Y-51736395D01*
X102552437Y-52009012D01*
X102584353Y-51860921D01*
X102613104Y-51693244D01*
X102634714Y-51524495D01*
X102648016Y-51368199D01*
X102279820Y-51736395D01*
X101858385Y-51736395D01*
X101432707Y-51310716D01*
X101007028Y-51736395D01*
X100585593Y-51736395D01*
X100159915Y-51310716D01*
X99734236Y-51736395D01*
X99312801Y-51736395D01*
X98887122Y-51310716D01*
X98461444Y-51736395D01*
X98040008Y-51736395D01*
X97614330Y-51310716D01*
X97188651Y-51736395D01*
X96767216Y-51736395D01*
X96341538Y-51310716D01*
X95915859Y-51736395D01*
X95494424Y-51736395D01*
X95068745Y-51310716D01*
X94686816Y-51692644D01*
X94259355Y-51692644D01*
X94243910Y-51572036D01*
X94243353Y-51566802D01*
X94227848Y-51384625D01*
X94227513Y-51379372D01*
X94219738Y-51196358D01*
X94219628Y-51191752D01*
X94219145Y-51100657D01*
X94219145Y-51099999D01*
X94643147Y-51099999D01*
X94643592Y-51183927D01*
X94648910Y-51309115D01*
X94858027Y-51099999D01*
X95279463Y-51099999D01*
X95705142Y-51525678D01*
X96130820Y-51099999D01*
X96552255Y-51099999D01*
X96977934Y-51525677D01*
X97403612Y-51099999D01*
X97825048Y-51099999D01*
X98250726Y-51525677D01*
X98676405Y-51099999D01*
X99097840Y-51099999D01*
X99523519Y-51525678D01*
X99949197Y-51099999D01*
X100370632Y-51099999D01*
X100796311Y-51525678D01*
X101221989Y-51099999D01*
X101643424Y-51099999D01*
X102069103Y-51525678D01*
X102494781Y-51099999D01*
X102069103Y-50674320D01*
X101643424Y-51099999D01*
X101221989Y-51099999D01*
X100796311Y-50674320D01*
X100370632Y-51099999D01*
X99949197Y-51099999D01*
X99523519Y-50674320D01*
X99097840Y-51099999D01*
X98676405Y-51099999D01*
X98250726Y-50674320D01*
X97825048Y-51099999D01*
X97403612Y-51099999D01*
X96977934Y-50674320D01*
X96552255Y-51099999D01*
X96130820Y-51099999D01*
X95705142Y-50674320D01*
X95279463Y-51099999D01*
X94858027Y-51099999D01*
X94858028Y-51099998D01*
X94648910Y-50890881D01*
X94643592Y-51016071D01*
X94643147Y-51099999D01*
X94219145Y-51099999D01*
X94219145Y-51099343D01*
X94219628Y-51008247D01*
X94219738Y-51003641D01*
X94227513Y-50820627D01*
X94227848Y-50815374D01*
X94243353Y-50633197D01*
X94243910Y-50627963D01*
X94259355Y-50507352D01*
X94686816Y-50507352D01*
X95068746Y-50889282D01*
X95494425Y-50463603D01*
X95915859Y-50463603D01*
X96341538Y-50889282D01*
X96767217Y-50463603D01*
X97188651Y-50463603D01*
X97614330Y-50889281D01*
X98040009Y-50463603D01*
X98461444Y-50463603D01*
X98887122Y-50889281D01*
X99312801Y-50463603D01*
X99734236Y-50463603D01*
X100159915Y-50889282D01*
X100585594Y-50463603D01*
X101007028Y-50463603D01*
X101432707Y-50889282D01*
X101858386Y-50463603D01*
X101858385Y-50463602D01*
X102279820Y-50463602D01*
X102648016Y-50831799D01*
X102634714Y-50675503D01*
X102613104Y-50506754D01*
X102584353Y-50339077D01*
X102552437Y-50190985D01*
X102279820Y-50463602D01*
X101858385Y-50463602D01*
X101432707Y-50037924D01*
X101007028Y-50463603D01*
X100585594Y-50463603D01*
X100159915Y-50037924D01*
X99734236Y-50463603D01*
X99312801Y-50463603D01*
X98887122Y-50037924D01*
X98461444Y-50463603D01*
X98040009Y-50463603D01*
X97614330Y-50037924D01*
X97188651Y-50463603D01*
X96767217Y-50463603D01*
X96341538Y-50037924D01*
X95915859Y-50463603D01*
X95494425Y-50463603D01*
X95068745Y-50037923D01*
X94704894Y-50401774D01*
X94686891Y-50506768D01*
X94686816Y-50507352D01*
X94259355Y-50507352D01*
X94267139Y-50446565D01*
X94267919Y-50441358D01*
X94298817Y-50261166D01*
X94299816Y-50255999D01*
X94338341Y-50077241D01*
X94339559Y-50072120D01*
X94385631Y-49895178D01*
X94387065Y-49890113D01*
X94406330Y-49827207D01*
X95279463Y-49827207D01*
X95705142Y-50252886D01*
X96130821Y-49827207D01*
X96552255Y-49827207D01*
X96977934Y-50252885D01*
X97403613Y-49827207D01*
X97825048Y-49827207D01*
X98250726Y-50252885D01*
X98676405Y-49827207D01*
X99097840Y-49827207D01*
X99523519Y-50252886D01*
X99949198Y-49827207D01*
X100370632Y-49827207D01*
X100796311Y-50252886D01*
X101221990Y-49827207D01*
X101643424Y-49827207D01*
X102069102Y-50252885D01*
X102460675Y-49861312D01*
X102455831Y-49845494D01*
X102424558Y-49756983D01*
X102069103Y-49401528D01*
X101643424Y-49827207D01*
X101221990Y-49827207D01*
X100796311Y-49401528D01*
X100370632Y-49827207D01*
X99949198Y-49827207D01*
X99523519Y-49401528D01*
X99097840Y-49827207D01*
X98676405Y-49827207D01*
X98250726Y-49401528D01*
X97825048Y-49827207D01*
X97403613Y-49827207D01*
X96977934Y-49401528D01*
X96552255Y-49827207D01*
X96130821Y-49827207D01*
X95705142Y-49401528D01*
X95279463Y-49827207D01*
X94406330Y-49827207D01*
X94440611Y-49715268D01*
X94442259Y-49710269D01*
X94503174Y-49537861D01*
X94505033Y-49532936D01*
X94511534Y-49516757D01*
X94969013Y-49516757D01*
X95068746Y-49616490D01*
X95494425Y-49190811D01*
X95915859Y-49190811D01*
X96341538Y-49616490D01*
X96767217Y-49190811D01*
X97188651Y-49190811D01*
X97614330Y-49616489D01*
X98040009Y-49190811D01*
X98461444Y-49190811D01*
X98887122Y-49616489D01*
X99312801Y-49190811D01*
X99734236Y-49190811D01*
X100159915Y-49616490D01*
X100585594Y-49190811D01*
X101007028Y-49190811D01*
X101432707Y-49616490D01*
X101858386Y-49190811D01*
X101432707Y-48765132D01*
X101007028Y-49190811D01*
X100585594Y-49190811D01*
X100159915Y-48765132D01*
X99734236Y-49190811D01*
X99312801Y-49190811D01*
X98887122Y-48765132D01*
X98461444Y-49190811D01*
X98040009Y-49190811D01*
X97614330Y-48765132D01*
X97188651Y-49190811D01*
X96767217Y-49190811D01*
X96341538Y-48765132D01*
X95915859Y-49190811D01*
X95494425Y-49190811D01*
X95263079Y-48959465D01*
X95193877Y-49071857D01*
X95110915Y-49220364D01*
X95034320Y-49372283D01*
X94969013Y-49516757D01*
X94511534Y-49516757D01*
X94573206Y-49363281D01*
X94575272Y-49358439D01*
X94650586Y-49191825D01*
X94652855Y-49187076D01*
X94735176Y-49023802D01*
X94737646Y-49019152D01*
X94826821Y-48859523D01*
X94829484Y-48854984D01*
X94918919Y-48709732D01*
X95434780Y-48709732D01*
X95705142Y-48980094D01*
X96130821Y-48554415D01*
X96552255Y-48554415D01*
X96977934Y-48980093D01*
X97403613Y-48554415D01*
X97825048Y-48554415D01*
X98250726Y-48980093D01*
X98676405Y-48554415D01*
X99097840Y-48554415D01*
X99523519Y-48980094D01*
X99949198Y-48554415D01*
X100370632Y-48554415D01*
X100796311Y-48980094D01*
X101221990Y-48554415D01*
X101221989Y-48554414D01*
X101643423Y-48554414D01*
X102018406Y-48929397D01*
X102016937Y-48927012D01*
X101921678Y-48786072D01*
X101820527Y-48649307D01*
X101713646Y-48516936D01*
X101698317Y-48499520D01*
X101643423Y-48554414D01*
X101221989Y-48554414D01*
X100796311Y-48128736D01*
X100370632Y-48554415D01*
X99949198Y-48554415D01*
X99523519Y-48128736D01*
X99097840Y-48554415D01*
X98676405Y-48554415D01*
X98250726Y-48128736D01*
X97825048Y-48554415D01*
X97403613Y-48554415D01*
X96977934Y-48128736D01*
X96552255Y-48554415D01*
X96130821Y-48554415D01*
X95829921Y-48253515D01*
X95816438Y-48266437D01*
X95698721Y-48389261D01*
X95586352Y-48516936D01*
X95479471Y-48649307D01*
X95434780Y-48709732D01*
X94918919Y-48709732D01*
X94925359Y-48699272D01*
X94928214Y-48694849D01*
X95030599Y-48543366D01*
X95033638Y-48539068D01*
X95142364Y-48392061D01*
X95145583Y-48387897D01*
X95260461Y-48245622D01*
X95263855Y-48241597D01*
X95384653Y-48104345D01*
X95388213Y-48100469D01*
X95434973Y-48051680D01*
X96049520Y-48051680D01*
X96341538Y-48343698D01*
X96767217Y-47918019D01*
X97188651Y-47918019D01*
X97614330Y-48343697D01*
X98040009Y-47918019D01*
X98461444Y-47918019D01*
X98887122Y-48343697D01*
X99312801Y-47918019D01*
X99734236Y-47918019D01*
X100159915Y-48343698D01*
X100585594Y-47918019D01*
X100585593Y-47918018D01*
X101007027Y-47918018D01*
X101432706Y-48343697D01*
X101496482Y-48279920D01*
X101483560Y-48266437D01*
X101360737Y-48148721D01*
X101233062Y-48036352D01*
X101100691Y-47929471D01*
X101040265Y-47884780D01*
X101007027Y-47918018D01*
X100585593Y-47918018D01*
X100159915Y-47492340D01*
X99734236Y-47918019D01*
X99312801Y-47918019D01*
X98887122Y-47492340D01*
X98461444Y-47918019D01*
X98040009Y-47918019D01*
X97614330Y-47492340D01*
X97188651Y-47918019D01*
X96767217Y-47918019D01*
X96542151Y-47692953D01*
X96477012Y-47733061D01*
X96336072Y-47828320D01*
X96199307Y-47929471D01*
X96066938Y-48036351D01*
X96049520Y-48051680D01*
X95434973Y-48051680D01*
X95514735Y-47968458D01*
X95518458Y-47964735D01*
X95650469Y-47838213D01*
X95654345Y-47834653D01*
X95791597Y-47713855D01*
X95795622Y-47710461D01*
X95937897Y-47595583D01*
X95942061Y-47592364D01*
X96012311Y-47540407D01*
X96811040Y-47540407D01*
X96977934Y-47707301D01*
X97388649Y-47296586D01*
X97235134Y-47350825D01*
X97077280Y-47414256D01*
X96922283Y-47484320D01*
X96811040Y-47540407D01*
X96012311Y-47540407D01*
X96089068Y-47483638D01*
X96093366Y-47480599D01*
X96244849Y-47378214D01*
X96249272Y-47375359D01*
X96401510Y-47281623D01*
X97825048Y-47281623D01*
X98250726Y-47707301D01*
X98676405Y-47281623D01*
X99097840Y-47281623D01*
X99523519Y-47707301D01*
X99928260Y-47302560D01*
X99904511Y-47294170D01*
X99741810Y-47244342D01*
X99577192Y-47201479D01*
X99410921Y-47165645D01*
X99243226Y-47136891D01*
X99242645Y-47136816D01*
X99097840Y-47281623D01*
X98676405Y-47281623D01*
X98491540Y-47096758D01*
X98394970Y-47100861D01*
X98225503Y-47115284D01*
X98056750Y-47136894D01*
X97951776Y-47154894D01*
X97825048Y-47281623D01*
X96401510Y-47281623D01*
X96404984Y-47279484D01*
X96409523Y-47276821D01*
X96569152Y-47187646D01*
X96573802Y-47185176D01*
X96737076Y-47102855D01*
X96741825Y-47100586D01*
X96908439Y-47025272D01*
X96913281Y-47023206D01*
X97082936Y-46955033D01*
X97087861Y-46953174D01*
X97260269Y-46892259D01*
X97265268Y-46890611D01*
X97440113Y-46837065D01*
X97445178Y-46835631D01*
X97622120Y-46789559D01*
X97627241Y-46788341D01*
X97805999Y-46749816D01*
X97811166Y-46748817D01*
X97991358Y-46717919D01*
X97996565Y-46717139D01*
X98177963Y-46693910D01*
X98183197Y-46693353D01*
X98365374Y-46677848D01*
X98370627Y-46677513D01*
X98553306Y-46669753D01*
X98558569Y-46669641D01*
X98741431Y-46669641D01*
X98746694Y-46669753D01*
G37*
G36*
X62092155Y-94700600D02*
G01*
X62265482Y-94708167D01*
X62270882Y-94708521D01*
X62443712Y-94723642D01*
X62449089Y-94724231D01*
X62621101Y-94746877D01*
X62626448Y-94747700D01*
X62797288Y-94777823D01*
X62802595Y-94778878D01*
X62971996Y-94816434D01*
X62977250Y-94817720D01*
X63144818Y-94862619D01*
X63150013Y-94864133D01*
X63315487Y-94916307D01*
X63320609Y-94918046D01*
X63483629Y-94977380D01*
X63488672Y-94979341D01*
X63648961Y-95045736D01*
X63653912Y-95047915D01*
X63811145Y-95121233D01*
X63815998Y-95123626D01*
X63969898Y-95203741D01*
X63974641Y-95206343D01*
X64124891Y-95293090D01*
X64129517Y-95295897D01*
X64275823Y-95389105D01*
X64280320Y-95392110D01*
X64422444Y-95491626D01*
X64426807Y-95494825D01*
X64564447Y-95600439D01*
X64568666Y-95603825D01*
X64701565Y-95715340D01*
X64705634Y-95718908D01*
X64833560Y-95836132D01*
X64837467Y-95839873D01*
X64960126Y-95962532D01*
X64963867Y-95966439D01*
X65081091Y-96094365D01*
X65084659Y-96098434D01*
X65196174Y-96231333D01*
X65199560Y-96235552D01*
X65305174Y-96373192D01*
X65308373Y-96377555D01*
X65407889Y-96519679D01*
X65410894Y-96524176D01*
X65504102Y-96670482D01*
X65506909Y-96675108D01*
X65593656Y-96825358D01*
X65596258Y-96830101D01*
X65676373Y-96984001D01*
X65678766Y-96988854D01*
X65752084Y-97146087D01*
X65754263Y-97151038D01*
X65820658Y-97311327D01*
X65822619Y-97316370D01*
X65881953Y-97479390D01*
X65883692Y-97484512D01*
X65935866Y-97649986D01*
X65937380Y-97655181D01*
X65982279Y-97822749D01*
X65983565Y-97828003D01*
X66021121Y-97997404D01*
X66022176Y-98002711D01*
X66052299Y-98173551D01*
X66053122Y-98178898D01*
X66075768Y-98350910D01*
X66076357Y-98356287D01*
X66091478Y-98529117D01*
X66091832Y-98534517D01*
X66099414Y-98708184D01*
X66099530Y-98712923D01*
X66099998Y-98799627D01*
X66100000Y-98800296D01*
X66100000Y-101676000D01*
X66080315Y-101743039D01*
X66027511Y-101788794D01*
X65976000Y-101800000D01*
X58024000Y-101800000D01*
X57956961Y-101780315D01*
X57911206Y-101727511D01*
X57900000Y-101676000D01*
X57900000Y-101502000D01*
X58324000Y-101502000D01*
X58520862Y-101502000D01*
X58698790Y-101324071D01*
X59120226Y-101324071D01*
X59298155Y-101502000D01*
X59793655Y-101502000D01*
X59971583Y-101324071D01*
X60393018Y-101324071D01*
X60570947Y-101502000D01*
X61066447Y-101502000D01*
X61244375Y-101324071D01*
X61665810Y-101324071D01*
X61843739Y-101502000D01*
X62339239Y-101502000D01*
X62517167Y-101324071D01*
X62938602Y-101324071D01*
X63116531Y-101502000D01*
X63612031Y-101502000D01*
X63789959Y-101324071D01*
X64211395Y-101324071D01*
X64389324Y-101502000D01*
X64884824Y-101502000D01*
X65062752Y-101324071D01*
X65484187Y-101324071D01*
X65662116Y-101502000D01*
X65676000Y-101502000D01*
X65676000Y-101132258D01*
X65484187Y-101324071D01*
X65062752Y-101324071D01*
X64637073Y-100898392D01*
X64211395Y-101324071D01*
X63789959Y-101324071D01*
X63364281Y-100898392D01*
X62938602Y-101324071D01*
X62517167Y-101324071D01*
X62091489Y-100898392D01*
X61665810Y-101324071D01*
X61244375Y-101324071D01*
X60818697Y-100898392D01*
X60393018Y-101324071D01*
X59971583Y-101324071D01*
X59545904Y-100898392D01*
X59120226Y-101324071D01*
X58698790Y-101324071D01*
X58324000Y-100949280D01*
X58324000Y-101502000D01*
X57900000Y-101502000D01*
X57900000Y-100687675D01*
X58483830Y-100687675D01*
X58909508Y-101113353D01*
X59335187Y-100687675D01*
X59756622Y-100687675D01*
X60182301Y-101113354D01*
X60607979Y-100687675D01*
X61029414Y-100687675D01*
X61455093Y-101113354D01*
X61880771Y-100687675D01*
X62302206Y-100687675D01*
X62727885Y-101113354D01*
X63153563Y-100687675D01*
X63574998Y-100687675D01*
X64000677Y-101113353D01*
X64426355Y-100687675D01*
X64847791Y-100687675D01*
X65273469Y-101113353D01*
X65676000Y-100710823D01*
X65676000Y-100664527D01*
X65273469Y-100261996D01*
X64847791Y-100687675D01*
X64426355Y-100687675D01*
X64000677Y-100261996D01*
X63574998Y-100687675D01*
X63153563Y-100687675D01*
X62727885Y-100261996D01*
X62302206Y-100687675D01*
X61880771Y-100687675D01*
X61455093Y-100261996D01*
X61029414Y-100687675D01*
X60607979Y-100687675D01*
X60182301Y-100261996D01*
X59756622Y-100687675D01*
X59335187Y-100687675D01*
X58909508Y-100261996D01*
X58483830Y-100687675D01*
X57900000Y-100687675D01*
X57900000Y-100426070D01*
X58324000Y-100426070D01*
X58698791Y-100051279D01*
X59120226Y-100051279D01*
X59545904Y-100476957D01*
X59971583Y-100051279D01*
X60393018Y-100051279D01*
X60818697Y-100476958D01*
X61244376Y-100051279D01*
X61665810Y-100051279D01*
X62091489Y-100476958D01*
X62517168Y-100051279D01*
X62938602Y-100051279D01*
X63364281Y-100476957D01*
X63789960Y-100051279D01*
X64211395Y-100051279D01*
X64637073Y-100476957D01*
X65062752Y-100051279D01*
X65484187Y-100051279D01*
X65676000Y-100243092D01*
X65676000Y-99859466D01*
X65484187Y-100051279D01*
X65062752Y-100051279D01*
X64637073Y-99625600D01*
X64211395Y-100051279D01*
X63789960Y-100051279D01*
X63364281Y-99625600D01*
X62938602Y-100051279D01*
X62517168Y-100051279D01*
X62091489Y-99625600D01*
X61665810Y-100051279D01*
X61244376Y-100051279D01*
X60818697Y-99625600D01*
X60393018Y-100051279D01*
X59971583Y-100051279D01*
X59545904Y-99625600D01*
X59120226Y-100051279D01*
X58698791Y-100051279D01*
X58324000Y-99676488D01*
X58324000Y-100426070D01*
X57900000Y-100426070D01*
X57900000Y-99414883D01*
X58483830Y-99414883D01*
X58909508Y-99840561D01*
X59335187Y-99414883D01*
X59756622Y-99414883D01*
X60182301Y-99840562D01*
X60607980Y-99414883D01*
X61029414Y-99414883D01*
X61455093Y-99840562D01*
X61880772Y-99414883D01*
X62302206Y-99414883D01*
X62727885Y-99840562D01*
X63153564Y-99414883D01*
X63574998Y-99414883D01*
X64000677Y-99840561D01*
X64426356Y-99414883D01*
X64847791Y-99414883D01*
X65273469Y-99840561D01*
X65676000Y-99438031D01*
X65676000Y-99391734D01*
X65273470Y-98989204D01*
X64847791Y-99414883D01*
X64426356Y-99414883D01*
X64000677Y-98989204D01*
X63574998Y-99414883D01*
X63153564Y-99414883D01*
X62727885Y-98989204D01*
X62302206Y-99414883D01*
X61880772Y-99414883D01*
X61455093Y-98989204D01*
X61029414Y-99414883D01*
X60607980Y-99414883D01*
X60182301Y-98989204D01*
X59756622Y-99414883D01*
X59335187Y-99414883D01*
X58909508Y-98989204D01*
X58483830Y-99414883D01*
X57900000Y-99414883D01*
X57900000Y-98801169D01*
X58324000Y-98801169D01*
X58324000Y-99153278D01*
X58698791Y-98778487D01*
X59120226Y-98778487D01*
X59545904Y-99204165D01*
X59971583Y-98778487D01*
X60393018Y-98778487D01*
X60818697Y-99204166D01*
X61244376Y-98778487D01*
X61665810Y-98778487D01*
X62091489Y-99204166D01*
X62517168Y-98778487D01*
X62938602Y-98778487D01*
X63364281Y-99204165D01*
X63789960Y-98778487D01*
X64211395Y-98778487D01*
X64637073Y-99204165D01*
X65062752Y-98778487D01*
X65062751Y-98778486D01*
X65484186Y-98778486D01*
X65676000Y-98970300D01*
X65676000Y-98801172D01*
X65675566Y-98720949D01*
X65669968Y-98592704D01*
X65484186Y-98778486D01*
X65062751Y-98778486D01*
X64637073Y-98352808D01*
X64211395Y-98778487D01*
X63789960Y-98778487D01*
X63364281Y-98352808D01*
X62938602Y-98778487D01*
X62517168Y-98778487D01*
X62091489Y-98352808D01*
X61665810Y-98778487D01*
X61244376Y-98778487D01*
X60818697Y-98352808D01*
X60393018Y-98778487D01*
X59971583Y-98778487D01*
X59545904Y-98352808D01*
X59120226Y-98778487D01*
X58698791Y-98778487D01*
X58343414Y-98423110D01*
X58331479Y-98559530D01*
X58324432Y-98720949D01*
X58324000Y-98801169D01*
X57900000Y-98801169D01*
X57900000Y-98800296D01*
X57900002Y-98799628D01*
X57900469Y-98712924D01*
X57900585Y-98708184D01*
X57908167Y-98534517D01*
X57908521Y-98529117D01*
X57923642Y-98356287D01*
X57924231Y-98350910D01*
X57946877Y-98178898D01*
X57947700Y-98173551D01*
X57953247Y-98142091D01*
X58483830Y-98142091D01*
X58909508Y-98567769D01*
X59335187Y-98142091D01*
X59756622Y-98142091D01*
X60182301Y-98567770D01*
X60607980Y-98142091D01*
X61029414Y-98142091D01*
X61455093Y-98567770D01*
X61880772Y-98142091D01*
X62302206Y-98142091D01*
X62727885Y-98567770D01*
X63153564Y-98142091D01*
X63574998Y-98142091D01*
X64000677Y-98567769D01*
X64426356Y-98142091D01*
X64847791Y-98142091D01*
X65273469Y-98567769D01*
X65628643Y-98212594D01*
X65605754Y-98082781D01*
X65596045Y-98038987D01*
X65273469Y-97716412D01*
X64847791Y-98142091D01*
X64426356Y-98142091D01*
X64000677Y-97716412D01*
X63574998Y-98142091D01*
X63153564Y-98142091D01*
X62727885Y-97716412D01*
X62302206Y-98142091D01*
X61880772Y-98142091D01*
X61455093Y-97716412D01*
X61029414Y-98142091D01*
X60607980Y-98142091D01*
X60182301Y-97716412D01*
X59756622Y-98142091D01*
X59335187Y-98142091D01*
X58909508Y-97716412D01*
X58483830Y-98142091D01*
X57953247Y-98142091D01*
X57977823Y-98002711D01*
X57978878Y-97997404D01*
X58016434Y-97828003D01*
X58017720Y-97822749D01*
X58062619Y-97655181D01*
X58064133Y-97649986D01*
X58109628Y-97505695D01*
X59120226Y-97505695D01*
X59545904Y-97931373D01*
X59971583Y-97505695D01*
X60393018Y-97505695D01*
X60818697Y-97931374D01*
X61244376Y-97505695D01*
X61665810Y-97505695D01*
X62091489Y-97931374D01*
X62517168Y-97505695D01*
X62938602Y-97505695D01*
X63364281Y-97931373D01*
X63789960Y-97505695D01*
X64211395Y-97505695D01*
X64637073Y-97931373D01*
X65062752Y-97505695D01*
X64637073Y-97080016D01*
X64211395Y-97505695D01*
X63789960Y-97505695D01*
X63364281Y-97080016D01*
X62938602Y-97505695D01*
X62517168Y-97505695D01*
X62091489Y-97080016D01*
X61665810Y-97505695D01*
X61244376Y-97505695D01*
X60818697Y-97080016D01*
X60393018Y-97505695D01*
X59971583Y-97505695D01*
X59545904Y-97080016D01*
X59120226Y-97505695D01*
X58109628Y-97505695D01*
X58116307Y-97484512D01*
X58118046Y-97479390D01*
X58177380Y-97316370D01*
X58179341Y-97311327D01*
X58245736Y-97151038D01*
X58247915Y-97146087D01*
X58261212Y-97117571D01*
X58732103Y-97117571D01*
X58909509Y-97294977D01*
X59335187Y-96869298D01*
X59756622Y-96869298D01*
X60182301Y-97294977D01*
X60607979Y-96869298D01*
X61029414Y-96869298D01*
X61455093Y-97294977D01*
X61880771Y-96869298D01*
X62302206Y-96869298D01*
X62727885Y-97294977D01*
X63153563Y-96869298D01*
X63574998Y-96869298D01*
X64000677Y-97294977D01*
X64426355Y-96869298D01*
X64847790Y-96869298D01*
X65273468Y-97294976D01*
X65328172Y-97240271D01*
X65297263Y-97173986D01*
X65223182Y-97031677D01*
X65143003Y-96892802D01*
X65056801Y-96757494D01*
X65016768Y-96700320D01*
X64847790Y-96869298D01*
X64426355Y-96869298D01*
X64000677Y-96443620D01*
X63574998Y-96869298D01*
X63153563Y-96869298D01*
X62727885Y-96443620D01*
X62302206Y-96869298D01*
X61880771Y-96869298D01*
X61455093Y-96443620D01*
X61029414Y-96869298D01*
X60607979Y-96869298D01*
X60182301Y-96443620D01*
X59756622Y-96869298D01*
X59335187Y-96869298D01*
X59059856Y-96593967D01*
X59035192Y-96626111D01*
X58943197Y-96757494D01*
X58856995Y-96892802D01*
X58776816Y-97031677D01*
X58732103Y-97117571D01*
X58261212Y-97117571D01*
X58321233Y-96988854D01*
X58323626Y-96984001D01*
X58403741Y-96830101D01*
X58406343Y-96825358D01*
X58493090Y-96675108D01*
X58495897Y-96670482D01*
X58589105Y-96524176D01*
X58592110Y-96519679D01*
X58691626Y-96377555D01*
X58694825Y-96373192D01*
X58703641Y-96361703D01*
X59249027Y-96361703D01*
X59545905Y-96658581D01*
X59971583Y-96232903D01*
X59971582Y-96232902D01*
X60393018Y-96232902D01*
X60818697Y-96658581D01*
X61244375Y-96232902D01*
X61665810Y-96232902D01*
X62091489Y-96658581D01*
X62517167Y-96232902D01*
X62938602Y-96232902D01*
X63364281Y-96658581D01*
X63789959Y-96232902D01*
X64211394Y-96232902D01*
X64637073Y-96658580D01*
X64835055Y-96460597D01*
X64764044Y-96375969D01*
X64655687Y-96257719D01*
X64542279Y-96144311D01*
X64424016Y-96035942D01*
X64415500Y-96028796D01*
X64211394Y-96232902D01*
X63789959Y-96232902D01*
X63364281Y-95807224D01*
X62938602Y-96232902D01*
X62517167Y-96232902D01*
X62091489Y-95807224D01*
X61665810Y-96232902D01*
X61244375Y-96232902D01*
X60818697Y-95807224D01*
X60393018Y-96232902D01*
X59971582Y-96232902D01*
X59683992Y-95945312D01*
X59575969Y-96035954D01*
X59457719Y-96144311D01*
X59344311Y-96257719D01*
X59249027Y-96361703D01*
X58703641Y-96361703D01*
X58800439Y-96235552D01*
X58803825Y-96231333D01*
X58915340Y-96098434D01*
X58918908Y-96094365D01*
X59036132Y-95966439D01*
X59039873Y-95962532D01*
X59162532Y-95839873D01*
X59166439Y-95836132D01*
X59243507Y-95765511D01*
X59925627Y-95765511D01*
X60182301Y-96022185D01*
X60607979Y-95596506D01*
X61029414Y-95596506D01*
X61455093Y-96022185D01*
X61880771Y-95596506D01*
X62302206Y-95596506D01*
X62727885Y-96022185D01*
X63153563Y-95596506D01*
X63574999Y-95596506D01*
X64000676Y-96022184D01*
X64181685Y-95841175D01*
X64173887Y-95835192D01*
X64042504Y-95743197D01*
X63907196Y-95656995D01*
X63768321Y-95576816D01*
X63654131Y-95517373D01*
X63574999Y-95596506D01*
X63153563Y-95596506D01*
X62761011Y-95203954D01*
X62717204Y-95194242D01*
X62706378Y-95192333D01*
X62302206Y-95596506D01*
X61880771Y-95596506D01*
X61455092Y-95170827D01*
X61029414Y-95596506D01*
X60607979Y-95596506D01*
X60469616Y-95458142D01*
X60373986Y-95502735D01*
X60231677Y-95576816D01*
X60092802Y-95656995D01*
X59957494Y-95743197D01*
X59925627Y-95765511D01*
X59243507Y-95765511D01*
X59294365Y-95718908D01*
X59298434Y-95715340D01*
X59431333Y-95603825D01*
X59435552Y-95600439D01*
X59573192Y-95494825D01*
X59577555Y-95491626D01*
X59719679Y-95392110D01*
X59724176Y-95389105D01*
X59870482Y-95295897D01*
X59875108Y-95293090D01*
X60025358Y-95206343D01*
X60030101Y-95203741D01*
X60175155Y-95128231D01*
X61833931Y-95128231D01*
X62091488Y-95385788D01*
X62337324Y-95139952D01*
X62240468Y-95131479D01*
X62080190Y-95124482D01*
X61919810Y-95124482D01*
X61833931Y-95128231D01*
X60175155Y-95128231D01*
X60184001Y-95123626D01*
X60188854Y-95121233D01*
X60346087Y-95047915D01*
X60351038Y-95045736D01*
X60511327Y-94979341D01*
X60516370Y-94977380D01*
X60679390Y-94918046D01*
X60684512Y-94916307D01*
X60849986Y-94864133D01*
X60855181Y-94862619D01*
X61022749Y-94817720D01*
X61028003Y-94816434D01*
X61197404Y-94778878D01*
X61202711Y-94777823D01*
X61373551Y-94747700D01*
X61378898Y-94746877D01*
X61550910Y-94724231D01*
X61556287Y-94723642D01*
X61729117Y-94708521D01*
X61734517Y-94708167D01*
X61907845Y-94700600D01*
X61913253Y-94700482D01*
X62086747Y-94700482D01*
X62092155Y-94700600D01*
G37*
G36*
X110343039Y-34019685D02*
G01*
X110388794Y-34072489D01*
X110400000Y-34124000D01*
X110400000Y-101676000D01*
X110380315Y-101743039D01*
X110327511Y-101788794D01*
X110276000Y-101800000D01*
X107724000Y-101800000D01*
X107656961Y-101780315D01*
X107611206Y-101727511D01*
X107600000Y-101676000D01*
X107600000Y-101000000D01*
X108474000Y-101000000D01*
X109350000Y-101000000D01*
X109350000Y-99498000D01*
X108474000Y-99498000D01*
X108474000Y-101000000D01*
X107600000Y-101000000D01*
X107600000Y-98750000D01*
X108474000Y-98750000D01*
X109350000Y-98750000D01*
X109350000Y-97248000D01*
X108474000Y-97248000D01*
X108474000Y-98750000D01*
X107600000Y-98750000D01*
X107600000Y-96500000D01*
X108474000Y-96500000D01*
X109350000Y-96500000D01*
X109350000Y-94998000D01*
X108474000Y-94998000D01*
X108474000Y-96500000D01*
X107600000Y-96500000D01*
X107600000Y-94250000D01*
X108474000Y-94250000D01*
X109350000Y-94250000D01*
X109350000Y-92748000D01*
X108474000Y-92748000D01*
X108474000Y-94250000D01*
X107600000Y-94250000D01*
X107600000Y-92000000D01*
X108474000Y-92000000D01*
X109350000Y-92000000D01*
X109350000Y-90498000D01*
X108474000Y-90498000D01*
X108474000Y-92000000D01*
X107600000Y-92000000D01*
X107600000Y-89750000D01*
X108474000Y-89750000D01*
X109350000Y-89750000D01*
X109350000Y-88248000D01*
X108474000Y-88248000D01*
X108474000Y-89750000D01*
X107600000Y-89750000D01*
X107600000Y-87500000D01*
X108474000Y-87500000D01*
X109350000Y-87500000D01*
X109350000Y-85998000D01*
X108474000Y-85998000D01*
X108474000Y-87500000D01*
X107600000Y-87500000D01*
X107600000Y-85250000D01*
X108474000Y-85250000D01*
X109350000Y-85250000D01*
X109350000Y-83748000D01*
X108474000Y-83748000D01*
X108474000Y-85250000D01*
X107600000Y-85250000D01*
X107600000Y-83000000D01*
X108474000Y-83000000D01*
X109350000Y-83000000D01*
X109350000Y-81498000D01*
X108474000Y-81498000D01*
X108474000Y-83000000D01*
X107600000Y-83000000D01*
X107600000Y-80750000D01*
X108474000Y-80750000D01*
X109350000Y-80750000D01*
X109350000Y-79248000D01*
X108474000Y-79248000D01*
X108474000Y-80750000D01*
X107600000Y-80750000D01*
X107600000Y-78500000D01*
X108474000Y-78500000D01*
X109350000Y-78500000D01*
X109350000Y-76998000D01*
X108474000Y-76998000D01*
X108474000Y-78500000D01*
X107600000Y-78500000D01*
X107600000Y-76250000D01*
X108474000Y-76250000D01*
X109350000Y-76250000D01*
X109350000Y-74748000D01*
X108474000Y-74748000D01*
X108474000Y-76250000D01*
X107600000Y-76250000D01*
X107600000Y-74000000D01*
X108474000Y-74000000D01*
X109350000Y-74000000D01*
X109350000Y-72498000D01*
X108474000Y-72498000D01*
X108474000Y-74000000D01*
X107600000Y-74000000D01*
X107600000Y-71750000D01*
X108474000Y-71750000D01*
X109350000Y-71750000D01*
X109350000Y-70248000D01*
X108474000Y-70248000D01*
X108474000Y-71750000D01*
X107600000Y-71750000D01*
X107600000Y-69500000D01*
X108474000Y-69500000D01*
X109350000Y-69500000D01*
X109350000Y-67998000D01*
X108474000Y-67998000D01*
X108474000Y-69500000D01*
X107600000Y-69500000D01*
X107600000Y-67250000D01*
X108474000Y-67250000D01*
X109350000Y-67250000D01*
X109350000Y-65748000D01*
X108474000Y-65748000D01*
X108474000Y-67250000D01*
X107600000Y-67250000D01*
X107600000Y-65000000D01*
X108474000Y-65000000D01*
X109350000Y-65000000D01*
X109350000Y-63498000D01*
X108474000Y-63498000D01*
X108474000Y-65000000D01*
X107600000Y-65000000D01*
X107600000Y-62750000D01*
X108474000Y-62750000D01*
X109350000Y-62750000D01*
X109350000Y-61248000D01*
X108474000Y-61248000D01*
X108474000Y-62750000D01*
X107600000Y-62750000D01*
X107600000Y-60500000D01*
X108474000Y-60500000D01*
X109350000Y-60500000D01*
X109350000Y-58998000D01*
X108474000Y-58998000D01*
X108474000Y-60500000D01*
X107600000Y-60500000D01*
X107600000Y-58250000D01*
X108474000Y-58250000D01*
X109350000Y-58250000D01*
X109350000Y-56748000D01*
X108474000Y-56748000D01*
X108474000Y-58250000D01*
X107600000Y-58250000D01*
X107600000Y-56000000D01*
X108474000Y-56000000D01*
X109350000Y-56000000D01*
X109350000Y-54498000D01*
X108474000Y-54498000D01*
X108474000Y-56000000D01*
X107600000Y-56000000D01*
X107600000Y-53750000D01*
X108474000Y-53750000D01*
X109350000Y-53750000D01*
X109350000Y-52248000D01*
X108474000Y-52248000D01*
X108474000Y-53750000D01*
X107600000Y-53750000D01*
X107600000Y-51500000D01*
X108474000Y-51500000D01*
X109350000Y-51500000D01*
X109350000Y-49998000D01*
X108474000Y-49998000D01*
X108474000Y-51500000D01*
X107600000Y-51500000D01*
X107600000Y-49250000D01*
X108474000Y-49250000D01*
X109350000Y-49250000D01*
X109350000Y-47748000D01*
X108474000Y-47748000D01*
X108474000Y-49250000D01*
X107600000Y-49250000D01*
X107600000Y-47000000D01*
X108474000Y-47000000D01*
X109350000Y-47000000D01*
X109350000Y-45498000D01*
X108474000Y-45498000D01*
X108474000Y-47000000D01*
X107600000Y-47000000D01*
X107600000Y-44750000D01*
X108474000Y-44750000D01*
X109350000Y-44750000D01*
X109350000Y-43248000D01*
X108474000Y-43248000D01*
X108474000Y-44750000D01*
X107600000Y-44750000D01*
X107600000Y-42500000D01*
X108474000Y-42500000D01*
X109350000Y-42500000D01*
X109350000Y-40998000D01*
X108474000Y-40998000D01*
X108474000Y-42500000D01*
X107600000Y-42500000D01*
X107600000Y-40250000D01*
X108474000Y-40250000D01*
X109350000Y-40250000D01*
X109350000Y-38748000D01*
X108474000Y-38748000D01*
X108474000Y-40250000D01*
X107600000Y-40250000D01*
X107600000Y-38000000D01*
X108474000Y-38000000D01*
X109350000Y-38000000D01*
X109350000Y-36498000D01*
X108474000Y-36498000D01*
X108474000Y-38000000D01*
X107600000Y-38000000D01*
X107600000Y-35750000D01*
X108474000Y-35750000D01*
X109350000Y-35750000D01*
X109350000Y-34748000D01*
X108474000Y-34748000D01*
X108474000Y-35750000D01*
X107600000Y-35750000D01*
X107600000Y-34124000D01*
X107619685Y-34056961D01*
X107672489Y-34011206D01*
X107724000Y-34000000D01*
X110276000Y-34000000D01*
X110343039Y-34019685D01*
G37*
G36*
X138692155Y-94700600D02*
G01*
X138865482Y-94708167D01*
X138870882Y-94708521D01*
X139043712Y-94723642D01*
X139049089Y-94724231D01*
X139221101Y-94746877D01*
X139226448Y-94747700D01*
X139397288Y-94777823D01*
X139402595Y-94778878D01*
X139571996Y-94816434D01*
X139577250Y-94817720D01*
X139744818Y-94862619D01*
X139750013Y-94864133D01*
X139915487Y-94916307D01*
X139920609Y-94918046D01*
X140083629Y-94977380D01*
X140088672Y-94979341D01*
X140248961Y-95045736D01*
X140253912Y-95047915D01*
X140411145Y-95121233D01*
X140415998Y-95123626D01*
X140569898Y-95203741D01*
X140574641Y-95206343D01*
X140724891Y-95293090D01*
X140729517Y-95295897D01*
X140875823Y-95389105D01*
X140880320Y-95392110D01*
X141022444Y-95491626D01*
X141026807Y-95494825D01*
X141164447Y-95600439D01*
X141168666Y-95603825D01*
X141301565Y-95715340D01*
X141305634Y-95718908D01*
X141433560Y-95836132D01*
X141437467Y-95839873D01*
X141560126Y-95962532D01*
X141563867Y-95966439D01*
X141681091Y-96094365D01*
X141684659Y-96098434D01*
X141796174Y-96231333D01*
X141799560Y-96235552D01*
X141905174Y-96373192D01*
X141908373Y-96377555D01*
X142007889Y-96519679D01*
X142010894Y-96524176D01*
X142104102Y-96670482D01*
X142106909Y-96675108D01*
X142193656Y-96825358D01*
X142196258Y-96830101D01*
X142276373Y-96984001D01*
X142278766Y-96988854D01*
X142352084Y-97146087D01*
X142354263Y-97151038D01*
X142420658Y-97311327D01*
X142422619Y-97316370D01*
X142481953Y-97479390D01*
X142483692Y-97484512D01*
X142535866Y-97649986D01*
X142537380Y-97655181D01*
X142582279Y-97822749D01*
X142583565Y-97828003D01*
X142621121Y-97997404D01*
X142622176Y-98002711D01*
X142652299Y-98173551D01*
X142653122Y-98178898D01*
X142675768Y-98350910D01*
X142676357Y-98356287D01*
X142691478Y-98529117D01*
X142691832Y-98534517D01*
X142699414Y-98708184D01*
X142699530Y-98712923D01*
X142699998Y-98799627D01*
X142700000Y-98800296D01*
X142700000Y-101676000D01*
X142680315Y-101743039D01*
X142627511Y-101788794D01*
X142576000Y-101800000D01*
X134624000Y-101800000D01*
X134556961Y-101780315D01*
X134511206Y-101727511D01*
X134500000Y-101676000D01*
X134500000Y-101502000D01*
X134924000Y-101502000D01*
X135120864Y-101502000D01*
X135298791Y-101324072D01*
X135720226Y-101324072D01*
X135898154Y-101502000D01*
X136393656Y-101502000D01*
X136571584Y-101324072D01*
X136993018Y-101324072D01*
X137170946Y-101502000D01*
X137666448Y-101502000D01*
X137844376Y-101324072D01*
X138265810Y-101324072D01*
X138443738Y-101502000D01*
X138939240Y-101502000D01*
X139117168Y-101324072D01*
X139538602Y-101324072D01*
X139716530Y-101502000D01*
X140212032Y-101502000D01*
X140389960Y-101324072D01*
X140811395Y-101324072D01*
X140989323Y-101502000D01*
X141484825Y-101502000D01*
X141662752Y-101324072D01*
X142084187Y-101324072D01*
X142262115Y-101502000D01*
X142276000Y-101502000D01*
X142276000Y-101132259D01*
X142084187Y-101324072D01*
X141662752Y-101324072D01*
X141237073Y-100898393D01*
X140811395Y-101324072D01*
X140389960Y-101324072D01*
X139964281Y-100898393D01*
X139538602Y-101324072D01*
X139117168Y-101324072D01*
X138691489Y-100898393D01*
X138265810Y-101324072D01*
X137844376Y-101324072D01*
X137418697Y-100898393D01*
X136993018Y-101324072D01*
X136571584Y-101324072D01*
X136145905Y-100898393D01*
X135720226Y-101324072D01*
X135298791Y-101324072D01*
X134924000Y-100949280D01*
X134924000Y-101502000D01*
X134500000Y-101502000D01*
X134500000Y-100687676D01*
X135083830Y-100687676D01*
X135509508Y-101113354D01*
X135935187Y-100687676D01*
X136356622Y-100687676D01*
X136782301Y-101113355D01*
X137207980Y-100687676D01*
X137629414Y-100687676D01*
X138055093Y-101113355D01*
X138480772Y-100687676D01*
X138902206Y-100687676D01*
X139327885Y-101113354D01*
X139753564Y-100687676D01*
X140174999Y-100687676D01*
X140600677Y-101113354D01*
X141026356Y-100687676D01*
X141447791Y-100687676D01*
X141873469Y-101113354D01*
X142276000Y-100710824D01*
X142276000Y-100664527D01*
X141873470Y-100261997D01*
X141447791Y-100687676D01*
X141026356Y-100687676D01*
X140600677Y-100261997D01*
X140174999Y-100687676D01*
X139753564Y-100687676D01*
X139327885Y-100261997D01*
X138902206Y-100687676D01*
X138480772Y-100687676D01*
X138055093Y-100261997D01*
X137629414Y-100687676D01*
X137207980Y-100687676D01*
X136782301Y-100261997D01*
X136356622Y-100687676D01*
X135935187Y-100687676D01*
X135509508Y-100261997D01*
X135083830Y-100687676D01*
X134500000Y-100687676D01*
X134500000Y-100426071D01*
X134924000Y-100426071D01*
X135298791Y-100051280D01*
X135720226Y-100051280D01*
X136145905Y-100476959D01*
X136571584Y-100051280D01*
X136993018Y-100051280D01*
X137418697Y-100476959D01*
X137844376Y-100051280D01*
X138265810Y-100051280D01*
X138691489Y-100476959D01*
X139117168Y-100051280D01*
X139538602Y-100051280D01*
X139964281Y-100476958D01*
X140389960Y-100051280D01*
X140811395Y-100051280D01*
X141237073Y-100476958D01*
X141662752Y-100051280D01*
X142084187Y-100051280D01*
X142276000Y-100243093D01*
X142276000Y-99859467D01*
X142084187Y-100051280D01*
X141662752Y-100051280D01*
X141237073Y-99625601D01*
X140811395Y-100051280D01*
X140389960Y-100051280D01*
X139964281Y-99625601D01*
X139538602Y-100051280D01*
X139117168Y-100051280D01*
X138691489Y-99625601D01*
X138265810Y-100051280D01*
X137844376Y-100051280D01*
X137418697Y-99625601D01*
X136993018Y-100051280D01*
X136571584Y-100051280D01*
X136145905Y-99625601D01*
X135720226Y-100051280D01*
X135298791Y-100051280D01*
X134924000Y-99676488D01*
X134924000Y-100426071D01*
X134500000Y-100426071D01*
X134500000Y-99414884D01*
X135083830Y-99414884D01*
X135509508Y-99840562D01*
X135935187Y-99414884D01*
X136356622Y-99414884D01*
X136782301Y-99840563D01*
X137207980Y-99414884D01*
X137629414Y-99414884D01*
X138055093Y-99840563D01*
X138480772Y-99414884D01*
X138902206Y-99414884D01*
X139327885Y-99840562D01*
X139753564Y-99414884D01*
X140174999Y-99414884D01*
X140600677Y-99840562D01*
X141026356Y-99414884D01*
X141447791Y-99414884D01*
X141873469Y-99840562D01*
X142276000Y-99438032D01*
X142276000Y-99391735D01*
X141873470Y-98989205D01*
X141447791Y-99414884D01*
X141026356Y-99414884D01*
X140600677Y-98989205D01*
X140174999Y-99414884D01*
X139753564Y-99414884D01*
X139327885Y-98989205D01*
X138902206Y-99414884D01*
X138480772Y-99414884D01*
X138055093Y-98989205D01*
X137629414Y-99414884D01*
X137207980Y-99414884D01*
X136782301Y-98989205D01*
X136356622Y-99414884D01*
X135935187Y-99414884D01*
X135509508Y-98989205D01*
X135083830Y-99414884D01*
X134500000Y-99414884D01*
X134500000Y-98801169D01*
X134924000Y-98801169D01*
X134924000Y-99153279D01*
X135298791Y-98778487D01*
X135720226Y-98778487D01*
X136145905Y-99204166D01*
X136571583Y-98778487D01*
X136993018Y-98778487D01*
X137418697Y-99204166D01*
X137844375Y-98778487D01*
X138265810Y-98778487D01*
X138691489Y-99204166D01*
X139117167Y-98778487D01*
X139538602Y-98778487D01*
X139964281Y-99204166D01*
X140389959Y-98778487D01*
X140811395Y-98778487D01*
X141237073Y-99204166D01*
X141662752Y-98778487D01*
X142084186Y-98778487D01*
X142276000Y-98970300D01*
X142276000Y-98801172D01*
X142275566Y-98720949D01*
X142269968Y-98592705D01*
X142084186Y-98778487D01*
X141662752Y-98778487D01*
X141237073Y-98352809D01*
X140811395Y-98778487D01*
X140389959Y-98778487D01*
X139964281Y-98352809D01*
X139538602Y-98778487D01*
X139117167Y-98778487D01*
X138691489Y-98352809D01*
X138265810Y-98778487D01*
X137844375Y-98778487D01*
X137418697Y-98352809D01*
X136993018Y-98778487D01*
X136571583Y-98778487D01*
X136145905Y-98352809D01*
X135720226Y-98778487D01*
X135298791Y-98778487D01*
X134943414Y-98423110D01*
X134931479Y-98559530D01*
X134924432Y-98720949D01*
X134924000Y-98801169D01*
X134500000Y-98801169D01*
X134500000Y-98800296D01*
X134500002Y-98799628D01*
X134500469Y-98712924D01*
X134500585Y-98708184D01*
X134508167Y-98534517D01*
X134508521Y-98529117D01*
X134523642Y-98356287D01*
X134524231Y-98350910D01*
X134546877Y-98178898D01*
X134547700Y-98173551D01*
X134553247Y-98142091D01*
X135083830Y-98142091D01*
X135509508Y-98567770D01*
X135935187Y-98142091D01*
X136356622Y-98142091D01*
X136782301Y-98567770D01*
X137207979Y-98142091D01*
X137629414Y-98142091D01*
X138055093Y-98567770D01*
X138480771Y-98142091D01*
X138902206Y-98142091D01*
X139327885Y-98567770D01*
X139753563Y-98142091D01*
X140174999Y-98142091D01*
X140600677Y-98567770D01*
X141026356Y-98142091D01*
X141447791Y-98142091D01*
X141873469Y-98567769D01*
X142228643Y-98212594D01*
X142205757Y-98082798D01*
X142196044Y-98038987D01*
X141873470Y-97716413D01*
X141447791Y-98142091D01*
X141026356Y-98142091D01*
X140600677Y-97716413D01*
X140174999Y-98142091D01*
X139753563Y-98142091D01*
X139327885Y-97716413D01*
X138902206Y-98142091D01*
X138480771Y-98142091D01*
X138055093Y-97716413D01*
X137629414Y-98142091D01*
X137207979Y-98142091D01*
X136782301Y-97716413D01*
X136356622Y-98142091D01*
X135935187Y-98142091D01*
X135509508Y-97716413D01*
X135083830Y-98142091D01*
X134553247Y-98142091D01*
X134577823Y-98002711D01*
X134578878Y-97997404D01*
X134616434Y-97828003D01*
X134617720Y-97822749D01*
X134662619Y-97655181D01*
X134664133Y-97649986D01*
X134709628Y-97505695D01*
X135720226Y-97505695D01*
X136145905Y-97931374D01*
X136571583Y-97505695D01*
X136993018Y-97505695D01*
X137418697Y-97931374D01*
X137844375Y-97505695D01*
X138265810Y-97505695D01*
X138691489Y-97931374D01*
X139117167Y-97505695D01*
X139538602Y-97505695D01*
X139964281Y-97931374D01*
X140389959Y-97505695D01*
X140811395Y-97505695D01*
X141237073Y-97931374D01*
X141662752Y-97505695D01*
X141237073Y-97080017D01*
X140811395Y-97505695D01*
X140389959Y-97505695D01*
X139964281Y-97080017D01*
X139538602Y-97505695D01*
X139117167Y-97505695D01*
X138691489Y-97080017D01*
X138265810Y-97505695D01*
X137844375Y-97505695D01*
X137418697Y-97080017D01*
X136993018Y-97505695D01*
X136571583Y-97505695D01*
X136145905Y-97080017D01*
X135720226Y-97505695D01*
X134709628Y-97505695D01*
X134716307Y-97484512D01*
X134718046Y-97479390D01*
X134777380Y-97316370D01*
X134779341Y-97311327D01*
X134845736Y-97151038D01*
X134847915Y-97146087D01*
X134861212Y-97117572D01*
X135332103Y-97117572D01*
X135509508Y-97294977D01*
X135935187Y-96869299D01*
X136356622Y-96869299D01*
X136782301Y-97294978D01*
X137207979Y-96869299D01*
X137629414Y-96869299D01*
X138055093Y-97294978D01*
X138480771Y-96869299D01*
X138902206Y-96869299D01*
X139327885Y-97294977D01*
X139753563Y-96869299D01*
X140174999Y-96869299D01*
X140600677Y-97294977D01*
X141026356Y-96869299D01*
X141026355Y-96869298D01*
X141447790Y-96869298D01*
X141873469Y-97294977D01*
X141928173Y-97240272D01*
X141897267Y-97173994D01*
X141823182Y-97031677D01*
X141743003Y-96892802D01*
X141656801Y-96757494D01*
X141616768Y-96700320D01*
X141447790Y-96869298D01*
X141026355Y-96869298D01*
X140600677Y-96443620D01*
X140174999Y-96869299D01*
X139753563Y-96869299D01*
X139327885Y-96443620D01*
X138902206Y-96869299D01*
X138480771Y-96869299D01*
X138055093Y-96443620D01*
X137629414Y-96869299D01*
X137207979Y-96869299D01*
X136782301Y-96443620D01*
X136356622Y-96869299D01*
X135935187Y-96869299D01*
X135659856Y-96593968D01*
X135635192Y-96626111D01*
X135543197Y-96757494D01*
X135456995Y-96892802D01*
X135376816Y-97031677D01*
X135332103Y-97117572D01*
X134861212Y-97117572D01*
X134921233Y-96988854D01*
X134923626Y-96984001D01*
X135003741Y-96830101D01*
X135006343Y-96825358D01*
X135093090Y-96675108D01*
X135095897Y-96670482D01*
X135189105Y-96524176D01*
X135192110Y-96519679D01*
X135291626Y-96377555D01*
X135294825Y-96373192D01*
X135303641Y-96361703D01*
X135849026Y-96361703D01*
X136145905Y-96658582D01*
X136571583Y-96232903D01*
X136993018Y-96232903D01*
X137418697Y-96658582D01*
X137844375Y-96232903D01*
X138265810Y-96232903D01*
X138691489Y-96658582D01*
X139117167Y-96232903D01*
X139538602Y-96232903D01*
X139964281Y-96658581D01*
X140389959Y-96232903D01*
X140389958Y-96232902D01*
X140811394Y-96232902D01*
X141237073Y-96658581D01*
X141435056Y-96460597D01*
X141364044Y-96375969D01*
X141255687Y-96257719D01*
X141142279Y-96144311D01*
X141024019Y-96035944D01*
X141015500Y-96028796D01*
X140811394Y-96232902D01*
X140389958Y-96232902D01*
X139964281Y-95807224D01*
X139538602Y-96232903D01*
X139117167Y-96232903D01*
X138691489Y-95807224D01*
X138265810Y-96232903D01*
X137844375Y-96232903D01*
X137418697Y-95807224D01*
X136993018Y-96232903D01*
X136571583Y-96232903D01*
X136283992Y-95945312D01*
X136175969Y-96035954D01*
X136057719Y-96144311D01*
X135944311Y-96257719D01*
X135849026Y-96361703D01*
X135303641Y-96361703D01*
X135400439Y-96235552D01*
X135403825Y-96231333D01*
X135515340Y-96098434D01*
X135518908Y-96094365D01*
X135636132Y-95966439D01*
X135639873Y-95962532D01*
X135762532Y-95839873D01*
X135766439Y-95836132D01*
X135843507Y-95765511D01*
X136525626Y-95765511D01*
X136782301Y-96022186D01*
X137207980Y-95596507D01*
X137207979Y-95596506D01*
X137629413Y-95596506D01*
X138055093Y-96022186D01*
X138480772Y-95596507D01*
X138480771Y-95596506D01*
X138902206Y-95596506D01*
X139327885Y-96022185D01*
X139753564Y-95596507D01*
X140174999Y-95596507D01*
X140600677Y-96022185D01*
X140781685Y-95841175D01*
X140773887Y-95835192D01*
X140642504Y-95743197D01*
X140507196Y-95656995D01*
X140368321Y-95576816D01*
X140254131Y-95517373D01*
X140174999Y-95596507D01*
X139753564Y-95596507D01*
X139361010Y-95203953D01*
X139317209Y-95194243D01*
X139306378Y-95192333D01*
X138902206Y-95596506D01*
X138480771Y-95596506D01*
X138055092Y-95170827D01*
X137629413Y-95596506D01*
X137207979Y-95596506D01*
X137069615Y-95458142D01*
X136973986Y-95502735D01*
X136831677Y-95576816D01*
X136692802Y-95656995D01*
X136557494Y-95743197D01*
X136525626Y-95765511D01*
X135843507Y-95765511D01*
X135894365Y-95718908D01*
X135898434Y-95715340D01*
X136031333Y-95603825D01*
X136035552Y-95600439D01*
X136173192Y-95494825D01*
X136177555Y-95491626D01*
X136319679Y-95392110D01*
X136324176Y-95389105D01*
X136470482Y-95295897D01*
X136475108Y-95293090D01*
X136625358Y-95206343D01*
X136630101Y-95203741D01*
X136775155Y-95128231D01*
X138433930Y-95128231D01*
X138691488Y-95385789D01*
X138937325Y-95139953D01*
X138840468Y-95131479D01*
X138680190Y-95124482D01*
X138519810Y-95124482D01*
X138433930Y-95128231D01*
X136775155Y-95128231D01*
X136784001Y-95123626D01*
X136788854Y-95121233D01*
X136946087Y-95047915D01*
X136951038Y-95045736D01*
X137111327Y-94979341D01*
X137116370Y-94977380D01*
X137279390Y-94918046D01*
X137284512Y-94916307D01*
X137449986Y-94864133D01*
X137455181Y-94862619D01*
X137622749Y-94817720D01*
X137628003Y-94816434D01*
X137797404Y-94778878D01*
X137802711Y-94777823D01*
X137973551Y-94747700D01*
X137978898Y-94746877D01*
X138150910Y-94724231D01*
X138156287Y-94723642D01*
X138329117Y-94708521D01*
X138334517Y-94708167D01*
X138507845Y-94700600D01*
X138513253Y-94700482D01*
X138686747Y-94700482D01*
X138692155Y-94700600D01*
G37*
G36*
X142643039Y-34019685D02*
G01*
X142688794Y-34072489D01*
X142700000Y-34124000D01*
X142700000Y-36999703D01*
X142699998Y-37000372D01*
X142699530Y-37087076D01*
X142699414Y-37091815D01*
X142691832Y-37265482D01*
X142691478Y-37270882D01*
X142676357Y-37443712D01*
X142675768Y-37449089D01*
X142653122Y-37621101D01*
X142652299Y-37626448D01*
X142622176Y-37797288D01*
X142621121Y-37802595D01*
X142583565Y-37971996D01*
X142582279Y-37977250D01*
X142537380Y-38144818D01*
X142535866Y-38150013D01*
X142483692Y-38315487D01*
X142481953Y-38320609D01*
X142422619Y-38483629D01*
X142420658Y-38488672D01*
X142354263Y-38648961D01*
X142352084Y-38653912D01*
X142278766Y-38811145D01*
X142276373Y-38815998D01*
X142196258Y-38969898D01*
X142193656Y-38974641D01*
X142106909Y-39124891D01*
X142104102Y-39129517D01*
X142010894Y-39275823D01*
X142007889Y-39280320D01*
X141908373Y-39422444D01*
X141905174Y-39426807D01*
X141799560Y-39564447D01*
X141796174Y-39568666D01*
X141684659Y-39701565D01*
X141681091Y-39705634D01*
X141563867Y-39833560D01*
X141560126Y-39837467D01*
X141437467Y-39960126D01*
X141433560Y-39963867D01*
X141305634Y-40081091D01*
X141301565Y-40084659D01*
X141168666Y-40196174D01*
X141164447Y-40199560D01*
X141026807Y-40305174D01*
X141022444Y-40308373D01*
X140880320Y-40407889D01*
X140875823Y-40410894D01*
X140729517Y-40504102D01*
X140724891Y-40506909D01*
X140574641Y-40593656D01*
X140569898Y-40596258D01*
X140415998Y-40676373D01*
X140411145Y-40678766D01*
X140253912Y-40752084D01*
X140248961Y-40754263D01*
X140088672Y-40820658D01*
X140083629Y-40822619D01*
X139920609Y-40881953D01*
X139915487Y-40883692D01*
X139750013Y-40935866D01*
X139744818Y-40937380D01*
X139577250Y-40982279D01*
X139571996Y-40983565D01*
X139402595Y-41021121D01*
X139397288Y-41022176D01*
X139226448Y-41052299D01*
X139221101Y-41053122D01*
X139049089Y-41075768D01*
X139043712Y-41076357D01*
X138870882Y-41091478D01*
X138865483Y-41091832D01*
X138692156Y-41099400D01*
X138686747Y-41099518D01*
X138513253Y-41099518D01*
X138507844Y-41099400D01*
X138334516Y-41091832D01*
X138329117Y-41091478D01*
X138156287Y-41076357D01*
X138150910Y-41075768D01*
X137978898Y-41053122D01*
X137973551Y-41052299D01*
X137802711Y-41022176D01*
X137797404Y-41021121D01*
X137628003Y-40983565D01*
X137622749Y-40982279D01*
X137455181Y-40937380D01*
X137449986Y-40935866D01*
X137284512Y-40883692D01*
X137279390Y-40881953D01*
X137116370Y-40822619D01*
X137111327Y-40820658D01*
X136951038Y-40754263D01*
X136946087Y-40752084D01*
X136788854Y-40678766D01*
X136784001Y-40676373D01*
X136775155Y-40671768D01*
X138433930Y-40671768D01*
X138519811Y-40675518D01*
X138680189Y-40675518D01*
X138840469Y-40668519D01*
X138937326Y-40660045D01*
X138691489Y-40414209D01*
X138433930Y-40671768D01*
X136775155Y-40671768D01*
X136630101Y-40596258D01*
X136625358Y-40593656D01*
X136475108Y-40506909D01*
X136470482Y-40504102D01*
X136324176Y-40410894D01*
X136319679Y-40407889D01*
X136177555Y-40308373D01*
X136173192Y-40305174D01*
X136035552Y-40199560D01*
X136031333Y-40196174D01*
X135898434Y-40084659D01*
X135894365Y-40081091D01*
X135843506Y-40034487D01*
X136525626Y-40034487D01*
X136557494Y-40056801D01*
X136692802Y-40143003D01*
X136831677Y-40223182D01*
X136973986Y-40297263D01*
X137069615Y-40341855D01*
X137207978Y-40203492D01*
X137629415Y-40203492D01*
X138055093Y-40629170D01*
X138480771Y-40203492D01*
X138902207Y-40203492D01*
X139306380Y-40607665D01*
X139317217Y-40605754D01*
X139361011Y-40596045D01*
X139753563Y-40203492D01*
X140174999Y-40203492D01*
X140254132Y-40282625D01*
X140368321Y-40223182D01*
X140507196Y-40143003D01*
X140642504Y-40056801D01*
X140773875Y-39964814D01*
X140781686Y-39958821D01*
X140600678Y-39777813D01*
X140174999Y-40203492D01*
X139753563Y-40203492D01*
X139753564Y-40203491D01*
X139327886Y-39777813D01*
X138902207Y-40203492D01*
X138480771Y-40203492D01*
X138480772Y-40203491D01*
X138055094Y-39777813D01*
X137629415Y-40203492D01*
X137207978Y-40203492D01*
X137207979Y-40203491D01*
X136782301Y-39777812D01*
X136525626Y-40034487D01*
X135843506Y-40034487D01*
X135766439Y-39963867D01*
X135762532Y-39960126D01*
X135639873Y-39837467D01*
X135636132Y-39833560D01*
X135518908Y-39705634D01*
X135515340Y-39701565D01*
X135403825Y-39568666D01*
X135400439Y-39564447D01*
X135303639Y-39438294D01*
X135849026Y-39438294D01*
X135944311Y-39542279D01*
X136057719Y-39655687D01*
X136175969Y-39764044D01*
X136283992Y-39854686D01*
X136571582Y-39567096D01*
X136993019Y-39567096D01*
X137418697Y-39992774D01*
X137844376Y-39567096D01*
X138265811Y-39567096D01*
X138691490Y-39992775D01*
X139117169Y-39567096D01*
X139538603Y-39567096D01*
X139964282Y-39992775D01*
X140389961Y-39567096D01*
X140389960Y-39567095D01*
X140811395Y-39567095D01*
X141015501Y-39771201D01*
X141024019Y-39764054D01*
X141142279Y-39655687D01*
X141255687Y-39542279D01*
X141364044Y-39424029D01*
X141435057Y-39339400D01*
X141237074Y-39141417D01*
X140811395Y-39567095D01*
X140389960Y-39567095D01*
X139964282Y-39141417D01*
X139538603Y-39567096D01*
X139117169Y-39567096D01*
X138691490Y-39141417D01*
X138265811Y-39567096D01*
X137844376Y-39567096D01*
X137418697Y-39141417D01*
X136993019Y-39567096D01*
X136571582Y-39567096D01*
X136571583Y-39567095D01*
X136145904Y-39141416D01*
X135849026Y-39438294D01*
X135303639Y-39438294D01*
X135294825Y-39426807D01*
X135291626Y-39422444D01*
X135192110Y-39280320D01*
X135189105Y-39275823D01*
X135095897Y-39129517D01*
X135093090Y-39124891D01*
X135006343Y-38974641D01*
X135003741Y-38969898D01*
X134923626Y-38815998D01*
X134921233Y-38811145D01*
X134861211Y-38682426D01*
X135332102Y-38682426D01*
X135376816Y-38768321D01*
X135456995Y-38907196D01*
X135543197Y-39042504D01*
X135635192Y-39173887D01*
X135659856Y-39206030D01*
X135935186Y-38930700D01*
X136356623Y-38930700D01*
X136782301Y-39356378D01*
X137207980Y-38930700D01*
X137629415Y-38930700D01*
X138055094Y-39356379D01*
X138480773Y-38930700D01*
X138902207Y-38930700D01*
X139327886Y-39356379D01*
X139753565Y-38930700D01*
X140174999Y-38930700D01*
X140600678Y-39356379D01*
X141026357Y-38930700D01*
X141026356Y-38930699D01*
X141447791Y-38930699D01*
X141616769Y-39099677D01*
X141656801Y-39042504D01*
X141743003Y-38907196D01*
X141823182Y-38768321D01*
X141897257Y-38626022D01*
X141928172Y-38559723D01*
X141873470Y-38505021D01*
X141447791Y-38930699D01*
X141026356Y-38930699D01*
X140600678Y-38505021D01*
X140174999Y-38930700D01*
X139753565Y-38930700D01*
X139327886Y-38505021D01*
X138902207Y-38930700D01*
X138480773Y-38930700D01*
X138055094Y-38505021D01*
X137629415Y-38930700D01*
X137207980Y-38930700D01*
X136782301Y-38505021D01*
X136356623Y-38930700D01*
X135935186Y-38930700D01*
X135935187Y-38930699D01*
X135509508Y-38505020D01*
X135332102Y-38682426D01*
X134861211Y-38682426D01*
X134847915Y-38653912D01*
X134845736Y-38648961D01*
X134779341Y-38488672D01*
X134777380Y-38483629D01*
X134718046Y-38320609D01*
X134716307Y-38315487D01*
X134709628Y-38294304D01*
X135720226Y-38294304D01*
X136145905Y-38719982D01*
X136571584Y-38294304D01*
X136993019Y-38294304D01*
X137418697Y-38719982D01*
X137844376Y-38294304D01*
X138265811Y-38294304D01*
X138691490Y-38719983D01*
X139117169Y-38294304D01*
X139538603Y-38294304D01*
X139964282Y-38719983D01*
X140389961Y-38294304D01*
X140811395Y-38294304D01*
X141237074Y-38719982D01*
X141662753Y-38294304D01*
X141237074Y-37868625D01*
X140811395Y-38294304D01*
X140389961Y-38294304D01*
X139964282Y-37868625D01*
X139538603Y-38294304D01*
X139117169Y-38294304D01*
X138691490Y-37868625D01*
X138265811Y-38294304D01*
X137844376Y-38294304D01*
X137418697Y-37868625D01*
X136993019Y-38294304D01*
X136571584Y-38294304D01*
X136145905Y-37868625D01*
X135720226Y-38294304D01*
X134709628Y-38294304D01*
X134664133Y-38150013D01*
X134662619Y-38144818D01*
X134617720Y-37977250D01*
X134616434Y-37971996D01*
X134578878Y-37802595D01*
X134577823Y-37797288D01*
X134553247Y-37657908D01*
X135083830Y-37657908D01*
X135509509Y-38083586D01*
X135935188Y-37657908D01*
X136356623Y-37657908D01*
X136782301Y-38083586D01*
X137207980Y-37657908D01*
X137629415Y-37657908D01*
X138055094Y-38083587D01*
X138480773Y-37657908D01*
X138902207Y-37657908D01*
X139327886Y-38083587D01*
X139753565Y-37657908D01*
X140174999Y-37657908D01*
X140600678Y-38083587D01*
X141026357Y-37657908D01*
X141447791Y-37657908D01*
X141873469Y-38083586D01*
X142196044Y-37761010D01*
X142205755Y-37717212D01*
X142228644Y-37587403D01*
X141873470Y-37232229D01*
X141447791Y-37657908D01*
X141026357Y-37657908D01*
X140600678Y-37232229D01*
X140174999Y-37657908D01*
X139753565Y-37657908D01*
X139327886Y-37232229D01*
X138902207Y-37657908D01*
X138480773Y-37657908D01*
X138055094Y-37232229D01*
X137629415Y-37657908D01*
X137207980Y-37657908D01*
X136782301Y-37232229D01*
X136356623Y-37657908D01*
X135935188Y-37657908D01*
X135509509Y-37232229D01*
X135083830Y-37657908D01*
X134553247Y-37657908D01*
X134547700Y-37626448D01*
X134546877Y-37621101D01*
X134524231Y-37449089D01*
X134523642Y-37443712D01*
X134508521Y-37270882D01*
X134508167Y-37265482D01*
X134500585Y-37091815D01*
X134500469Y-37087075D01*
X134500002Y-37000371D01*
X134500000Y-36999703D01*
X134500000Y-36998829D01*
X134924000Y-36998829D01*
X134924432Y-37079049D01*
X134931479Y-37240468D01*
X134943414Y-37376889D01*
X135298792Y-37021512D01*
X135720226Y-37021512D01*
X136145905Y-37447190D01*
X136571584Y-37021512D01*
X136993019Y-37021512D01*
X137418697Y-37447190D01*
X137844376Y-37021512D01*
X138265811Y-37021512D01*
X138691490Y-37447191D01*
X139117169Y-37021512D01*
X139538603Y-37021512D01*
X139964282Y-37447191D01*
X140389961Y-37021512D01*
X140811395Y-37021512D01*
X141237074Y-37447190D01*
X141662753Y-37021512D01*
X142084188Y-37021512D01*
X142269968Y-37207292D01*
X142275566Y-37079049D01*
X142276000Y-36998826D01*
X142276000Y-36829700D01*
X142084188Y-37021512D01*
X141662753Y-37021512D01*
X141237074Y-36595833D01*
X140811395Y-37021512D01*
X140389961Y-37021512D01*
X139964282Y-36595833D01*
X139538603Y-37021512D01*
X139117169Y-37021512D01*
X138691490Y-36595833D01*
X138265811Y-37021512D01*
X137844376Y-37021512D01*
X137418697Y-36595833D01*
X136993019Y-37021512D01*
X136571584Y-37021512D01*
X136145905Y-36595833D01*
X135720226Y-37021512D01*
X135298792Y-37021512D01*
X134924000Y-36646720D01*
X134924000Y-36998829D01*
X134500000Y-36998829D01*
X134500000Y-36385115D01*
X135083830Y-36385115D01*
X135509509Y-36810794D01*
X135935187Y-36385115D01*
X136356623Y-36385115D01*
X136782301Y-36810794D01*
X137207980Y-36385115D01*
X137629415Y-36385115D01*
X138055094Y-36810794D01*
X138480772Y-36385115D01*
X138902207Y-36385115D01*
X139327886Y-36810794D01*
X139753564Y-36385115D01*
X140174999Y-36385115D01*
X140600678Y-36810794D01*
X141026356Y-36385115D01*
X141447791Y-36385115D01*
X141873470Y-36810794D01*
X142276000Y-36408264D01*
X142276000Y-36361967D01*
X141873470Y-35959437D01*
X141447791Y-36385115D01*
X141026356Y-36385115D01*
X140600678Y-35959437D01*
X140174999Y-36385115D01*
X139753564Y-36385115D01*
X139327886Y-35959437D01*
X138902207Y-36385115D01*
X138480772Y-36385115D01*
X138055094Y-35959437D01*
X137629415Y-36385115D01*
X137207980Y-36385115D01*
X136782301Y-35959437D01*
X136356623Y-36385115D01*
X135935187Y-36385115D01*
X135509509Y-35959437D01*
X135083830Y-36385115D01*
X134500000Y-36385115D01*
X134500000Y-36123511D01*
X134924000Y-36123511D01*
X135298791Y-35748719D01*
X135720226Y-35748719D01*
X136145905Y-36174398D01*
X136571583Y-35748719D01*
X136993019Y-35748719D01*
X137418697Y-36174398D01*
X137844376Y-35748719D01*
X138265811Y-35748719D01*
X138691490Y-36174398D01*
X139117168Y-35748719D01*
X139538603Y-35748719D01*
X139964282Y-36174398D01*
X140389960Y-35748719D01*
X140811395Y-35748719D01*
X141237074Y-36174398D01*
X141662752Y-35748719D01*
X142084188Y-35748719D01*
X142276000Y-35940531D01*
X142276000Y-35556908D01*
X142084188Y-35748719D01*
X141662752Y-35748719D01*
X141237074Y-35323041D01*
X140811395Y-35748719D01*
X140389960Y-35748719D01*
X139964282Y-35323041D01*
X139538603Y-35748719D01*
X139117168Y-35748719D01*
X138691490Y-35323041D01*
X138265811Y-35748719D01*
X137844376Y-35748719D01*
X137418697Y-35323041D01*
X136993019Y-35748719D01*
X136571583Y-35748719D01*
X136145905Y-35323041D01*
X135720226Y-35748719D01*
X135298791Y-35748719D01*
X134924000Y-35373928D01*
X134924000Y-36123511D01*
X134500000Y-36123511D01*
X134500000Y-35112323D01*
X135083830Y-35112323D01*
X135509509Y-35538001D01*
X135935187Y-35112323D01*
X136356623Y-35112323D01*
X136782301Y-35538001D01*
X137207980Y-35112323D01*
X137629415Y-35112323D01*
X138055094Y-35538002D01*
X138480772Y-35112323D01*
X138902207Y-35112323D01*
X139327886Y-35538002D01*
X139753564Y-35112323D01*
X140174999Y-35112323D01*
X140600678Y-35538002D01*
X141026356Y-35112323D01*
X141447791Y-35112323D01*
X141873470Y-35538001D01*
X142276000Y-35135472D01*
X142276000Y-35089174D01*
X141873470Y-34686644D01*
X141447791Y-35112323D01*
X141026356Y-35112323D01*
X140600678Y-34686644D01*
X140174999Y-35112323D01*
X139753564Y-35112323D01*
X139327886Y-34686644D01*
X138902207Y-35112323D01*
X138480772Y-35112323D01*
X138055094Y-34686644D01*
X137629415Y-35112323D01*
X137207980Y-35112323D01*
X136782301Y-34686644D01*
X136356623Y-35112323D01*
X135935187Y-35112323D01*
X135509509Y-34686644D01*
X135083830Y-35112323D01*
X134500000Y-35112323D01*
X134500000Y-34850719D01*
X134924000Y-34850719D01*
X135298791Y-34475927D01*
X135720226Y-34475927D01*
X136145905Y-34901605D01*
X136571583Y-34475927D01*
X136993019Y-34475927D01*
X137418697Y-34901605D01*
X137844376Y-34475927D01*
X138265811Y-34475927D01*
X138691490Y-34901606D01*
X139117168Y-34475927D01*
X139538603Y-34475927D01*
X139964282Y-34901606D01*
X140389960Y-34475927D01*
X140811395Y-34475927D01*
X141237074Y-34901605D01*
X141662752Y-34475927D01*
X142084188Y-34475927D01*
X142276000Y-34667739D01*
X142276000Y-34298000D01*
X142262116Y-34298000D01*
X142084188Y-34475927D01*
X141662752Y-34475927D01*
X141484825Y-34298000D01*
X140989323Y-34298000D01*
X140811395Y-34475927D01*
X140389960Y-34475927D01*
X140212033Y-34298000D01*
X139716531Y-34298000D01*
X139538603Y-34475927D01*
X139117168Y-34475927D01*
X138939241Y-34298000D01*
X138443739Y-34298000D01*
X138265811Y-34475927D01*
X137844376Y-34475927D01*
X137666449Y-34298000D01*
X137170947Y-34298000D01*
X136993019Y-34475927D01*
X136571583Y-34475927D01*
X136393656Y-34298000D01*
X135898154Y-34298000D01*
X135720226Y-34475927D01*
X135298791Y-34475927D01*
X135120864Y-34298000D01*
X134924000Y-34298000D01*
X134924000Y-34850719D01*
X134500000Y-34850719D01*
X134500000Y-34124000D01*
X134519685Y-34056961D01*
X134572489Y-34011206D01*
X134624000Y-34000000D01*
X142576000Y-34000000D01*
X142643039Y-34019685D01*
G37*
G36*
X66043039Y-34019685D02*
G01*
X66088794Y-34072489D01*
X66100000Y-34124000D01*
X66100000Y-36999703D01*
X66099998Y-37000372D01*
X66099530Y-37087076D01*
X66099414Y-37091815D01*
X66091832Y-37265482D01*
X66091478Y-37270882D01*
X66076357Y-37443712D01*
X66075768Y-37449089D01*
X66053122Y-37621101D01*
X66052299Y-37626448D01*
X66022176Y-37797288D01*
X66021121Y-37802595D01*
X65983565Y-37971996D01*
X65982279Y-37977250D01*
X65937380Y-38144818D01*
X65935866Y-38150013D01*
X65883692Y-38315487D01*
X65881953Y-38320609D01*
X65822619Y-38483629D01*
X65820658Y-38488672D01*
X65754263Y-38648961D01*
X65752084Y-38653912D01*
X65678766Y-38811145D01*
X65676373Y-38815998D01*
X65596258Y-38969898D01*
X65593656Y-38974641D01*
X65506909Y-39124891D01*
X65504102Y-39129517D01*
X65410894Y-39275823D01*
X65407889Y-39280320D01*
X65308373Y-39422444D01*
X65305174Y-39426807D01*
X65199560Y-39564447D01*
X65196174Y-39568666D01*
X65084659Y-39701565D01*
X65081091Y-39705634D01*
X64963867Y-39833560D01*
X64960126Y-39837467D01*
X64837467Y-39960126D01*
X64833560Y-39963867D01*
X64705634Y-40081091D01*
X64701565Y-40084659D01*
X64568666Y-40196174D01*
X64564447Y-40199560D01*
X64426807Y-40305174D01*
X64422444Y-40308373D01*
X64280320Y-40407889D01*
X64275823Y-40410894D01*
X64129517Y-40504102D01*
X64124891Y-40506909D01*
X63974641Y-40593656D01*
X63969898Y-40596258D01*
X63815998Y-40676373D01*
X63811145Y-40678766D01*
X63653912Y-40752084D01*
X63648961Y-40754263D01*
X63488672Y-40820658D01*
X63483629Y-40822619D01*
X63320609Y-40881953D01*
X63315487Y-40883692D01*
X63150013Y-40935866D01*
X63144818Y-40937380D01*
X62977250Y-40982279D01*
X62971996Y-40983565D01*
X62802595Y-41021121D01*
X62797288Y-41022176D01*
X62626448Y-41052299D01*
X62621101Y-41053122D01*
X62449089Y-41075768D01*
X62443712Y-41076357D01*
X62270882Y-41091478D01*
X62265483Y-41091832D01*
X62092156Y-41099400D01*
X62086747Y-41099518D01*
X61913253Y-41099518D01*
X61907844Y-41099400D01*
X61734516Y-41091832D01*
X61729117Y-41091478D01*
X61556287Y-41076357D01*
X61550910Y-41075768D01*
X61378898Y-41053122D01*
X61373551Y-41052299D01*
X61202711Y-41022176D01*
X61197404Y-41021121D01*
X61028003Y-40983565D01*
X61022749Y-40982279D01*
X60855181Y-40937380D01*
X60849986Y-40935866D01*
X60684512Y-40883692D01*
X60679390Y-40881953D01*
X60516370Y-40822619D01*
X60511327Y-40820658D01*
X60351038Y-40754263D01*
X60346087Y-40752084D01*
X60188854Y-40678766D01*
X60184001Y-40676373D01*
X60175155Y-40671768D01*
X61833931Y-40671768D01*
X61919811Y-40675518D01*
X62080189Y-40675518D01*
X62240469Y-40668519D01*
X62337325Y-40660045D01*
X62091489Y-40414209D01*
X61833931Y-40671768D01*
X60175155Y-40671768D01*
X60030101Y-40596258D01*
X60025358Y-40593656D01*
X59875108Y-40506909D01*
X59870482Y-40504102D01*
X59724176Y-40410894D01*
X59719679Y-40407889D01*
X59577555Y-40308373D01*
X59573192Y-40305174D01*
X59435552Y-40199560D01*
X59431333Y-40196174D01*
X59298434Y-40084659D01*
X59294365Y-40081091D01*
X59243506Y-40034487D01*
X59925626Y-40034487D01*
X59957494Y-40056801D01*
X60092802Y-40143003D01*
X60231677Y-40223182D01*
X60373986Y-40297263D01*
X60469616Y-40341856D01*
X60607978Y-40203493D01*
X61029415Y-40203493D01*
X61455093Y-40629171D01*
X61880771Y-40203493D01*
X62302207Y-40203493D01*
X62706379Y-40607665D01*
X62717217Y-40605754D01*
X62761012Y-40596044D01*
X63153563Y-40203493D01*
X63574999Y-40203493D01*
X63654131Y-40282625D01*
X63768321Y-40223182D01*
X63907196Y-40143003D01*
X64042504Y-40056801D01*
X64173890Y-39964804D01*
X64181686Y-39958822D01*
X64000678Y-39777814D01*
X63574999Y-40203493D01*
X63153563Y-40203493D01*
X63153564Y-40203492D01*
X62727886Y-39777814D01*
X62302207Y-40203493D01*
X61880771Y-40203493D01*
X61880772Y-40203492D01*
X61455093Y-39777814D01*
X61029415Y-40203493D01*
X60607978Y-40203493D01*
X60607979Y-40203492D01*
X60182301Y-39777813D01*
X59925626Y-40034487D01*
X59243506Y-40034487D01*
X59166439Y-39963867D01*
X59162532Y-39960126D01*
X59039873Y-39837467D01*
X59036132Y-39833560D01*
X58918908Y-39705634D01*
X58915340Y-39701565D01*
X58803825Y-39568666D01*
X58800439Y-39564447D01*
X58703640Y-39438295D01*
X59249026Y-39438295D01*
X59344311Y-39542279D01*
X59457719Y-39655687D01*
X59575969Y-39764044D01*
X59683992Y-39854686D01*
X59971582Y-39567097D01*
X60393019Y-39567097D01*
X60818697Y-39992775D01*
X61244376Y-39567097D01*
X61665811Y-39567097D01*
X62091490Y-39992776D01*
X62517169Y-39567097D01*
X62938603Y-39567097D01*
X63364282Y-39992776D01*
X63789961Y-39567097D01*
X64211395Y-39567097D01*
X64415500Y-39771202D01*
X64424019Y-39764054D01*
X64542279Y-39655687D01*
X64655687Y-39542279D01*
X64764044Y-39424029D01*
X64835056Y-39339400D01*
X64637074Y-39141418D01*
X64211395Y-39567097D01*
X63789961Y-39567097D01*
X63364282Y-39141418D01*
X62938603Y-39567097D01*
X62517169Y-39567097D01*
X62091490Y-39141418D01*
X61665811Y-39567097D01*
X61244376Y-39567097D01*
X60818697Y-39141418D01*
X60393019Y-39567097D01*
X59971582Y-39567097D01*
X59971583Y-39567096D01*
X59545904Y-39141417D01*
X59249026Y-39438295D01*
X58703640Y-39438295D01*
X58694825Y-39426807D01*
X58691626Y-39422444D01*
X58592110Y-39280320D01*
X58589105Y-39275823D01*
X58495897Y-39129517D01*
X58493090Y-39124891D01*
X58406343Y-38974641D01*
X58403741Y-38969898D01*
X58323626Y-38815998D01*
X58321233Y-38811145D01*
X58261212Y-38682427D01*
X58732103Y-38682427D01*
X58776816Y-38768321D01*
X58856995Y-38907196D01*
X58943197Y-39042504D01*
X59035192Y-39173887D01*
X59059856Y-39206030D01*
X59335186Y-38930701D01*
X59756623Y-38930701D01*
X60182301Y-39356379D01*
X60607980Y-38930701D01*
X61029415Y-38930701D01*
X61455093Y-39356379D01*
X61880772Y-38930701D01*
X62302207Y-38930701D01*
X62727886Y-39356380D01*
X63153565Y-38930701D01*
X63574999Y-38930701D01*
X64000678Y-39356380D01*
X64426357Y-38930701D01*
X64426356Y-38930700D01*
X64847791Y-38930700D01*
X65016768Y-39099677D01*
X65056801Y-39042504D01*
X65143003Y-38907196D01*
X65223182Y-38768321D01*
X65297267Y-38626004D01*
X65328173Y-38559725D01*
X65273470Y-38505022D01*
X64847791Y-38930700D01*
X64426356Y-38930700D01*
X64000678Y-38505022D01*
X63574999Y-38930701D01*
X63153565Y-38930701D01*
X62727886Y-38505022D01*
X62302207Y-38930701D01*
X61880772Y-38930701D01*
X61455093Y-38505022D01*
X61029415Y-38930701D01*
X60607980Y-38930701D01*
X60182301Y-38505022D01*
X59756623Y-38930701D01*
X59335186Y-38930701D01*
X59335187Y-38930700D01*
X58909508Y-38505021D01*
X58732103Y-38682427D01*
X58261212Y-38682427D01*
X58247915Y-38653912D01*
X58245736Y-38648961D01*
X58179341Y-38488672D01*
X58177380Y-38483629D01*
X58118046Y-38320609D01*
X58116307Y-38315487D01*
X58109628Y-38294304D01*
X59120226Y-38294304D01*
X59545905Y-38719983D01*
X59971583Y-38294304D01*
X60393019Y-38294304D01*
X60818697Y-38719983D01*
X61244376Y-38294304D01*
X61665811Y-38294304D01*
X62091490Y-38719983D01*
X62517168Y-38294304D01*
X62938603Y-38294304D01*
X63364282Y-38719983D01*
X63789960Y-38294304D01*
X64211395Y-38294304D01*
X64637074Y-38719983D01*
X65062752Y-38294304D01*
X64637074Y-37868626D01*
X64211395Y-38294304D01*
X63789960Y-38294304D01*
X63364282Y-37868626D01*
X62938603Y-38294304D01*
X62517168Y-38294304D01*
X62091490Y-37868626D01*
X61665811Y-38294304D01*
X61244376Y-38294304D01*
X60818697Y-37868626D01*
X60393019Y-38294304D01*
X59971583Y-38294304D01*
X59545905Y-37868626D01*
X59120226Y-38294304D01*
X58109628Y-38294304D01*
X58064133Y-38150013D01*
X58062619Y-38144818D01*
X58017720Y-37977250D01*
X58016434Y-37971996D01*
X57978878Y-37802595D01*
X57977823Y-37797288D01*
X57953247Y-37657908D01*
X58483830Y-37657908D01*
X58909509Y-38083587D01*
X59335187Y-37657908D01*
X59756623Y-37657908D01*
X60182301Y-38083587D01*
X60607980Y-37657908D01*
X61029415Y-37657908D01*
X61455093Y-38083587D01*
X61880772Y-37657908D01*
X62302207Y-37657908D01*
X62727886Y-38083587D01*
X63153564Y-37657908D01*
X63574999Y-37657908D01*
X64000678Y-38083587D01*
X64426356Y-37657908D01*
X64847791Y-37657908D01*
X65273469Y-38083586D01*
X65596045Y-37761011D01*
X65605754Y-37717217D01*
X65628643Y-37587403D01*
X65273470Y-37232230D01*
X64847791Y-37657908D01*
X64426356Y-37657908D01*
X64000678Y-37232230D01*
X63574999Y-37657908D01*
X63153564Y-37657908D01*
X62727886Y-37232230D01*
X62302207Y-37657908D01*
X61880772Y-37657908D01*
X61455093Y-37232230D01*
X61029415Y-37657908D01*
X60607980Y-37657908D01*
X60182301Y-37232230D01*
X59756623Y-37657908D01*
X59335187Y-37657908D01*
X58909509Y-37232230D01*
X58483830Y-37657908D01*
X57953247Y-37657908D01*
X57947700Y-37626448D01*
X57946877Y-37621101D01*
X57924231Y-37449089D01*
X57923642Y-37443712D01*
X57908521Y-37270882D01*
X57908167Y-37265482D01*
X57900585Y-37091815D01*
X57900469Y-37087075D01*
X57900002Y-37000371D01*
X57900000Y-36999703D01*
X57900000Y-36998829D01*
X58324000Y-36998829D01*
X58324432Y-37079049D01*
X58331479Y-37240468D01*
X58343414Y-37376889D01*
X58698791Y-37021512D01*
X59120226Y-37021512D01*
X59545905Y-37447190D01*
X59971583Y-37021512D01*
X60393019Y-37021512D01*
X60818697Y-37447190D01*
X61244376Y-37021512D01*
X61665811Y-37021512D01*
X62091490Y-37447191D01*
X62517168Y-37021512D01*
X62938603Y-37021512D01*
X63364282Y-37447191D01*
X63789960Y-37021512D01*
X64211395Y-37021512D01*
X64637074Y-37447191D01*
X65062752Y-37021512D01*
X65484187Y-37021512D01*
X65669968Y-37207292D01*
X65675566Y-37079049D01*
X65676000Y-36998826D01*
X65676000Y-36829700D01*
X65484187Y-37021512D01*
X65062752Y-37021512D01*
X64637074Y-36595833D01*
X64211395Y-37021512D01*
X63789960Y-37021512D01*
X63364282Y-36595833D01*
X62938603Y-37021512D01*
X62517168Y-37021512D01*
X62091490Y-36595833D01*
X61665811Y-37021512D01*
X61244376Y-37021512D01*
X60818697Y-36595833D01*
X60393019Y-37021512D01*
X59971583Y-37021512D01*
X59545905Y-36595833D01*
X59120226Y-37021512D01*
X58698791Y-37021512D01*
X58324000Y-36646720D01*
X58324000Y-36998829D01*
X57900000Y-36998829D01*
X57900000Y-36385116D01*
X58483830Y-36385116D01*
X58909509Y-36810794D01*
X59335187Y-36385116D01*
X59756623Y-36385116D01*
X60182301Y-36810794D01*
X60607980Y-36385116D01*
X61029415Y-36385116D01*
X61455093Y-36810794D01*
X61880772Y-36385116D01*
X62302207Y-36385116D01*
X62727886Y-36810795D01*
X63153564Y-36385116D01*
X63574999Y-36385116D01*
X64000678Y-36810795D01*
X64426356Y-36385116D01*
X64847791Y-36385116D01*
X65273470Y-36810794D01*
X65676000Y-36408265D01*
X65676000Y-36361967D01*
X65273470Y-35959437D01*
X64847791Y-36385116D01*
X64426356Y-36385116D01*
X64000678Y-35959437D01*
X63574999Y-36385116D01*
X63153564Y-36385116D01*
X62727886Y-35959437D01*
X62302207Y-36385116D01*
X61880772Y-36385116D01*
X61455093Y-35959437D01*
X61029415Y-36385116D01*
X60607980Y-36385116D01*
X60182301Y-35959437D01*
X59756623Y-36385116D01*
X59335187Y-36385116D01*
X58909509Y-35959437D01*
X58483830Y-36385116D01*
X57900000Y-36385116D01*
X57900000Y-36123512D01*
X58324000Y-36123512D01*
X58698792Y-35748720D01*
X59120226Y-35748720D01*
X59545905Y-36174398D01*
X59971584Y-35748720D01*
X60393019Y-35748720D01*
X60818697Y-36174398D01*
X61244376Y-35748720D01*
X61665811Y-35748720D01*
X62091490Y-36174399D01*
X62517169Y-35748720D01*
X62938603Y-35748720D01*
X63364282Y-36174399D01*
X63789961Y-35748720D01*
X64211395Y-35748720D01*
X64637074Y-36174399D01*
X65062753Y-35748720D01*
X65062752Y-35748719D01*
X65484187Y-35748719D01*
X65676000Y-35940532D01*
X65676000Y-35556907D01*
X65484187Y-35748719D01*
X65062752Y-35748719D01*
X64637074Y-35323041D01*
X64211395Y-35748720D01*
X63789961Y-35748720D01*
X63364282Y-35323041D01*
X62938603Y-35748720D01*
X62517169Y-35748720D01*
X62091490Y-35323041D01*
X61665811Y-35748720D01*
X61244376Y-35748720D01*
X60818697Y-35323041D01*
X60393019Y-35748720D01*
X59971584Y-35748720D01*
X59545905Y-35323041D01*
X59120226Y-35748720D01*
X58698792Y-35748720D01*
X58324000Y-35373928D01*
X58324000Y-36123512D01*
X57900000Y-36123512D01*
X57900000Y-35112324D01*
X58483830Y-35112324D01*
X58909509Y-35538002D01*
X59335188Y-35112324D01*
X59756623Y-35112324D01*
X60182301Y-35538002D01*
X60607980Y-35112324D01*
X61029415Y-35112324D01*
X61455093Y-35538002D01*
X61880772Y-35112324D01*
X62302207Y-35112324D01*
X62727886Y-35538003D01*
X63153565Y-35112324D01*
X63574999Y-35112324D01*
X64000678Y-35538003D01*
X64426357Y-35112324D01*
X64847791Y-35112324D01*
X65273470Y-35538002D01*
X65676000Y-35135473D01*
X65676000Y-35089175D01*
X65273470Y-34686645D01*
X64847791Y-35112324D01*
X64426357Y-35112324D01*
X64000678Y-34686645D01*
X63574999Y-35112324D01*
X63153565Y-35112324D01*
X62727886Y-34686645D01*
X62302207Y-35112324D01*
X61880772Y-35112324D01*
X61455093Y-34686645D01*
X61029415Y-35112324D01*
X60607980Y-35112324D01*
X60182301Y-34686645D01*
X59756623Y-35112324D01*
X59335188Y-35112324D01*
X58909509Y-34686645D01*
X58483830Y-35112324D01*
X57900000Y-35112324D01*
X57900000Y-34850720D01*
X58324000Y-34850720D01*
X58698792Y-34475928D01*
X58698791Y-34475927D01*
X59120226Y-34475927D01*
X59545905Y-34901606D01*
X59971584Y-34475928D01*
X60393019Y-34475928D01*
X60818697Y-34901606D01*
X61244375Y-34475928D01*
X61665811Y-34475928D01*
X62091490Y-34901607D01*
X62517169Y-34475928D01*
X62938603Y-34475928D01*
X63364282Y-34901607D01*
X63789961Y-34475928D01*
X64211395Y-34475928D01*
X64637074Y-34901607D01*
X65062753Y-34475928D01*
X65062752Y-34475927D01*
X65484187Y-34475927D01*
X65676000Y-34667740D01*
X65676000Y-34298000D01*
X65662115Y-34298000D01*
X65484187Y-34475927D01*
X65062752Y-34475927D01*
X64884825Y-34298000D01*
X64389323Y-34298000D01*
X64211395Y-34475928D01*
X63789961Y-34475928D01*
X63612033Y-34298000D01*
X63116531Y-34298000D01*
X62938603Y-34475928D01*
X62517169Y-34475928D01*
X62339241Y-34298000D01*
X61843739Y-34298000D01*
X61665811Y-34475928D01*
X61244375Y-34475928D01*
X61244376Y-34475927D01*
X61066449Y-34298000D01*
X60570947Y-34298000D01*
X60393019Y-34475928D01*
X59971584Y-34475928D01*
X59793656Y-34298000D01*
X59298154Y-34298000D01*
X59120226Y-34475927D01*
X58698791Y-34475927D01*
X58520864Y-34298000D01*
X58324000Y-34298000D01*
X58324000Y-34850720D01*
X57900000Y-34850720D01*
X57900000Y-34124000D01*
X57919685Y-34056961D01*
X57972489Y-34011206D01*
X58024000Y-34000000D01*
X65976000Y-34000000D01*
X66043039Y-34019685D01*
G37*
%LPC*%
D12*
%TO.C,J7*%
X141850000Y-47600000D03*
D13*
X141850000Y-45600000D03*
%TD*%
D14*
%TO.C,H4*%
X138600000Y-98780000D03*
%TD*%
%TO.C,H2*%
X62000000Y-37060000D03*
%TD*%
D15*
%TO.C,M2*%
X114820000Y-92660000D03*
D16*
X119900000Y-90500000D03*
D17*
X117360000Y-90500000D03*
X114820000Y-90500000D03*
X112280000Y-90500000D03*
%TD*%
D18*
%TO.C,J8*%
X112700000Y-36830000D03*
D19*
X112700000Y-39370000D03*
X112700000Y-41910000D03*
X112700000Y-44450000D03*
%TD*%
D12*
%TO.C,J6*%
X141850000Y-55550000D03*
D13*
X141850000Y-53550000D03*
%TD*%
D18*
%TO.C,J4*%
X119385000Y-44385000D03*
D19*
X121925000Y-44385000D03*
%TD*%
D20*
%TO.C,J2*%
X55150000Y-58500000D03*
X55150000Y-55500000D03*
X55150000Y-52500000D03*
X55150000Y-49500000D03*
X55150000Y-46500000D03*
X55150000Y-43500000D03*
X58150000Y-58500000D03*
X58150000Y-55500000D03*
X58150000Y-52500000D03*
X58150000Y-49500000D03*
X58150000Y-46500000D03*
X58150000Y-43500000D03*
D21*
X50830000Y-57700000D03*
X50830000Y-44300000D03*
D15*
X53480000Y-54000000D03*
X53480000Y-52000000D03*
X53480000Y-50000000D03*
X53480000Y-48000000D03*
%TD*%
D22*
%TO.C,H5*%
X98650000Y-83100000D03*
%TD*%
D14*
%TO.C,H3*%
X138600000Y-37060000D03*
%TD*%
D18*
%TO.C,J5*%
X126525000Y-44385000D03*
D19*
X129065000Y-44385000D03*
%TD*%
D14*
%TO.C,H1*%
X62000000Y-98780000D03*
%TD*%
D22*
%TO.C,H6*%
X98650000Y-51100000D03*
%TD*%
D23*
%TO.C,SW2*%
X123000000Y-97330000D03*
X126000000Y-97330000D03*
%TD*%
D20*
%TO.C,J1*%
X55150000Y-92500000D03*
X55150000Y-89500000D03*
X55150000Y-86500000D03*
X55150000Y-83500000D03*
X55150000Y-80500000D03*
X55150000Y-77500000D03*
X58150000Y-92500000D03*
X58150000Y-89500000D03*
X58150000Y-86500000D03*
X58150000Y-83500000D03*
X58150000Y-80500000D03*
X58150000Y-77500000D03*
D21*
X50830000Y-91700000D03*
X50830000Y-78300000D03*
D15*
X53480000Y-88000000D03*
X53480000Y-86000000D03*
X53480000Y-84000000D03*
X53480000Y-82000000D03*
%TD*%
D24*
%TO.C,J3*%
X142300000Y-69290000D03*
X142300000Y-63510000D03*
D25*
X141770000Y-70720000D03*
D26*
X145950000Y-70720000D03*
D25*
X141770000Y-62080000D03*
D26*
X145950000Y-62080000D03*
%TD*%
%LPD*%
M02*
