%TF.GenerationSoftware,KiCad,Pcbnew,9.0.3*%
%TF.CreationDate,2025-08-23T16:32:45+10:00*%
%TF.ProjectId,12v-2x6,3132762d-3278-4362-9e6b-696361645f70,1*%
%TF.SameCoordinates,Original*%
%TF.FileFunction,Soldermask,Top*%
%TF.FilePolarity,Negative*%
%FSLAX46Y46*%
G04 Gerber Fmt 4.6, Leading zero omitted, Abs format (unit mm)*
G04 Created by KiCad (PCBNEW 9.0.3) date 2025-08-23 16:32:45*
%MOMM*%
%LPD*%
G01*
G04 APERTURE LIST*
G04 Aperture macros list*
%AMRoundRect*
0 Rectangle with rounded corners*
0 $1 Rounding radius*
0 $2 $3 $4 $5 $6 $7 $8 $9 X,Y pos of 4 corners*
0 Add a 4 corners polygon primitive as box body*
4,1,4,$2,$3,$4,$5,$6,$7,$8,$9,$2,$3,0*
0 Add four circle primitives for the rounded corners*
1,1,$1+$1,$2,$3*
1,1,$1+$1,$4,$5*
1,1,$1+$1,$6,$7*
1,1,$1+$1,$8,$9*
0 Add four rect primitives between the rounded corners*
20,1,$1+$1,$2,$3,$4,$5,0*
20,1,$1+$1,$4,$5,$6,$7,0*
20,1,$1+$1,$6,$7,$8,$9,0*
20,1,$1+$1,$8,$9,$2,$3,0*%
%AMFreePoly0*
4,1,23,0.500000,-0.750000,0.000000,-0.750000,0.000000,-0.745722,-0.065263,-0.745722,-0.191342,-0.711940,-0.304381,-0.646677,-0.396677,-0.554381,-0.461940,-0.441342,-0.495722,-0.315263,-0.495722,-0.250000,-0.500000,-0.250000,-0.500000,0.250000,-0.495722,0.250000,-0.495722,0.315263,-0.461940,0.441342,-0.396677,0.554381,-0.304381,0.646677,-0.191342,0.711940,-0.065263,0.745722,0.000000,0.745722,
0.000000,0.750000,0.500000,0.750000,0.500000,-0.750000,0.500000,-0.750000,$1*%
%AMFreePoly1*
4,1,23,0.000000,0.745722,0.065263,0.745722,0.191342,0.711940,0.304381,0.646677,0.396677,0.554381,0.461940,0.441342,0.495722,0.315263,0.495722,0.250000,0.500000,0.250000,0.500000,-0.250000,0.495722,-0.250000,0.495722,-0.315263,0.461940,-0.441342,0.396677,-0.554381,0.304381,-0.646677,0.191342,-0.711940,0.065263,-0.745722,0.000000,-0.745722,0.000000,-0.750000,-0.500000,-0.750000,
-0.500000,0.750000,0.000000,0.750000,0.000000,0.745722,0.000000,0.745722,$1*%
G04 Aperture macros list end*
%ADD10RoundRect,0.135000X-0.185000X0.135000X-0.185000X-0.135000X0.185000X-0.135000X0.185000X0.135000X0*%
%ADD11RoundRect,0.140000X0.170000X-0.140000X0.170000X0.140000X-0.170000X0.140000X-0.170000X-0.140000X0*%
%ADD12RoundRect,0.135000X-0.135000X-0.185000X0.135000X-0.185000X0.135000X0.185000X-0.135000X0.185000X0*%
%ADD13RoundRect,0.140000X0.140000X0.170000X-0.140000X0.170000X-0.140000X-0.170000X0.140000X-0.170000X0*%
%ADD14RoundRect,0.140000X-0.170000X0.140000X-0.170000X-0.140000X0.170000X-0.140000X0.170000X0.140000X0*%
%ADD15RoundRect,0.250000X0.625000X-0.350000X0.625000X0.350000X-0.625000X0.350000X-0.625000X-0.350000X0*%
%ADD16O,1.750000X1.200000*%
%ADD17RoundRect,0.075000X0.650000X0.075000X-0.650000X0.075000X-0.650000X-0.075000X0.650000X-0.075000X0*%
%ADD18RoundRect,0.225000X0.250000X-0.225000X0.250000X0.225000X-0.250000X0.225000X-0.250000X-0.225000X0*%
%ADD19RoundRect,0.225000X0.225000X0.375000X-0.225000X0.375000X-0.225000X-0.375000X0.225000X-0.375000X0*%
%ADD20RoundRect,0.087500X-0.250000X-0.087500X0.250000X-0.087500X0.250000X0.087500X-0.250000X0.087500X0*%
%ADD21R,2.287000X1.010000*%
%ADD22R,0.762000X1.010000*%
%ADD23R,1.730000X2.030000*%
%ADD24O,1.730000X2.030000*%
%ADD25FreePoly0,180.000000*%
%ADD26FreePoly1,180.000000*%
%ADD27RoundRect,0.150000X0.150000X-0.512500X0.150000X0.512500X-0.150000X0.512500X-0.150000X-0.512500X0*%
%ADD28RoundRect,0.150000X-0.825000X-0.150000X0.825000X-0.150000X0.825000X0.150000X-0.825000X0.150000X0*%
%ADD29RoundRect,0.218750X-0.218750X-0.256250X0.218750X-0.256250X0.218750X0.256250X-0.218750X0.256250X0*%
%ADD30RoundRect,0.135000X0.185000X-0.135000X0.185000X0.135000X-0.185000X0.135000X-0.185000X-0.135000X0*%
%ADD31RoundRect,0.087500X0.087500X-0.250000X0.087500X0.250000X-0.087500X0.250000X-0.087500X-0.250000X0*%
%ADD32RoundRect,0.140000X-0.140000X-0.170000X0.140000X-0.170000X0.140000X0.170000X-0.140000X0.170000X0*%
%ADD33R,1.000000X1.800000*%
%ADD34RoundRect,0.218750X0.256250X-0.218750X0.256250X0.218750X-0.256250X0.218750X-0.256250X-0.218750X0*%
%ADD35R,1.700000X1.700000*%
%ADD36C,1.700000*%
%ADD37RoundRect,0.087500X-0.087500X0.537500X-0.087500X-0.537500X0.087500X-0.537500X0.087500X0.537500X0*%
%ADD38RoundRect,0.200000X0.800000X-0.200000X0.800000X0.200000X-0.800000X0.200000X-0.800000X-0.200000X0*%
%ADD39RoundRect,0.200000X-0.400000X-0.200000X0.400000X-0.200000X0.400000X0.200000X-0.400000X0.200000X0*%
%ADD40C,1.520000*%
%ADD41RoundRect,0.510000X-0.890000X0.000010X-0.890000X-0.000010X0.890000X-0.000010X0.890000X0.000010X0*%
%ADD42C,1.100000*%
%ADD43RoundRect,0.150000X-0.150000X0.587500X-0.150000X-0.587500X0.150000X-0.587500X0.150000X0.587500X0*%
%ADD44RoundRect,0.150000X-0.875000X-0.150000X0.875000X-0.150000X0.875000X0.150000X-0.875000X0.150000X0*%
%ADD45RoundRect,0.135000X0.135000X0.185000X-0.135000X0.185000X-0.135000X-0.185000X0.135000X-0.185000X0*%
%ADD46R,2.500000X2.500000*%
%ADD47RoundRect,0.150000X0.512500X0.150000X-0.512500X0.150000X-0.512500X-0.150000X0.512500X-0.150000X0*%
%ADD48R,1.000000X0.800000*%
%ADD49R,0.700000X1.500000*%
%ADD50RoundRect,0.250000X-0.250000X-0.475000X0.250000X-0.475000X0.250000X0.475000X-0.250000X0.475000X0*%
%ADD51R,1.905000X0.640000*%
%ADD52RoundRect,0.225000X-0.250000X0.225000X-0.250000X-0.225000X0.250000X-0.225000X0.250000X0.225000X0*%
%ADD53RoundRect,0.218750X0.218750X0.256250X-0.218750X0.256250X-0.218750X-0.256250X0.218750X-0.256250X0*%
%ADD54RoundRect,0.075000X0.075000X-0.662500X0.075000X0.662500X-0.075000X0.662500X-0.075000X-0.662500X0*%
%ADD55RoundRect,0.075000X0.662500X-0.075000X0.662500X0.075000X-0.662500X0.075000X-0.662500X-0.075000X0*%
%ADD56RoundRect,0.250000X0.750000X0.950000X-0.750000X0.950000X-0.750000X-0.950000X0.750000X-0.950000X0*%
%ADD57RoundRect,0.087500X0.250000X0.087500X-0.250000X0.087500X-0.250000X-0.087500X0.250000X-0.087500X0*%
%ADD58R,1.450000X0.600000*%
%ADD59R,1.450000X0.300000*%
%ADD60O,2.100000X1.000000*%
%ADD61O,1.600000X1.000000*%
G04 APERTURE END LIST*
%TO.C,JP2*%
G36*
X125350000Y-59150000D02*
G01*
X125050000Y-59150000D01*
X125050000Y-57650000D01*
X125350000Y-57650000D01*
X125350000Y-59150000D01*
G37*
%TO.C,JP1*%
G36*
X125350000Y-64350000D02*
G01*
X125050000Y-64350000D01*
X125050000Y-62850000D01*
X125350000Y-62850000D01*
X125350000Y-64350000D01*
G37*
%TD*%
D10*
%TO.C,R13*%
X93700000Y-74890000D03*
X93700000Y-75910000D03*
%TD*%
%TO.C,R34*%
X132728035Y-76209739D03*
X132728035Y-77229739D03*
%TD*%
D11*
%TO.C,C27*%
X101900000Y-99080000D03*
X101900000Y-98120000D03*
%TD*%
D12*
%TO.C,R14*%
X84290000Y-72100000D03*
X85310000Y-72100000D03*
%TD*%
D13*
%TO.C,C20*%
X130980000Y-93700000D03*
X130020000Y-93700000D03*
%TD*%
D14*
%TO.C,C40*%
X51800000Y-67520000D03*
X51800000Y-68480000D03*
%TD*%
D15*
%TO.C,J7*%
X141850000Y-47600000D03*
D16*
X141850000Y-45600000D03*
%TD*%
D17*
%TO.C,U4*%
X92200000Y-66900000D03*
X92200000Y-66400000D03*
X92200000Y-65900000D03*
X92200000Y-65400000D03*
X92200000Y-64900000D03*
X87800000Y-64900000D03*
X87800000Y-65400000D03*
X87800000Y-65900000D03*
X87800000Y-66400000D03*
X87800000Y-66900000D03*
%TD*%
D14*
%TO.C,C5*%
X86300000Y-68620000D03*
X86300000Y-69580000D03*
%TD*%
D18*
%TO.C,C34*%
X132600000Y-56975000D03*
X132600000Y-55425000D03*
%TD*%
D13*
%TO.C,C29*%
X106980000Y-68900000D03*
X106020000Y-68900000D03*
%TD*%
D10*
%TO.C,R42*%
X112150000Y-84740000D03*
X112150000Y-85760000D03*
%TD*%
%TO.C,R10*%
X93700000Y-79290000D03*
X93700000Y-80310000D03*
%TD*%
D12*
%TO.C,R9*%
X84290000Y-79900000D03*
X85310000Y-79900000D03*
%TD*%
D14*
%TO.C,C3*%
X86300000Y-73020000D03*
X86300000Y-73980000D03*
%TD*%
%TO.C,C9*%
X86300000Y-64220000D03*
X86300000Y-65180000D03*
%TD*%
D12*
%TO.C,R15*%
X84290000Y-71100000D03*
X85310000Y-71100000D03*
%TD*%
D19*
%TO.C,D6*%
X145550000Y-78075000D03*
X142250000Y-78075000D03*
%TD*%
D14*
%TO.C,C7*%
X86300000Y-59820000D03*
X86300000Y-60780000D03*
%TD*%
D20*
%TO.C,U17*%
X51387500Y-97500000D03*
X51387500Y-98000000D03*
X51387500Y-98500000D03*
X52812500Y-98500000D03*
X52812500Y-98000000D03*
X52812500Y-97500000D03*
%TD*%
D12*
%TO.C,R24*%
X84290000Y-57900000D03*
X85310000Y-57900000D03*
%TD*%
D21*
%TO.C,R6*%
X55428000Y-67115000D03*
D22*
X57334000Y-67115000D03*
X57334000Y-68885000D03*
D21*
X55428500Y-68885000D03*
%TD*%
D12*
%TO.C,R51*%
X137515000Y-75175000D03*
X138535000Y-75175000D03*
%TD*%
D10*
%TO.C,R31*%
X113900000Y-73090000D03*
X113900000Y-74110000D03*
%TD*%
D23*
%TO.C,M2*%
X119900000Y-90500000D03*
D24*
X117360000Y-90500000D03*
X114820000Y-90500000D03*
X112280000Y-90500000D03*
%TD*%
D25*
%TO.C,JP2*%
X125850000Y-58400000D03*
D26*
X124550000Y-58400000D03*
%TD*%
D11*
%TO.C,C26*%
X116100000Y-96480000D03*
X116100000Y-95520000D03*
%TD*%
D27*
%TO.C,U13*%
X130850000Y-60937500D03*
X131800000Y-60937500D03*
X132750000Y-60937500D03*
X132750000Y-58662500D03*
X130850000Y-58662500D03*
%TD*%
D21*
%TO.C,R3*%
X67428000Y-67115000D03*
D22*
X69334000Y-67115000D03*
X69334000Y-68885000D03*
D21*
X67428500Y-68885000D03*
%TD*%
D28*
%TO.C,U11*%
X106525000Y-70495000D03*
X106525000Y-71765000D03*
X106525000Y-73035000D03*
X106525000Y-74305000D03*
X111475000Y-74305000D03*
X111475000Y-73035000D03*
X111475000Y-71765000D03*
X111475000Y-70495000D03*
%TD*%
D12*
%TO.C,R20*%
X84290000Y-63300000D03*
X85310000Y-63300000D03*
%TD*%
D10*
%TO.C,R36*%
X104100000Y-73090000D03*
X104100000Y-74110000D03*
%TD*%
D29*
%TO.C,D5*%
X119212500Y-58400000D03*
X120787500Y-58400000D03*
%TD*%
D30*
%TO.C,R45*%
X111150000Y-78110000D03*
X111150000Y-77090000D03*
%TD*%
D21*
%TO.C,R2*%
X71428000Y-67115000D03*
D22*
X73334000Y-67115000D03*
X73334000Y-68885000D03*
D21*
X71428500Y-68885000D03*
%TD*%
D31*
%TO.C,U16*%
X49800000Y-68712500D03*
X50300000Y-68712500D03*
X50800000Y-68712500D03*
X50800000Y-67287500D03*
X50300000Y-67287500D03*
X49800000Y-67287500D03*
%TD*%
D30*
%TO.C,R44*%
X112150000Y-78110000D03*
X112150000Y-77090000D03*
%TD*%
D10*
%TO.C,R40*%
X139500000Y-48590000D03*
X139500000Y-49610000D03*
%TD*%
D32*
%TO.C,C15*%
X119520000Y-67100000D03*
X120480000Y-67100000D03*
%TD*%
D12*
%TO.C,R11*%
X84290000Y-76500000D03*
X85310000Y-76500000D03*
%TD*%
D30*
%TO.C,R32*%
X113900000Y-71810000D03*
X113900000Y-70790000D03*
%TD*%
D33*
%TO.C,Y2*%
X118250000Y-80100000D03*
X115750000Y-80100000D03*
%TD*%
D10*
%TO.C,R35*%
X131028035Y-76209739D03*
X131028035Y-77229739D03*
%TD*%
D14*
%TO.C,C36*%
X113150000Y-84770000D03*
X113150000Y-85730000D03*
%TD*%
D34*
%TO.C,D1*%
X134428035Y-80007239D03*
X134428035Y-78432239D03*
%TD*%
D35*
%TO.C,J8*%
X112700000Y-36830000D03*
D36*
X112700000Y-39370000D03*
X112700000Y-41910000D03*
X112700000Y-44450000D03*
%TD*%
D15*
%TO.C,J6*%
X141850000Y-55550000D03*
D16*
X141850000Y-53550000D03*
%TD*%
D12*
%TO.C,R48*%
X131190000Y-73250000D03*
X132210000Y-73250000D03*
%TD*%
D18*
%TO.C,C25*%
X117600000Y-96775000D03*
X117600000Y-95225000D03*
%TD*%
D14*
%TO.C,C1*%
X86300000Y-77420000D03*
X86300000Y-78380000D03*
%TD*%
D11*
%TO.C,C10*%
X86300000Y-63080000D03*
X86300000Y-62120000D03*
%TD*%
D37*
%TO.C,U14*%
X112650000Y-79850000D03*
X112150000Y-79850000D03*
X111650000Y-79850000D03*
X111150000Y-79850000D03*
X111150000Y-82650000D03*
X111650000Y-82650000D03*
X112150000Y-82650000D03*
X112650000Y-82650000D03*
%TD*%
D32*
%TO.C,C33*%
X130820000Y-62400000D03*
X131780000Y-62400000D03*
%TD*%
D11*
%TO.C,C21*%
X119400000Y-85130000D03*
X119400000Y-84170000D03*
%TD*%
D30*
%TO.C,R27*%
X122000000Y-80810000D03*
X122000000Y-79790000D03*
%TD*%
%TO.C,R37*%
X104100000Y-71810000D03*
X104100000Y-70790000D03*
%TD*%
D12*
%TO.C,R18*%
X84290000Y-66700000D03*
X85310000Y-66700000D03*
%TD*%
D32*
%TO.C,C24*%
X117620000Y-81750000D03*
X118580000Y-81750000D03*
%TD*%
D30*
%TO.C,R28*%
X119500000Y-80810000D03*
X119500000Y-79790000D03*
%TD*%
D10*
%TO.C,R16*%
X93700000Y-70490000D03*
X93700000Y-71510000D03*
%TD*%
D13*
%TO.C,C13*%
X118280000Y-77100000D03*
X117320000Y-77100000D03*
%TD*%
D35*
%TO.C,J4*%
X119385000Y-44385000D03*
D36*
X121925000Y-44385000D03*
%TD*%
D13*
%TO.C,C18*%
X124080000Y-79500000D03*
X123120000Y-79500000D03*
%TD*%
D38*
%TO.C,SW1*%
X131500000Y-99100000D03*
X131500000Y-94900000D03*
%TD*%
D21*
%TO.C,R5*%
X59428000Y-67115000D03*
D22*
X61334000Y-67115000D03*
X61334000Y-68885000D03*
D21*
X59428500Y-68885000D03*
%TD*%
D39*
%TO.C,U9*%
X121050000Y-49430000D03*
X121050000Y-51970000D03*
X127350000Y-51970000D03*
X127350000Y-49430000D03*
%TD*%
D40*
%TO.C,J2*%
X55150000Y-58500000D03*
X55150000Y-55500000D03*
X55150000Y-52500000D03*
X55150000Y-49500000D03*
X55150000Y-46500000D03*
X55150000Y-43500000D03*
X58150000Y-58500000D03*
X58150000Y-55500000D03*
X58150000Y-52500000D03*
X58150000Y-49500000D03*
X58150000Y-46500000D03*
X58150000Y-43500000D03*
D41*
X50830000Y-57700000D03*
X50830000Y-44300000D03*
D42*
X53480000Y-54000000D03*
X53480000Y-52000000D03*
X53480000Y-50000000D03*
X53480000Y-48000000D03*
%TD*%
D34*
%TO.C,D3*%
X131028035Y-80007239D03*
X131028035Y-78432239D03*
%TD*%
D43*
%TO.C,Q1*%
X139550000Y-76737500D03*
X137650000Y-76737500D03*
X138600000Y-78612500D03*
%TD*%
D11*
%TO.C,C6*%
X86300000Y-71880000D03*
X86300000Y-70920000D03*
%TD*%
D13*
%TO.C,C32*%
X112680000Y-51900000D03*
X111720000Y-51900000D03*
%TD*%
D12*
%TO.C,R8*%
X84290000Y-80900000D03*
X85310000Y-80900000D03*
%TD*%
D10*
%TO.C,R25*%
X93700000Y-57290000D03*
X93700000Y-58310000D03*
%TD*%
D12*
%TO.C,R49*%
X129190000Y-73250000D03*
X130210000Y-73250000D03*
%TD*%
D11*
%TO.C,C12*%
X86300000Y-58680000D03*
X86300000Y-57720000D03*
%TD*%
D30*
%TO.C,R38*%
X119587500Y-51210000D03*
X119587500Y-50190000D03*
%TD*%
D44*
%TO.C,U12*%
X104450000Y-54655000D03*
X104450000Y-55925000D03*
X104450000Y-57195000D03*
X104450000Y-58465000D03*
X104450000Y-59735000D03*
X104450000Y-61005000D03*
X104450000Y-62275000D03*
X104450000Y-63545000D03*
X113750000Y-63545000D03*
X113750000Y-62275000D03*
X113750000Y-61005000D03*
X113750000Y-59735000D03*
X113750000Y-58465000D03*
X113750000Y-57195000D03*
X113750000Y-55925000D03*
X113750000Y-54655000D03*
%TD*%
D18*
%TO.C,C28*%
X100400000Y-99375000D03*
X100400000Y-97825000D03*
%TD*%
D35*
%TO.C,J5*%
X126525000Y-44385000D03*
D36*
X129065000Y-44385000D03*
%TD*%
D14*
%TO.C,C11*%
X86300000Y-55420000D03*
X86300000Y-56380000D03*
%TD*%
D10*
%TO.C,R43*%
X111150000Y-84740000D03*
X111150000Y-85760000D03*
%TD*%
D17*
%TO.C,U3*%
X92200000Y-71300000D03*
X92200000Y-70800000D03*
X92200000Y-70300000D03*
X92200000Y-69800000D03*
X92200000Y-69300000D03*
X87800000Y-69300000D03*
X87800000Y-69800000D03*
X87800000Y-70300000D03*
X87800000Y-70800000D03*
X87800000Y-71300000D03*
%TD*%
D32*
%TO.C,C31*%
X105545000Y-51875000D03*
X106505000Y-51875000D03*
%TD*%
D34*
%TO.C,D2*%
X132738035Y-80007239D03*
X132738035Y-78432239D03*
%TD*%
D11*
%TO.C,C4*%
X86300000Y-76280000D03*
X86300000Y-75320000D03*
%TD*%
D17*
%TO.C,U5*%
X92200000Y-62500000D03*
X92200000Y-62000000D03*
X92200000Y-61500000D03*
X92200000Y-61000000D03*
X92200000Y-60500000D03*
X87800000Y-60500000D03*
X87800000Y-61000000D03*
X87800000Y-61500000D03*
X87800000Y-62000000D03*
X87800000Y-62500000D03*
%TD*%
%TO.C,U6*%
X92200000Y-58100000D03*
X92200000Y-57600000D03*
X92200000Y-57100000D03*
X92200000Y-56600000D03*
X92200000Y-56100000D03*
X87800000Y-56100000D03*
X87800000Y-56600000D03*
X87800000Y-57100000D03*
X87800000Y-57600000D03*
X87800000Y-58100000D03*
%TD*%
D29*
%TO.C,D4*%
X119212500Y-63600000D03*
X120787500Y-63600000D03*
%TD*%
D13*
%TO.C,C41*%
X52580000Y-99500000D03*
X51620000Y-99500000D03*
%TD*%
D45*
%TO.C,R26*%
X125260000Y-93900000D03*
X124240000Y-93900000D03*
%TD*%
D46*
%TO.C,BZ1*%
X145550000Y-81350000D03*
X138550000Y-81350000D03*
X138550000Y-88350000D03*
X145550000Y-88350000D03*
%TD*%
D12*
%TO.C,R47*%
X121990000Y-58400000D03*
X123010000Y-58400000D03*
%TD*%
%TO.C,R30*%
X138090000Y-67800000D03*
X139110000Y-67800000D03*
%TD*%
D21*
%TO.C,R4*%
X63428000Y-67115000D03*
D22*
X65334000Y-67115000D03*
X65334000Y-68885000D03*
D21*
X63428500Y-68885000D03*
%TD*%
D10*
%TO.C,R19*%
X93700000Y-66090000D03*
X93700000Y-67110000D03*
%TD*%
D12*
%TO.C,R21*%
X84290000Y-62300000D03*
X85310000Y-62300000D03*
%TD*%
D47*
%TO.C,U8*%
X135637500Y-67350000D03*
X135637500Y-66400000D03*
X135637500Y-65450000D03*
X133362500Y-65450000D03*
X133362500Y-66400000D03*
X133362500Y-67350000D03*
%TD*%
D48*
%TO.C,SW2*%
X120850000Y-96220000D03*
X120850000Y-98430000D03*
X128150000Y-96220000D03*
X128150000Y-98430000D03*
D49*
X122250000Y-95570000D03*
X125250000Y-95570000D03*
X126750000Y-95570000D03*
%TD*%
D32*
%TO.C,C39*%
X51520000Y-36500000D03*
X52480000Y-36500000D03*
%TD*%
D50*
%TO.C,C38*%
X115850000Y-85300000D03*
X117750000Y-85300000D03*
%TD*%
D51*
%TO.C,U10*%
X114347500Y-99205000D03*
X114347500Y-97935000D03*
X114347500Y-96665000D03*
X114347500Y-95395000D03*
X103652500Y-95395000D03*
X103652500Y-96665000D03*
X103652500Y-97935000D03*
X103652500Y-99205000D03*
%TD*%
D52*
%TO.C,C19*%
X129700000Y-69725000D03*
X129700000Y-71275000D03*
%TD*%
D12*
%TO.C,R12*%
X84290000Y-75500000D03*
X85310000Y-75500000D03*
%TD*%
D17*
%TO.C,U1*%
X92200000Y-80100000D03*
X92200000Y-79600000D03*
X92200000Y-79100000D03*
X92200000Y-78600000D03*
X92200000Y-78100000D03*
X87800000Y-78100000D03*
X87800000Y-78600000D03*
X87800000Y-79100000D03*
X87800000Y-79600000D03*
X87800000Y-80100000D03*
%TD*%
D12*
%TO.C,R7*%
X131990000Y-93700000D03*
X133010000Y-93700000D03*
%TD*%
D53*
%TO.C,FB2*%
X138787500Y-63300000D03*
X137212500Y-63300000D03*
%TD*%
D54*
%TO.C,U7*%
X119750000Y-76962500D03*
X120250000Y-76962500D03*
X120750000Y-76962500D03*
X121250000Y-76962500D03*
X121750000Y-76962500D03*
X122250000Y-76962500D03*
X122750000Y-76962500D03*
X123250000Y-76962500D03*
X123750000Y-76962500D03*
X124250000Y-76962500D03*
X124750000Y-76962500D03*
X125250000Y-76962500D03*
D55*
X126662500Y-75550000D03*
X126662500Y-75050000D03*
X126662500Y-74550000D03*
X126662500Y-74050000D03*
X126662500Y-73550000D03*
X126662500Y-73050000D03*
X126662500Y-72550000D03*
X126662500Y-72050000D03*
X126662500Y-71550000D03*
X126662500Y-71050000D03*
X126662500Y-70550000D03*
X126662500Y-70050000D03*
D54*
X125250000Y-68637500D03*
X124750000Y-68637500D03*
X124250000Y-68637500D03*
X123750000Y-68637500D03*
X123250000Y-68637500D03*
X122750000Y-68637500D03*
X122250000Y-68637500D03*
X121750000Y-68637500D03*
X121250000Y-68637500D03*
X120750000Y-68637500D03*
X120250000Y-68637500D03*
X119750000Y-68637500D03*
D55*
X118337500Y-70050000D03*
X118337500Y-70550000D03*
X118337500Y-71050000D03*
X118337500Y-71550000D03*
X118337500Y-72050000D03*
X118337500Y-72550000D03*
X118337500Y-73050000D03*
X118337500Y-73550000D03*
X118337500Y-74050000D03*
X118337500Y-74550000D03*
X118337500Y-75050000D03*
X118337500Y-75550000D03*
%TD*%
D25*
%TO.C,JP1*%
X125850000Y-63600000D03*
D26*
X124550000Y-63600000D03*
%TD*%
D40*
%TO.C,J1*%
X55150000Y-92500000D03*
X55150000Y-89500000D03*
X55150000Y-86500000D03*
X55150000Y-83500000D03*
X55150000Y-80500000D03*
X55150000Y-77500000D03*
X58150000Y-92500000D03*
X58150000Y-89500000D03*
X58150000Y-86500000D03*
X58150000Y-83500000D03*
X58150000Y-80500000D03*
X58150000Y-77500000D03*
D41*
X50830000Y-91700000D03*
X50830000Y-78300000D03*
D42*
X53480000Y-88000000D03*
X53480000Y-86000000D03*
X53480000Y-84000000D03*
X53480000Y-82000000D03*
%TD*%
D12*
%TO.C,R23*%
X84290000Y-58900000D03*
X85310000Y-58900000D03*
%TD*%
D10*
%TO.C,R22*%
X93700000Y-61690000D03*
X93700000Y-62710000D03*
%TD*%
D14*
%TO.C,C16*%
X128200000Y-69520000D03*
X128200000Y-70480000D03*
%TD*%
D10*
%TO.C,R46*%
X114150000Y-84740000D03*
X114150000Y-85760000D03*
%TD*%
%TO.C,R33*%
X134428035Y-76209739D03*
X134428035Y-77229739D03*
%TD*%
D45*
%TO.C,R29*%
X139110000Y-64700000D03*
X138090000Y-64700000D03*
%TD*%
D18*
%TO.C,C35*%
X131000000Y-56975000D03*
X131000000Y-55425000D03*
%TD*%
D11*
%TO.C,C14*%
X116800000Y-75780000D03*
X116800000Y-74820000D03*
%TD*%
D21*
%TO.C,R1*%
X75428000Y-67115000D03*
D22*
X77334000Y-67115000D03*
X77334000Y-68885000D03*
D21*
X75428500Y-68885000D03*
%TD*%
D56*
%TO.C,Y1*%
X124900000Y-84150000D03*
X121200000Y-84150000D03*
%TD*%
D13*
%TO.C,C23*%
X116380000Y-81750000D03*
X115420000Y-81750000D03*
%TD*%
%TO.C,C17*%
X124080000Y-78500000D03*
X123120000Y-78500000D03*
%TD*%
D57*
%TO.C,U15*%
X52712500Y-38500000D03*
X52712500Y-38000000D03*
X52712500Y-37500000D03*
X51287500Y-37500000D03*
X51287500Y-38000000D03*
X51287500Y-38500000D03*
%TD*%
D11*
%TO.C,C37*%
X113150000Y-78080000D03*
X113150000Y-77120000D03*
%TD*%
%TO.C,C2*%
X86300000Y-80680000D03*
X86300000Y-79720000D03*
%TD*%
D53*
%TO.C,FB1*%
X126837500Y-79500000D03*
X125262500Y-79500000D03*
%TD*%
D17*
%TO.C,U2*%
X92200000Y-75700000D03*
X92200000Y-75200000D03*
X92200000Y-74700000D03*
X92200000Y-74200000D03*
X92200000Y-73700000D03*
X87800000Y-73700000D03*
X87800000Y-74200000D03*
X87800000Y-74700000D03*
X87800000Y-75200000D03*
X87800000Y-75700000D03*
%TD*%
D12*
%TO.C,R17*%
X84290000Y-67700000D03*
X85310000Y-67700000D03*
%TD*%
D30*
%TO.C,R50*%
X139575000Y-75185000D03*
X139575000Y-74165000D03*
%TD*%
D12*
%TO.C,R41*%
X121990000Y-63600000D03*
X123010000Y-63600000D03*
%TD*%
D11*
%TO.C,C22*%
X126750000Y-85130000D03*
X126750000Y-84170000D03*
%TD*%
%TO.C,C8*%
X86300000Y-67480000D03*
X86300000Y-66520000D03*
%TD*%
D58*
%TO.C,J3*%
X140855000Y-69650000D03*
X140855000Y-68850000D03*
D59*
X140855000Y-67650000D03*
X140855000Y-66650000D03*
X140855000Y-66150000D03*
X140855000Y-65150000D03*
D58*
X140855000Y-63950000D03*
X140855000Y-63150000D03*
X140855000Y-63150000D03*
X140855000Y-63950000D03*
D59*
X140855000Y-64650000D03*
X140855000Y-65650000D03*
X140855000Y-67150000D03*
X140855000Y-68150000D03*
D58*
X140855000Y-68850000D03*
X140855000Y-69650000D03*
D60*
X141770000Y-70720000D03*
D61*
X145950000Y-70720000D03*
D60*
X141770000Y-62080000D03*
D61*
X145950000Y-62080000D03*
%TD*%
D10*
%TO.C,R39*%
X139400000Y-56580000D03*
X139400000Y-57600000D03*
%TD*%
D32*
%TO.C,C30*%
X111020000Y-68800000D03*
X111980000Y-68800000D03*
%TD*%
M02*
