%TF.GenerationSoftware,KiCad,Pcbnew,9.0.3*%
%TF.CreationDate,2025-08-23T16:32:45+10:00*%
%TF.ProjectId,12v-2x6,3132762d-3278-4362-9e6b-696361645f70,1*%
%TF.SameCoordinates,Original*%
%TF.FileFunction,Copper,L6,Bot*%
%TF.FilePolarity,Positive*%
%FSLAX46Y46*%
G04 Gerber Fmt 4.6, Leading zero omitted, Abs format (unit mm)*
G04 Created by KiCad (PCBNEW 9.0.3) date 2025-08-23 16:32:45*
%MOMM*%
%LPD*%
G01*
G04 APERTURE LIST*
G04 Aperture macros list*
%AMRoundRect*
0 Rectangle with rounded corners*
0 $1 Rounding radius*
0 $2 $3 $4 $5 $6 $7 $8 $9 X,Y pos of 4 corners*
0 Add a 4 corners polygon primitive as box body*
4,1,4,$2,$3,$4,$5,$6,$7,$8,$9,$2,$3,0*
0 Add four circle primitives for the rounded corners*
1,1,$1+$1,$2,$3*
1,1,$1+$1,$4,$5*
1,1,$1+$1,$6,$7*
1,1,$1+$1,$8,$9*
0 Add four rect primitives between the rounded corners*
20,1,$1+$1,$2,$3,$4,$5,0*
20,1,$1+$1,$4,$5,$6,$7,0*
20,1,$1+$1,$6,$7,$8,$9,0*
20,1,$1+$1,$8,$9,$2,$3,0*%
G04 Aperture macros list end*
%TA.AperFunction,ComponentPad*%
%ADD10RoundRect,0.250000X0.625000X-0.350000X0.625000X0.350000X-0.625000X0.350000X-0.625000X-0.350000X0*%
%TD*%
%TA.AperFunction,ComponentPad*%
%ADD11O,1.750000X1.200000*%
%TD*%
%TA.AperFunction,ComponentPad*%
%ADD12R,1.730000X2.030000*%
%TD*%
%TA.AperFunction,ComponentPad*%
%ADD13O,1.730000X2.030000*%
%TD*%
%TA.AperFunction,ComponentPad*%
%ADD14R,1.700000X1.700000*%
%TD*%
%TA.AperFunction,ComponentPad*%
%ADD15C,1.700000*%
%TD*%
%TA.AperFunction,ComponentPad*%
%ADD16C,1.520000*%
%TD*%
%TA.AperFunction,ComponentPad*%
%ADD17RoundRect,0.510000X-0.890000X0.000010X-0.890000X-0.000010X0.890000X-0.000010X0.890000X0.000010X0*%
%TD*%
%TA.AperFunction,ComponentPad*%
%ADD18C,1.100000*%
%TD*%
%TA.AperFunction,HeatsinkPad*%
%ADD19O,2.100000X1.000000*%
%TD*%
%TA.AperFunction,HeatsinkPad*%
%ADD20O,1.600000X1.000000*%
%TD*%
%TA.AperFunction,ViaPad*%
%ADD21C,0.600000*%
%TD*%
%TA.AperFunction,Conductor*%
%ADD22C,0.254000*%
%TD*%
G04 APERTURE END LIST*
D10*
%TO.P,J7,1,Pin_1*%
%TO.N,/Input Output/NTC2*%
X141850000Y-47600000D03*
D11*
%TO.P,J7,2,Pin_2*%
%TO.N,GND*%
X141850000Y-45600000D03*
%TD*%
D12*
%TO.P,M2,1,-*%
%TO.N,GND*%
X119900000Y-90500000D03*
D13*
%TO.P,M2,2,+*%
%TO.N,+5V*%
X117360000Y-90500000D03*
%TO.P,M2,3,Tacho*%
%TO.N,Net-(M2-Tacho)*%
X114820000Y-90500000D03*
%TO.P,M2,4,PWM*%
%TO.N,Net-(M2-PWM)*%
X112280000Y-90500000D03*
%TD*%
D14*
%TO.P,J8,1,Pin_1*%
%TO.N,+3.3V*%
X112700000Y-36830000D03*
D15*
%TO.P,J8,2,Pin_2*%
%TO.N,/Input Output/RX*%
X112700000Y-39370000D03*
%TO.P,J8,3,Pin_3*%
%TO.N,/Input Output/TX*%
X112700000Y-41910000D03*
%TO.P,J8,4,Pin_4*%
%TO.N,GND*%
X112700000Y-44450000D03*
%TD*%
D10*
%TO.P,J6,1,Pin_1*%
%TO.N,/Input Output/NTC1*%
X141850000Y-55550000D03*
D11*
%TO.P,J6,2,Pin_2*%
%TO.N,GND*%
X141850000Y-53550000D03*
%TD*%
D14*
%TO.P,J4,1,Pin_1*%
%TO.N,Net-(J4-Pin_1)*%
X119385000Y-44385000D03*
D15*
%TO.P,J4,2,Pin_2*%
%TO.N,Net-(J4-Pin_2)*%
X121925000Y-44385000D03*
%TD*%
D16*
%TO.P,J2,1,+12*%
%TO.N,/12V-2x6 Connectors/12V_OUT6*%
X55150000Y-58500000D03*
%TO.P,J2,2,+12*%
%TO.N,/12V-2x6 Connectors/12V_OUT5*%
X55150000Y-55500000D03*
%TO.P,J2,3,+12*%
%TO.N,/12V-2x6 Connectors/12V_OUT4*%
X55150000Y-52500000D03*
%TO.P,J2,4,+12*%
%TO.N,/12V-2x6 Connectors/12V_OUT3*%
X55150000Y-49500000D03*
%TO.P,J2,5,+12*%
%TO.N,/12V-2x6 Connectors/12V_OUT2*%
X55150000Y-46500000D03*
%TO.P,J2,6,+12*%
%TO.N,/12V-2x6 Connectors/12V_OUT1*%
X55150000Y-43500000D03*
%TO.P,J2,7,GND*%
%TO.N,GND1*%
X58150000Y-58500000D03*
%TO.P,J2,8,GND*%
X58150000Y-55500000D03*
%TO.P,J2,9,GND*%
X58150000Y-52500000D03*
%TO.P,J2,10,GND*%
X58150000Y-49500000D03*
%TO.P,J2,11,GND*%
X58150000Y-46500000D03*
%TO.P,J2,12,GND*%
X58150000Y-43500000D03*
D17*
%TO.P,J2,M1*%
%TO.N,N/C*%
X50830000Y-57700000D03*
%TO.P,J2,M2*%
X50830000Y-44300000D03*
D18*
%TO.P,J2,S1,S1*%
%TO.N,/12V-2x6 Connectors/S1*%
X53480000Y-54000000D03*
%TO.P,J2,S2,S2*%
%TO.N,/12V-2x6 Connectors/S2*%
X53480000Y-52000000D03*
%TO.P,J2,S3,S3*%
%TO.N,/12V-2x6 Connectors/S3*%
X53480000Y-50000000D03*
%TO.P,J2,S4,S4*%
%TO.N,/12V-2x6 Connectors/S4*%
X53480000Y-48000000D03*
%TD*%
D14*
%TO.P,J5,1,Pin_1*%
%TO.N,Net-(J4-Pin_1)*%
X126525000Y-44385000D03*
D15*
%TO.P,J5,2,Pin_2*%
%TO.N,Net-(J4-Pin_2)*%
X129065000Y-44385000D03*
%TD*%
D16*
%TO.P,J1,1,+12*%
%TO.N,/12V-2x6 Connectors/12V_IN1*%
X55150000Y-92500000D03*
%TO.P,J1,2,+12*%
%TO.N,/12V-2x6 Connectors/12V_IN2*%
X55150000Y-89500000D03*
%TO.P,J1,3,+12*%
%TO.N,/12V-2x6 Connectors/12V_IN3*%
X55150000Y-86500000D03*
%TO.P,J1,4,+12*%
%TO.N,/12V-2x6 Connectors/12V_IN4*%
X55150000Y-83500000D03*
%TO.P,J1,5,+12*%
%TO.N,/12V-2x6 Connectors/12V_IN5*%
X55150000Y-80500000D03*
%TO.P,J1,6,+12*%
%TO.N,/12V-2x6 Connectors/12V_IN6*%
X55150000Y-77500000D03*
%TO.P,J1,7,GND*%
%TO.N,GND1*%
X58150000Y-92500000D03*
%TO.P,J1,8,GND*%
X58150000Y-89500000D03*
%TO.P,J1,9,GND*%
X58150000Y-86500000D03*
%TO.P,J1,10,GND*%
X58150000Y-83500000D03*
%TO.P,J1,11,GND*%
X58150000Y-80500000D03*
%TO.P,J1,12,GND*%
X58150000Y-77500000D03*
D17*
%TO.P,J1,M1*%
%TO.N,N/C*%
X50830000Y-91700000D03*
%TO.P,J1,M2*%
X50830000Y-78300000D03*
D18*
%TO.P,J1,S1,S1*%
%TO.N,/12V-2x6 Connectors/S1*%
X53480000Y-88000000D03*
%TO.P,J1,S2,S2*%
%TO.N,/12V-2x6 Connectors/S2*%
X53480000Y-86000000D03*
%TO.P,J1,S3,S3*%
%TO.N,/12V-2x6 Connectors/S3*%
X53480000Y-84000000D03*
%TO.P,J1,S4,S4*%
%TO.N,/12V-2x6 Connectors/S4*%
X53480000Y-82000000D03*
%TD*%
D19*
%TO.P,J3,S1,SHIELD*%
%TO.N,GND*%
X141770000Y-70720000D03*
D20*
X145950000Y-70720000D03*
D19*
X141770000Y-62080000D03*
D20*
X145950000Y-62080000D03*
%TD*%
D21*
%TO.N,GND*%
X137100000Y-64600000D03*
X119400000Y-82950000D03*
X117600000Y-63600000D03*
X117750000Y-85300000D03*
X132600000Y-54000000D03*
X132710000Y-81250000D03*
X116500000Y-97935000D03*
X114400000Y-80200000D03*
X128900000Y-93700000D03*
X131000000Y-54000000D03*
X129700000Y-71275000D03*
X111475000Y-75400000D03*
X126750000Y-86000000D03*
X119300000Y-95100000D03*
X124950000Y-86750000D03*
X121100000Y-86700000D03*
X124400000Y-81550000D03*
X120550000Y-81050000D03*
X119400000Y-86050000D03*
X114400000Y-78850000D03*
X126050000Y-81550000D03*
X131000000Y-81250000D03*
X120550000Y-79900000D03*
X115800000Y-74800000D03*
X114400000Y-81700000D03*
X117300000Y-78100000D03*
X131500000Y-100400000D03*
X137200000Y-67800000D03*
X115400000Y-82900000D03*
X121087500Y-53300000D03*
X117000000Y-81750000D03*
X111980000Y-68800000D03*
X135700000Y-59300000D03*
X119150000Y-78100000D03*
X137100000Y-66400000D03*
X126750000Y-83100000D03*
X123050000Y-86750000D03*
X136400000Y-75175000D03*
X129700000Y-76300000D03*
X111725000Y-50525000D03*
X124900000Y-75100000D03*
X119550000Y-81750000D03*
X133000000Y-68500000D03*
X122300000Y-93900000D03*
X115500000Y-63600000D03*
X128200000Y-73250000D03*
X115500000Y-78100000D03*
X129100000Y-78900000D03*
X134400000Y-81250000D03*
X118050000Y-82950000D03*
X116500000Y-99200000D03*
X123150000Y-80450000D03*
X135000000Y-52100000D03*
X120500000Y-66100000D03*
X131800000Y-63400000D03*
X113150000Y-85730000D03*
%TO.N,/Input Output/NTC1*%
X127700000Y-78300000D03*
X137200000Y-56600000D03*
%TO.N,/Input Output/NTC2*%
X137400000Y-48600000D03*
X127700000Y-77000000D03*
%TO.N,+3.3V*%
X119500000Y-66100000D03*
X126800000Y-93900000D03*
X113150000Y-78080000D03*
X128100000Y-79500000D03*
X118300000Y-78100000D03*
X139400000Y-58700000D03*
X139500000Y-50800000D03*
X111150000Y-76200000D03*
X129700000Y-69725000D03*
X115800000Y-75800000D03*
X134100000Y-93700000D03*
X129700000Y-57000000D03*
X133200000Y-73250000D03*
%TO.N,/Input Output/RESET*%
X130950000Y-92700000D03*
X122700000Y-75200000D03*
%TO.N,/Alert Isolation/ALERT_OUT2*%
X115600000Y-61000000D03*
X122250000Y-70400000D03*
%TO.N,/Alert Isolation/ALERT_OUT3*%
X115600000Y-59700000D03*
X124175735Y-66750000D03*
%TO.N,/Alert Isolation/ALERT_OUT5*%
X125800000Y-66900000D03*
X115600000Y-57200000D03*
%TO.N,+5VP*%
X105550000Y-50525000D03*
X85400000Y-77400000D03*
X85400000Y-59790000D03*
X52580000Y-99500000D03*
X85400000Y-68590000D03*
X93700000Y-68090000D03*
X93700000Y-63690000D03*
X104100000Y-75400000D03*
X93700000Y-81300000D03*
X90500000Y-62300000D03*
X90600000Y-67000000D03*
X51800000Y-67540000D03*
X93700000Y-76890000D03*
X98700000Y-99600000D03*
X85400000Y-72990000D03*
X101600000Y-96700000D03*
X51540000Y-36500000D03*
X85400000Y-64190000D03*
X90500000Y-58100000D03*
X90700000Y-75100000D03*
X106980000Y-68900000D03*
X93700000Y-72490000D03*
X104100000Y-68900000D03*
X85400000Y-55390000D03*
X93700000Y-59290000D03*
%TO.N,GND1*%
X58000000Y-41000000D03*
X56000000Y-41000000D03*
X51000000Y-62000000D03*
X76000000Y-45000000D03*
X76000000Y-46000000D03*
X51000000Y-88000000D03*
X77000000Y-49000000D03*
X50000000Y-86000000D03*
X77000000Y-81000000D03*
X79000000Y-72000000D03*
X51000000Y-82000000D03*
X76000000Y-52000000D03*
X77000000Y-83000000D03*
X76000000Y-42000000D03*
X71000000Y-95000000D03*
X53000000Y-41000000D03*
X52000000Y-41000000D03*
X77000000Y-53000000D03*
X85400000Y-56390000D03*
X98500000Y-97700000D03*
X51000000Y-86000000D03*
X78000000Y-60000000D03*
X50000000Y-73000000D03*
X68000000Y-40000000D03*
X50000000Y-85000000D03*
X75000000Y-41000000D03*
X69000000Y-95000000D03*
X79000000Y-62000000D03*
X70000000Y-96000000D03*
X70000000Y-40000000D03*
X68000000Y-95000000D03*
X77000000Y-57000000D03*
X50000000Y-51000000D03*
X50000000Y-84000000D03*
X51000000Y-74000000D03*
X78000000Y-83000000D03*
X51000000Y-96000000D03*
X50000000Y-50000000D03*
X50000000Y-88000000D03*
X51000000Y-95000000D03*
X53000000Y-40000000D03*
X50000000Y-83000000D03*
X54000000Y-95000000D03*
X73000000Y-40000000D03*
X51000000Y-53000000D03*
X76000000Y-43000000D03*
X77000000Y-47000000D03*
X76000000Y-51000000D03*
X68000000Y-41000000D03*
X106500000Y-50525000D03*
X52000000Y-96000000D03*
X77000000Y-50000000D03*
X106020000Y-68900000D03*
X51800000Y-68500000D03*
X74000000Y-41000000D03*
X53000000Y-95000000D03*
X76000000Y-84000000D03*
X67000000Y-40000000D03*
X79000000Y-71000000D03*
X75000000Y-42000000D03*
X77000000Y-51000000D03*
X77000000Y-80000000D03*
X50000000Y-62000000D03*
X79000000Y-64100000D03*
X52000000Y-40000000D03*
X77000000Y-48000000D03*
X55000000Y-96000000D03*
X78000000Y-56000000D03*
X78000000Y-76000000D03*
X50000000Y-64000000D03*
X76000000Y-88000000D03*
X85400000Y-78400000D03*
X75000000Y-94000000D03*
X75000000Y-40000000D03*
X72000000Y-96000000D03*
X79000000Y-73000000D03*
X76000000Y-41000000D03*
X90700000Y-75900000D03*
X50000000Y-52000000D03*
X77000000Y-88000000D03*
X51000000Y-84000000D03*
X50000000Y-63000000D03*
X55000000Y-41000000D03*
X76000000Y-48000000D03*
X77000000Y-55000000D03*
X85400000Y-69590000D03*
X76000000Y-85000000D03*
X51000000Y-73000000D03*
X51000000Y-83000000D03*
X51000000Y-85000000D03*
X71000000Y-96000000D03*
X76000000Y-93000000D03*
X51000000Y-54000000D03*
X78000000Y-61000000D03*
X75000000Y-90000000D03*
X76000000Y-89000000D03*
X78000000Y-54000000D03*
X51000000Y-50000000D03*
X75000000Y-46000000D03*
X77000000Y-82000000D03*
X78000000Y-80000000D03*
X56000000Y-95000000D03*
X77000000Y-84000000D03*
X66000000Y-41000000D03*
X51000000Y-51000000D03*
X68000000Y-96000000D03*
X56000000Y-40000000D03*
X85400000Y-60790000D03*
X78000000Y-75000000D03*
X50000000Y-53000000D03*
X72000000Y-41000000D03*
X51000000Y-49000000D03*
X51000000Y-41000000D03*
X55000000Y-95000000D03*
X54000000Y-40000000D03*
X69000000Y-96000000D03*
X77000000Y-87000000D03*
X51620000Y-99500000D03*
X85400000Y-65190000D03*
X76000000Y-91000000D03*
X76000000Y-87000000D03*
X77000000Y-52000000D03*
X72000000Y-40000000D03*
X50000000Y-82000000D03*
X90600000Y-66200000D03*
X78000000Y-55000000D03*
X51000000Y-48000000D03*
X78000000Y-62000000D03*
X73000000Y-95000000D03*
X75000000Y-91000000D03*
X69000000Y-40000000D03*
X76000000Y-95000000D03*
X90600000Y-71500000D03*
X76000000Y-90000000D03*
X76000000Y-50000000D03*
X77000000Y-54000000D03*
X78000000Y-57000000D03*
X70000000Y-95000000D03*
X51000000Y-52000000D03*
X74000000Y-96000000D03*
X76000000Y-92000000D03*
X77000000Y-85000000D03*
X78000000Y-82000000D03*
X50000000Y-87000000D03*
X75000000Y-93000000D03*
X78000000Y-77000000D03*
X53000000Y-96000000D03*
X79000000Y-63100000D03*
X71000000Y-40000000D03*
X78000000Y-74000000D03*
X50000000Y-48000000D03*
X67000000Y-95000000D03*
X69000000Y-41000000D03*
X76000000Y-44000000D03*
X73000000Y-41000000D03*
X76000000Y-49000000D03*
X79000000Y-69900000D03*
X50000000Y-72000000D03*
X77000000Y-79000000D03*
X50000000Y-74000000D03*
X75000000Y-43000000D03*
X75000000Y-95000000D03*
X55000000Y-40000000D03*
X85400000Y-73990000D03*
X78000000Y-81000000D03*
X75000000Y-45000000D03*
X78000000Y-52000000D03*
X50000000Y-49000000D03*
X78000000Y-59000000D03*
X77000000Y-86000000D03*
X51000000Y-87000000D03*
X106525000Y-75400000D03*
X57000000Y-95000000D03*
X65000000Y-41000000D03*
X101600000Y-95400000D03*
X67000000Y-41000000D03*
X78000000Y-58000000D03*
X75000000Y-92000000D03*
X50000000Y-54000000D03*
X58000000Y-40000000D03*
X104400000Y-64900000D03*
X54000000Y-96000000D03*
X75000000Y-96000000D03*
X75000000Y-44000000D03*
X78000000Y-78000000D03*
X59000000Y-41000000D03*
X90550000Y-79850000D03*
X56000000Y-96000000D03*
X54000000Y-41000000D03*
X51000000Y-64000000D03*
X52500000Y-36500000D03*
X51000000Y-72000000D03*
X77000000Y-89000000D03*
X72000000Y-95000000D03*
X70000000Y-41000000D03*
X76000000Y-86000000D03*
X76000000Y-47000000D03*
X66000000Y-40000000D03*
X79000000Y-65100000D03*
X74000000Y-40000000D03*
X77000000Y-56000000D03*
X79000000Y-74000000D03*
X76000000Y-94000000D03*
X74000000Y-95000000D03*
X78000000Y-53000000D03*
X51000000Y-40000000D03*
X71000000Y-41000000D03*
X57000000Y-40000000D03*
X52000000Y-95000000D03*
X78000000Y-79000000D03*
X51000000Y-63000000D03*
X73000000Y-96000000D03*
X57000000Y-41000000D03*
%TO.N,/Alert Isolation/ALERT_OUT1*%
X115600000Y-62300000D03*
X120750000Y-70400000D03*
%TO.N,+5V*%
X135800000Y-63300000D03*
X111020000Y-68800000D03*
X115850000Y-85300000D03*
X114150000Y-85760000D03*
X113900000Y-75400000D03*
X131800000Y-66400000D03*
X137200000Y-61900000D03*
X145575000Y-76250000D03*
X113900000Y-69000000D03*
X127500000Y-63600000D03*
X135800000Y-61900000D03*
X112675000Y-50525000D03*
X119300000Y-96950000D03*
X130800000Y-63400000D03*
%TO.N,/Input Output/CASE_SW*%
X119587500Y-52400000D03*
X125000000Y-73100000D03*
%TO.N,/Alert Isolation/ALERT_OUT6*%
X115600000Y-55900000D03*
X126600000Y-67900000D03*
%TO.N,/Alert Isolation/ALERT_OUT4*%
X115600000Y-58500000D03*
X125000000Y-66550000D03*
%TO.N,/Alert Isolation/ALERT_IN6*%
X98300000Y-57800000D03*
X95400000Y-57800000D03*
%TO.N,/Alert Isolation/ALERT_IN3*%
X98200000Y-65300000D03*
X95400000Y-71000000D03*
%TO.N,/Alert Isolation/ALERT_IN4*%
X98200000Y-63800000D03*
X95400000Y-66600000D03*
%TO.N,/Alert Isolation/ALERT_IN5*%
X98200000Y-62200000D03*
X95400000Y-62200000D03*
%TO.N,/Alert Isolation/ALERT_IN1*%
X96800000Y-78000000D03*
X98200000Y-67800000D03*
%TO.N,/Alert Isolation/ALERT_IN2*%
X98200000Y-66600000D03*
X95400000Y-75400000D03*
%TO.N,/12V-2x6 Connectors/12V_IN4*%
X64750000Y-71750000D03*
X63250000Y-72500000D03*
X63750000Y-71750000D03*
X64250000Y-70250000D03*
X63750000Y-71000000D03*
X62750000Y-71750000D03*
X63250000Y-70250000D03*
X62750000Y-71000000D03*
X64750000Y-71000000D03*
X64250000Y-72500000D03*
%TO.N,/12V-2x6 Connectors/12V_IN3*%
X67250000Y-72500000D03*
X67750000Y-71750000D03*
X67750000Y-71000000D03*
X67250000Y-70250000D03*
X68250000Y-72500000D03*
X66750000Y-71000000D03*
X66750000Y-71750000D03*
X68750000Y-71000000D03*
X68250000Y-70250000D03*
X68750000Y-71750000D03*
%TO.N,/12V-2x6 Connectors/12V_IN5*%
X60250000Y-70250000D03*
X59250000Y-70250000D03*
X59750000Y-71000000D03*
X58750000Y-71000000D03*
X60750000Y-71750000D03*
X60250000Y-72500000D03*
X58750000Y-71750000D03*
X60750000Y-71000000D03*
X59250000Y-72500000D03*
X59750000Y-71750000D03*
%TO.N,/12V-2x6 Connectors/12V_IN2*%
X72750000Y-71000000D03*
X71250000Y-70250000D03*
X70750000Y-71000000D03*
X72250000Y-72500000D03*
X72250000Y-70250000D03*
X70750000Y-71750000D03*
X71750000Y-71750000D03*
X71750000Y-71000000D03*
X72750000Y-71750000D03*
X71250000Y-72500000D03*
%TO.N,/12V-2x6 Connectors/12V_IN1*%
X75250000Y-72500000D03*
X76750000Y-71750000D03*
X74750000Y-71000000D03*
X75750000Y-71000000D03*
X76250000Y-72500000D03*
X74750000Y-71750000D03*
X75250000Y-70250000D03*
X76750000Y-71000000D03*
X76250000Y-70250000D03*
X75750000Y-71750000D03*
%TO.N,/12V-2x6 Connectors/12V_IN6*%
X56750000Y-71000000D03*
X56250000Y-70250000D03*
X55250000Y-70250000D03*
X55750000Y-71750000D03*
X55750000Y-71000000D03*
X56250000Y-72500000D03*
X56750000Y-71750000D03*
X54750000Y-71750000D03*
X55250000Y-72500000D03*
X54750000Y-71000000D03*
%TO.N,/12V-2x6 Connectors/12V_OUT5*%
X58750000Y-64250000D03*
X60750000Y-65000000D03*
X59750000Y-65000000D03*
X58750000Y-65000000D03*
X60750000Y-64250000D03*
X83100000Y-61400000D03*
X59750000Y-64250000D03*
X60250000Y-65750000D03*
X59250000Y-65750000D03*
X60250000Y-63500000D03*
X59250000Y-63500000D03*
%TO.N,/12V-2x6 Connectors/12V_OUT6*%
X55750000Y-65000000D03*
X56750000Y-65000000D03*
X55250000Y-65750000D03*
X56250000Y-63500000D03*
X56250000Y-65750000D03*
X54750000Y-65000000D03*
X55750000Y-64250000D03*
X55250000Y-63500000D03*
X54750000Y-64250000D03*
X83000000Y-57000000D03*
X56750000Y-64250000D03*
%TO.N,/12V-2x6 Connectors/12V_OUT4*%
X83100000Y-65800000D03*
X64250000Y-63500000D03*
X64250000Y-65750000D03*
X64750000Y-65000000D03*
X62750000Y-64250000D03*
X63750000Y-65000000D03*
X64750000Y-64250000D03*
X63750000Y-64250000D03*
X62750000Y-65000000D03*
X63250000Y-63500000D03*
X63250000Y-65750000D03*
%TO.N,/12V-2x6 Connectors/12V_OUT1*%
X76250000Y-65750000D03*
X74750000Y-64250000D03*
X75750000Y-65000000D03*
X75250000Y-65750000D03*
X76750000Y-65000000D03*
X74750000Y-65000000D03*
X76250000Y-63500000D03*
X75750000Y-64250000D03*
X75250000Y-63500000D03*
X76750000Y-64250000D03*
%TO.N,/12V-2x6 Connectors/12V_OUT3*%
X68750000Y-64250000D03*
X67750000Y-65000000D03*
X66750000Y-65000000D03*
X66750000Y-64250000D03*
X68750000Y-65000000D03*
X68250000Y-65750000D03*
X67250000Y-63500000D03*
X68250000Y-63500000D03*
X67750000Y-64250000D03*
X83100000Y-70200000D03*
X67250000Y-65750000D03*
%TO.N,/12V-2x6 Connectors/12V_OUT2*%
X71750000Y-65000000D03*
X72250000Y-63500000D03*
X71750000Y-64250000D03*
X71250000Y-63500000D03*
X70750000Y-65000000D03*
X72750000Y-64250000D03*
X71250000Y-65750000D03*
X72250000Y-65750000D03*
X70750000Y-64250000D03*
X83100000Y-74600000D03*
X72750000Y-65000000D03*
%TO.N,/Input Output/BOOT*%
X124200000Y-92800000D03*
X119950000Y-73550000D03*
%TO.N,/Current Sensing/CurrentSense2/IN+*%
X83100000Y-76500000D03*
X73334000Y-69150000D03*
%TO.N,/Current Sensing/CurrentSense2/IN-*%
X83100000Y-75500000D03*
X73334000Y-66850000D03*
%TO.N,/Current Sensing/CurrentSense3/IN+*%
X69334000Y-69150000D03*
X83100000Y-72100000D03*
%TO.N,/Current Sensing/CurrentSense3/IN-*%
X83100000Y-71100000D03*
X69334000Y-66850000D03*
%TO.N,/Current Sensing/CurrentSense4/IN+*%
X83100000Y-67700000D03*
X65350000Y-69150000D03*
%TO.N,/Current Sensing/CurrentSense4/IN-*%
X83100000Y-66700000D03*
X65334000Y-66850000D03*
%TO.N,/Current Sensing/CurrentSense5/IN+*%
X61334000Y-69150000D03*
X83100000Y-63300000D03*
%TO.N,/Current Sensing/CurrentSense5/IN-*%
X83100000Y-62300000D03*
X61334000Y-66850000D03*
%TO.N,/Current Sensing/CurrentSense6/IN+*%
X83000000Y-58900000D03*
X57334000Y-69150000D03*
%TO.N,/Current Sensing/CurrentSense6/IN-*%
X83000000Y-57900000D03*
X57334000Y-66850000D03*
%TO.N,/Current Sensing/SCL1*%
X100000000Y-75000000D03*
X54400000Y-38500000D03*
X49700000Y-70700000D03*
X100000000Y-71810000D03*
X70000000Y-98000000D03*
X49400000Y-97500000D03*
%TO.N,/Current Sensing/SDA1*%
X94725735Y-65600000D03*
X94700000Y-70000000D03*
X94725735Y-56800000D03*
X94700000Y-78600000D03*
X94700000Y-74400000D03*
X94725735Y-61200000D03*
%TO.N,Net-(M2-Tacho)*%
X112150000Y-84740000D03*
%TO.N,Net-(M2-PWM)*%
X111150000Y-84740000D03*
%TO.N,/Input Output/FAN_TACHO*%
X116400000Y-70800000D03*
X112150000Y-78110000D03*
%TO.N,/Input Output/FAN_PWM*%
X116400000Y-69750000D03*
X111150000Y-78110000D03*
%TO.N,/Input Output/TX*%
X119700000Y-56850000D03*
X122500000Y-67050000D03*
%TO.N,/Input Output/RX*%
X123150000Y-66500000D03*
X120400000Y-56100000D03*
%TD*%
D22*
%TO.N,/Input Output/NTC1*%
X128600000Y-77400000D02*
X127700000Y-78300000D01*
X134900000Y-69000000D02*
X128600000Y-75300000D01*
X128600000Y-75300000D02*
X128600000Y-77400000D01*
X134900000Y-58900000D02*
X134900000Y-69000000D01*
X137200000Y-56600000D02*
X134900000Y-58900000D01*
%TO.N,/Input Output/NTC2*%
X127700000Y-75200000D02*
X127700000Y-77000000D01*
X134200000Y-51800000D02*
X134200000Y-68700000D01*
X134200000Y-68700000D02*
X127700000Y-75200000D01*
X137400000Y-48600000D02*
X134200000Y-51800000D01*
%TO.N,/Input Output/RESET*%
X130950000Y-83450000D02*
X122700000Y-75200000D01*
X130950000Y-92700000D02*
X130950000Y-83450000D01*
%TO.N,/Alert Isolation/ALERT_OUT2*%
X116900000Y-64650000D02*
X116900000Y-62300000D01*
X116900000Y-62300000D02*
X115600000Y-61000000D01*
X122250000Y-70400000D02*
X122250000Y-70000000D01*
X122250000Y-70000000D02*
X116900000Y-64650000D01*
%TO.N,/Alert Isolation/ALERT_OUT3*%
X124175735Y-65425735D02*
X118450000Y-59700000D01*
X118450000Y-59700000D02*
X115600000Y-59700000D01*
X124175735Y-66750000D02*
X124175735Y-65425735D01*
%TO.N,/Alert Isolation/ALERT_OUT5*%
X125800000Y-65400000D02*
X125800000Y-66900000D01*
X115600000Y-57200000D02*
X117600000Y-57200000D01*
X117600000Y-57200000D02*
X125800000Y-65400000D01*
%TO.N,/Alert Isolation/ALERT_OUT1*%
X120750000Y-70400000D02*
X116250000Y-65900000D01*
X116250000Y-62950000D02*
X115600000Y-62300000D01*
X116250000Y-65900000D02*
X116250000Y-62950000D01*
%TO.N,/Input Output/CASE_SW*%
X128300000Y-69800000D02*
X128300000Y-62300000D01*
X125000000Y-73100000D02*
X128300000Y-69800000D01*
X128300000Y-62300000D02*
X119600000Y-53600000D01*
X119600000Y-52412500D02*
X119587500Y-52400000D01*
X119600000Y-53600000D02*
X119600000Y-52412500D01*
%TO.N,/Alert Isolation/ALERT_OUT6*%
X117100000Y-55900000D02*
X115600000Y-55900000D01*
X115600000Y-55900000D02*
X115700000Y-55900000D01*
X126600000Y-67900000D02*
X126600000Y-65400000D01*
X126600000Y-65400000D02*
X117100000Y-55900000D01*
%TO.N,/Alert Isolation/ALERT_OUT4*%
X125000000Y-65400000D02*
X118100000Y-58500000D01*
X125000000Y-66550000D02*
X125000000Y-65400000D01*
X118100000Y-58500000D02*
X115600000Y-58500000D01*
%TO.N,/Alert Isolation/ALERT_IN6*%
X98300000Y-57800000D02*
X95400000Y-57800000D01*
%TO.N,/Alert Isolation/ALERT_IN3*%
X98200000Y-65300000D02*
X95400000Y-68100000D01*
X95400000Y-68100000D02*
X95400000Y-71000000D01*
%TO.N,/Alert Isolation/ALERT_IN4*%
X98200000Y-63800000D02*
X95400000Y-66600000D01*
%TO.N,/Alert Isolation/ALERT_IN5*%
X98200000Y-62200000D02*
X95400000Y-62200000D01*
%TO.N,/Alert Isolation/ALERT_IN1*%
X96800000Y-78000000D02*
X96800000Y-69200000D01*
X96800000Y-69200000D02*
X98200000Y-67800000D01*
%TO.N,/Alert Isolation/ALERT_IN2*%
X96100000Y-74700000D02*
X95400000Y-75400000D01*
X96100000Y-68700000D02*
X96100000Y-74700000D01*
X98200000Y-66600000D02*
X96100000Y-68700000D01*
%TO.N,/12V-2x6 Connectors/12V_OUT6*%
X80150000Y-59850000D02*
X80150000Y-66150000D01*
X83100000Y-57100000D02*
X83000000Y-57000000D01*
X78800000Y-67500000D02*
X59250000Y-67500000D01*
X80150000Y-66150000D02*
X78800000Y-67500000D01*
X83000000Y-57000000D02*
X80150000Y-59850000D01*
X59250000Y-67500000D02*
X56750000Y-65000000D01*
%TO.N,/Input Output/BOOT*%
X122100000Y-75700000D02*
X119950000Y-73550000D01*
X122100000Y-90700000D02*
X122100000Y-75700000D01*
X124200000Y-92800000D02*
X122100000Y-90700000D01*
%TO.N,/Current Sensing/CurrentSense6/IN+*%
X81200000Y-66700000D02*
X81200000Y-60700000D01*
X57334000Y-69150000D02*
X57984000Y-68500000D01*
X79400000Y-68500000D02*
X81200000Y-66700000D01*
X81200000Y-60700000D02*
X83000000Y-58900000D01*
X57984000Y-68500000D02*
X79400000Y-68500000D01*
%TO.N,/Current Sensing/CurrentSense6/IN-*%
X58484000Y-68000000D02*
X79100000Y-68000000D01*
X57334000Y-66850000D02*
X58484000Y-68000000D01*
X80700000Y-66400000D02*
X80700000Y-60200000D01*
X80700000Y-60200000D02*
X83000000Y-57900000D01*
X79100000Y-68000000D02*
X80700000Y-66400000D01*
%TO.N,/Current Sensing/SCL1*%
X68000000Y-98000000D02*
X64400000Y-94400000D01*
X59488127Y-94400000D02*
X56388127Y-97500000D01*
X48700000Y-40400000D02*
X48700000Y-69700000D01*
X56388127Y-97500000D02*
X49400000Y-97500000D01*
X50600000Y-38500000D02*
X48700000Y-40400000D01*
X48700000Y-69700000D02*
X49700000Y-70700000D01*
X100000000Y-75000000D02*
X100000000Y-71810000D01*
X49700000Y-70700000D02*
X48700000Y-71700000D01*
X48700000Y-71700000D02*
X48700000Y-96800000D01*
X54400000Y-38500000D02*
X50600000Y-38500000D01*
X48700000Y-96800000D02*
X49400000Y-97500000D01*
X70000000Y-98000000D02*
X68000000Y-98000000D01*
X64400000Y-94400000D02*
X59488127Y-94400000D01*
%TO.N,/Current Sensing/SDA1*%
X94700000Y-74400000D02*
X94700000Y-78600000D01*
X94700000Y-56825735D02*
X94725735Y-56800000D01*
X94700000Y-74400000D02*
X94700000Y-56825735D01*
%TO.N,Net-(M2-Tacho)*%
X112150000Y-84740000D02*
X112150000Y-87830000D01*
X112150000Y-87830000D02*
X114820000Y-90500000D01*
%TO.N,Net-(M2-PWM)*%
X111150000Y-84740000D02*
X111150000Y-89370000D01*
X111150000Y-89370000D02*
X112280000Y-90500000D01*
%TO.N,/Input Output/FAN_TACHO*%
X112950000Y-77310000D02*
X112150000Y-78110000D01*
X112950000Y-74250000D02*
X112950000Y-77060000D01*
X112950000Y-77060000D02*
X112950000Y-77310000D01*
X116400000Y-70800000D02*
X112950000Y-74250000D01*
%TO.N,/Input Output/FAN_PWM*%
X112350000Y-76450000D02*
X112350000Y-73800000D01*
X111150000Y-78110000D02*
X112350000Y-76910000D01*
X112350000Y-73800000D02*
X116400000Y-69750000D01*
X112350000Y-76910000D02*
X112350000Y-76450000D01*
%TD*%
%TA.AperFunction,Conductor*%
%TO.N,GND1*%
G36*
X60512128Y-94747185D02*
G01*
X60557883Y-94799989D01*
X60567827Y-94869147D01*
X60538802Y-94932703D01*
X60492542Y-94966061D01*
X60244702Y-95068719D01*
X60244688Y-95068726D01*
X59889390Y-95258635D01*
X59889372Y-95258646D01*
X59554397Y-95482470D01*
X59554383Y-95482480D01*
X59242946Y-95738070D01*
X58958070Y-96022946D01*
X58702480Y-96334383D01*
X58702470Y-96334397D01*
X58478646Y-96669372D01*
X58478635Y-96669390D01*
X58288726Y-97024688D01*
X58288719Y-97024702D01*
X58134543Y-97396915D01*
X58017588Y-97782463D01*
X57938991Y-98177599D01*
X57938988Y-98177616D01*
X57899500Y-98578558D01*
X57899500Y-98981451D01*
X57899649Y-98984482D01*
X57899600Y-98984484D01*
X57900000Y-98992612D01*
X57900000Y-101175500D01*
X57880315Y-101242539D01*
X57827511Y-101288294D01*
X57776000Y-101299500D01*
X53002706Y-101299500D01*
X52997297Y-101299382D01*
X52613249Y-101282614D01*
X52602473Y-101281671D01*
X52224042Y-101231849D01*
X52213389Y-101229971D01*
X51840727Y-101147354D01*
X51830278Y-101144554D01*
X51466244Y-101029775D01*
X51456078Y-101026075D01*
X51103427Y-100880002D01*
X51093623Y-100875430D01*
X50755057Y-100699183D01*
X50745689Y-100693775D01*
X50423755Y-100488681D01*
X50414894Y-100482476D01*
X50112069Y-100250110D01*
X50103782Y-100243156D01*
X49822364Y-99985284D01*
X49814715Y-99977635D01*
X49556843Y-99696217D01*
X49549889Y-99687930D01*
X49406813Y-99501470D01*
X49406811Y-99501468D01*
X49355124Y-99434108D01*
X52079500Y-99434108D01*
X52079500Y-99565892D01*
X52096554Y-99629539D01*
X52113608Y-99693187D01*
X52146554Y-99750250D01*
X52179500Y-99807314D01*
X52272686Y-99900500D01*
X52386814Y-99966392D01*
X52514108Y-100000500D01*
X52514110Y-100000500D01*
X52645890Y-100000500D01*
X52645892Y-100000500D01*
X52773186Y-99966392D01*
X52887314Y-99900500D01*
X52980500Y-99807314D01*
X53046392Y-99693186D01*
X53080500Y-99565892D01*
X53080500Y-99434108D01*
X53046392Y-99306814D01*
X52980500Y-99192686D01*
X52887314Y-99099500D01*
X52801145Y-99049750D01*
X52773187Y-99033608D01*
X52709539Y-99016554D01*
X52645892Y-98999500D01*
X52514108Y-98999500D01*
X52386812Y-99033608D01*
X52272686Y-99099500D01*
X52272683Y-99099502D01*
X52179502Y-99192683D01*
X52179500Y-99192686D01*
X52113608Y-99306812D01*
X52095004Y-99376244D01*
X52079500Y-99434108D01*
X49355124Y-99434108D01*
X49317515Y-99385094D01*
X49311318Y-99376244D01*
X49106224Y-99054310D01*
X49100816Y-99044942D01*
X49070404Y-98986521D01*
X48924566Y-98706369D01*
X48919997Y-98696572D01*
X48871113Y-98578555D01*
X48773920Y-98343911D01*
X48770224Y-98333755D01*
X48761888Y-98307316D01*
X48655442Y-97969710D01*
X48652648Y-97959284D01*
X48570028Y-97586608D01*
X48570190Y-97584208D01*
X48568151Y-97575962D01*
X48548415Y-97426053D01*
X48559181Y-97357021D01*
X48605560Y-97304765D01*
X48672829Y-97285880D01*
X48739630Y-97306361D01*
X48759035Y-97322190D01*
X48863181Y-97426336D01*
X48875931Y-97449685D01*
X48891815Y-97471041D01*
X48892419Y-97479882D01*
X48896666Y-97487659D01*
X48899500Y-97514017D01*
X48899500Y-97565891D01*
X48933608Y-97693187D01*
X48966554Y-97750250D01*
X48999500Y-97807314D01*
X49092686Y-97900500D01*
X49206814Y-97966392D01*
X49334108Y-98000500D01*
X49334110Y-98000500D01*
X49465890Y-98000500D01*
X49465892Y-98000500D01*
X49593186Y-97966392D01*
X49707314Y-97900500D01*
X49743995Y-97863819D01*
X49805318Y-97830334D01*
X49831676Y-97827500D01*
X56431241Y-97827500D01*
X56431243Y-97827500D01*
X56514537Y-97805181D01*
X56589217Y-97762065D01*
X59587463Y-94763819D01*
X59648786Y-94730334D01*
X59675144Y-94727500D01*
X60445089Y-94727500D01*
X60512128Y-94747185D01*
G37*
%TD.AperFunction*%
%TA.AperFunction,Conductor*%
G36*
X57843039Y-34520185D02*
G01*
X57888794Y-34572989D01*
X57900000Y-34624500D01*
X57900000Y-36847389D01*
X57899601Y-36855519D01*
X57899649Y-36855522D01*
X57899500Y-36858551D01*
X57899500Y-37261441D01*
X57938988Y-37662383D01*
X57938991Y-37662400D01*
X58017588Y-38057536D01*
X58134543Y-38443084D01*
X58202789Y-38607843D01*
X58288722Y-38815304D01*
X58334260Y-38900500D01*
X58478635Y-39170609D01*
X58478646Y-39170627D01*
X58702470Y-39505602D01*
X58702480Y-39505616D01*
X58958070Y-39817053D01*
X59242946Y-40101929D01*
X59242951Y-40101933D01*
X59242952Y-40101934D01*
X59554389Y-40357524D01*
X59889379Y-40581358D01*
X60244696Y-40771278D01*
X60616917Y-40925457D01*
X61002458Y-41042410D01*
X61397606Y-41121010D01*
X61798555Y-41160500D01*
X61798558Y-41160500D01*
X62201442Y-41160500D01*
X62201445Y-41160500D01*
X62602394Y-41121010D01*
X62997542Y-41042410D01*
X63383083Y-40925457D01*
X63755304Y-40771278D01*
X64110621Y-40581358D01*
X64445611Y-40357524D01*
X64757048Y-40101934D01*
X65041934Y-39817048D01*
X65297524Y-39505611D01*
X65521358Y-39170621D01*
X65711278Y-38815304D01*
X65865457Y-38443083D01*
X65982410Y-38057542D01*
X66061010Y-37662394D01*
X66100500Y-37261445D01*
X66100500Y-36858555D01*
X66100500Y-36858551D01*
X66100351Y-36855522D01*
X66100398Y-36855519D01*
X66100000Y-36847389D01*
X66100000Y-34624500D01*
X66119685Y-34557461D01*
X66172489Y-34511706D01*
X66224000Y-34500500D01*
X107476000Y-34500500D01*
X107543039Y-34520185D01*
X107588794Y-34572989D01*
X107600000Y-34624500D01*
X107600000Y-68513452D01*
X107580315Y-68580491D01*
X107527511Y-68626246D01*
X107458353Y-68636190D01*
X107394797Y-68607165D01*
X107386413Y-68598266D01*
X107386247Y-68598433D01*
X107287316Y-68499502D01*
X107287314Y-68499500D01*
X107180681Y-68437935D01*
X107173187Y-68433608D01*
X107109539Y-68416554D01*
X107045892Y-68399500D01*
X106914108Y-68399500D01*
X106786812Y-68433608D01*
X106672686Y-68499500D01*
X106672683Y-68499502D01*
X106579502Y-68592683D01*
X106579500Y-68592686D01*
X106513608Y-68706812D01*
X106493144Y-68783186D01*
X106479500Y-68834108D01*
X106479500Y-68965892D01*
X106486094Y-68990500D01*
X106513608Y-69093187D01*
X106515797Y-69096978D01*
X106579500Y-69207314D01*
X106672686Y-69300500D01*
X106786814Y-69366392D01*
X106914108Y-69400500D01*
X106914110Y-69400500D01*
X107045890Y-69400500D01*
X107045892Y-69400500D01*
X107173186Y-69366392D01*
X107287314Y-69300500D01*
X107380500Y-69207314D01*
X107380500Y-69207313D01*
X107386247Y-69201567D01*
X107388097Y-69203417D01*
X107434037Y-69169863D01*
X107503783Y-69165699D01*
X107564707Y-69199904D01*
X107597468Y-69261617D01*
X107600000Y-69286547D01*
X107600000Y-101175500D01*
X107580315Y-101242539D01*
X107527511Y-101288294D01*
X107476000Y-101299500D01*
X66224000Y-101299500D01*
X66156961Y-101279815D01*
X66111206Y-101227011D01*
X66100000Y-101175500D01*
X66100000Y-99534108D01*
X98199500Y-99534108D01*
X98199500Y-99665892D01*
X98216554Y-99729539D01*
X98233608Y-99793187D01*
X98241766Y-99807316D01*
X98299500Y-99907314D01*
X98392686Y-100000500D01*
X98506814Y-100066392D01*
X98634108Y-100100500D01*
X98634110Y-100100500D01*
X98765890Y-100100500D01*
X98765892Y-100100500D01*
X98893186Y-100066392D01*
X99007314Y-100000500D01*
X99100500Y-99907314D01*
X99166392Y-99793186D01*
X99200500Y-99665892D01*
X99200500Y-99534108D01*
X99166392Y-99406814D01*
X99100500Y-99292686D01*
X99007314Y-99199500D01*
X98950250Y-99166554D01*
X98893187Y-99133608D01*
X98829539Y-99116554D01*
X98765892Y-99099500D01*
X98634108Y-99099500D01*
X98506812Y-99133608D01*
X98392686Y-99199500D01*
X98392683Y-99199502D01*
X98299502Y-99292683D01*
X98299500Y-99292686D01*
X98233608Y-99406812D01*
X98226294Y-99434110D01*
X98199500Y-99534108D01*
X66100000Y-99534108D01*
X66100000Y-98992612D01*
X66100399Y-98984484D01*
X66100351Y-98984482D01*
X66100500Y-98981451D01*
X66100500Y-98578558D01*
X66077390Y-98343921D01*
X66061010Y-98177606D01*
X65982410Y-97782458D01*
X65865457Y-97396917D01*
X65711278Y-97024696D01*
X65521358Y-96669379D01*
X65297524Y-96334389D01*
X65041934Y-96022952D01*
X65041933Y-96022951D01*
X65041929Y-96022946D01*
X64757053Y-95738070D01*
X64445616Y-95482480D01*
X64445615Y-95482479D01*
X64445611Y-95482476D01*
X64110621Y-95258642D01*
X64110616Y-95258639D01*
X64110609Y-95258635D01*
X63755311Y-95068726D01*
X63755304Y-95068722D01*
X63507457Y-94966060D01*
X63453055Y-94922220D01*
X63430990Y-94855926D01*
X63448269Y-94788226D01*
X63499406Y-94740616D01*
X63554911Y-94727500D01*
X64212983Y-94727500D01*
X64280022Y-94747185D01*
X64300664Y-94763819D01*
X67737935Y-98201090D01*
X67798910Y-98262065D01*
X67873590Y-98305181D01*
X67956884Y-98327500D01*
X69568324Y-98327500D01*
X69635363Y-98347185D01*
X69656005Y-98363819D01*
X69692686Y-98400500D01*
X69806814Y-98466392D01*
X69934108Y-98500500D01*
X69934110Y-98500500D01*
X70065890Y-98500500D01*
X70065892Y-98500500D01*
X70193186Y-98466392D01*
X70307314Y-98400500D01*
X70400500Y-98307314D01*
X70466392Y-98193186D01*
X70500500Y-98065892D01*
X70500500Y-97934108D01*
X70466392Y-97806814D01*
X70400500Y-97692686D01*
X70307314Y-97599500D01*
X70249102Y-97565891D01*
X70193187Y-97533608D01*
X70120071Y-97514017D01*
X70065892Y-97499500D01*
X69934108Y-97499500D01*
X69806812Y-97533608D01*
X69692686Y-97599500D01*
X69692683Y-97599502D01*
X69656005Y-97636181D01*
X69594682Y-97669666D01*
X69568324Y-97672500D01*
X68187017Y-97672500D01*
X68119978Y-97652815D01*
X68099336Y-97636181D01*
X67097263Y-96634108D01*
X101099500Y-96634108D01*
X101099500Y-96765891D01*
X101133608Y-96893187D01*
X101166554Y-96950250D01*
X101199500Y-97007314D01*
X101292686Y-97100500D01*
X101406814Y-97166392D01*
X101534108Y-97200500D01*
X101534110Y-97200500D01*
X101665890Y-97200500D01*
X101665892Y-97200500D01*
X101793186Y-97166392D01*
X101907314Y-97100500D01*
X102000500Y-97007314D01*
X102066392Y-96893186D01*
X102100500Y-96765892D01*
X102100500Y-96634108D01*
X102066392Y-96506814D01*
X102000500Y-96392686D01*
X101907314Y-96299500D01*
X101850250Y-96266554D01*
X101793187Y-96233608D01*
X101729539Y-96216554D01*
X101665892Y-96199500D01*
X101534108Y-96199500D01*
X101406812Y-96233608D01*
X101292686Y-96299500D01*
X101292683Y-96299502D01*
X101199502Y-96392683D01*
X101199500Y-96392686D01*
X101133608Y-96506812D01*
X101099500Y-96634108D01*
X67097263Y-96634108D01*
X64601091Y-94137936D01*
X64601090Y-94137935D01*
X64526410Y-94094819D01*
X64526411Y-94094819D01*
X64498645Y-94087379D01*
X64443116Y-94072500D01*
X59531243Y-94072500D01*
X59445011Y-94072500D01*
X59389481Y-94087379D01*
X59361716Y-94094819D01*
X59287038Y-94137934D01*
X59287035Y-94137936D01*
X56288791Y-97136181D01*
X56227468Y-97169666D01*
X56201110Y-97172500D01*
X49831676Y-97172500D01*
X49764637Y-97152815D01*
X49743995Y-97136181D01*
X49707316Y-97099502D01*
X49707314Y-97099500D01*
X49650250Y-97066554D01*
X49593187Y-97033608D01*
X49529539Y-97016554D01*
X49465892Y-96999500D01*
X49465891Y-96999500D01*
X49414017Y-96999500D01*
X49346978Y-96979815D01*
X49326336Y-96963181D01*
X49063819Y-96700664D01*
X49030334Y-96639341D01*
X49027500Y-96612983D01*
X49027500Y-92594603D01*
X54189499Y-92594603D01*
X54226410Y-92780161D01*
X54226413Y-92780171D01*
X54298814Y-92954965D01*
X54298816Y-92954968D01*
X54403927Y-93112278D01*
X54403933Y-93112286D01*
X54537713Y-93246066D01*
X54537721Y-93246072D01*
X54695031Y-93351183D01*
X54695034Y-93351185D01*
X54869828Y-93423586D01*
X54869833Y-93423588D01*
X54869837Y-93423588D01*
X54869838Y-93423589D01*
X55055396Y-93460500D01*
X55055399Y-93460500D01*
X55244603Y-93460500D01*
X55369442Y-93435667D01*
X55430167Y-93423588D01*
X55604967Y-93351184D01*
X55762283Y-93246069D01*
X55896069Y-93112283D01*
X56001184Y-92954967D01*
X56073588Y-92780167D01*
X56110500Y-92594601D01*
X56110500Y-92405399D01*
X56110500Y-92405396D01*
X56073589Y-92219838D01*
X56073588Y-92219837D01*
X56073588Y-92219833D01*
X56073586Y-92219828D01*
X56001185Y-92045034D01*
X56001183Y-92045031D01*
X55896072Y-91887721D01*
X55896066Y-91887713D01*
X55762286Y-91753933D01*
X55762278Y-91753927D01*
X55604968Y-91648816D01*
X55604965Y-91648814D01*
X55430171Y-91576413D01*
X55430161Y-91576410D01*
X55244603Y-91539500D01*
X55244601Y-91539500D01*
X55055399Y-91539500D01*
X55055397Y-91539500D01*
X54869838Y-91576410D01*
X54869828Y-91576413D01*
X54695034Y-91648814D01*
X54695031Y-91648816D01*
X54537721Y-91753927D01*
X54537713Y-91753933D01*
X54403933Y-91887713D01*
X54403927Y-91887721D01*
X54298816Y-92045031D01*
X54298814Y-92045034D01*
X54226413Y-92219828D01*
X54226410Y-92219838D01*
X54189500Y-92405396D01*
X54189500Y-92405399D01*
X54189500Y-92594601D01*
X54189500Y-92594603D01*
X54189499Y-92594603D01*
X49027500Y-92594603D01*
X49027500Y-91974626D01*
X49047185Y-91907587D01*
X49099989Y-91861832D01*
X49169147Y-91851888D01*
X49232703Y-91880913D01*
X49269885Y-91937736D01*
X49287335Y-91993736D01*
X49287336Y-91993738D01*
X49287337Y-91993740D01*
X49376599Y-92141397D01*
X49376601Y-92141400D01*
X49498599Y-92263398D01*
X49498601Y-92263399D01*
X49498603Y-92263401D01*
X49646260Y-92352663D01*
X49810988Y-92403994D01*
X49882581Y-92410500D01*
X51777418Y-92410499D01*
X51777425Y-92410499D01*
X51849007Y-92403995D01*
X51849010Y-92403994D01*
X51849012Y-92403994D01*
X52013740Y-92352663D01*
X52161397Y-92263401D01*
X52283401Y-92141397D01*
X52372663Y-91993740D01*
X52423994Y-91829012D01*
X52430500Y-91757419D01*
X52430499Y-91642582D01*
X52424487Y-91576410D01*
X52423995Y-91570992D01*
X52423993Y-91570984D01*
X52378619Y-91425374D01*
X52372663Y-91406260D01*
X52283401Y-91258603D01*
X52283399Y-91258601D01*
X52283398Y-91258599D01*
X52161400Y-91136601D01*
X52013740Y-91047337D01*
X52013737Y-91047336D01*
X51849012Y-90996006D01*
X51849010Y-90996005D01*
X51849008Y-90996005D01*
X51798884Y-90991450D01*
X51777419Y-90989500D01*
X51777416Y-90989500D01*
X49882573Y-90989500D01*
X49810992Y-90996004D01*
X49810984Y-90996006D01*
X49646262Y-91047336D01*
X49498599Y-91136601D01*
X49376601Y-91258599D01*
X49287335Y-91406263D01*
X49269885Y-91462264D01*
X49231148Y-91520412D01*
X49167122Y-91548386D01*
X49098137Y-91537304D01*
X49046094Y-91490686D01*
X49027500Y-91425374D01*
X49027500Y-89594603D01*
X54189499Y-89594603D01*
X54226410Y-89780161D01*
X54226413Y-89780171D01*
X54298814Y-89954965D01*
X54298816Y-89954968D01*
X54403927Y-90112278D01*
X54403933Y-90112286D01*
X54537713Y-90246066D01*
X54537721Y-90246072D01*
X54695031Y-90351183D01*
X54695034Y-90351185D01*
X54869828Y-90423586D01*
X54869833Y-90423588D01*
X54869837Y-90423588D01*
X54869838Y-90423589D01*
X55055396Y-90460500D01*
X55055399Y-90460500D01*
X55244603Y-90460500D01*
X55369442Y-90435667D01*
X55430167Y-90423588D01*
X55604967Y-90351184D01*
X55762283Y-90246069D01*
X55896069Y-90112283D01*
X56001184Y-89954967D01*
X56073588Y-89780167D01*
X56110500Y-89594601D01*
X56110500Y-89405399D01*
X56110500Y-89405396D01*
X56073589Y-89219838D01*
X56073588Y-89219837D01*
X56073588Y-89219833D01*
X56073586Y-89219828D01*
X56001185Y-89045034D01*
X56001183Y-89045031D01*
X55896072Y-88887721D01*
X55896066Y-88887713D01*
X55762286Y-88753933D01*
X55762278Y-88753927D01*
X55604968Y-88648816D01*
X55604965Y-88648814D01*
X55430171Y-88576413D01*
X55430161Y-88576410D01*
X55244603Y-88539500D01*
X55244601Y-88539500D01*
X55055399Y-88539500D01*
X55055397Y-88539500D01*
X54869838Y-88576410D01*
X54869828Y-88576413D01*
X54695034Y-88648814D01*
X54695031Y-88648816D01*
X54537721Y-88753927D01*
X54537713Y-88753933D01*
X54403933Y-88887713D01*
X54403927Y-88887721D01*
X54298816Y-89045031D01*
X54298814Y-89045034D01*
X54226413Y-89219828D01*
X54226410Y-89219838D01*
X54189500Y-89405396D01*
X54189500Y-89405399D01*
X54189500Y-89594601D01*
X54189500Y-89594603D01*
X54189499Y-89594603D01*
X49027500Y-89594603D01*
X49027500Y-88073920D01*
X52729499Y-88073920D01*
X52758340Y-88218907D01*
X52758343Y-88218917D01*
X52814912Y-88355488D01*
X52814919Y-88355501D01*
X52897048Y-88478415D01*
X52897051Y-88478419D01*
X53001580Y-88582948D01*
X53001584Y-88582951D01*
X53124498Y-88665080D01*
X53124511Y-88665087D01*
X53261082Y-88721656D01*
X53261087Y-88721658D01*
X53261091Y-88721658D01*
X53261092Y-88721659D01*
X53406079Y-88750500D01*
X53406082Y-88750500D01*
X53553920Y-88750500D01*
X53651462Y-88731096D01*
X53698913Y-88721658D01*
X53835495Y-88665084D01*
X53958416Y-88582951D01*
X54062951Y-88478416D01*
X54145084Y-88355495D01*
X54201658Y-88218913D01*
X54230500Y-88073918D01*
X54230500Y-87926082D01*
X54230500Y-87926079D01*
X54201659Y-87781092D01*
X54201658Y-87781091D01*
X54201658Y-87781087D01*
X54201656Y-87781082D01*
X54145087Y-87644511D01*
X54145080Y-87644498D01*
X54062951Y-87521584D01*
X54062948Y-87521580D01*
X53958419Y-87417051D01*
X53958415Y-87417048D01*
X53835501Y-87334919D01*
X53835488Y-87334912D01*
X53698917Y-87278343D01*
X53698907Y-87278340D01*
X53553920Y-87249500D01*
X53553918Y-87249500D01*
X53406082Y-87249500D01*
X53406080Y-87249500D01*
X53261092Y-87278340D01*
X53261082Y-87278343D01*
X53124511Y-87334912D01*
X53124498Y-87334919D01*
X53001584Y-87417048D01*
X53001580Y-87417051D01*
X52897051Y-87521580D01*
X52897048Y-87521584D01*
X52814919Y-87644498D01*
X52814912Y-87644511D01*
X52758343Y-87781082D01*
X52758340Y-87781092D01*
X52729500Y-87926079D01*
X52729500Y-87926082D01*
X52729500Y-88073918D01*
X52729500Y-88073920D01*
X52729499Y-88073920D01*
X49027500Y-88073920D01*
X49027500Y-86073920D01*
X52729499Y-86073920D01*
X52758340Y-86218907D01*
X52758343Y-86218917D01*
X52814912Y-86355488D01*
X52814919Y-86355501D01*
X52897048Y-86478415D01*
X52897051Y-86478419D01*
X53001580Y-86582948D01*
X53001584Y-86582951D01*
X53124498Y-86665080D01*
X53124511Y-86665087D01*
X53261082Y-86721656D01*
X53261087Y-86721658D01*
X53261091Y-86721658D01*
X53261092Y-86721659D01*
X53406079Y-86750500D01*
X53406082Y-86750500D01*
X53553920Y-86750500D01*
X53651462Y-86731096D01*
X53698913Y-86721658D01*
X53835495Y-86665084D01*
X53958416Y-86582951D01*
X53985187Y-86556179D01*
X54046508Y-86522695D01*
X54116200Y-86527679D01*
X54172134Y-86569549D01*
X54194485Y-86619669D01*
X54226410Y-86780161D01*
X54226413Y-86780171D01*
X54298814Y-86954965D01*
X54298816Y-86954968D01*
X54403927Y-87112278D01*
X54403933Y-87112286D01*
X54537713Y-87246066D01*
X54537721Y-87246072D01*
X54695031Y-87351183D01*
X54695034Y-87351185D01*
X54854044Y-87417048D01*
X54869833Y-87423588D01*
X54869837Y-87423588D01*
X54869838Y-87423589D01*
X55055396Y-87460500D01*
X55055399Y-87460500D01*
X55244603Y-87460500D01*
X55369442Y-87435667D01*
X55430167Y-87423588D01*
X55604967Y-87351184D01*
X55762283Y-87246069D01*
X55896069Y-87112283D01*
X56001184Y-86954967D01*
X56073588Y-86780167D01*
X56096481Y-86665080D01*
X56110500Y-86594603D01*
X56110500Y-86405396D01*
X56073589Y-86219838D01*
X56073588Y-86219837D01*
X56073588Y-86219833D01*
X56073207Y-86218913D01*
X56001185Y-86045034D01*
X56001183Y-86045031D01*
X55896072Y-85887721D01*
X55896066Y-85887713D01*
X55762286Y-85753933D01*
X55762278Y-85753927D01*
X55604968Y-85648816D01*
X55604965Y-85648814D01*
X55430171Y-85576413D01*
X55430161Y-85576410D01*
X55244603Y-85539500D01*
X55244601Y-85539500D01*
X55055399Y-85539500D01*
X55055397Y-85539500D01*
X54869838Y-85576410D01*
X54869828Y-85576413D01*
X54695034Y-85648814D01*
X54695031Y-85648816D01*
X54537721Y-85753927D01*
X54537718Y-85753929D01*
X54416948Y-85874699D01*
X54355625Y-85908183D01*
X54285933Y-85903199D01*
X54230000Y-85861327D01*
X54207650Y-85811208D01*
X54201659Y-85781094D01*
X54201659Y-85781092D01*
X54201658Y-85781087D01*
X54201656Y-85781082D01*
X54145087Y-85644511D01*
X54145080Y-85644498D01*
X54062951Y-85521584D01*
X54062948Y-85521580D01*
X53958419Y-85417051D01*
X53958415Y-85417048D01*
X53835501Y-85334919D01*
X53835488Y-85334912D01*
X53698917Y-85278343D01*
X53698907Y-85278340D01*
X53553920Y-85249500D01*
X53553918Y-85249500D01*
X53406082Y-85249500D01*
X53406080Y-85249500D01*
X53261092Y-85278340D01*
X53261082Y-85278343D01*
X53124511Y-85334912D01*
X53124498Y-85334919D01*
X53001584Y-85417048D01*
X53001580Y-85417051D01*
X52897051Y-85521580D01*
X52897048Y-85521584D01*
X52814919Y-85644498D01*
X52814912Y-85644511D01*
X52758343Y-85781082D01*
X52758340Y-85781092D01*
X52729500Y-85926079D01*
X52729500Y-85926082D01*
X52729500Y-86073918D01*
X52729500Y-86073920D01*
X52729499Y-86073920D01*
X49027500Y-86073920D01*
X49027500Y-84073920D01*
X52729499Y-84073920D01*
X52758340Y-84218907D01*
X52758343Y-84218917D01*
X52814912Y-84355488D01*
X52814919Y-84355501D01*
X52897048Y-84478415D01*
X52897051Y-84478419D01*
X53001580Y-84582948D01*
X53001584Y-84582951D01*
X53124498Y-84665080D01*
X53124511Y-84665087D01*
X53261082Y-84721656D01*
X53261087Y-84721658D01*
X53261091Y-84721658D01*
X53261092Y-84721659D01*
X53406079Y-84750500D01*
X53406082Y-84750500D01*
X53553920Y-84750500D01*
X53651462Y-84731096D01*
X53698913Y-84721658D01*
X53835495Y-84665084D01*
X53958416Y-84582951D01*
X54062951Y-84478416D01*
X54145084Y-84355495D01*
X54201658Y-84218913D01*
X54207650Y-84188791D01*
X54240034Y-84126880D01*
X54300750Y-84092306D01*
X54370519Y-84096045D01*
X54416948Y-84125301D01*
X54537713Y-84246066D01*
X54537721Y-84246072D01*
X54695031Y-84351183D01*
X54695034Y-84351185D01*
X54869828Y-84423586D01*
X54869833Y-84423588D01*
X54869837Y-84423588D01*
X54869838Y-84423589D01*
X55055396Y-84460500D01*
X55055399Y-84460500D01*
X55244603Y-84460500D01*
X55369442Y-84435667D01*
X55430167Y-84423588D01*
X55594545Y-84355501D01*
X55604965Y-84351185D01*
X55604968Y-84351183D01*
X55762283Y-84246069D01*
X55896069Y-84112283D01*
X56001184Y-83954967D01*
X56013149Y-83926082D01*
X56073586Y-83780171D01*
X56073588Y-83780167D01*
X56100572Y-83644511D01*
X56110500Y-83594603D01*
X56110500Y-83405396D01*
X56073589Y-83219838D01*
X56073588Y-83219837D01*
X56073588Y-83219833D01*
X56001184Y-83045033D01*
X55901670Y-82896099D01*
X94499500Y-82896099D01*
X94499500Y-83303901D01*
X94509497Y-83405399D01*
X94539470Y-83709728D01*
X94539473Y-83709745D01*
X94619024Y-84109684D01*
X94619027Y-84109695D01*
X94737409Y-84499948D01*
X94893465Y-84876700D01*
X94893472Y-84876714D01*
X95085697Y-85236345D01*
X95085708Y-85236363D01*
X95312261Y-85575422D01*
X95312271Y-85575436D01*
X95570978Y-85890672D01*
X95859327Y-86179021D01*
X95859332Y-86179025D01*
X95859333Y-86179026D01*
X96174569Y-86437733D01*
X96513643Y-86664296D01*
X96873293Y-86856532D01*
X97250053Y-87012591D01*
X97640295Y-87130970D01*
X97640301Y-87130971D01*
X97640304Y-87130972D01*
X97640315Y-87130975D01*
X97891111Y-87180860D01*
X98040261Y-87210528D01*
X98446099Y-87250500D01*
X98446102Y-87250500D01*
X98853898Y-87250500D01*
X98853901Y-87250500D01*
X99259739Y-87210528D01*
X99457711Y-87171148D01*
X99659684Y-87130975D01*
X99659695Y-87130972D01*
X99659695Y-87130971D01*
X99659705Y-87130970D01*
X100049947Y-87012591D01*
X100426707Y-86856532D01*
X100786357Y-86664296D01*
X101125431Y-86437733D01*
X101440667Y-86179026D01*
X101729026Y-85890667D01*
X101987733Y-85575431D01*
X102214296Y-85236357D01*
X102406532Y-84876707D01*
X102562591Y-84499947D01*
X102680970Y-84109705D01*
X102680972Y-84109695D01*
X102680975Y-84109684D01*
X102746520Y-83780161D01*
X102760528Y-83709739D01*
X102800500Y-83303901D01*
X102800500Y-82896099D01*
X102760528Y-82490261D01*
X102730860Y-82341111D01*
X102680975Y-82090315D01*
X102680972Y-82090304D01*
X102680971Y-82090301D01*
X102680970Y-82090295D01*
X102562591Y-81700053D01*
X102406532Y-81323293D01*
X102214296Y-80963643D01*
X101987733Y-80624569D01*
X101729026Y-80309333D01*
X101729025Y-80309332D01*
X101729021Y-80309327D01*
X101440672Y-80020978D01*
X101125436Y-79762271D01*
X101125435Y-79762270D01*
X101125431Y-79762267D01*
X100786357Y-79535704D01*
X100786352Y-79535701D01*
X100786345Y-79535697D01*
X100426714Y-79343472D01*
X100426707Y-79343468D01*
X100426700Y-79343465D01*
X100049948Y-79187409D01*
X99659695Y-79069027D01*
X99659684Y-79069024D01*
X99259745Y-78989473D01*
X99259728Y-78989470D01*
X98952831Y-78959243D01*
X98853901Y-78949500D01*
X98446099Y-78949500D01*
X98354603Y-78958511D01*
X98040271Y-78989470D01*
X98040254Y-78989473D01*
X97640315Y-79069024D01*
X97640304Y-79069027D01*
X97250051Y-79187409D01*
X96873299Y-79343465D01*
X96873285Y-79343472D01*
X96513654Y-79535697D01*
X96513636Y-79535708D01*
X96174577Y-79762261D01*
X96174563Y-79762271D01*
X95859327Y-80020978D01*
X95570978Y-80309327D01*
X95312271Y-80624563D01*
X95312261Y-80624577D01*
X95085708Y-80963636D01*
X95085697Y-80963654D01*
X94893472Y-81323285D01*
X94893465Y-81323299D01*
X94737409Y-81700051D01*
X94619027Y-82090304D01*
X94619024Y-82090315D01*
X94539473Y-82490254D01*
X94539470Y-82490271D01*
X94516681Y-82721656D01*
X94499500Y-82896099D01*
X55901670Y-82896099D01*
X55896069Y-82887717D01*
X55896067Y-82887714D01*
X55762286Y-82753933D01*
X55762278Y-82753927D01*
X55604968Y-82648816D01*
X55604965Y-82648814D01*
X55430171Y-82576413D01*
X55430161Y-82576410D01*
X55244603Y-82539500D01*
X55244601Y-82539500D01*
X55055399Y-82539500D01*
X55055397Y-82539500D01*
X54869838Y-82576410D01*
X54869828Y-82576413D01*
X54695034Y-82648814D01*
X54695031Y-82648816D01*
X54537721Y-82753927D01*
X54537713Y-82753933D01*
X54403933Y-82887713D01*
X54403927Y-82887721D01*
X54298816Y-83045031D01*
X54298814Y-83045034D01*
X54226413Y-83219828D01*
X54226411Y-83219837D01*
X54194485Y-83380331D01*
X54162099Y-83442241D01*
X54101383Y-83476815D01*
X54031614Y-83473074D01*
X53985187Y-83443819D01*
X53958419Y-83417051D01*
X53958415Y-83417048D01*
X53835501Y-83334919D01*
X53835488Y-83334912D01*
X53698917Y-83278343D01*
X53698907Y-83278340D01*
X53553920Y-83249500D01*
X53553918Y-83249500D01*
X53406082Y-83249500D01*
X53406080Y-83249500D01*
X53261092Y-83278340D01*
X53261082Y-83278343D01*
X53124511Y-83334912D01*
X53124498Y-83334919D01*
X53001584Y-83417048D01*
X53001580Y-83417051D01*
X52897051Y-83521580D01*
X52897048Y-83521584D01*
X52814919Y-83644498D01*
X52814912Y-83644511D01*
X52758343Y-83781082D01*
X52758340Y-83781092D01*
X52729500Y-83926079D01*
X52729500Y-83926082D01*
X52729500Y-84073918D01*
X52729500Y-84073920D01*
X52729499Y-84073920D01*
X49027500Y-84073920D01*
X49027500Y-82073920D01*
X52729499Y-82073920D01*
X52758340Y-82218907D01*
X52758343Y-82218917D01*
X52814912Y-82355488D01*
X52814919Y-82355501D01*
X52897048Y-82478415D01*
X52897051Y-82478419D01*
X53001580Y-82582948D01*
X53001584Y-82582951D01*
X53124498Y-82665080D01*
X53124511Y-82665087D01*
X53261082Y-82721656D01*
X53261087Y-82721658D01*
X53261091Y-82721658D01*
X53261092Y-82721659D01*
X53406079Y-82750500D01*
X53406082Y-82750500D01*
X53553920Y-82750500D01*
X53651462Y-82731096D01*
X53698913Y-82721658D01*
X53835495Y-82665084D01*
X53958416Y-82582951D01*
X54062951Y-82478416D01*
X54145084Y-82355495D01*
X54201658Y-82218913D01*
X54211096Y-82171462D01*
X54230500Y-82073920D01*
X54230500Y-81926079D01*
X54201659Y-81781092D01*
X54201658Y-81781091D01*
X54201658Y-81781087D01*
X54168278Y-81700500D01*
X54145087Y-81644511D01*
X54145080Y-81644498D01*
X54062951Y-81521584D01*
X54062948Y-81521580D01*
X53958419Y-81417051D01*
X53958415Y-81417048D01*
X53835501Y-81334919D01*
X53835488Y-81334912D01*
X53698917Y-81278343D01*
X53698907Y-81278340D01*
X53553920Y-81249500D01*
X53553918Y-81249500D01*
X53406082Y-81249500D01*
X53406080Y-81249500D01*
X53261092Y-81278340D01*
X53261082Y-81278343D01*
X53124511Y-81334912D01*
X53124498Y-81334919D01*
X53001584Y-81417048D01*
X53001580Y-81417051D01*
X52897051Y-81521580D01*
X52897048Y-81521584D01*
X52814919Y-81644498D01*
X52814912Y-81644511D01*
X52758343Y-81781082D01*
X52758340Y-81781092D01*
X52729500Y-81926079D01*
X52729500Y-81926082D01*
X52729500Y-82073918D01*
X52729500Y-82073920D01*
X52729499Y-82073920D01*
X49027500Y-82073920D01*
X49027500Y-80594603D01*
X54189499Y-80594603D01*
X54226410Y-80780161D01*
X54226413Y-80780171D01*
X54298814Y-80954965D01*
X54298816Y-80954968D01*
X54403927Y-81112278D01*
X54403933Y-81112286D01*
X54537713Y-81246066D01*
X54537721Y-81246072D01*
X54695031Y-81351183D01*
X54695034Y-81351185D01*
X54854044Y-81417048D01*
X54869833Y-81423588D01*
X54869837Y-81423588D01*
X54869838Y-81423589D01*
X55055396Y-81460500D01*
X55055399Y-81460500D01*
X55244603Y-81460500D01*
X55369442Y-81435667D01*
X55430167Y-81423588D01*
X55546700Y-81375318D01*
X55604965Y-81351185D01*
X55604968Y-81351183D01*
X55629309Y-81334919D01*
X55762283Y-81246069D01*
X55774244Y-81234108D01*
X93199500Y-81234108D01*
X93199500Y-81365891D01*
X93233608Y-81493187D01*
X93266554Y-81550250D01*
X93299500Y-81607314D01*
X93392686Y-81700500D01*
X93506814Y-81766392D01*
X93634108Y-81800500D01*
X93634110Y-81800500D01*
X93765890Y-81800500D01*
X93765892Y-81800500D01*
X93893186Y-81766392D01*
X94007314Y-81700500D01*
X94100500Y-81607314D01*
X94166392Y-81493186D01*
X94200500Y-81365892D01*
X94200500Y-81234108D01*
X94166392Y-81106814D01*
X94100500Y-80992686D01*
X94007314Y-80899500D01*
X93950250Y-80866554D01*
X93893187Y-80833608D01*
X93829539Y-80816554D01*
X93765892Y-80799500D01*
X93634108Y-80799500D01*
X93506812Y-80833608D01*
X93392686Y-80899500D01*
X93392683Y-80899502D01*
X93299502Y-80992683D01*
X93299500Y-80992686D01*
X93233608Y-81106812D01*
X93199500Y-81234108D01*
X55774244Y-81234108D01*
X55870053Y-81138300D01*
X55896066Y-81112286D01*
X55896069Y-81112283D01*
X56001184Y-80954967D01*
X56073588Y-80780167D01*
X56085667Y-80719442D01*
X56110500Y-80594603D01*
X56110500Y-80405396D01*
X56073589Y-80219838D01*
X56073588Y-80219837D01*
X56073588Y-80219833D01*
X56073586Y-80219828D01*
X56001185Y-80045034D01*
X56001183Y-80045031D01*
X55896072Y-79887721D01*
X55896066Y-79887713D01*
X55762286Y-79753933D01*
X55762278Y-79753927D01*
X55604968Y-79648816D01*
X55604965Y-79648814D01*
X55430171Y-79576413D01*
X55430161Y-79576410D01*
X55244603Y-79539500D01*
X55244601Y-79539500D01*
X55055399Y-79539500D01*
X55055397Y-79539500D01*
X54869838Y-79576410D01*
X54869828Y-79576413D01*
X54695034Y-79648814D01*
X54695031Y-79648816D01*
X54537721Y-79753927D01*
X54537713Y-79753933D01*
X54403933Y-79887713D01*
X54403927Y-79887721D01*
X54298816Y-80045031D01*
X54298814Y-80045034D01*
X54226413Y-80219828D01*
X54226410Y-80219838D01*
X54189500Y-80405396D01*
X54189500Y-80405399D01*
X54189500Y-80594601D01*
X54189500Y-80594603D01*
X54189499Y-80594603D01*
X49027500Y-80594603D01*
X49027500Y-78574626D01*
X49047185Y-78507587D01*
X49099989Y-78461832D01*
X49169147Y-78451888D01*
X49232703Y-78480913D01*
X49269885Y-78537736D01*
X49287335Y-78593736D01*
X49287336Y-78593738D01*
X49287337Y-78593740D01*
X49330954Y-78665891D01*
X49376601Y-78741400D01*
X49498599Y-78863398D01*
X49498601Y-78863399D01*
X49498603Y-78863401D01*
X49646260Y-78952663D01*
X49810988Y-79003994D01*
X49882581Y-79010500D01*
X51777418Y-79010499D01*
X51777425Y-79010499D01*
X51849007Y-79003995D01*
X51849010Y-79003994D01*
X51849012Y-79003994D01*
X52013740Y-78952663D01*
X52161397Y-78863401D01*
X52283401Y-78741397D01*
X52372663Y-78593740D01*
X52423994Y-78429012D01*
X52430500Y-78357419D01*
X52430499Y-78242582D01*
X52426011Y-78193186D01*
X52423995Y-78170992D01*
X52423993Y-78170984D01*
X52391245Y-78065892D01*
X52372663Y-78006260D01*
X52283401Y-77858603D01*
X52283399Y-77858601D01*
X52283398Y-77858599D01*
X52161400Y-77736601D01*
X52013740Y-77647337D01*
X51925004Y-77619686D01*
X51849012Y-77596006D01*
X51849010Y-77596005D01*
X51849008Y-77596005D01*
X51833580Y-77594603D01*
X54189499Y-77594603D01*
X54226410Y-77780161D01*
X54226413Y-77780171D01*
X54298814Y-77954965D01*
X54298816Y-77954968D01*
X54403927Y-78112278D01*
X54403933Y-78112286D01*
X54537713Y-78246066D01*
X54537721Y-78246072D01*
X54695031Y-78351183D01*
X54695034Y-78351185D01*
X54869828Y-78423586D01*
X54869833Y-78423588D01*
X54869837Y-78423588D01*
X54869838Y-78423589D01*
X55055396Y-78460500D01*
X55055399Y-78460500D01*
X55244603Y-78460500D01*
X55402919Y-78429008D01*
X55430167Y-78423588D01*
X55546700Y-78375318D01*
X55604965Y-78351185D01*
X55604968Y-78351183D01*
X55670623Y-78307314D01*
X55762283Y-78246069D01*
X55896069Y-78112283D01*
X56001184Y-77954967D01*
X56073588Y-77780167D01*
X56102392Y-77635363D01*
X56110500Y-77594603D01*
X56110500Y-77405396D01*
X56099515Y-77350173D01*
X56096319Y-77334108D01*
X84899500Y-77334108D01*
X84899500Y-77465891D01*
X84933608Y-77593187D01*
X84935236Y-77596006D01*
X84999500Y-77707314D01*
X85092686Y-77800500D01*
X85206814Y-77866392D01*
X85334108Y-77900500D01*
X85334110Y-77900500D01*
X85465890Y-77900500D01*
X85465892Y-77900500D01*
X85593186Y-77866392D01*
X85707314Y-77800500D01*
X85800500Y-77707314D01*
X85866392Y-77593186D01*
X85900500Y-77465892D01*
X85900500Y-77334108D01*
X85866392Y-77206814D01*
X85800500Y-77092686D01*
X85707314Y-76999500D01*
X85631783Y-76955892D01*
X85593187Y-76933608D01*
X85529539Y-76916554D01*
X85465892Y-76899500D01*
X85334108Y-76899500D01*
X85206812Y-76933608D01*
X85092686Y-76999500D01*
X85092683Y-76999502D01*
X84999502Y-77092683D01*
X84999500Y-77092686D01*
X84933608Y-77206812D01*
X84899500Y-77334108D01*
X56096319Y-77334108D01*
X56073589Y-77219838D01*
X56073588Y-77219837D01*
X56073588Y-77219833D01*
X56073586Y-77219828D01*
X56001185Y-77045034D01*
X56001183Y-77045031D01*
X55896072Y-76887721D01*
X55896066Y-76887713D01*
X55762286Y-76753933D01*
X55762278Y-76753927D01*
X55604968Y-76648816D01*
X55604965Y-76648814D01*
X55430171Y-76576413D01*
X55430161Y-76576410D01*
X55244603Y-76539500D01*
X55244601Y-76539500D01*
X55055399Y-76539500D01*
X55055397Y-76539500D01*
X54869838Y-76576410D01*
X54869828Y-76576413D01*
X54695034Y-76648814D01*
X54695031Y-76648816D01*
X54537721Y-76753927D01*
X54537713Y-76753933D01*
X54403933Y-76887713D01*
X54403927Y-76887721D01*
X54298816Y-77045031D01*
X54298814Y-77045034D01*
X54226413Y-77219828D01*
X54226410Y-77219838D01*
X54189500Y-77405396D01*
X54189500Y-77405399D01*
X54189500Y-77594601D01*
X54189500Y-77594603D01*
X54189499Y-77594603D01*
X51833580Y-77594603D01*
X51798884Y-77591450D01*
X51777419Y-77589500D01*
X51777416Y-77589500D01*
X49882573Y-77589500D01*
X49810992Y-77596004D01*
X49810984Y-77596006D01*
X49646262Y-77647336D01*
X49646260Y-77647336D01*
X49646260Y-77647337D01*
X49597041Y-77677091D01*
X49498599Y-77736601D01*
X49376601Y-77858599D01*
X49287335Y-78006263D01*
X49269885Y-78062264D01*
X49231148Y-78120412D01*
X49167122Y-78148386D01*
X49098137Y-78137304D01*
X49046094Y-78090686D01*
X49027500Y-78025374D01*
X49027500Y-74534108D01*
X82599500Y-74534108D01*
X82599500Y-74665892D01*
X82616173Y-74728118D01*
X82633608Y-74793187D01*
X82655163Y-74830521D01*
X82699500Y-74907314D01*
X82699502Y-74907316D01*
X82754505Y-74962319D01*
X82787990Y-75023642D01*
X82783006Y-75093334D01*
X82754505Y-75137681D01*
X82699502Y-75192683D01*
X82699500Y-75192686D01*
X82633608Y-75306812D01*
X82599500Y-75434108D01*
X82599500Y-75565891D01*
X82633608Y-75693187D01*
X82641766Y-75707316D01*
X82699500Y-75807314D01*
X82699502Y-75807316D01*
X82792686Y-75900500D01*
X82794158Y-75901630D01*
X82795083Y-75902897D01*
X82798433Y-75906247D01*
X82797910Y-75906769D01*
X82835356Y-75958060D01*
X82839506Y-76027807D01*
X82805289Y-76088725D01*
X82794158Y-76098370D01*
X82792687Y-76099498D01*
X82699502Y-76192683D01*
X82699500Y-76192686D01*
X82633608Y-76306812D01*
X82599500Y-76434108D01*
X82599500Y-76565891D01*
X82633608Y-76693187D01*
X82645490Y-76713766D01*
X82699500Y-76807314D01*
X82792686Y-76900500D01*
X82906814Y-76966392D01*
X83034108Y-77000500D01*
X83034110Y-77000500D01*
X83165890Y-77000500D01*
X83165892Y-77000500D01*
X83293186Y-76966392D01*
X83407314Y-76900500D01*
X83500500Y-76807314D01*
X83566392Y-76693186D01*
X83600500Y-76565892D01*
X83600500Y-76434108D01*
X83566392Y-76306814D01*
X83500500Y-76192686D01*
X83407314Y-76099500D01*
X83407311Y-76099498D01*
X83405847Y-76098375D01*
X83404921Y-76097107D01*
X83401567Y-76093753D01*
X83402090Y-76093229D01*
X83364645Y-76041947D01*
X83360491Y-75972201D01*
X83394704Y-75911281D01*
X83405847Y-75901625D01*
X83407306Y-75900504D01*
X83407314Y-75900500D01*
X83500500Y-75807314D01*
X83566392Y-75693186D01*
X83600500Y-75565892D01*
X83600500Y-75434108D01*
X83566392Y-75306814D01*
X83500500Y-75192686D01*
X83445495Y-75137681D01*
X83441156Y-75129735D01*
X83433909Y-75124310D01*
X83424674Y-75099550D01*
X83412010Y-75076358D01*
X83412655Y-75067328D01*
X83409492Y-75058846D01*
X83414872Y-75034108D01*
X90199500Y-75034108D01*
X90199500Y-75165892D01*
X90206813Y-75193186D01*
X90233608Y-75293187D01*
X90264665Y-75346978D01*
X90299500Y-75407314D01*
X90392686Y-75500500D01*
X90491521Y-75557563D01*
X90505944Y-75565890D01*
X90506814Y-75566392D01*
X90634108Y-75600500D01*
X90634110Y-75600500D01*
X90765890Y-75600500D01*
X90765892Y-75600500D01*
X90893186Y-75566392D01*
X91007314Y-75500500D01*
X91100500Y-75407314D01*
X91166392Y-75293186D01*
X91200500Y-75165892D01*
X91200500Y-75034108D01*
X91166392Y-74906814D01*
X91100500Y-74792686D01*
X91007314Y-74699500D01*
X90931979Y-74656005D01*
X90893187Y-74633608D01*
X90829539Y-74616554D01*
X90765892Y-74599500D01*
X90634108Y-74599500D01*
X90506812Y-74633608D01*
X90392686Y-74699500D01*
X90392683Y-74699502D01*
X90299502Y-74792683D01*
X90299500Y-74792686D01*
X90233608Y-74906812D01*
X90208505Y-75000500D01*
X90199500Y-75034108D01*
X83414872Y-75034108D01*
X83415108Y-75033025D01*
X83416994Y-75006666D01*
X83422812Y-74997612D01*
X83424344Y-74990573D01*
X83445495Y-74962319D01*
X83469514Y-74938300D01*
X83477272Y-74930542D01*
X83500500Y-74907314D01*
X83566392Y-74793186D01*
X83600500Y-74665892D01*
X83600500Y-74534108D01*
X83566392Y-74406814D01*
X83500500Y-74292686D01*
X83407314Y-74199500D01*
X83350250Y-74166554D01*
X83293187Y-74133608D01*
X83229539Y-74116554D01*
X83165892Y-74099500D01*
X83034108Y-74099500D01*
X82906812Y-74133608D01*
X82792686Y-74199500D01*
X82792683Y-74199502D01*
X82699502Y-74292683D01*
X82699500Y-74292686D01*
X82633608Y-74406812D01*
X82617778Y-74465892D01*
X82599500Y-74534108D01*
X49027500Y-74534108D01*
X49027500Y-71887017D01*
X49047185Y-71819978D01*
X49063819Y-71799336D01*
X49626336Y-71236819D01*
X49687659Y-71203334D01*
X49714017Y-71200500D01*
X49765890Y-71200500D01*
X49765892Y-71200500D01*
X49893186Y-71166392D01*
X50007314Y-71100500D01*
X50100500Y-71007314D01*
X50142766Y-70934108D01*
X54249500Y-70934108D01*
X54249500Y-71065892D01*
X54276428Y-71166391D01*
X54283609Y-71193188D01*
X54283609Y-71193189D01*
X54352782Y-71313000D01*
X54369255Y-71380900D01*
X54352782Y-71437000D01*
X54283609Y-71556810D01*
X54283609Y-71556811D01*
X54283609Y-71556812D01*
X54283608Y-71556814D01*
X54249500Y-71684108D01*
X54249500Y-71815892D01*
X54265576Y-71875890D01*
X54283608Y-71943187D01*
X54310347Y-71989500D01*
X54349500Y-72057314D01*
X54442686Y-72150500D01*
X54556814Y-72216392D01*
X54671247Y-72247054D01*
X54730907Y-72283418D01*
X54761436Y-72346264D01*
X54758928Y-72398920D01*
X54749500Y-72434106D01*
X54749500Y-72565891D01*
X54783608Y-72693187D01*
X54803113Y-72726970D01*
X54849500Y-72807314D01*
X54942686Y-72900500D01*
X55056814Y-72966392D01*
X55184108Y-73000500D01*
X55184110Y-73000500D01*
X55315890Y-73000500D01*
X55315892Y-73000500D01*
X55443186Y-72966392D01*
X55557314Y-72900500D01*
X55650500Y-72807314D01*
X55650504Y-72807306D01*
X55651625Y-72805847D01*
X55652892Y-72804921D01*
X55656247Y-72801567D01*
X55656770Y-72802090D01*
X55708053Y-72764645D01*
X55777799Y-72760491D01*
X55838719Y-72794704D01*
X55848375Y-72805847D01*
X55849498Y-72807311D01*
X55849500Y-72807314D01*
X55942686Y-72900500D01*
X56056814Y-72966392D01*
X56184108Y-73000500D01*
X56184110Y-73000500D01*
X56315890Y-73000500D01*
X56315892Y-73000500D01*
X56443186Y-72966392D01*
X56557314Y-72900500D01*
X56650500Y-72807314D01*
X56716392Y-72693186D01*
X56750500Y-72565892D01*
X56750500Y-72434108D01*
X56741071Y-72398918D01*
X56742734Y-72329072D01*
X56781896Y-72271210D01*
X56828749Y-72247054D01*
X56943186Y-72216392D01*
X57057314Y-72150500D01*
X57150500Y-72057314D01*
X57216392Y-71943186D01*
X57250500Y-71815892D01*
X57250500Y-71684108D01*
X57216392Y-71556814D01*
X57150500Y-71442686D01*
X57150498Y-71442684D01*
X57147217Y-71437001D01*
X57130744Y-71369101D01*
X57147217Y-71312999D01*
X57150498Y-71307315D01*
X57150500Y-71307314D01*
X57216392Y-71193186D01*
X57250500Y-71065892D01*
X57250500Y-70934108D01*
X58249500Y-70934108D01*
X58249500Y-71065892D01*
X58276428Y-71166391D01*
X58283609Y-71193188D01*
X58283609Y-71193189D01*
X58352782Y-71313000D01*
X58369255Y-71380900D01*
X58352782Y-71437000D01*
X58283609Y-71556810D01*
X58283609Y-71556811D01*
X58283609Y-71556812D01*
X58283608Y-71556814D01*
X58249500Y-71684108D01*
X58249500Y-71815892D01*
X58265576Y-71875890D01*
X58283608Y-71943187D01*
X58310347Y-71989500D01*
X58349500Y-72057314D01*
X58442686Y-72150500D01*
X58556814Y-72216392D01*
X58671247Y-72247054D01*
X58730907Y-72283418D01*
X58761436Y-72346264D01*
X58758928Y-72398920D01*
X58749500Y-72434106D01*
X58749500Y-72565891D01*
X58783608Y-72693187D01*
X58803113Y-72726970D01*
X58849500Y-72807314D01*
X58942686Y-72900500D01*
X59056814Y-72966392D01*
X59184108Y-73000500D01*
X59184110Y-73000500D01*
X59315890Y-73000500D01*
X59315892Y-73000500D01*
X59443186Y-72966392D01*
X59557314Y-72900500D01*
X59650500Y-72807314D01*
X59650504Y-72807306D01*
X59651625Y-72805847D01*
X59652892Y-72804921D01*
X59656247Y-72801567D01*
X59656770Y-72802090D01*
X59708053Y-72764645D01*
X59777799Y-72760491D01*
X59838719Y-72794704D01*
X59848375Y-72805847D01*
X59849498Y-72807311D01*
X59849500Y-72807314D01*
X59942686Y-72900500D01*
X60056814Y-72966392D01*
X60184108Y-73000500D01*
X60184110Y-73000500D01*
X60315890Y-73000500D01*
X60315892Y-73000500D01*
X60443186Y-72966392D01*
X60557314Y-72900500D01*
X60650500Y-72807314D01*
X60716392Y-72693186D01*
X60750500Y-72565892D01*
X60750500Y-72434108D01*
X60741071Y-72398918D01*
X60742734Y-72329072D01*
X60781896Y-72271210D01*
X60828749Y-72247054D01*
X60943186Y-72216392D01*
X61057314Y-72150500D01*
X61150500Y-72057314D01*
X61216392Y-71943186D01*
X61250500Y-71815892D01*
X61250500Y-71684108D01*
X61216392Y-71556814D01*
X61150500Y-71442686D01*
X61150498Y-71442684D01*
X61147217Y-71437001D01*
X61130744Y-71369101D01*
X61147217Y-71312999D01*
X61150498Y-71307315D01*
X61150500Y-71307314D01*
X61216392Y-71193186D01*
X61250500Y-71065892D01*
X61250500Y-70934108D01*
X62249500Y-70934108D01*
X62249500Y-71065892D01*
X62276428Y-71166391D01*
X62283609Y-71193188D01*
X62283609Y-71193189D01*
X62352782Y-71313000D01*
X62369255Y-71380900D01*
X62352782Y-71437000D01*
X62283609Y-71556810D01*
X62283609Y-71556811D01*
X62283609Y-71556812D01*
X62283608Y-71556814D01*
X62249500Y-71684108D01*
X62249500Y-71815892D01*
X62265576Y-71875890D01*
X62283608Y-71943187D01*
X62310347Y-71989500D01*
X62349500Y-72057314D01*
X62442686Y-72150500D01*
X62556814Y-72216392D01*
X62671247Y-72247054D01*
X62730907Y-72283418D01*
X62761436Y-72346264D01*
X62758928Y-72398920D01*
X62749500Y-72434106D01*
X62749500Y-72565891D01*
X62783608Y-72693187D01*
X62803113Y-72726970D01*
X62849500Y-72807314D01*
X62942686Y-72900500D01*
X63056814Y-72966392D01*
X63184108Y-73000500D01*
X63184110Y-73000500D01*
X63315890Y-73000500D01*
X63315892Y-73000500D01*
X63443186Y-72966392D01*
X63557314Y-72900500D01*
X63650500Y-72807314D01*
X63650504Y-72807306D01*
X63651625Y-72805847D01*
X63652892Y-72804921D01*
X63656247Y-72801567D01*
X63656770Y-72802090D01*
X63708053Y-72764645D01*
X63777799Y-72760491D01*
X63838719Y-72794704D01*
X63848375Y-72805847D01*
X63849498Y-72807311D01*
X63849500Y-72807314D01*
X63942686Y-72900500D01*
X64056814Y-72966392D01*
X64184108Y-73000500D01*
X64184110Y-73000500D01*
X64315890Y-73000500D01*
X64315892Y-73000500D01*
X64443186Y-72966392D01*
X64557314Y-72900500D01*
X64650500Y-72807314D01*
X64716392Y-72693186D01*
X64750500Y-72565892D01*
X64750500Y-72434108D01*
X64741071Y-72398918D01*
X64742734Y-72329072D01*
X64781896Y-72271210D01*
X64828749Y-72247054D01*
X64943186Y-72216392D01*
X65057314Y-72150500D01*
X65150500Y-72057314D01*
X65216392Y-71943186D01*
X65250500Y-71815892D01*
X65250500Y-71684108D01*
X65216392Y-71556814D01*
X65150500Y-71442686D01*
X65150498Y-71442684D01*
X65147217Y-71437001D01*
X65130744Y-71369101D01*
X65147217Y-71312999D01*
X65150498Y-71307315D01*
X65150500Y-71307314D01*
X65216392Y-71193186D01*
X65250500Y-71065892D01*
X65250500Y-70934108D01*
X66249500Y-70934108D01*
X66249500Y-71065892D01*
X66276428Y-71166391D01*
X66283609Y-71193188D01*
X66283609Y-71193189D01*
X66352782Y-71313000D01*
X66369255Y-71380900D01*
X66352782Y-71437000D01*
X66283609Y-71556810D01*
X66283609Y-71556811D01*
X66283609Y-71556812D01*
X66283608Y-71556814D01*
X66249500Y-71684108D01*
X66249500Y-71815892D01*
X66265576Y-71875890D01*
X66283608Y-71943187D01*
X66310347Y-71989500D01*
X66349500Y-72057314D01*
X66442686Y-72150500D01*
X66556814Y-72216392D01*
X66671247Y-72247054D01*
X66730907Y-72283418D01*
X66761436Y-72346264D01*
X66758928Y-72398920D01*
X66749500Y-72434106D01*
X66749500Y-72565891D01*
X66783608Y-72693187D01*
X66803113Y-72726970D01*
X66849500Y-72807314D01*
X66942686Y-72900500D01*
X67056814Y-72966392D01*
X67184108Y-73000500D01*
X67184110Y-73000500D01*
X67315890Y-73000500D01*
X67315892Y-73000500D01*
X67443186Y-72966392D01*
X67557314Y-72900500D01*
X67650500Y-72807314D01*
X67650504Y-72807306D01*
X67651625Y-72805847D01*
X67652892Y-72804921D01*
X67656247Y-72801567D01*
X67656770Y-72802090D01*
X67708053Y-72764645D01*
X67777799Y-72760491D01*
X67838719Y-72794704D01*
X67848375Y-72805847D01*
X67849498Y-72807311D01*
X67849500Y-72807314D01*
X67942686Y-72900500D01*
X68056814Y-72966392D01*
X68184108Y-73000500D01*
X68184110Y-73000500D01*
X68315890Y-73000500D01*
X68315892Y-73000500D01*
X68443186Y-72966392D01*
X68557314Y-72900500D01*
X68650500Y-72807314D01*
X68716392Y-72693186D01*
X68750500Y-72565892D01*
X68750500Y-72434108D01*
X68741071Y-72398918D01*
X68742734Y-72329072D01*
X68781896Y-72271210D01*
X68828749Y-72247054D01*
X68943186Y-72216392D01*
X69057314Y-72150500D01*
X69150500Y-72057314D01*
X69216392Y-71943186D01*
X69250500Y-71815892D01*
X69250500Y-71684108D01*
X69216392Y-71556814D01*
X69150500Y-71442686D01*
X69150498Y-71442684D01*
X69147217Y-71437001D01*
X69130744Y-71369101D01*
X69147217Y-71312999D01*
X69150498Y-71307315D01*
X69150500Y-71307314D01*
X69216392Y-71193186D01*
X69250500Y-71065892D01*
X69250500Y-70934108D01*
X70249500Y-70934108D01*
X70249500Y-71065892D01*
X70276428Y-71166391D01*
X70283609Y-71193188D01*
X70283609Y-71193189D01*
X70352782Y-71313000D01*
X70369255Y-71380900D01*
X70352782Y-71437000D01*
X70283609Y-71556810D01*
X70283609Y-71556811D01*
X70283609Y-71556812D01*
X70283608Y-71556814D01*
X70249500Y-71684108D01*
X70249500Y-71815892D01*
X70265576Y-71875890D01*
X70283608Y-71943187D01*
X70310347Y-71989500D01*
X70349500Y-72057314D01*
X70442686Y-72150500D01*
X70556814Y-72216392D01*
X70671247Y-72247054D01*
X70730907Y-72283418D01*
X70761436Y-72346264D01*
X70758928Y-72398920D01*
X70749500Y-72434106D01*
X70749500Y-72565891D01*
X70783608Y-72693187D01*
X70803113Y-72726970D01*
X70849500Y-72807314D01*
X70942686Y-72900500D01*
X71056814Y-72966392D01*
X71184108Y-73000500D01*
X71184110Y-73000500D01*
X71315890Y-73000500D01*
X71315892Y-73000500D01*
X71443186Y-72966392D01*
X71557314Y-72900500D01*
X71650500Y-72807314D01*
X71650504Y-72807306D01*
X71651625Y-72805847D01*
X71652892Y-72804921D01*
X71656247Y-72801567D01*
X71656770Y-72802090D01*
X71708053Y-72764645D01*
X71777799Y-72760491D01*
X71838719Y-72794704D01*
X71848375Y-72805847D01*
X71849498Y-72807311D01*
X71849500Y-72807314D01*
X71942686Y-72900500D01*
X72056814Y-72966392D01*
X72184108Y-73000500D01*
X72184110Y-73000500D01*
X72315890Y-73000500D01*
X72315892Y-73000500D01*
X72443186Y-72966392D01*
X72557314Y-72900500D01*
X72650500Y-72807314D01*
X72716392Y-72693186D01*
X72750500Y-72565892D01*
X72750500Y-72434108D01*
X72741071Y-72398918D01*
X72742734Y-72329072D01*
X72781896Y-72271210D01*
X72828749Y-72247054D01*
X72943186Y-72216392D01*
X73057314Y-72150500D01*
X73150500Y-72057314D01*
X73216392Y-71943186D01*
X73250500Y-71815892D01*
X73250500Y-71684108D01*
X73216392Y-71556814D01*
X73150500Y-71442686D01*
X73150498Y-71442684D01*
X73147217Y-71437001D01*
X73130744Y-71369101D01*
X73147217Y-71312999D01*
X73150498Y-71307315D01*
X73150500Y-71307314D01*
X73216392Y-71193186D01*
X73250500Y-71065892D01*
X73250500Y-70934108D01*
X74249500Y-70934108D01*
X74249500Y-71065892D01*
X74276428Y-71166391D01*
X74283609Y-71193188D01*
X74283609Y-71193189D01*
X74352782Y-71313000D01*
X74369255Y-71380900D01*
X74352782Y-71437000D01*
X74283609Y-71556810D01*
X74283609Y-71556811D01*
X74283609Y-71556812D01*
X74283608Y-71556814D01*
X74249500Y-71684108D01*
X74249500Y-71815892D01*
X74265576Y-71875890D01*
X74283608Y-71943187D01*
X74310347Y-71989500D01*
X74349500Y-72057314D01*
X74442686Y-72150500D01*
X74556814Y-72216392D01*
X74671247Y-72247054D01*
X74730907Y-72283418D01*
X74761436Y-72346264D01*
X74758928Y-72398920D01*
X74749500Y-72434106D01*
X74749500Y-72565891D01*
X74783608Y-72693187D01*
X74803113Y-72726970D01*
X74849500Y-72807314D01*
X74942686Y-72900500D01*
X75056814Y-72966392D01*
X75184108Y-73000500D01*
X75184110Y-73000500D01*
X75315890Y-73000500D01*
X75315892Y-73000500D01*
X75443186Y-72966392D01*
X75557314Y-72900500D01*
X75650500Y-72807314D01*
X75650504Y-72807306D01*
X75651625Y-72805847D01*
X75652892Y-72804921D01*
X75656247Y-72801567D01*
X75656770Y-72802090D01*
X75708053Y-72764645D01*
X75777799Y-72760491D01*
X75838719Y-72794704D01*
X75848375Y-72805847D01*
X75849498Y-72807311D01*
X75849500Y-72807314D01*
X75942686Y-72900500D01*
X76056814Y-72966392D01*
X76184108Y-73000500D01*
X76184110Y-73000500D01*
X76315890Y-73000500D01*
X76315892Y-73000500D01*
X76443186Y-72966392D01*
X76516424Y-72924108D01*
X84899500Y-72924108D01*
X84899500Y-73055891D01*
X84933608Y-73183187D01*
X84966554Y-73240250D01*
X84999500Y-73297314D01*
X85092686Y-73390500D01*
X85206814Y-73456392D01*
X85334108Y-73490500D01*
X85334110Y-73490500D01*
X85465890Y-73490500D01*
X85465892Y-73490500D01*
X85593186Y-73456392D01*
X85707314Y-73390500D01*
X85800500Y-73297314D01*
X85866392Y-73183186D01*
X85900500Y-73055892D01*
X85900500Y-72924108D01*
X85866392Y-72796814D01*
X85800500Y-72682686D01*
X85707314Y-72589500D01*
X85649102Y-72555891D01*
X85593187Y-72523608D01*
X85506941Y-72500499D01*
X85465892Y-72489500D01*
X85334108Y-72489500D01*
X85206812Y-72523608D01*
X85092686Y-72589500D01*
X85092683Y-72589502D01*
X84999502Y-72682683D01*
X84999500Y-72682686D01*
X84933608Y-72796812D01*
X84899500Y-72924108D01*
X76516424Y-72924108D01*
X76557314Y-72900500D01*
X76650500Y-72807314D01*
X76716392Y-72693186D01*
X76750500Y-72565892D01*
X76750500Y-72434108D01*
X76741071Y-72398918D01*
X76742734Y-72329072D01*
X76781896Y-72271210D01*
X76828749Y-72247054D01*
X76943186Y-72216392D01*
X77057314Y-72150500D01*
X77150500Y-72057314D01*
X77216392Y-71943186D01*
X77250500Y-71815892D01*
X77250500Y-71684108D01*
X77216392Y-71556814D01*
X77150500Y-71442686D01*
X77150498Y-71442684D01*
X77147217Y-71437001D01*
X77130744Y-71369101D01*
X77147217Y-71312999D01*
X77150498Y-71307315D01*
X77150500Y-71307314D01*
X77216392Y-71193186D01*
X77250500Y-71065892D01*
X77250500Y-70934108D01*
X77216392Y-70806814D01*
X77150500Y-70692686D01*
X77057314Y-70599500D01*
X76943186Y-70533608D01*
X76828751Y-70502945D01*
X76769092Y-70466581D01*
X76738563Y-70403734D01*
X76741071Y-70351078D01*
X76750500Y-70315892D01*
X76750500Y-70184108D01*
X76737103Y-70134108D01*
X82599500Y-70134108D01*
X82599500Y-70265892D01*
X82612897Y-70315890D01*
X82633608Y-70393187D01*
X82640612Y-70405318D01*
X82699500Y-70507314D01*
X82699502Y-70507316D01*
X82754505Y-70562319D01*
X82787990Y-70623642D01*
X82783006Y-70693334D01*
X82754505Y-70737681D01*
X82699502Y-70792683D01*
X82699500Y-70792686D01*
X82633608Y-70906812D01*
X82626294Y-70934110D01*
X82599500Y-71034108D01*
X82599500Y-71165892D01*
X82611665Y-71211293D01*
X82633608Y-71293187D01*
X82657931Y-71335314D01*
X82699500Y-71407314D01*
X82699502Y-71407316D01*
X82792686Y-71500500D01*
X82794158Y-71501630D01*
X82795083Y-71502897D01*
X82798433Y-71506247D01*
X82797910Y-71506769D01*
X82835356Y-71558060D01*
X82839506Y-71627807D01*
X82805289Y-71688725D01*
X82794158Y-71698370D01*
X82792687Y-71699498D01*
X82699502Y-71792683D01*
X82699500Y-71792686D01*
X82633608Y-71906812D01*
X82599500Y-72034108D01*
X82599500Y-72165891D01*
X82633608Y-72293187D01*
X82641476Y-72306814D01*
X82699500Y-72407314D01*
X82792686Y-72500500D01*
X82888626Y-72555891D01*
X82905944Y-72565890D01*
X82906814Y-72566392D01*
X83034108Y-72600500D01*
X83034110Y-72600500D01*
X83165890Y-72600500D01*
X83165892Y-72600500D01*
X83293186Y-72566392D01*
X83407314Y-72500500D01*
X83500500Y-72407314D01*
X83566392Y-72293186D01*
X83600500Y-72165892D01*
X83600500Y-72034108D01*
X83566392Y-71906814D01*
X83500500Y-71792686D01*
X83407314Y-71699500D01*
X83407311Y-71699498D01*
X83405847Y-71698375D01*
X83404921Y-71697107D01*
X83401567Y-71693753D01*
X83402090Y-71693229D01*
X83364645Y-71641947D01*
X83360491Y-71572201D01*
X83394704Y-71511281D01*
X83405847Y-71501625D01*
X83407306Y-71500504D01*
X83407314Y-71500500D01*
X83500500Y-71407314D01*
X83566392Y-71293186D01*
X83600500Y-71165892D01*
X83600500Y-71034108D01*
X83566392Y-70906814D01*
X83500500Y-70792686D01*
X83445495Y-70737681D01*
X83412010Y-70676358D01*
X83416994Y-70606666D01*
X83445495Y-70562319D01*
X83500500Y-70507314D01*
X83566392Y-70393186D01*
X83600500Y-70265892D01*
X83600500Y-70134108D01*
X83566392Y-70006814D01*
X83500500Y-69892686D01*
X83407314Y-69799500D01*
X83320712Y-69749500D01*
X83293187Y-69733608D01*
X83229539Y-69716554D01*
X83165892Y-69699500D01*
X83034108Y-69699500D01*
X82906812Y-69733608D01*
X82792686Y-69799500D01*
X82792683Y-69799502D01*
X82699502Y-69892683D01*
X82699500Y-69892686D01*
X82633608Y-70006812D01*
X82617778Y-70065892D01*
X82599500Y-70134108D01*
X76737103Y-70134108D01*
X76716392Y-70056814D01*
X76650500Y-69942686D01*
X76557314Y-69849500D01*
X76483380Y-69806814D01*
X76443187Y-69783608D01*
X76379539Y-69766554D01*
X76315892Y-69749500D01*
X76184108Y-69749500D01*
X76056812Y-69783608D01*
X75942686Y-69849500D01*
X75942683Y-69849502D01*
X75849498Y-69942687D01*
X75848370Y-69944158D01*
X75847102Y-69945083D01*
X75843753Y-69948433D01*
X75843230Y-69947910D01*
X75791940Y-69985356D01*
X75722193Y-69989506D01*
X75661275Y-69955289D01*
X75651630Y-69944158D01*
X75650501Y-69942687D01*
X75557316Y-69849502D01*
X75557314Y-69849500D01*
X75483380Y-69806814D01*
X75443187Y-69783608D01*
X75379539Y-69766554D01*
X75315892Y-69749500D01*
X75184108Y-69749500D01*
X75056812Y-69783608D01*
X74942686Y-69849500D01*
X74942683Y-69849502D01*
X74849502Y-69942683D01*
X74849500Y-69942686D01*
X74783608Y-70056812D01*
X74749500Y-70184108D01*
X74749500Y-70315893D01*
X74758928Y-70351079D01*
X74757265Y-70420929D01*
X74718102Y-70478791D01*
X74671246Y-70502946D01*
X74556814Y-70533608D01*
X74556812Y-70533608D01*
X74556812Y-70533609D01*
X74442686Y-70599500D01*
X74442683Y-70599502D01*
X74349502Y-70692683D01*
X74349500Y-70692686D01*
X74283608Y-70806812D01*
X74260465Y-70893185D01*
X74249500Y-70934108D01*
X73250500Y-70934108D01*
X73216392Y-70806814D01*
X73150500Y-70692686D01*
X73057314Y-70599500D01*
X72943186Y-70533608D01*
X72828751Y-70502945D01*
X72769092Y-70466581D01*
X72738563Y-70403734D01*
X72741071Y-70351078D01*
X72750500Y-70315892D01*
X72750500Y-70184108D01*
X72716392Y-70056814D01*
X72650500Y-69942686D01*
X72557314Y-69849500D01*
X72483380Y-69806814D01*
X72443187Y-69783608D01*
X72379539Y-69766554D01*
X72315892Y-69749500D01*
X72184108Y-69749500D01*
X72056812Y-69783608D01*
X71942686Y-69849500D01*
X71942683Y-69849502D01*
X71849498Y-69942687D01*
X71848370Y-69944158D01*
X71847102Y-69945083D01*
X71843753Y-69948433D01*
X71843230Y-69947910D01*
X71791940Y-69985356D01*
X71722193Y-69989506D01*
X71661275Y-69955289D01*
X71651630Y-69944158D01*
X71650501Y-69942687D01*
X71557316Y-69849502D01*
X71557314Y-69849500D01*
X71483380Y-69806814D01*
X71443187Y-69783608D01*
X71379539Y-69766554D01*
X71315892Y-69749500D01*
X71184108Y-69749500D01*
X71056812Y-69783608D01*
X70942686Y-69849500D01*
X70942683Y-69849502D01*
X70849502Y-69942683D01*
X70849500Y-69942686D01*
X70783608Y-70056812D01*
X70749500Y-70184108D01*
X70749500Y-70315893D01*
X70758928Y-70351079D01*
X70757265Y-70420929D01*
X70718102Y-70478791D01*
X70671246Y-70502946D01*
X70556814Y-70533608D01*
X70556812Y-70533608D01*
X70556812Y-70533609D01*
X70442686Y-70599500D01*
X70442683Y-70599502D01*
X70349502Y-70692683D01*
X70349500Y-70692686D01*
X70283608Y-70806812D01*
X70260465Y-70893185D01*
X70249500Y-70934108D01*
X69250500Y-70934108D01*
X69216392Y-70806814D01*
X69150500Y-70692686D01*
X69057314Y-70599500D01*
X68943186Y-70533608D01*
X68828751Y-70502945D01*
X68769092Y-70466581D01*
X68738563Y-70403734D01*
X68741071Y-70351078D01*
X68750500Y-70315892D01*
X68750500Y-70184108D01*
X68716392Y-70056814D01*
X68650500Y-69942686D01*
X68557314Y-69849500D01*
X68483380Y-69806814D01*
X68443187Y-69783608D01*
X68379539Y-69766554D01*
X68315892Y-69749500D01*
X68184108Y-69749500D01*
X68056812Y-69783608D01*
X67942686Y-69849500D01*
X67942683Y-69849502D01*
X67849498Y-69942687D01*
X67848370Y-69944158D01*
X67847102Y-69945083D01*
X67843753Y-69948433D01*
X67843230Y-69947910D01*
X67791940Y-69985356D01*
X67722193Y-69989506D01*
X67661275Y-69955289D01*
X67651630Y-69944158D01*
X67650501Y-69942687D01*
X67557316Y-69849502D01*
X67557314Y-69849500D01*
X67483380Y-69806814D01*
X67443187Y-69783608D01*
X67379539Y-69766554D01*
X67315892Y-69749500D01*
X67184108Y-69749500D01*
X67056812Y-69783608D01*
X66942686Y-69849500D01*
X66942683Y-69849502D01*
X66849502Y-69942683D01*
X66849500Y-69942686D01*
X66783608Y-70056812D01*
X66749500Y-70184108D01*
X66749500Y-70315893D01*
X66758928Y-70351079D01*
X66757265Y-70420929D01*
X66718102Y-70478791D01*
X66671246Y-70502946D01*
X66556814Y-70533608D01*
X66556812Y-70533608D01*
X66556812Y-70533609D01*
X66442686Y-70599500D01*
X66442683Y-70599502D01*
X66349502Y-70692683D01*
X66349500Y-70692686D01*
X66283608Y-70806812D01*
X66260465Y-70893185D01*
X66249500Y-70934108D01*
X65250500Y-70934108D01*
X65216392Y-70806814D01*
X65150500Y-70692686D01*
X65057314Y-70599500D01*
X64943186Y-70533608D01*
X64828751Y-70502945D01*
X64769092Y-70466581D01*
X64738563Y-70403734D01*
X64741071Y-70351078D01*
X64750500Y-70315892D01*
X64750500Y-70184108D01*
X64716392Y-70056814D01*
X64650500Y-69942686D01*
X64557314Y-69849500D01*
X64483380Y-69806814D01*
X64443187Y-69783608D01*
X64379539Y-69766554D01*
X64315892Y-69749500D01*
X64184108Y-69749500D01*
X64056812Y-69783608D01*
X63942686Y-69849500D01*
X63942683Y-69849502D01*
X63849498Y-69942687D01*
X63848370Y-69944158D01*
X63847102Y-69945083D01*
X63843753Y-69948433D01*
X63843230Y-69947910D01*
X63791940Y-69985356D01*
X63722193Y-69989506D01*
X63661275Y-69955289D01*
X63651630Y-69944158D01*
X63650501Y-69942687D01*
X63557316Y-69849502D01*
X63557314Y-69849500D01*
X63483380Y-69806814D01*
X63443187Y-69783608D01*
X63379539Y-69766554D01*
X63315892Y-69749500D01*
X63184108Y-69749500D01*
X63056812Y-69783608D01*
X62942686Y-69849500D01*
X62942683Y-69849502D01*
X62849502Y-69942683D01*
X62849500Y-69942686D01*
X62783608Y-70056812D01*
X62749500Y-70184108D01*
X62749500Y-70315893D01*
X62758928Y-70351079D01*
X62757265Y-70420929D01*
X62718102Y-70478791D01*
X62671246Y-70502946D01*
X62556814Y-70533608D01*
X62556812Y-70533608D01*
X62556812Y-70533609D01*
X62442686Y-70599500D01*
X62442683Y-70599502D01*
X62349502Y-70692683D01*
X62349500Y-70692686D01*
X62283608Y-70806812D01*
X62260465Y-70893185D01*
X62249500Y-70934108D01*
X61250500Y-70934108D01*
X61216392Y-70806814D01*
X61150500Y-70692686D01*
X61057314Y-70599500D01*
X60943186Y-70533608D01*
X60828751Y-70502945D01*
X60769092Y-70466581D01*
X60738563Y-70403734D01*
X60741071Y-70351078D01*
X60750500Y-70315892D01*
X60750500Y-70184108D01*
X60716392Y-70056814D01*
X60650500Y-69942686D01*
X60557314Y-69849500D01*
X60483380Y-69806814D01*
X60443187Y-69783608D01*
X60379539Y-69766554D01*
X60315892Y-69749500D01*
X60184108Y-69749500D01*
X60056812Y-69783608D01*
X59942686Y-69849500D01*
X59942683Y-69849502D01*
X59849498Y-69942687D01*
X59848370Y-69944158D01*
X59847102Y-69945083D01*
X59843753Y-69948433D01*
X59843230Y-69947910D01*
X59791940Y-69985356D01*
X59722193Y-69989506D01*
X59661275Y-69955289D01*
X59651630Y-69944158D01*
X59650501Y-69942687D01*
X59557316Y-69849502D01*
X59557314Y-69849500D01*
X59483380Y-69806814D01*
X59443187Y-69783608D01*
X59379539Y-69766554D01*
X59315892Y-69749500D01*
X59184108Y-69749500D01*
X59056812Y-69783608D01*
X58942686Y-69849500D01*
X58942683Y-69849502D01*
X58849502Y-69942683D01*
X58849500Y-69942686D01*
X58783608Y-70056812D01*
X58749500Y-70184108D01*
X58749500Y-70315893D01*
X58758928Y-70351079D01*
X58757265Y-70420929D01*
X58718102Y-70478791D01*
X58671246Y-70502946D01*
X58556814Y-70533608D01*
X58556812Y-70533608D01*
X58556812Y-70533609D01*
X58442686Y-70599500D01*
X58442683Y-70599502D01*
X58349502Y-70692683D01*
X58349500Y-70692686D01*
X58283608Y-70806812D01*
X58260465Y-70893185D01*
X58249500Y-70934108D01*
X57250500Y-70934108D01*
X57216392Y-70806814D01*
X57150500Y-70692686D01*
X57057314Y-70599500D01*
X56943186Y-70533608D01*
X56828751Y-70502945D01*
X56769092Y-70466581D01*
X56738563Y-70403734D01*
X56741071Y-70351078D01*
X56750500Y-70315892D01*
X56750500Y-70184108D01*
X56716392Y-70056814D01*
X56650500Y-69942686D01*
X56557314Y-69849500D01*
X56483380Y-69806814D01*
X56443187Y-69783608D01*
X56379539Y-69766554D01*
X56315892Y-69749500D01*
X56184108Y-69749500D01*
X56056812Y-69783608D01*
X55942686Y-69849500D01*
X55942683Y-69849502D01*
X55849498Y-69942687D01*
X55848370Y-69944158D01*
X55847102Y-69945083D01*
X55843753Y-69948433D01*
X55843230Y-69947910D01*
X55791940Y-69985356D01*
X55722193Y-69989506D01*
X55661275Y-69955289D01*
X55651630Y-69944158D01*
X55650501Y-69942687D01*
X55557316Y-69849502D01*
X55557314Y-69849500D01*
X55483380Y-69806814D01*
X55443187Y-69783608D01*
X55379539Y-69766554D01*
X55315892Y-69749500D01*
X55184108Y-69749500D01*
X55056812Y-69783608D01*
X54942686Y-69849500D01*
X54942683Y-69849502D01*
X54849502Y-69942683D01*
X54849500Y-69942686D01*
X54783608Y-70056812D01*
X54749500Y-70184108D01*
X54749500Y-70315893D01*
X54758928Y-70351079D01*
X54757265Y-70420929D01*
X54718102Y-70478791D01*
X54671246Y-70502946D01*
X54556814Y-70533608D01*
X54556812Y-70533608D01*
X54556812Y-70533609D01*
X54442686Y-70599500D01*
X54442683Y-70599502D01*
X54349502Y-70692683D01*
X54349500Y-70692686D01*
X54283608Y-70806812D01*
X54260465Y-70893185D01*
X54249500Y-70934108D01*
X50142766Y-70934108D01*
X50166392Y-70893186D01*
X50200500Y-70765892D01*
X50200500Y-70634108D01*
X50166392Y-70506814D01*
X50100500Y-70392686D01*
X50007314Y-70299500D01*
X49944124Y-70263017D01*
X49893187Y-70233608D01*
X49829539Y-70216554D01*
X49765892Y-70199500D01*
X49765891Y-70199500D01*
X49714017Y-70199500D01*
X49646978Y-70179815D01*
X49626336Y-70163181D01*
X49063819Y-69600664D01*
X49030334Y-69539341D01*
X49027500Y-69512983D01*
X49027500Y-67474108D01*
X51299500Y-67474108D01*
X51299500Y-67605892D01*
X51307061Y-67634110D01*
X51333608Y-67733187D01*
X51352490Y-67765891D01*
X51399500Y-67847314D01*
X51492686Y-67940500D01*
X51606814Y-68006392D01*
X51734108Y-68040500D01*
X51734110Y-68040500D01*
X51865890Y-68040500D01*
X51865892Y-68040500D01*
X51993186Y-68006392D01*
X52107314Y-67940500D01*
X52200500Y-67847314D01*
X52266392Y-67733186D01*
X52300500Y-67605892D01*
X52300500Y-67474108D01*
X52266392Y-67346814D01*
X52258767Y-67333608D01*
X52243588Y-67307316D01*
X52200500Y-67232686D01*
X52107314Y-67139500D01*
X52043916Y-67102897D01*
X51993187Y-67073608D01*
X51917357Y-67053290D01*
X51865892Y-67039500D01*
X51734108Y-67039500D01*
X51606812Y-67073608D01*
X51492686Y-67139500D01*
X51492683Y-67139502D01*
X51399502Y-67232683D01*
X51399500Y-67232686D01*
X51333608Y-67346812D01*
X51319491Y-67399500D01*
X51299500Y-67474108D01*
X49027500Y-67474108D01*
X49027500Y-64184108D01*
X54249500Y-64184108D01*
X54249500Y-64315892D01*
X54267531Y-64383187D01*
X54283609Y-64443188D01*
X54283609Y-64443189D01*
X54352782Y-64563000D01*
X54369255Y-64630900D01*
X54352782Y-64687000D01*
X54283609Y-64806810D01*
X54283609Y-64806811D01*
X54283609Y-64806812D01*
X54283608Y-64806814D01*
X54249500Y-64934108D01*
X54249500Y-65065892D01*
X54260464Y-65106810D01*
X54283608Y-65193187D01*
X54313766Y-65245421D01*
X54349500Y-65307314D01*
X54442686Y-65400500D01*
X54556814Y-65466392D01*
X54671247Y-65497054D01*
X54730907Y-65533418D01*
X54761436Y-65596264D01*
X54758928Y-65648920D01*
X54749500Y-65684106D01*
X54749500Y-65815891D01*
X54783608Y-65943187D01*
X54799773Y-65971185D01*
X54849500Y-66057314D01*
X54942686Y-66150500D01*
X55056814Y-66216392D01*
X55184108Y-66250500D01*
X55184110Y-66250500D01*
X55315890Y-66250500D01*
X55315892Y-66250500D01*
X55443186Y-66216392D01*
X55557314Y-66150500D01*
X55650500Y-66057314D01*
X55650504Y-66057306D01*
X55651625Y-66055847D01*
X55652892Y-66054921D01*
X55656247Y-66051567D01*
X55656770Y-66052090D01*
X55708053Y-66014645D01*
X55777799Y-66010491D01*
X55838719Y-66044704D01*
X55848375Y-66055847D01*
X55849498Y-66057311D01*
X55849500Y-66057314D01*
X55942686Y-66150500D01*
X56056814Y-66216392D01*
X56184108Y-66250500D01*
X56184110Y-66250500D01*
X56315890Y-66250500D01*
X56315892Y-66250500D01*
X56443186Y-66216392D01*
X56557314Y-66150500D01*
X56650500Y-66057314D01*
X56716392Y-65943186D01*
X56750500Y-65815892D01*
X56750500Y-65763017D01*
X56770185Y-65695978D01*
X56822989Y-65650223D01*
X56892147Y-65640279D01*
X56955703Y-65669304D01*
X56962181Y-65675336D01*
X57424664Y-66137819D01*
X57458149Y-66199142D01*
X57453165Y-66268834D01*
X57411293Y-66324767D01*
X57345829Y-66349184D01*
X57336983Y-66349500D01*
X57268108Y-66349500D01*
X57140812Y-66383608D01*
X57026686Y-66449500D01*
X57026683Y-66449502D01*
X56933502Y-66542683D01*
X56933500Y-66542686D01*
X56867608Y-66656812D01*
X56838381Y-66765890D01*
X56833500Y-66784108D01*
X56833500Y-66915892D01*
X56838704Y-66935314D01*
X56867608Y-67043187D01*
X56892475Y-67086257D01*
X56933500Y-67157314D01*
X57026686Y-67250500D01*
X57140814Y-67316392D01*
X57268108Y-67350500D01*
X57319983Y-67350500D01*
X57387022Y-67370185D01*
X57407664Y-67386819D01*
X57988125Y-67967280D01*
X58021610Y-68028603D01*
X58016626Y-68098295D01*
X57974754Y-68154228D01*
X57932539Y-68174735D01*
X57857594Y-68194817D01*
X57857589Y-68194819D01*
X57782911Y-68237934D01*
X57782908Y-68237936D01*
X57407664Y-68613181D01*
X57346341Y-68646666D01*
X57319983Y-68649500D01*
X57268108Y-68649500D01*
X57140812Y-68683608D01*
X57026686Y-68749500D01*
X57026683Y-68749502D01*
X56933502Y-68842683D01*
X56933500Y-68842686D01*
X56867608Y-68956812D01*
X56833500Y-69084108D01*
X56833500Y-69215891D01*
X56867608Y-69343187D01*
X56881005Y-69366391D01*
X56933500Y-69457314D01*
X57026686Y-69550500D01*
X57140814Y-69616392D01*
X57268108Y-69650500D01*
X57268110Y-69650500D01*
X57399890Y-69650500D01*
X57399892Y-69650500D01*
X57527186Y-69616392D01*
X57641314Y-69550500D01*
X57734500Y-69457314D01*
X57800392Y-69343186D01*
X57834500Y-69215892D01*
X57834500Y-69164017D01*
X57854185Y-69096978D01*
X57870819Y-69076336D01*
X58083336Y-68863819D01*
X58144659Y-68830334D01*
X58171017Y-68827500D01*
X60740658Y-68827500D01*
X60807697Y-68847185D01*
X60853452Y-68899989D01*
X60863396Y-68969147D01*
X60860434Y-68983587D01*
X60833500Y-69084108D01*
X60833500Y-69215891D01*
X60867608Y-69343187D01*
X60881005Y-69366391D01*
X60933500Y-69457314D01*
X61026686Y-69550500D01*
X61140814Y-69616392D01*
X61268108Y-69650500D01*
X61268110Y-69650500D01*
X61399890Y-69650500D01*
X61399892Y-69650500D01*
X61527186Y-69616392D01*
X61641314Y-69550500D01*
X61734500Y-69457314D01*
X61800392Y-69343186D01*
X61834500Y-69215892D01*
X61834500Y-69084108D01*
X61807567Y-68983591D01*
X61809230Y-68913743D01*
X61848393Y-68855881D01*
X61912621Y-68828377D01*
X61927342Y-68827500D01*
X64756658Y-68827500D01*
X64823697Y-68847185D01*
X64869452Y-68899989D01*
X64879396Y-68969147D01*
X64876434Y-68983587D01*
X64849500Y-69084108D01*
X64849500Y-69215891D01*
X64883608Y-69343187D01*
X64897005Y-69366391D01*
X64949500Y-69457314D01*
X65042686Y-69550500D01*
X65156814Y-69616392D01*
X65284108Y-69650500D01*
X65284110Y-69650500D01*
X65415890Y-69650500D01*
X65415892Y-69650500D01*
X65543186Y-69616392D01*
X65657314Y-69550500D01*
X65750500Y-69457314D01*
X65816392Y-69343186D01*
X65850500Y-69215892D01*
X65850500Y-69084108D01*
X65823567Y-68983591D01*
X65825230Y-68913743D01*
X65864393Y-68855881D01*
X65928621Y-68828377D01*
X65943342Y-68827500D01*
X68740658Y-68827500D01*
X68807697Y-68847185D01*
X68853452Y-68899989D01*
X68863396Y-68969147D01*
X68860434Y-68983587D01*
X68833500Y-69084108D01*
X68833500Y-69215891D01*
X68867608Y-69343187D01*
X68881005Y-69366391D01*
X68933500Y-69457314D01*
X69026686Y-69550500D01*
X69140814Y-69616392D01*
X69268108Y-69650500D01*
X69268110Y-69650500D01*
X69399890Y-69650500D01*
X69399892Y-69650500D01*
X69527186Y-69616392D01*
X69641314Y-69550500D01*
X69734500Y-69457314D01*
X69800392Y-69343186D01*
X69834500Y-69215892D01*
X69834500Y-69084108D01*
X69807567Y-68983591D01*
X69809230Y-68913743D01*
X69848393Y-68855881D01*
X69912621Y-68828377D01*
X69927342Y-68827500D01*
X72740658Y-68827500D01*
X72807697Y-68847185D01*
X72853452Y-68899989D01*
X72863396Y-68969147D01*
X72860434Y-68983587D01*
X72833500Y-69084108D01*
X72833500Y-69215891D01*
X72867608Y-69343187D01*
X72881005Y-69366391D01*
X72933500Y-69457314D01*
X73026686Y-69550500D01*
X73140814Y-69616392D01*
X73268108Y-69650500D01*
X73268110Y-69650500D01*
X73399890Y-69650500D01*
X73399892Y-69650500D01*
X73527186Y-69616392D01*
X73641314Y-69550500D01*
X73734500Y-69457314D01*
X73800392Y-69343186D01*
X73834500Y-69215892D01*
X73834500Y-69084108D01*
X73807567Y-68983591D01*
X73809230Y-68913743D01*
X73848393Y-68855881D01*
X73912621Y-68828377D01*
X73927342Y-68827500D01*
X79443114Y-68827500D01*
X79443116Y-68827500D01*
X79526410Y-68805181D01*
X79601090Y-68762065D01*
X79839047Y-68524108D01*
X84899500Y-68524108D01*
X84899500Y-68655892D01*
X84913144Y-68706812D01*
X84933608Y-68783187D01*
X84959193Y-68827500D01*
X84999500Y-68897314D01*
X85092686Y-68990500D01*
X85206814Y-69056392D01*
X85334108Y-69090500D01*
X85334110Y-69090500D01*
X85465890Y-69090500D01*
X85465892Y-69090500D01*
X85593186Y-69056392D01*
X85707314Y-68990500D01*
X85800500Y-68897314D01*
X85866392Y-68783186D01*
X85900500Y-68655892D01*
X85900500Y-68524108D01*
X85866392Y-68396814D01*
X85800500Y-68282686D01*
X85707314Y-68189500D01*
X85646221Y-68154228D01*
X85593187Y-68123608D01*
X85506941Y-68100499D01*
X85465892Y-68089500D01*
X85334108Y-68089500D01*
X85206812Y-68123608D01*
X85092686Y-68189500D01*
X85092683Y-68189502D01*
X84999502Y-68282683D01*
X84999500Y-68282686D01*
X84933608Y-68396812D01*
X84908506Y-68490497D01*
X84899500Y-68524108D01*
X79839047Y-68524108D01*
X81462065Y-66901090D01*
X81505181Y-66826410D01*
X81527500Y-66743116D01*
X81527500Y-66656884D01*
X81527500Y-65734108D01*
X82599500Y-65734108D01*
X82599500Y-65865892D01*
X82612946Y-65916073D01*
X82633608Y-65993187D01*
X82649725Y-66021102D01*
X82699500Y-66107314D01*
X82699502Y-66107316D01*
X82754505Y-66162319D01*
X82787990Y-66223642D01*
X82783006Y-66293334D01*
X82754505Y-66337681D01*
X82699502Y-66392683D01*
X82699500Y-66392686D01*
X82633608Y-66506812D01*
X82604883Y-66614017D01*
X82599500Y-66634108D01*
X82599500Y-66765892D01*
X82606813Y-66793186D01*
X82633608Y-66893187D01*
X82657931Y-66935314D01*
X82699500Y-67007314D01*
X82699502Y-67007316D01*
X82792686Y-67100500D01*
X82794158Y-67101630D01*
X82795083Y-67102897D01*
X82798433Y-67106247D01*
X82797910Y-67106769D01*
X82835356Y-67158060D01*
X82839506Y-67227807D01*
X82805289Y-67288725D01*
X82794158Y-67298370D01*
X82792687Y-67299498D01*
X82699502Y-67392683D01*
X82699500Y-67392686D01*
X82633608Y-67506812D01*
X82599500Y-67634108D01*
X82599500Y-67765891D01*
X82633608Y-67893187D01*
X82645490Y-67913766D01*
X82699500Y-68007314D01*
X82792686Y-68100500D01*
X82906814Y-68166392D01*
X83034108Y-68200500D01*
X83034110Y-68200500D01*
X83165890Y-68200500D01*
X83165892Y-68200500D01*
X83293186Y-68166392D01*
X83407314Y-68100500D01*
X83500500Y-68007314D01*
X83566392Y-67893186D01*
X83600500Y-67765892D01*
X83600500Y-67634108D01*
X83566392Y-67506814D01*
X83500500Y-67392686D01*
X83407314Y-67299500D01*
X83407311Y-67299498D01*
X83405847Y-67298375D01*
X83404921Y-67297107D01*
X83401567Y-67293753D01*
X83402090Y-67293229D01*
X83364645Y-67241947D01*
X83360491Y-67172201D01*
X83394704Y-67111281D01*
X83405847Y-67101625D01*
X83407306Y-67100504D01*
X83407314Y-67100500D01*
X83500500Y-67007314D01*
X83542766Y-66934108D01*
X90099500Y-66934108D01*
X90099500Y-67065892D01*
X90104957Y-67086257D01*
X90133608Y-67193187D01*
X90156413Y-67232686D01*
X90199500Y-67307314D01*
X90292686Y-67400500D01*
X90406814Y-67466392D01*
X90534108Y-67500500D01*
X90534110Y-67500500D01*
X90665890Y-67500500D01*
X90665892Y-67500500D01*
X90793186Y-67466392D01*
X90907314Y-67400500D01*
X91000500Y-67307314D01*
X91066392Y-67193186D01*
X91100500Y-67065892D01*
X91100500Y-66934108D01*
X91066392Y-66806814D01*
X91000500Y-66692686D01*
X90907314Y-66599500D01*
X90828802Y-66554171D01*
X90793187Y-66533608D01*
X90693188Y-66506814D01*
X90665892Y-66499500D01*
X90534108Y-66499500D01*
X90406812Y-66533608D01*
X90292686Y-66599500D01*
X90292683Y-66599502D01*
X90199502Y-66692683D01*
X90199500Y-66692686D01*
X90133608Y-66806812D01*
X90108347Y-66901090D01*
X90099500Y-66934108D01*
X83542766Y-66934108D01*
X83566392Y-66893186D01*
X83600500Y-66765892D01*
X83600500Y-66634108D01*
X83566392Y-66506814D01*
X83500500Y-66392686D01*
X83445495Y-66337681D01*
X83412010Y-66276358D01*
X83416994Y-66206666D01*
X83445495Y-66162319D01*
X83469995Y-66137819D01*
X83500500Y-66107314D01*
X83566392Y-65993186D01*
X83600500Y-65865892D01*
X83600500Y-65734108D01*
X83566392Y-65606814D01*
X83500500Y-65492686D01*
X83407314Y-65399500D01*
X83326812Y-65353022D01*
X83293187Y-65333608D01*
X83229539Y-65316554D01*
X83165892Y-65299500D01*
X83034108Y-65299500D01*
X82906812Y-65333608D01*
X82792686Y-65399500D01*
X82792683Y-65399502D01*
X82699502Y-65492683D01*
X82699500Y-65492686D01*
X82633608Y-65606812D01*
X82612898Y-65684106D01*
X82599500Y-65734108D01*
X81527500Y-65734108D01*
X81527500Y-64124108D01*
X84899500Y-64124108D01*
X84899500Y-64255892D01*
X84911452Y-64300499D01*
X84933608Y-64383187D01*
X84966554Y-64440250D01*
X84999500Y-64497314D01*
X85092686Y-64590500D01*
X85206814Y-64656392D01*
X85334108Y-64690500D01*
X85334110Y-64690500D01*
X85465890Y-64690500D01*
X85465892Y-64690500D01*
X85593186Y-64656392D01*
X85707314Y-64590500D01*
X85800500Y-64497314D01*
X85866392Y-64383186D01*
X85900500Y-64255892D01*
X85900500Y-64124108D01*
X85866392Y-63996814D01*
X85800500Y-63882686D01*
X85707314Y-63789500D01*
X85638032Y-63749500D01*
X85593187Y-63723608D01*
X85506941Y-63700499D01*
X85465892Y-63689500D01*
X85334108Y-63689500D01*
X85206812Y-63723608D01*
X85092686Y-63789500D01*
X85092683Y-63789502D01*
X84999502Y-63882683D01*
X84999500Y-63882686D01*
X84933608Y-63996812D01*
X84917531Y-64056814D01*
X84899500Y-64124108D01*
X81527500Y-64124108D01*
X81527500Y-61334108D01*
X82599500Y-61334108D01*
X82599500Y-61465892D01*
X82613532Y-61518260D01*
X82633608Y-61593187D01*
X82639680Y-61603703D01*
X82699500Y-61707314D01*
X82699502Y-61707316D01*
X82754505Y-61762319D01*
X82787990Y-61823642D01*
X82783006Y-61893334D01*
X82754505Y-61937681D01*
X82699502Y-61992683D01*
X82699500Y-61992686D01*
X82633608Y-62106812D01*
X82599500Y-62234108D01*
X82599500Y-62365891D01*
X82633608Y-62493187D01*
X82641766Y-62507316D01*
X82699500Y-62607314D01*
X82699502Y-62607316D01*
X82792686Y-62700500D01*
X82794158Y-62701630D01*
X82795083Y-62702897D01*
X82798433Y-62706247D01*
X82797910Y-62706769D01*
X82835356Y-62758060D01*
X82839506Y-62827807D01*
X82805289Y-62888725D01*
X82794158Y-62898370D01*
X82792687Y-62899498D01*
X82699502Y-62992683D01*
X82699500Y-62992686D01*
X82633608Y-63106812D01*
X82599500Y-63234108D01*
X82599500Y-63365891D01*
X82633608Y-63493187D01*
X82645490Y-63513766D01*
X82699500Y-63607314D01*
X82792686Y-63700500D01*
X82906814Y-63766392D01*
X83034108Y-63800500D01*
X83034110Y-63800500D01*
X83165890Y-63800500D01*
X83165892Y-63800500D01*
X83293186Y-63766392D01*
X83407314Y-63700500D01*
X83500500Y-63607314D01*
X83566392Y-63493186D01*
X83600500Y-63365892D01*
X83600500Y-63234108D01*
X83566392Y-63106814D01*
X83500500Y-62992686D01*
X83407314Y-62899500D01*
X83407311Y-62899498D01*
X83405847Y-62898375D01*
X83404921Y-62897107D01*
X83401567Y-62893753D01*
X83402090Y-62893229D01*
X83364645Y-62841947D01*
X83360491Y-62772201D01*
X83394704Y-62711281D01*
X83405847Y-62701625D01*
X83407306Y-62700504D01*
X83407314Y-62700500D01*
X83500500Y-62607314D01*
X83566392Y-62493186D01*
X83600500Y-62365892D01*
X83600500Y-62234108D01*
X89999500Y-62234108D01*
X89999500Y-62365891D01*
X90033608Y-62493187D01*
X90041766Y-62507316D01*
X90099500Y-62607314D01*
X90192686Y-62700500D01*
X90306814Y-62766392D01*
X90434108Y-62800500D01*
X90434110Y-62800500D01*
X90565890Y-62800500D01*
X90565892Y-62800500D01*
X90693186Y-62766392D01*
X90807314Y-62700500D01*
X90900500Y-62607314D01*
X90966392Y-62493186D01*
X91000500Y-62365892D01*
X91000500Y-62234108D01*
X90966392Y-62106814D01*
X90900500Y-61992686D01*
X90807314Y-61899500D01*
X90747015Y-61864686D01*
X90693187Y-61833608D01*
X90592636Y-61806666D01*
X90565892Y-61799500D01*
X90434108Y-61799500D01*
X90306812Y-61833608D01*
X90192686Y-61899500D01*
X90192683Y-61899502D01*
X90099502Y-61992683D01*
X90099500Y-61992686D01*
X90033608Y-62106812D01*
X89999500Y-62234108D01*
X83600500Y-62234108D01*
X83566392Y-62106814D01*
X83500500Y-61992686D01*
X83445495Y-61937681D01*
X83412010Y-61876358D01*
X83416994Y-61806666D01*
X83445495Y-61762319D01*
X83500500Y-61707314D01*
X83566392Y-61593186D01*
X83600500Y-61465892D01*
X83600500Y-61334108D01*
X83566392Y-61206814D01*
X83500500Y-61092686D01*
X83407314Y-60999500D01*
X83350250Y-60966554D01*
X83293187Y-60933608D01*
X83229539Y-60916554D01*
X83165892Y-60899500D01*
X83034108Y-60899500D01*
X82906812Y-60933608D01*
X82792686Y-60999500D01*
X82792683Y-60999502D01*
X82699502Y-61092683D01*
X82699500Y-61092686D01*
X82633608Y-61206812D01*
X82617778Y-61265892D01*
X82599500Y-61334108D01*
X81527500Y-61334108D01*
X81527500Y-60887017D01*
X81547185Y-60819978D01*
X81563819Y-60799336D01*
X82639047Y-59724108D01*
X84899500Y-59724108D01*
X84899500Y-59855891D01*
X84933608Y-59983187D01*
X84966554Y-60040250D01*
X84999500Y-60097314D01*
X85092686Y-60190500D01*
X85206814Y-60256392D01*
X85334108Y-60290500D01*
X85334110Y-60290500D01*
X85465890Y-60290500D01*
X85465892Y-60290500D01*
X85593186Y-60256392D01*
X85707314Y-60190500D01*
X85800500Y-60097314D01*
X85866392Y-59983186D01*
X85900500Y-59855892D01*
X85900500Y-59724108D01*
X85866392Y-59596814D01*
X85800500Y-59482686D01*
X85707314Y-59389500D01*
X85593186Y-59323608D01*
X85465892Y-59289500D01*
X85334108Y-59289500D01*
X85206812Y-59323608D01*
X85092686Y-59389500D01*
X85092683Y-59389502D01*
X84999502Y-59482683D01*
X84999500Y-59482686D01*
X84933608Y-59596812D01*
X84899500Y-59724108D01*
X82639047Y-59724108D01*
X82926336Y-59436819D01*
X82987659Y-59403334D01*
X83014017Y-59400500D01*
X83065890Y-59400500D01*
X83065892Y-59400500D01*
X83193186Y-59366392D01*
X83307314Y-59300500D01*
X83383706Y-59224108D01*
X93199500Y-59224108D01*
X93199500Y-59355892D01*
X93208505Y-59389498D01*
X93233608Y-59483187D01*
X93258887Y-59526970D01*
X93299500Y-59597314D01*
X93392686Y-59690500D01*
X93506814Y-59756392D01*
X93634108Y-59790500D01*
X93634110Y-59790500D01*
X93765890Y-59790500D01*
X93765892Y-59790500D01*
X93893186Y-59756392D01*
X94007314Y-59690500D01*
X94100500Y-59597314D01*
X94141113Y-59526969D01*
X94191680Y-59478755D01*
X94260288Y-59465533D01*
X94325152Y-59491501D01*
X94365680Y-59548415D01*
X94372500Y-59588971D01*
X94372500Y-60794059D01*
X94352815Y-60861098D01*
X94336181Y-60881740D01*
X94325237Y-60892683D01*
X94325235Y-60892686D01*
X94259343Y-61006812D01*
X94225235Y-61134108D01*
X94225235Y-61265891D01*
X94259343Y-61393187D01*
X94292289Y-61450250D01*
X94325235Y-61507314D01*
X94325237Y-61507316D01*
X94336181Y-61518260D01*
X94369666Y-61579583D01*
X94372500Y-61605941D01*
X94372500Y-63391028D01*
X94352815Y-63458067D01*
X94300011Y-63503822D01*
X94230853Y-63513766D01*
X94167297Y-63484741D01*
X94141113Y-63453029D01*
X94129111Y-63432241D01*
X94100500Y-63382686D01*
X94007314Y-63289500D01*
X93950250Y-63256554D01*
X93893187Y-63223608D01*
X93824818Y-63205289D01*
X93765892Y-63189500D01*
X93634108Y-63189500D01*
X93506812Y-63223608D01*
X93392686Y-63289500D01*
X93392683Y-63289502D01*
X93299502Y-63382683D01*
X93299500Y-63382686D01*
X93233608Y-63496812D01*
X93204134Y-63606812D01*
X93199500Y-63624108D01*
X93199500Y-63755892D01*
X93206927Y-63783609D01*
X93233608Y-63883187D01*
X93258887Y-63926970D01*
X93299500Y-63997314D01*
X93392686Y-64090500D01*
X93506814Y-64156392D01*
X93634108Y-64190500D01*
X93634110Y-64190500D01*
X93765890Y-64190500D01*
X93765892Y-64190500D01*
X93893186Y-64156392D01*
X94007314Y-64090500D01*
X94100500Y-63997314D01*
X94141113Y-63926969D01*
X94191680Y-63878755D01*
X94260288Y-63865533D01*
X94325152Y-63891501D01*
X94365680Y-63948415D01*
X94372500Y-63988971D01*
X94372500Y-65194059D01*
X94352815Y-65261098D01*
X94336181Y-65281740D01*
X94325237Y-65292683D01*
X94325235Y-65292686D01*
X94259343Y-65406812D01*
X94235164Y-65497053D01*
X94225235Y-65534108D01*
X94225235Y-65665892D01*
X94234507Y-65700497D01*
X94259343Y-65793187D01*
X94292289Y-65850250D01*
X94325235Y-65907314D01*
X94325237Y-65907316D01*
X94336181Y-65918260D01*
X94369666Y-65979583D01*
X94372500Y-66005941D01*
X94372500Y-67791028D01*
X94352815Y-67858067D01*
X94300011Y-67903822D01*
X94230853Y-67913766D01*
X94167297Y-67884741D01*
X94141113Y-67853029D01*
X94125603Y-67826165D01*
X94100500Y-67782686D01*
X94007314Y-67689500D01*
X93950250Y-67656554D01*
X93893187Y-67623608D01*
X93827061Y-67605890D01*
X93765892Y-67589500D01*
X93634108Y-67589500D01*
X93506812Y-67623608D01*
X93392686Y-67689500D01*
X93392683Y-67689502D01*
X93299502Y-67782683D01*
X93299500Y-67782686D01*
X93233608Y-67896812D01*
X93221902Y-67940500D01*
X93199500Y-68024108D01*
X93199500Y-68155892D01*
X93203950Y-68172500D01*
X93233608Y-68283187D01*
X93256594Y-68322999D01*
X93299500Y-68397314D01*
X93392686Y-68490500D01*
X93506814Y-68556392D01*
X93634108Y-68590500D01*
X93634110Y-68590500D01*
X93765890Y-68590500D01*
X93765892Y-68590500D01*
X93893186Y-68556392D01*
X94007314Y-68490500D01*
X94100500Y-68397314D01*
X94141113Y-68326969D01*
X94191680Y-68278755D01*
X94260288Y-68265533D01*
X94325152Y-68291501D01*
X94365680Y-68348415D01*
X94372500Y-68388971D01*
X94372500Y-69568324D01*
X94352815Y-69635363D01*
X94336181Y-69656005D01*
X94299502Y-69692683D01*
X94299500Y-69692686D01*
X94233608Y-69806812D01*
X94199500Y-69934108D01*
X94199500Y-70065891D01*
X94233608Y-70193187D01*
X94237253Y-70199500D01*
X94299500Y-70307314D01*
X94299502Y-70307316D01*
X94336181Y-70343995D01*
X94369666Y-70405318D01*
X94372500Y-70431676D01*
X94372500Y-72191028D01*
X94352815Y-72258067D01*
X94300011Y-72303822D01*
X94230853Y-72313766D01*
X94167297Y-72284741D01*
X94141113Y-72253029D01*
X94119960Y-72216392D01*
X94100500Y-72182686D01*
X94007314Y-72089500D01*
X93950250Y-72056554D01*
X93893187Y-72023608D01*
X93816969Y-72003186D01*
X93765892Y-71989500D01*
X93634108Y-71989500D01*
X93506812Y-72023608D01*
X93392686Y-72089500D01*
X93392683Y-72089502D01*
X93299502Y-72182683D01*
X93299500Y-72182686D01*
X93233608Y-72296812D01*
X93204000Y-72407313D01*
X93199500Y-72424108D01*
X93199500Y-72555892D01*
X93208505Y-72589500D01*
X93233608Y-72683187D01*
X93239382Y-72693187D01*
X93299500Y-72797314D01*
X93392686Y-72890500D01*
X93506814Y-72956392D01*
X93634108Y-72990500D01*
X93634110Y-72990500D01*
X93765890Y-72990500D01*
X93765892Y-72990500D01*
X93893186Y-72956392D01*
X94007314Y-72890500D01*
X94100500Y-72797314D01*
X94141113Y-72726969D01*
X94191680Y-72678755D01*
X94260288Y-72665533D01*
X94325152Y-72691501D01*
X94365680Y-72748415D01*
X94372500Y-72788971D01*
X94372500Y-73968324D01*
X94352815Y-74035363D01*
X94336181Y-74056005D01*
X94299502Y-74092683D01*
X94299500Y-74092686D01*
X94233608Y-74206812D01*
X94199500Y-74334108D01*
X94199500Y-74465891D01*
X94233608Y-74593187D01*
X94237253Y-74599500D01*
X94299500Y-74707314D01*
X94299502Y-74707316D01*
X94336181Y-74743995D01*
X94369666Y-74805318D01*
X94372500Y-74831676D01*
X94372500Y-76591028D01*
X94352815Y-76658067D01*
X94300011Y-76703822D01*
X94230853Y-76713766D01*
X94167297Y-76684741D01*
X94141113Y-76653029D01*
X94130668Y-76634940D01*
X94100500Y-76582686D01*
X94007314Y-76489500D01*
X93950250Y-76456554D01*
X93893187Y-76423608D01*
X93829539Y-76406554D01*
X93765892Y-76389500D01*
X93634108Y-76389500D01*
X93506812Y-76423608D01*
X93392686Y-76489500D01*
X93392683Y-76489502D01*
X93299502Y-76582683D01*
X93299500Y-76582686D01*
X93233608Y-76696812D01*
X93218303Y-76753933D01*
X93199500Y-76824108D01*
X93199500Y-76955892D01*
X93211185Y-76999500D01*
X93233608Y-77083187D01*
X93258887Y-77126970D01*
X93299500Y-77197314D01*
X93392686Y-77290500D01*
X93506814Y-77356392D01*
X93634108Y-77390500D01*
X93634110Y-77390500D01*
X93765890Y-77390500D01*
X93765892Y-77390500D01*
X93893186Y-77356392D01*
X94007314Y-77290500D01*
X94100500Y-77197314D01*
X94141113Y-77126969D01*
X94191680Y-77078755D01*
X94260288Y-77065533D01*
X94325152Y-77091501D01*
X94365680Y-77148415D01*
X94372500Y-77188971D01*
X94372500Y-78168324D01*
X94352815Y-78235363D01*
X94336181Y-78256005D01*
X94299502Y-78292683D01*
X94299500Y-78292686D01*
X94233608Y-78406812D01*
X94199500Y-78534108D01*
X94199500Y-78665891D01*
X94233608Y-78793187D01*
X94266554Y-78850250D01*
X94299500Y-78907314D01*
X94392686Y-79000500D01*
X94506814Y-79066392D01*
X94634108Y-79100500D01*
X94634110Y-79100500D01*
X94765890Y-79100500D01*
X94765892Y-79100500D01*
X94893186Y-79066392D01*
X95007314Y-79000500D01*
X95100500Y-78907314D01*
X95166392Y-78793186D01*
X95200500Y-78665892D01*
X95200500Y-78534108D01*
X95166392Y-78406814D01*
X95100500Y-78292686D01*
X95063819Y-78256005D01*
X95030334Y-78194682D01*
X95027500Y-78168324D01*
X95027500Y-75977639D01*
X95047185Y-75910600D01*
X95099989Y-75864845D01*
X95169147Y-75854901D01*
X95198545Y-75865102D01*
X95199300Y-75863280D01*
X95206809Y-75866389D01*
X95206814Y-75866392D01*
X95334108Y-75900500D01*
X95334110Y-75900500D01*
X95465890Y-75900500D01*
X95465892Y-75900500D01*
X95593186Y-75866392D01*
X95707314Y-75800500D01*
X95800500Y-75707314D01*
X95866392Y-75593186D01*
X95900500Y-75465892D01*
X95900500Y-75414017D01*
X95920185Y-75346978D01*
X95936819Y-75326336D01*
X96260819Y-75002336D01*
X96322142Y-74968851D01*
X96391834Y-74973835D01*
X96447767Y-75015707D01*
X96472184Y-75081171D01*
X96472500Y-75090017D01*
X96472500Y-77568324D01*
X96452815Y-77635363D01*
X96436181Y-77656005D01*
X96399502Y-77692683D01*
X96399500Y-77692686D01*
X96333608Y-77806812D01*
X96317644Y-77866392D01*
X96299500Y-77934108D01*
X96299500Y-78065892D01*
X96311929Y-78112278D01*
X96333608Y-78193187D01*
X96348908Y-78219686D01*
X96399500Y-78307314D01*
X96492686Y-78400500D01*
X96606814Y-78466392D01*
X96734108Y-78500500D01*
X96734110Y-78500500D01*
X96865890Y-78500500D01*
X96865892Y-78500500D01*
X96993186Y-78466392D01*
X97107314Y-78400500D01*
X97200500Y-78307314D01*
X97266392Y-78193186D01*
X97300500Y-78065892D01*
X97300500Y-77934108D01*
X97266392Y-77806814D01*
X97200500Y-77692686D01*
X97163819Y-77656005D01*
X97130334Y-77594682D01*
X97127500Y-77568324D01*
X97127500Y-71744108D01*
X99499500Y-71744108D01*
X99499500Y-71875892D01*
X99516554Y-71939539D01*
X99533608Y-72003187D01*
X99551461Y-72034108D01*
X99599500Y-72117314D01*
X99599502Y-72117316D01*
X99636181Y-72153995D01*
X99669666Y-72215318D01*
X99672500Y-72241676D01*
X99672500Y-74568324D01*
X99652815Y-74635363D01*
X99636181Y-74656005D01*
X99599502Y-74692683D01*
X99599500Y-74692686D01*
X99533608Y-74806812D01*
X99512147Y-74886908D01*
X99499500Y-74934108D01*
X99499500Y-75065892D01*
X99506853Y-75093334D01*
X99533608Y-75193187D01*
X99541475Y-75206812D01*
X99599500Y-75307314D01*
X99692686Y-75400500D01*
X99791521Y-75457563D01*
X99805944Y-75465890D01*
X99806814Y-75466392D01*
X99934108Y-75500500D01*
X99934110Y-75500500D01*
X100065890Y-75500500D01*
X100065892Y-75500500D01*
X100193186Y-75466392D01*
X100307314Y-75400500D01*
X100373706Y-75334108D01*
X103599500Y-75334108D01*
X103599500Y-75465891D01*
X103633608Y-75593187D01*
X103666554Y-75650250D01*
X103699500Y-75707314D01*
X103792686Y-75800500D01*
X103886911Y-75854901D01*
X103906810Y-75866390D01*
X103906814Y-75866392D01*
X104034108Y-75900500D01*
X104034110Y-75900500D01*
X104165890Y-75900500D01*
X104165892Y-75900500D01*
X104293186Y-75866392D01*
X104407314Y-75800500D01*
X104500500Y-75707314D01*
X104566392Y-75593186D01*
X104600500Y-75465892D01*
X104600500Y-75334108D01*
X104566392Y-75206814D01*
X104500500Y-75092686D01*
X104407314Y-74999500D01*
X104342915Y-74962319D01*
X104293187Y-74933608D01*
X104211360Y-74911683D01*
X104165892Y-74899500D01*
X104034108Y-74899500D01*
X103906812Y-74933608D01*
X103792686Y-74999500D01*
X103792683Y-74999502D01*
X103699502Y-75092683D01*
X103699500Y-75092686D01*
X103633608Y-75206812D01*
X103599500Y-75334108D01*
X100373706Y-75334108D01*
X100400500Y-75307314D01*
X100413023Y-75285622D01*
X100425520Y-75263980D01*
X100466390Y-75193189D01*
X100466392Y-75193186D01*
X100500500Y-75065892D01*
X100500500Y-74934108D01*
X100466392Y-74806814D01*
X100400500Y-74692686D01*
X100363819Y-74656005D01*
X100330334Y-74594682D01*
X100327500Y-74568324D01*
X100327500Y-72241676D01*
X100347185Y-72174637D01*
X100363819Y-72153995D01*
X100367317Y-72150497D01*
X100400500Y-72117314D01*
X100466392Y-72003186D01*
X100500500Y-71875892D01*
X100500500Y-71744108D01*
X100466392Y-71616814D01*
X100400500Y-71502686D01*
X100307314Y-71409500D01*
X100237341Y-71369101D01*
X100193187Y-71343608D01*
X100078954Y-71313000D01*
X100065892Y-71309500D01*
X99934108Y-71309500D01*
X99806812Y-71343608D01*
X99692686Y-71409500D01*
X99692683Y-71409502D01*
X99599502Y-71502683D01*
X99599500Y-71502686D01*
X99533608Y-71616812D01*
X99511452Y-71699502D01*
X99499500Y-71744108D01*
X97127500Y-71744108D01*
X97127500Y-69387017D01*
X97147185Y-69319978D01*
X97163819Y-69299336D01*
X97629047Y-68834108D01*
X103599500Y-68834108D01*
X103599500Y-68965892D01*
X103606094Y-68990500D01*
X103633608Y-69093187D01*
X103635797Y-69096978D01*
X103699500Y-69207314D01*
X103792686Y-69300500D01*
X103906814Y-69366392D01*
X104034108Y-69400500D01*
X104034110Y-69400500D01*
X104165890Y-69400500D01*
X104165892Y-69400500D01*
X104293186Y-69366392D01*
X104407314Y-69300500D01*
X104500500Y-69207314D01*
X104566392Y-69093186D01*
X104600500Y-68965892D01*
X104600500Y-68834108D01*
X104566392Y-68706814D01*
X104500500Y-68592686D01*
X104407314Y-68499500D01*
X104300681Y-68437935D01*
X104293187Y-68433608D01*
X104229539Y-68416554D01*
X104165892Y-68399500D01*
X104034108Y-68399500D01*
X103906812Y-68433608D01*
X103792686Y-68499500D01*
X103792683Y-68499502D01*
X103699502Y-68592683D01*
X103699500Y-68592686D01*
X103633608Y-68706812D01*
X103613144Y-68783186D01*
X103599500Y-68834108D01*
X97629047Y-68834108D01*
X98126336Y-68336819D01*
X98187659Y-68303334D01*
X98214017Y-68300500D01*
X98265890Y-68300500D01*
X98265892Y-68300500D01*
X98393186Y-68266392D01*
X98507314Y-68200500D01*
X98600500Y-68107314D01*
X98666392Y-67993186D01*
X98700500Y-67865892D01*
X98700500Y-67734108D01*
X98666392Y-67606814D01*
X98600500Y-67492686D01*
X98507314Y-67399500D01*
X98422442Y-67350499D01*
X98393187Y-67333608D01*
X98376259Y-67329072D01*
X98341556Y-67319774D01*
X98281897Y-67283410D01*
X98251368Y-67220564D01*
X98259662Y-67151188D01*
X98304147Y-67097310D01*
X98341555Y-67080226D01*
X98393186Y-67066392D01*
X98507314Y-67000500D01*
X98600500Y-66907314D01*
X98666392Y-66793186D01*
X98700500Y-66665892D01*
X98700500Y-66534108D01*
X98666392Y-66406814D01*
X98600500Y-66292686D01*
X98507314Y-66199500D01*
X98422439Y-66150497D01*
X98393187Y-66133608D01*
X98329539Y-66116554D01*
X98265892Y-66099500D01*
X98163017Y-66099500D01*
X98141771Y-66093261D01*
X98119683Y-66091682D01*
X98108899Y-66083609D01*
X98095978Y-66079815D01*
X98081478Y-66063081D01*
X98063750Y-66049810D01*
X98059042Y-66037189D01*
X98050223Y-66027011D01*
X98047071Y-66005093D01*
X98039333Y-65984346D01*
X98042195Y-65971185D01*
X98040279Y-65957853D01*
X98049478Y-65937709D01*
X98054185Y-65916073D01*
X98067453Y-65898347D01*
X98069304Y-65894297D01*
X98075336Y-65887819D01*
X98126336Y-65836819D01*
X98187659Y-65803334D01*
X98214017Y-65800500D01*
X98265890Y-65800500D01*
X98265892Y-65800500D01*
X98393186Y-65766392D01*
X98507314Y-65700500D01*
X98600500Y-65607314D01*
X98666392Y-65493186D01*
X98700500Y-65365892D01*
X98700500Y-65234108D01*
X98666392Y-65106814D01*
X98600500Y-64992686D01*
X98507314Y-64899500D01*
X98444512Y-64863241D01*
X98393187Y-64833608D01*
X98293188Y-64806814D01*
X98265892Y-64799500D01*
X98134108Y-64799500D01*
X98006814Y-64833608D01*
X98006813Y-64833608D01*
X98006811Y-64833609D01*
X98006810Y-64833609D01*
X97929875Y-64878028D01*
X97861975Y-64894501D01*
X97795948Y-64871648D01*
X97752757Y-64816727D01*
X97746116Y-64747174D01*
X97778132Y-64685071D01*
X97780151Y-64683003D01*
X98126336Y-64336819D01*
X98187659Y-64303334D01*
X98214017Y-64300500D01*
X98265890Y-64300500D01*
X98265892Y-64300500D01*
X98393186Y-64266392D01*
X98507314Y-64200500D01*
X98600500Y-64107314D01*
X98666392Y-63993186D01*
X98700500Y-63865892D01*
X98700500Y-63734108D01*
X98666392Y-63606814D01*
X98600500Y-63492686D01*
X98507314Y-63399500D01*
X98449100Y-63365890D01*
X98393187Y-63333608D01*
X98293188Y-63306814D01*
X98265892Y-63299500D01*
X98134108Y-63299500D01*
X98006812Y-63333608D01*
X97892686Y-63399500D01*
X97892683Y-63399502D01*
X97799502Y-63492683D01*
X97799500Y-63492686D01*
X97733608Y-63606812D01*
X97699500Y-63734108D01*
X97699500Y-63785983D01*
X97679815Y-63853022D01*
X97663181Y-63873664D01*
X95473664Y-66063181D01*
X95412341Y-66096666D01*
X95406567Y-66097780D01*
X95396349Y-66099500D01*
X95334108Y-66099500D01*
X95228924Y-66127683D01*
X95223112Y-66128662D01*
X95194037Y-66125190D01*
X95164771Y-66124494D01*
X95159752Y-66121097D01*
X95153735Y-66120379D01*
X95131151Y-66101738D01*
X95106909Y-66085331D01*
X95104524Y-66079761D01*
X95099849Y-66075903D01*
X95090928Y-66048012D01*
X95079405Y-66021102D01*
X95080410Y-66015125D01*
X95078564Y-66009354D01*
X95086136Y-65981074D01*
X95090992Y-65952200D01*
X95095600Y-65945727D01*
X95096636Y-65941862D01*
X95101509Y-65937429D01*
X95114844Y-65918704D01*
X95126235Y-65907314D01*
X95192127Y-65793186D01*
X95226235Y-65665892D01*
X95226235Y-65534108D01*
X95192127Y-65406814D01*
X95126235Y-65292686D01*
X95063819Y-65230270D01*
X95030334Y-65168947D01*
X95027500Y-65142589D01*
X95027500Y-62777639D01*
X95047185Y-62710600D01*
X95099989Y-62664845D01*
X95169147Y-62654901D01*
X95198545Y-62665102D01*
X95199300Y-62663280D01*
X95206809Y-62666389D01*
X95206814Y-62666392D01*
X95334108Y-62700500D01*
X95334110Y-62700500D01*
X95465890Y-62700500D01*
X95465892Y-62700500D01*
X95593186Y-62666392D01*
X95707314Y-62600500D01*
X95743995Y-62563819D01*
X95805318Y-62530334D01*
X95831676Y-62527500D01*
X97768324Y-62527500D01*
X97835363Y-62547185D01*
X97856005Y-62563819D01*
X97892686Y-62600500D01*
X97986911Y-62654901D01*
X98006810Y-62666390D01*
X98006814Y-62666392D01*
X98134108Y-62700500D01*
X98134110Y-62700500D01*
X98265890Y-62700500D01*
X98265892Y-62700500D01*
X98393186Y-62666392D01*
X98507314Y-62600500D01*
X98600500Y-62507314D01*
X98666392Y-62393186D01*
X98700500Y-62265892D01*
X98700500Y-62134108D01*
X98666392Y-62006814D01*
X98600500Y-61892686D01*
X98507314Y-61799500D01*
X98442915Y-61762319D01*
X98393187Y-61733608D01*
X98329539Y-61716554D01*
X98265892Y-61699500D01*
X98134108Y-61699500D01*
X98006812Y-61733608D01*
X97892686Y-61799500D01*
X97892683Y-61799502D01*
X97856005Y-61836181D01*
X97794682Y-61869666D01*
X97768324Y-61872500D01*
X95831676Y-61872500D01*
X95764637Y-61852815D01*
X95743995Y-61836181D01*
X95707316Y-61799502D01*
X95707314Y-61799500D01*
X95642915Y-61762319D01*
X95593187Y-61733608D01*
X95529539Y-61716554D01*
X95465892Y-61699500D01*
X95334108Y-61699500D01*
X95234621Y-61726157D01*
X95164771Y-61724494D01*
X95106909Y-61685331D01*
X95079405Y-61621102D01*
X95090992Y-61552200D01*
X95114844Y-61518704D01*
X95126235Y-61507314D01*
X95192127Y-61393186D01*
X95226235Y-61265892D01*
X95226235Y-61134108D01*
X95192127Y-61006814D01*
X95126235Y-60892686D01*
X95063819Y-60830270D01*
X95030334Y-60768947D01*
X95027500Y-60742589D01*
X95027500Y-58377639D01*
X95047185Y-58310600D01*
X95099989Y-58264845D01*
X95169147Y-58254901D01*
X95198545Y-58265102D01*
X95199300Y-58263280D01*
X95206809Y-58266389D01*
X95206814Y-58266392D01*
X95334108Y-58300500D01*
X95334110Y-58300500D01*
X95465890Y-58300500D01*
X95465892Y-58300500D01*
X95593186Y-58266392D01*
X95707314Y-58200500D01*
X95743995Y-58163819D01*
X95805318Y-58130334D01*
X95831676Y-58127500D01*
X97868324Y-58127500D01*
X97935363Y-58147185D01*
X97956005Y-58163819D01*
X97992686Y-58200500D01*
X98086911Y-58254901D01*
X98106810Y-58266390D01*
X98106814Y-58266392D01*
X98234108Y-58300500D01*
X98234110Y-58300500D01*
X98365890Y-58300500D01*
X98365892Y-58300500D01*
X98493186Y-58266392D01*
X98607314Y-58200500D01*
X98700500Y-58107314D01*
X98766392Y-57993186D01*
X98800500Y-57865892D01*
X98800500Y-57734108D01*
X98766392Y-57606814D01*
X98700500Y-57492686D01*
X98607314Y-57399500D01*
X98542915Y-57362319D01*
X98493187Y-57333608D01*
X98429539Y-57316554D01*
X98365892Y-57299500D01*
X98234108Y-57299500D01*
X98106812Y-57333608D01*
X97992686Y-57399500D01*
X97992683Y-57399502D01*
X97956005Y-57436181D01*
X97894682Y-57469666D01*
X97868324Y-57472500D01*
X95831676Y-57472500D01*
X95764637Y-57452815D01*
X95743995Y-57436181D01*
X95707316Y-57399502D01*
X95707314Y-57399500D01*
X95642915Y-57362319D01*
X95593187Y-57333608D01*
X95529539Y-57316554D01*
X95465892Y-57299500D01*
X95334108Y-57299500D01*
X95234621Y-57326157D01*
X95164771Y-57324494D01*
X95106909Y-57285331D01*
X95079405Y-57221102D01*
X95090992Y-57152200D01*
X95114844Y-57118704D01*
X95126235Y-57107314D01*
X95192127Y-56993186D01*
X95226235Y-56865892D01*
X95226235Y-56734108D01*
X95192127Y-56606814D01*
X95126235Y-56492686D01*
X95033049Y-56399500D01*
X94975985Y-56366554D01*
X94918922Y-56333608D01*
X94855274Y-56316554D01*
X94791627Y-56299500D01*
X94659843Y-56299500D01*
X94532547Y-56333608D01*
X94418421Y-56399500D01*
X94418418Y-56399502D01*
X94325237Y-56492683D01*
X94325235Y-56492686D01*
X94259343Y-56606812D01*
X94225235Y-56734108D01*
X94225235Y-56865891D01*
X94259343Y-56993187D01*
X94260971Y-56996006D01*
X94325235Y-57107314D01*
X94325237Y-57107316D01*
X94336181Y-57118260D01*
X94369666Y-57179583D01*
X94372500Y-57205941D01*
X94372500Y-58991028D01*
X94352815Y-59058067D01*
X94300011Y-59103822D01*
X94230853Y-59113766D01*
X94167297Y-59084741D01*
X94141113Y-59053029D01*
X94130668Y-59034940D01*
X94100500Y-58982686D01*
X94007314Y-58889500D01*
X93950250Y-58856554D01*
X93893187Y-58823608D01*
X93829539Y-58806554D01*
X93765892Y-58789500D01*
X93634108Y-58789500D01*
X93506812Y-58823608D01*
X93392686Y-58889500D01*
X93392683Y-58889502D01*
X93299502Y-58982683D01*
X93299500Y-58982686D01*
X93233608Y-59096812D01*
X93204000Y-59207313D01*
X93199500Y-59224108D01*
X83383706Y-59224108D01*
X83400500Y-59207314D01*
X83466392Y-59093186D01*
X83500500Y-58965892D01*
X83500500Y-58834108D01*
X83466392Y-58706814D01*
X83400500Y-58592686D01*
X83307314Y-58499500D01*
X83307311Y-58499498D01*
X83305847Y-58498375D01*
X83304921Y-58497107D01*
X83301567Y-58493753D01*
X83302090Y-58493229D01*
X83264645Y-58441947D01*
X83260491Y-58372201D01*
X83294704Y-58311281D01*
X83305847Y-58301625D01*
X83307306Y-58300504D01*
X83307314Y-58300500D01*
X83400500Y-58207314D01*
X83466392Y-58093186D01*
X83482222Y-58034108D01*
X89999500Y-58034108D01*
X89999500Y-58165892D01*
X90013952Y-58219828D01*
X90033608Y-58293187D01*
X90038480Y-58301625D01*
X90099500Y-58407314D01*
X90192686Y-58500500D01*
X90306814Y-58566392D01*
X90434108Y-58600500D01*
X90434110Y-58600500D01*
X90565890Y-58600500D01*
X90565892Y-58600500D01*
X90693186Y-58566392D01*
X90807314Y-58500500D01*
X90900500Y-58407314D01*
X90966392Y-58293186D01*
X91000500Y-58165892D01*
X91000500Y-58034108D01*
X90966392Y-57906814D01*
X90900500Y-57792686D01*
X90807314Y-57699500D01*
X90719527Y-57648816D01*
X90693187Y-57633608D01*
X90593188Y-57606814D01*
X90565892Y-57599500D01*
X90434108Y-57599500D01*
X90306812Y-57633608D01*
X90192686Y-57699500D01*
X90192683Y-57699502D01*
X90099502Y-57792683D01*
X90099500Y-57792686D01*
X90033608Y-57906812D01*
X90010316Y-57993740D01*
X89999500Y-58034108D01*
X83482222Y-58034108D01*
X83500500Y-57965892D01*
X83500500Y-57834108D01*
X83466392Y-57706814D01*
X83400500Y-57592686D01*
X83345495Y-57537681D01*
X83312010Y-57476358D01*
X83316994Y-57406666D01*
X83345495Y-57362319D01*
X83400500Y-57307314D01*
X83466392Y-57193186D01*
X83500500Y-57065892D01*
X83500500Y-56934108D01*
X83466392Y-56806814D01*
X83400500Y-56692686D01*
X83307314Y-56599500D01*
X83250250Y-56566554D01*
X83193187Y-56533608D01*
X83129539Y-56516554D01*
X83065892Y-56499500D01*
X82934108Y-56499500D01*
X82806812Y-56533608D01*
X82692686Y-56599500D01*
X82692683Y-56599502D01*
X82599502Y-56692683D01*
X82599500Y-56692686D01*
X82533608Y-56806812D01*
X82499500Y-56934108D01*
X82499500Y-56985983D01*
X82479815Y-57053022D01*
X82463181Y-57073664D01*
X79887936Y-59648908D01*
X79887934Y-59648911D01*
X79844819Y-59723589D01*
X79836030Y-59756391D01*
X79826891Y-59790499D01*
X79822500Y-59806885D01*
X79822500Y-65962983D01*
X79802815Y-66030022D01*
X79786181Y-66050664D01*
X78700664Y-67136181D01*
X78639341Y-67169666D01*
X78612983Y-67172500D01*
X73927342Y-67172500D01*
X73860303Y-67152815D01*
X73814548Y-67100011D01*
X73804604Y-67030853D01*
X73807567Y-67016407D01*
X73810003Y-67007316D01*
X73834500Y-66915892D01*
X73834500Y-66784108D01*
X73800392Y-66656814D01*
X73734500Y-66542686D01*
X73641314Y-66449500D01*
X73567380Y-66406814D01*
X73527187Y-66383608D01*
X73463539Y-66366554D01*
X73399892Y-66349500D01*
X73268108Y-66349500D01*
X73140812Y-66383608D01*
X73026686Y-66449500D01*
X73026683Y-66449502D01*
X72933502Y-66542683D01*
X72933500Y-66542686D01*
X72867608Y-66656812D01*
X72838381Y-66765890D01*
X72833500Y-66784108D01*
X72833500Y-66915892D01*
X72857996Y-67007314D01*
X72860433Y-67016407D01*
X72858770Y-67086257D01*
X72819607Y-67144119D01*
X72755379Y-67171623D01*
X72740658Y-67172500D01*
X69927342Y-67172500D01*
X69860303Y-67152815D01*
X69814548Y-67100011D01*
X69804604Y-67030853D01*
X69807567Y-67016407D01*
X69810003Y-67007316D01*
X69834500Y-66915892D01*
X69834500Y-66784108D01*
X69800392Y-66656814D01*
X69734500Y-66542686D01*
X69641314Y-66449500D01*
X69567380Y-66406814D01*
X69527187Y-66383608D01*
X69463539Y-66366554D01*
X69399892Y-66349500D01*
X69268108Y-66349500D01*
X69140812Y-66383608D01*
X69026686Y-66449500D01*
X69026683Y-66449502D01*
X68933502Y-66542683D01*
X68933500Y-66542686D01*
X68867608Y-66656812D01*
X68838381Y-66765890D01*
X68833500Y-66784108D01*
X68833500Y-66915892D01*
X68857996Y-67007314D01*
X68860433Y-67016407D01*
X68858770Y-67086257D01*
X68819607Y-67144119D01*
X68755379Y-67171623D01*
X68740658Y-67172500D01*
X65927342Y-67172500D01*
X65860303Y-67152815D01*
X65814548Y-67100011D01*
X65804604Y-67030853D01*
X65807567Y-67016407D01*
X65810003Y-67007316D01*
X65834500Y-66915892D01*
X65834500Y-66784108D01*
X65800392Y-66656814D01*
X65734500Y-66542686D01*
X65641314Y-66449500D01*
X65567380Y-66406814D01*
X65527187Y-66383608D01*
X65463539Y-66366554D01*
X65399892Y-66349500D01*
X65268108Y-66349500D01*
X65140812Y-66383608D01*
X65026686Y-66449500D01*
X65026683Y-66449502D01*
X64933502Y-66542683D01*
X64933500Y-66542686D01*
X64867608Y-66656812D01*
X64838381Y-66765890D01*
X64833500Y-66784108D01*
X64833500Y-66915892D01*
X64857996Y-67007314D01*
X64860433Y-67016407D01*
X64858770Y-67086257D01*
X64819607Y-67144119D01*
X64755379Y-67171623D01*
X64740658Y-67172500D01*
X61927342Y-67172500D01*
X61860303Y-67152815D01*
X61814548Y-67100011D01*
X61804604Y-67030853D01*
X61807567Y-67016407D01*
X61810003Y-67007316D01*
X61834500Y-66915892D01*
X61834500Y-66784108D01*
X61800392Y-66656814D01*
X61734500Y-66542686D01*
X61641314Y-66449500D01*
X61567380Y-66406814D01*
X61527187Y-66383608D01*
X61463539Y-66366554D01*
X61399892Y-66349500D01*
X61268108Y-66349500D01*
X61140812Y-66383608D01*
X61026686Y-66449500D01*
X61026683Y-66449502D01*
X60933502Y-66542683D01*
X60933500Y-66542686D01*
X60867608Y-66656812D01*
X60838381Y-66765890D01*
X60833500Y-66784108D01*
X60833500Y-66915892D01*
X60857996Y-67007314D01*
X60860433Y-67016407D01*
X60858770Y-67086257D01*
X60819607Y-67144119D01*
X60755379Y-67171623D01*
X60740658Y-67172500D01*
X59437017Y-67172500D01*
X59369978Y-67152815D01*
X59349336Y-67136181D01*
X57286819Y-65073664D01*
X57253334Y-65012341D01*
X57250500Y-64985983D01*
X57250500Y-64934110D01*
X57250500Y-64934108D01*
X57216392Y-64806814D01*
X57150500Y-64692686D01*
X57150498Y-64692684D01*
X57147217Y-64687001D01*
X57130744Y-64619101D01*
X57147217Y-64562999D01*
X57150498Y-64557315D01*
X57150500Y-64557314D01*
X57216392Y-64443186D01*
X57250500Y-64315892D01*
X57250500Y-64184108D01*
X58249500Y-64184108D01*
X58249500Y-64315892D01*
X58267531Y-64383187D01*
X58283609Y-64443188D01*
X58283609Y-64443189D01*
X58352782Y-64563000D01*
X58369255Y-64630900D01*
X58352782Y-64687000D01*
X58283609Y-64806810D01*
X58283609Y-64806811D01*
X58283609Y-64806812D01*
X58283608Y-64806814D01*
X58249500Y-64934108D01*
X58249500Y-65065892D01*
X58260464Y-65106810D01*
X58283608Y-65193187D01*
X58313766Y-65245421D01*
X58349500Y-65307314D01*
X58442686Y-65400500D01*
X58556814Y-65466392D01*
X58671247Y-65497054D01*
X58730907Y-65533418D01*
X58761436Y-65596264D01*
X58758928Y-65648920D01*
X58749500Y-65684106D01*
X58749500Y-65815891D01*
X58783608Y-65943187D01*
X58799773Y-65971185D01*
X58849500Y-66057314D01*
X58942686Y-66150500D01*
X59056814Y-66216392D01*
X59184108Y-66250500D01*
X59184110Y-66250500D01*
X59315890Y-66250500D01*
X59315892Y-66250500D01*
X59443186Y-66216392D01*
X59557314Y-66150500D01*
X59650500Y-66057314D01*
X59650504Y-66057306D01*
X59651625Y-66055847D01*
X59652892Y-66054921D01*
X59656247Y-66051567D01*
X59656770Y-66052090D01*
X59708053Y-66014645D01*
X59777799Y-66010491D01*
X59838719Y-66044704D01*
X59848375Y-66055847D01*
X59849498Y-66057311D01*
X59849500Y-66057314D01*
X59942686Y-66150500D01*
X60056814Y-66216392D01*
X60184108Y-66250500D01*
X60184110Y-66250500D01*
X60315890Y-66250500D01*
X60315892Y-66250500D01*
X60443186Y-66216392D01*
X60557314Y-66150500D01*
X60650500Y-66057314D01*
X60716392Y-65943186D01*
X60750500Y-65815892D01*
X60750500Y-65684108D01*
X60741071Y-65648918D01*
X60742734Y-65579072D01*
X60781896Y-65521210D01*
X60828749Y-65497054D01*
X60943186Y-65466392D01*
X61057314Y-65400500D01*
X61150500Y-65307314D01*
X61216392Y-65193186D01*
X61250500Y-65065892D01*
X61250500Y-64934108D01*
X61216392Y-64806814D01*
X61150500Y-64692686D01*
X61150498Y-64692684D01*
X61147217Y-64687001D01*
X61130744Y-64619101D01*
X61147217Y-64562999D01*
X61150498Y-64557315D01*
X61150500Y-64557314D01*
X61216392Y-64443186D01*
X61250500Y-64315892D01*
X61250500Y-64184108D01*
X62249500Y-64184108D01*
X62249500Y-64315892D01*
X62267531Y-64383187D01*
X62283609Y-64443188D01*
X62283609Y-64443189D01*
X62352782Y-64563000D01*
X62369255Y-64630900D01*
X62352782Y-64687000D01*
X62283609Y-64806810D01*
X62283609Y-64806811D01*
X62283609Y-64806812D01*
X62283608Y-64806814D01*
X62249500Y-64934108D01*
X62249500Y-65065892D01*
X62260464Y-65106810D01*
X62283608Y-65193187D01*
X62313766Y-65245421D01*
X62349500Y-65307314D01*
X62442686Y-65400500D01*
X62556814Y-65466392D01*
X62671247Y-65497054D01*
X62730907Y-65533418D01*
X62761436Y-65596264D01*
X62758928Y-65648920D01*
X62749500Y-65684106D01*
X62749500Y-65815891D01*
X62783608Y-65943187D01*
X62799773Y-65971185D01*
X62849500Y-66057314D01*
X62942686Y-66150500D01*
X63056814Y-66216392D01*
X63184108Y-66250500D01*
X63184110Y-66250500D01*
X63315890Y-66250500D01*
X63315892Y-66250500D01*
X63443186Y-66216392D01*
X63557314Y-66150500D01*
X63650500Y-66057314D01*
X63650504Y-66057306D01*
X63651625Y-66055847D01*
X63652892Y-66054921D01*
X63656247Y-66051567D01*
X63656770Y-66052090D01*
X63708053Y-66014645D01*
X63777799Y-66010491D01*
X63838719Y-66044704D01*
X63848375Y-66055847D01*
X63849498Y-66057311D01*
X63849500Y-66057314D01*
X63942686Y-66150500D01*
X64056814Y-66216392D01*
X64184108Y-66250500D01*
X64184110Y-66250500D01*
X64315890Y-66250500D01*
X64315892Y-66250500D01*
X64443186Y-66216392D01*
X64557314Y-66150500D01*
X64650500Y-66057314D01*
X64716392Y-65943186D01*
X64750500Y-65815892D01*
X64750500Y-65684108D01*
X64741071Y-65648918D01*
X64742734Y-65579072D01*
X64781896Y-65521210D01*
X64828749Y-65497054D01*
X64943186Y-65466392D01*
X65057314Y-65400500D01*
X65150500Y-65307314D01*
X65216392Y-65193186D01*
X65250500Y-65065892D01*
X65250500Y-64934108D01*
X65216392Y-64806814D01*
X65150500Y-64692686D01*
X65150498Y-64692684D01*
X65147217Y-64687001D01*
X65130744Y-64619101D01*
X65147217Y-64562999D01*
X65150498Y-64557315D01*
X65150500Y-64557314D01*
X65216392Y-64443186D01*
X65250500Y-64315892D01*
X65250500Y-64184108D01*
X66249500Y-64184108D01*
X66249500Y-64315892D01*
X66267531Y-64383187D01*
X66283609Y-64443188D01*
X66283609Y-64443189D01*
X66352782Y-64563000D01*
X66369255Y-64630900D01*
X66352782Y-64687000D01*
X66283609Y-64806810D01*
X66283609Y-64806811D01*
X66283609Y-64806812D01*
X66283608Y-64806814D01*
X66249500Y-64934108D01*
X66249500Y-65065892D01*
X66260464Y-65106810D01*
X66283608Y-65193187D01*
X66313766Y-65245421D01*
X66349500Y-65307314D01*
X66442686Y-65400500D01*
X66556814Y-65466392D01*
X66671247Y-65497054D01*
X66730907Y-65533418D01*
X66761436Y-65596264D01*
X66758928Y-65648920D01*
X66749500Y-65684106D01*
X66749500Y-65815891D01*
X66783608Y-65943187D01*
X66799773Y-65971185D01*
X66849500Y-66057314D01*
X66942686Y-66150500D01*
X67056814Y-66216392D01*
X67184108Y-66250500D01*
X67184110Y-66250500D01*
X67315890Y-66250500D01*
X67315892Y-66250500D01*
X67443186Y-66216392D01*
X67557314Y-66150500D01*
X67650500Y-66057314D01*
X67650504Y-66057306D01*
X67651625Y-66055847D01*
X67652892Y-66054921D01*
X67656247Y-66051567D01*
X67656770Y-66052090D01*
X67708053Y-66014645D01*
X67777799Y-66010491D01*
X67838719Y-66044704D01*
X67848375Y-66055847D01*
X67849498Y-66057311D01*
X67849500Y-66057314D01*
X67942686Y-66150500D01*
X68056814Y-66216392D01*
X68184108Y-66250500D01*
X68184110Y-66250500D01*
X68315890Y-66250500D01*
X68315892Y-66250500D01*
X68443186Y-66216392D01*
X68557314Y-66150500D01*
X68650500Y-66057314D01*
X68716392Y-65943186D01*
X68750500Y-65815892D01*
X68750500Y-65684108D01*
X68741071Y-65648918D01*
X68742734Y-65579072D01*
X68781896Y-65521210D01*
X68828749Y-65497054D01*
X68943186Y-65466392D01*
X69057314Y-65400500D01*
X69150500Y-65307314D01*
X69216392Y-65193186D01*
X69250500Y-65065892D01*
X69250500Y-64934108D01*
X69216392Y-64806814D01*
X69150500Y-64692686D01*
X69150498Y-64692684D01*
X69147217Y-64687001D01*
X69130744Y-64619101D01*
X69147217Y-64562999D01*
X69150498Y-64557315D01*
X69150500Y-64557314D01*
X69216392Y-64443186D01*
X69250500Y-64315892D01*
X69250500Y-64184108D01*
X70249500Y-64184108D01*
X70249500Y-64315892D01*
X70267531Y-64383187D01*
X70283609Y-64443188D01*
X70283609Y-64443189D01*
X70352782Y-64563000D01*
X70369255Y-64630900D01*
X70352782Y-64687000D01*
X70283609Y-64806810D01*
X70283609Y-64806811D01*
X70283609Y-64806812D01*
X70283608Y-64806814D01*
X70249500Y-64934108D01*
X70249500Y-65065892D01*
X70260464Y-65106810D01*
X70283608Y-65193187D01*
X70313766Y-65245421D01*
X70349500Y-65307314D01*
X70442686Y-65400500D01*
X70556814Y-65466392D01*
X70671247Y-65497054D01*
X70730907Y-65533418D01*
X70761436Y-65596264D01*
X70758928Y-65648920D01*
X70749500Y-65684106D01*
X70749500Y-65815891D01*
X70783608Y-65943187D01*
X70799773Y-65971185D01*
X70849500Y-66057314D01*
X70942686Y-66150500D01*
X71056814Y-66216392D01*
X71184108Y-66250500D01*
X71184110Y-66250500D01*
X71315890Y-66250500D01*
X71315892Y-66250500D01*
X71443186Y-66216392D01*
X71557314Y-66150500D01*
X71650500Y-66057314D01*
X71650504Y-66057306D01*
X71651625Y-66055847D01*
X71652892Y-66054921D01*
X71656247Y-66051567D01*
X71656770Y-66052090D01*
X71708053Y-66014645D01*
X71777799Y-66010491D01*
X71838719Y-66044704D01*
X71848375Y-66055847D01*
X71849498Y-66057311D01*
X71849500Y-66057314D01*
X71942686Y-66150500D01*
X72056814Y-66216392D01*
X72184108Y-66250500D01*
X72184110Y-66250500D01*
X72315890Y-66250500D01*
X72315892Y-66250500D01*
X72443186Y-66216392D01*
X72557314Y-66150500D01*
X72650500Y-66057314D01*
X72716392Y-65943186D01*
X72750500Y-65815892D01*
X72750500Y-65684108D01*
X72741071Y-65648918D01*
X72742734Y-65579072D01*
X72781896Y-65521210D01*
X72828749Y-65497054D01*
X72943186Y-65466392D01*
X73057314Y-65400500D01*
X73150500Y-65307314D01*
X73216392Y-65193186D01*
X73250500Y-65065892D01*
X73250500Y-64934108D01*
X73216392Y-64806814D01*
X73150500Y-64692686D01*
X73150498Y-64692684D01*
X73147217Y-64687001D01*
X73130744Y-64619101D01*
X73147217Y-64562999D01*
X73150498Y-64557315D01*
X73150500Y-64557314D01*
X73216392Y-64443186D01*
X73250500Y-64315892D01*
X73250500Y-64184108D01*
X74249500Y-64184108D01*
X74249500Y-64315892D01*
X74267531Y-64383187D01*
X74283609Y-64443188D01*
X74283609Y-64443189D01*
X74352782Y-64563000D01*
X74369255Y-64630900D01*
X74352782Y-64687000D01*
X74283609Y-64806810D01*
X74283609Y-64806811D01*
X74283609Y-64806812D01*
X74283608Y-64806814D01*
X74249500Y-64934108D01*
X74249500Y-65065892D01*
X74260464Y-65106810D01*
X74283608Y-65193187D01*
X74313766Y-65245421D01*
X74349500Y-65307314D01*
X74442686Y-65400500D01*
X74556814Y-65466392D01*
X74671247Y-65497054D01*
X74730907Y-65533418D01*
X74761436Y-65596264D01*
X74758928Y-65648920D01*
X74749500Y-65684106D01*
X74749500Y-65815891D01*
X74783608Y-65943187D01*
X74799773Y-65971185D01*
X74849500Y-66057314D01*
X74942686Y-66150500D01*
X75056814Y-66216392D01*
X75184108Y-66250500D01*
X75184110Y-66250500D01*
X75315890Y-66250500D01*
X75315892Y-66250500D01*
X75443186Y-66216392D01*
X75557314Y-66150500D01*
X75650500Y-66057314D01*
X75650504Y-66057306D01*
X75651625Y-66055847D01*
X75652892Y-66054921D01*
X75656247Y-66051567D01*
X75656770Y-66052090D01*
X75708053Y-66014645D01*
X75777799Y-66010491D01*
X75838719Y-66044704D01*
X75848375Y-66055847D01*
X75849498Y-66057311D01*
X75849500Y-66057314D01*
X75942686Y-66150500D01*
X76056814Y-66216392D01*
X76184108Y-66250500D01*
X76184110Y-66250500D01*
X76315890Y-66250500D01*
X76315892Y-66250500D01*
X76443186Y-66216392D01*
X76557314Y-66150500D01*
X76650500Y-66057314D01*
X76716392Y-65943186D01*
X76750500Y-65815892D01*
X76750500Y-65684108D01*
X76741071Y-65648918D01*
X76742734Y-65579072D01*
X76781896Y-65521210D01*
X76828749Y-65497054D01*
X76943186Y-65466392D01*
X77057314Y-65400500D01*
X77150500Y-65307314D01*
X77216392Y-65193186D01*
X77250500Y-65065892D01*
X77250500Y-64934108D01*
X77216392Y-64806814D01*
X77150500Y-64692686D01*
X77150498Y-64692684D01*
X77147217Y-64687001D01*
X77130744Y-64619101D01*
X77147217Y-64562999D01*
X77150498Y-64557315D01*
X77150500Y-64557314D01*
X77216392Y-64443186D01*
X77250500Y-64315892D01*
X77250500Y-64184108D01*
X77216392Y-64056814D01*
X77150500Y-63942686D01*
X77057314Y-63849500D01*
X76943186Y-63783608D01*
X76828751Y-63752945D01*
X76769092Y-63716581D01*
X76738563Y-63653734D01*
X76741071Y-63601078D01*
X76750500Y-63565892D01*
X76750500Y-63434108D01*
X76716392Y-63306814D01*
X76650500Y-63192686D01*
X76557314Y-63099500D01*
X76500250Y-63066554D01*
X76443187Y-63033608D01*
X76379539Y-63016554D01*
X76315892Y-62999500D01*
X76184108Y-62999500D01*
X76056812Y-63033608D01*
X75942686Y-63099500D01*
X75942683Y-63099502D01*
X75849498Y-63192687D01*
X75848370Y-63194158D01*
X75847102Y-63195083D01*
X75843753Y-63198433D01*
X75843230Y-63197910D01*
X75791940Y-63235356D01*
X75722193Y-63239506D01*
X75661275Y-63205289D01*
X75651630Y-63194158D01*
X75650501Y-63192687D01*
X75557316Y-63099502D01*
X75557314Y-63099500D01*
X75500250Y-63066554D01*
X75443187Y-63033608D01*
X75379539Y-63016554D01*
X75315892Y-62999500D01*
X75184108Y-62999500D01*
X75056812Y-63033608D01*
X74942686Y-63099500D01*
X74942683Y-63099502D01*
X74849502Y-63192683D01*
X74849500Y-63192686D01*
X74783608Y-63306812D01*
X74749500Y-63434108D01*
X74749500Y-63565893D01*
X74758928Y-63601079D01*
X74757265Y-63670929D01*
X74718102Y-63728791D01*
X74671247Y-63752946D01*
X74657803Y-63756548D01*
X74556814Y-63783608D01*
X74556812Y-63783608D01*
X74556812Y-63783609D01*
X74442686Y-63849500D01*
X74442683Y-63849502D01*
X74349502Y-63942683D01*
X74349500Y-63942686D01*
X74283608Y-64056812D01*
X74270076Y-64107316D01*
X74249500Y-64184108D01*
X73250500Y-64184108D01*
X73216392Y-64056814D01*
X73150500Y-63942686D01*
X73057314Y-63849500D01*
X72943186Y-63783608D01*
X72828751Y-63752945D01*
X72769092Y-63716581D01*
X72738563Y-63653734D01*
X72741071Y-63601078D01*
X72750500Y-63565892D01*
X72750500Y-63434108D01*
X72716392Y-63306814D01*
X72650500Y-63192686D01*
X72557314Y-63099500D01*
X72500250Y-63066554D01*
X72443187Y-63033608D01*
X72379539Y-63016554D01*
X72315892Y-62999500D01*
X72184108Y-62999500D01*
X72056812Y-63033608D01*
X71942686Y-63099500D01*
X71942683Y-63099502D01*
X71849498Y-63192687D01*
X71848370Y-63194158D01*
X71847102Y-63195083D01*
X71843753Y-63198433D01*
X71843230Y-63197910D01*
X71791940Y-63235356D01*
X71722193Y-63239506D01*
X71661275Y-63205289D01*
X71651630Y-63194158D01*
X71650501Y-63192687D01*
X71557316Y-63099502D01*
X71557314Y-63099500D01*
X71500250Y-63066554D01*
X71443187Y-63033608D01*
X71379539Y-63016554D01*
X71315892Y-62999500D01*
X71184108Y-62999500D01*
X71056812Y-63033608D01*
X70942686Y-63099500D01*
X70942683Y-63099502D01*
X70849502Y-63192683D01*
X70849500Y-63192686D01*
X70783608Y-63306812D01*
X70749500Y-63434108D01*
X70749500Y-63565893D01*
X70758928Y-63601079D01*
X70757265Y-63670929D01*
X70718102Y-63728791D01*
X70671247Y-63752946D01*
X70657803Y-63756548D01*
X70556814Y-63783608D01*
X70556812Y-63783608D01*
X70556812Y-63783609D01*
X70442686Y-63849500D01*
X70442683Y-63849502D01*
X70349502Y-63942683D01*
X70349500Y-63942686D01*
X70283608Y-64056812D01*
X70270076Y-64107316D01*
X70249500Y-64184108D01*
X69250500Y-64184108D01*
X69216392Y-64056814D01*
X69150500Y-63942686D01*
X69057314Y-63849500D01*
X68943186Y-63783608D01*
X68828751Y-63752945D01*
X68769092Y-63716581D01*
X68738563Y-63653734D01*
X68741071Y-63601078D01*
X68750500Y-63565892D01*
X68750500Y-63434108D01*
X68716392Y-63306814D01*
X68650500Y-63192686D01*
X68557314Y-63099500D01*
X68500250Y-63066554D01*
X68443187Y-63033608D01*
X68379539Y-63016554D01*
X68315892Y-62999500D01*
X68184108Y-62999500D01*
X68056812Y-63033608D01*
X67942686Y-63099500D01*
X67942683Y-63099502D01*
X67849498Y-63192687D01*
X67848370Y-63194158D01*
X67847102Y-63195083D01*
X67843753Y-63198433D01*
X67843230Y-63197910D01*
X67791940Y-63235356D01*
X67722193Y-63239506D01*
X67661275Y-63205289D01*
X67651630Y-63194158D01*
X67650501Y-63192687D01*
X67557316Y-63099502D01*
X67557314Y-63099500D01*
X67500250Y-63066554D01*
X67443187Y-63033608D01*
X67379539Y-63016554D01*
X67315892Y-62999500D01*
X67184108Y-62999500D01*
X67056812Y-63033608D01*
X66942686Y-63099500D01*
X66942683Y-63099502D01*
X66849502Y-63192683D01*
X66849500Y-63192686D01*
X66783608Y-63306812D01*
X66749500Y-63434108D01*
X66749500Y-63565893D01*
X66758928Y-63601079D01*
X66757265Y-63670929D01*
X66718102Y-63728791D01*
X66671247Y-63752946D01*
X66657803Y-63756548D01*
X66556814Y-63783608D01*
X66556812Y-63783608D01*
X66556812Y-63783609D01*
X66442686Y-63849500D01*
X66442683Y-63849502D01*
X66349502Y-63942683D01*
X66349500Y-63942686D01*
X66283608Y-64056812D01*
X66270076Y-64107316D01*
X66249500Y-64184108D01*
X65250500Y-64184108D01*
X65216392Y-64056814D01*
X65150500Y-63942686D01*
X65057314Y-63849500D01*
X64943186Y-63783608D01*
X64828751Y-63752945D01*
X64769092Y-63716581D01*
X64738563Y-63653734D01*
X64741071Y-63601078D01*
X64750500Y-63565892D01*
X64750500Y-63434108D01*
X64716392Y-63306814D01*
X64650500Y-63192686D01*
X64557314Y-63099500D01*
X64500250Y-63066554D01*
X64443187Y-63033608D01*
X64379539Y-63016554D01*
X64315892Y-62999500D01*
X64184108Y-62999500D01*
X64056812Y-63033608D01*
X63942686Y-63099500D01*
X63942683Y-63099502D01*
X63849498Y-63192687D01*
X63848370Y-63194158D01*
X63847102Y-63195083D01*
X63843753Y-63198433D01*
X63843230Y-63197910D01*
X63791940Y-63235356D01*
X63722193Y-63239506D01*
X63661275Y-63205289D01*
X63651630Y-63194158D01*
X63650501Y-63192687D01*
X63557316Y-63099502D01*
X63557314Y-63099500D01*
X63500250Y-63066554D01*
X63443187Y-63033608D01*
X63379539Y-63016554D01*
X63315892Y-62999500D01*
X63184108Y-62999500D01*
X63056812Y-63033608D01*
X62942686Y-63099500D01*
X62942683Y-63099502D01*
X62849502Y-63192683D01*
X62849500Y-63192686D01*
X62783608Y-63306812D01*
X62749500Y-63434108D01*
X62749500Y-63565893D01*
X62758928Y-63601079D01*
X62757265Y-63670929D01*
X62718102Y-63728791D01*
X62671247Y-63752946D01*
X62657803Y-63756548D01*
X62556814Y-63783608D01*
X62556812Y-63783608D01*
X62556812Y-63783609D01*
X62442686Y-63849500D01*
X62442683Y-63849502D01*
X62349502Y-63942683D01*
X62349500Y-63942686D01*
X62283608Y-64056812D01*
X62270076Y-64107316D01*
X62249500Y-64184108D01*
X61250500Y-64184108D01*
X61216392Y-64056814D01*
X61150500Y-63942686D01*
X61057314Y-63849500D01*
X60943186Y-63783608D01*
X60828751Y-63752945D01*
X60769092Y-63716581D01*
X60738563Y-63653734D01*
X60741071Y-63601078D01*
X60750500Y-63565892D01*
X60750500Y-63434108D01*
X60716392Y-63306814D01*
X60650500Y-63192686D01*
X60557314Y-63099500D01*
X60500250Y-63066554D01*
X60443187Y-63033608D01*
X60379539Y-63016554D01*
X60315892Y-62999500D01*
X60184108Y-62999500D01*
X60056812Y-63033608D01*
X59942686Y-63099500D01*
X59942683Y-63099502D01*
X59849498Y-63192687D01*
X59848370Y-63194158D01*
X59847102Y-63195083D01*
X59843753Y-63198433D01*
X59843230Y-63197910D01*
X59791940Y-63235356D01*
X59722193Y-63239506D01*
X59661275Y-63205289D01*
X59651630Y-63194158D01*
X59650501Y-63192687D01*
X59557316Y-63099502D01*
X59557314Y-63099500D01*
X59500250Y-63066554D01*
X59443187Y-63033608D01*
X59379539Y-63016554D01*
X59315892Y-62999500D01*
X59184108Y-62999500D01*
X59056812Y-63033608D01*
X58942686Y-63099500D01*
X58942683Y-63099502D01*
X58849502Y-63192683D01*
X58849500Y-63192686D01*
X58783608Y-63306812D01*
X58749500Y-63434108D01*
X58749500Y-63565893D01*
X58758928Y-63601079D01*
X58757265Y-63670929D01*
X58718102Y-63728791D01*
X58671247Y-63752946D01*
X58657803Y-63756548D01*
X58556814Y-63783608D01*
X58556812Y-63783608D01*
X58556812Y-63783609D01*
X58442686Y-63849500D01*
X58442683Y-63849502D01*
X58349502Y-63942683D01*
X58349500Y-63942686D01*
X58283608Y-64056812D01*
X58270076Y-64107316D01*
X58249500Y-64184108D01*
X57250500Y-64184108D01*
X57216392Y-64056814D01*
X57150500Y-63942686D01*
X57057314Y-63849500D01*
X56943186Y-63783608D01*
X56828751Y-63752945D01*
X56769092Y-63716581D01*
X56738563Y-63653734D01*
X56741071Y-63601078D01*
X56750500Y-63565892D01*
X56750500Y-63434108D01*
X56716392Y-63306814D01*
X56650500Y-63192686D01*
X56557314Y-63099500D01*
X56500250Y-63066554D01*
X56443187Y-63033608D01*
X56379539Y-63016554D01*
X56315892Y-62999500D01*
X56184108Y-62999500D01*
X56056812Y-63033608D01*
X55942686Y-63099500D01*
X55942683Y-63099502D01*
X55849498Y-63192687D01*
X55848370Y-63194158D01*
X55847102Y-63195083D01*
X55843753Y-63198433D01*
X55843230Y-63197910D01*
X55791940Y-63235356D01*
X55722193Y-63239506D01*
X55661275Y-63205289D01*
X55651630Y-63194158D01*
X55650501Y-63192687D01*
X55557316Y-63099502D01*
X55557314Y-63099500D01*
X55500250Y-63066554D01*
X55443187Y-63033608D01*
X55379539Y-63016554D01*
X55315892Y-62999500D01*
X55184108Y-62999500D01*
X55056812Y-63033608D01*
X54942686Y-63099500D01*
X54942683Y-63099502D01*
X54849502Y-63192683D01*
X54849500Y-63192686D01*
X54783608Y-63306812D01*
X54749500Y-63434108D01*
X54749500Y-63565893D01*
X54758928Y-63601079D01*
X54757265Y-63670929D01*
X54718102Y-63728791D01*
X54671247Y-63752946D01*
X54657803Y-63756548D01*
X54556814Y-63783608D01*
X54556812Y-63783608D01*
X54556812Y-63783609D01*
X54442686Y-63849500D01*
X54442683Y-63849502D01*
X54349502Y-63942683D01*
X54349500Y-63942686D01*
X54283608Y-64056812D01*
X54270076Y-64107316D01*
X54249500Y-64184108D01*
X49027500Y-64184108D01*
X49027500Y-58594603D01*
X54189499Y-58594603D01*
X54226410Y-58780161D01*
X54226413Y-58780171D01*
X54298814Y-58954965D01*
X54298816Y-58954968D01*
X54403927Y-59112278D01*
X54403933Y-59112286D01*
X54537713Y-59246066D01*
X54537721Y-59246072D01*
X54695031Y-59351183D01*
X54695034Y-59351185D01*
X54814093Y-59400500D01*
X54869833Y-59423588D01*
X54869837Y-59423588D01*
X54869838Y-59423589D01*
X55055396Y-59460500D01*
X55055399Y-59460500D01*
X55244603Y-59460500D01*
X55369442Y-59435667D01*
X55430167Y-59423588D01*
X55546700Y-59375318D01*
X55604965Y-59351185D01*
X55604968Y-59351183D01*
X55762283Y-59246069D01*
X55896069Y-59112283D01*
X56001184Y-58954967D01*
X56073588Y-58780167D01*
X56088179Y-58706814D01*
X56110500Y-58594603D01*
X56110500Y-58405396D01*
X56073589Y-58219838D01*
X56073588Y-58219837D01*
X56073588Y-58219833D01*
X56068403Y-58207316D01*
X56001185Y-58045034D01*
X56001183Y-58045031D01*
X55896072Y-57887721D01*
X55896066Y-57887713D01*
X55762286Y-57753933D01*
X55762278Y-57753927D01*
X55604968Y-57648816D01*
X55604965Y-57648814D01*
X55430171Y-57576413D01*
X55430161Y-57576410D01*
X55244603Y-57539500D01*
X55244601Y-57539500D01*
X55055399Y-57539500D01*
X55055397Y-57539500D01*
X54869838Y-57576410D01*
X54869828Y-57576413D01*
X54695034Y-57648814D01*
X54695031Y-57648816D01*
X54537721Y-57753927D01*
X54537713Y-57753933D01*
X54403933Y-57887713D01*
X54403927Y-57887721D01*
X54298816Y-58045031D01*
X54298814Y-58045034D01*
X54226413Y-58219828D01*
X54226410Y-58219838D01*
X54189500Y-58405396D01*
X54189500Y-58405399D01*
X54189500Y-58594601D01*
X54189500Y-58594603D01*
X54189499Y-58594603D01*
X49027500Y-58594603D01*
X49027500Y-57974626D01*
X49047185Y-57907587D01*
X49099989Y-57861832D01*
X49169147Y-57851888D01*
X49232703Y-57880913D01*
X49269885Y-57937736D01*
X49287335Y-57993736D01*
X49287336Y-57993738D01*
X49287337Y-57993740D01*
X49368198Y-58127500D01*
X49376601Y-58141400D01*
X49498599Y-58263398D01*
X49498601Y-58263399D01*
X49498603Y-58263401D01*
X49646260Y-58352663D01*
X49810988Y-58403994D01*
X49882581Y-58410500D01*
X51777418Y-58410499D01*
X51777425Y-58410499D01*
X51849007Y-58403995D01*
X51849010Y-58403994D01*
X51849012Y-58403994D01*
X52013740Y-58352663D01*
X52161397Y-58263401D01*
X52283401Y-58141397D01*
X52372663Y-57993740D01*
X52423994Y-57829012D01*
X52430500Y-57757419D01*
X52430499Y-57642582D01*
X52426585Y-57599500D01*
X52423995Y-57570992D01*
X52423993Y-57570984D01*
X52408234Y-57520412D01*
X52372663Y-57406260D01*
X52283401Y-57258603D01*
X52283399Y-57258601D01*
X52283398Y-57258599D01*
X52161400Y-57136601D01*
X52131060Y-57118260D01*
X52013740Y-57047337D01*
X51849012Y-56996006D01*
X51849010Y-56996005D01*
X51849008Y-56996005D01*
X51798884Y-56991450D01*
X51777419Y-56989500D01*
X51777416Y-56989500D01*
X49882573Y-56989500D01*
X49810992Y-56996004D01*
X49810984Y-56996006D01*
X49646262Y-57047336D01*
X49498599Y-57136601D01*
X49376601Y-57258599D01*
X49287335Y-57406263D01*
X49269885Y-57462264D01*
X49231148Y-57520412D01*
X49167122Y-57548386D01*
X49098137Y-57537304D01*
X49046094Y-57490686D01*
X49027500Y-57425374D01*
X49027500Y-55594603D01*
X54189499Y-55594603D01*
X54226410Y-55780161D01*
X54226413Y-55780171D01*
X54298814Y-55954965D01*
X54298816Y-55954968D01*
X54403927Y-56112278D01*
X54403933Y-56112286D01*
X54537713Y-56246066D01*
X54537721Y-56246072D01*
X54695031Y-56351183D01*
X54695034Y-56351185D01*
X54869828Y-56423586D01*
X54869833Y-56423588D01*
X54869837Y-56423588D01*
X54869838Y-56423589D01*
X55055396Y-56460500D01*
X55055399Y-56460500D01*
X55244603Y-56460500D01*
X55369442Y-56435667D01*
X55430167Y-56423588D01*
X55604967Y-56351184D01*
X55762283Y-56246069D01*
X55896069Y-56112283D01*
X56001184Y-55954967D01*
X56073588Y-55780167D01*
X56110500Y-55594601D01*
X56110500Y-55405399D01*
X56110500Y-55405396D01*
X56097526Y-55340173D01*
X56094330Y-55324108D01*
X84899500Y-55324108D01*
X84899500Y-55455891D01*
X84933608Y-55583187D01*
X84966554Y-55640250D01*
X84999500Y-55697314D01*
X85092686Y-55790500D01*
X85206814Y-55856392D01*
X85334108Y-55890500D01*
X85334110Y-55890500D01*
X85465890Y-55890500D01*
X85465892Y-55890500D01*
X85593186Y-55856392D01*
X85707314Y-55790500D01*
X85800500Y-55697314D01*
X85866392Y-55583186D01*
X85900500Y-55455892D01*
X85900500Y-55324108D01*
X85866392Y-55196814D01*
X85800500Y-55082686D01*
X85707314Y-54989500D01*
X85650250Y-54956554D01*
X85593187Y-54923608D01*
X85529539Y-54906554D01*
X85465892Y-54889500D01*
X85334108Y-54889500D01*
X85206812Y-54923608D01*
X85092686Y-54989500D01*
X85092683Y-54989502D01*
X84999502Y-55082683D01*
X84999500Y-55082686D01*
X84933608Y-55196812D01*
X84899500Y-55324108D01*
X56094330Y-55324108D01*
X56073589Y-55219838D01*
X56073588Y-55219837D01*
X56073588Y-55219833D01*
X56064053Y-55196814D01*
X56001185Y-55045034D01*
X56001183Y-55045031D01*
X55896072Y-54887721D01*
X55896066Y-54887713D01*
X55762286Y-54753933D01*
X55762278Y-54753927D01*
X55604968Y-54648816D01*
X55604965Y-54648814D01*
X55430171Y-54576413D01*
X55430161Y-54576410D01*
X55244603Y-54539500D01*
X55244601Y-54539500D01*
X55055399Y-54539500D01*
X55055397Y-54539500D01*
X54869838Y-54576410D01*
X54869828Y-54576413D01*
X54695034Y-54648814D01*
X54695031Y-54648816D01*
X54537721Y-54753927D01*
X54537713Y-54753933D01*
X54403933Y-54887713D01*
X54403927Y-54887721D01*
X54298816Y-55045031D01*
X54298814Y-55045034D01*
X54226413Y-55219828D01*
X54226410Y-55219838D01*
X54189500Y-55405396D01*
X54189500Y-55405399D01*
X54189500Y-55594601D01*
X54189500Y-55594603D01*
X54189499Y-55594603D01*
X49027500Y-55594603D01*
X49027500Y-54073920D01*
X52729499Y-54073920D01*
X52758340Y-54218907D01*
X52758343Y-54218917D01*
X52814912Y-54355488D01*
X52814919Y-54355501D01*
X52897048Y-54478415D01*
X52897051Y-54478419D01*
X53001580Y-54582948D01*
X53001584Y-54582951D01*
X53124498Y-54665080D01*
X53124511Y-54665087D01*
X53261082Y-54721656D01*
X53261087Y-54721658D01*
X53261091Y-54721658D01*
X53261092Y-54721659D01*
X53406079Y-54750500D01*
X53406082Y-54750500D01*
X53553920Y-54750500D01*
X53651462Y-54731096D01*
X53698913Y-54721658D01*
X53835495Y-54665084D01*
X53958416Y-54582951D01*
X54062951Y-54478416D01*
X54145084Y-54355495D01*
X54201658Y-54218913D01*
X54230500Y-54073918D01*
X54230500Y-53926082D01*
X54230500Y-53926079D01*
X54201659Y-53781092D01*
X54201658Y-53781091D01*
X54201658Y-53781087D01*
X54201656Y-53781082D01*
X54145087Y-53644511D01*
X54145080Y-53644498D01*
X54062951Y-53521584D01*
X54062948Y-53521580D01*
X53958419Y-53417051D01*
X53958415Y-53417048D01*
X53835501Y-53334919D01*
X53835488Y-53334912D01*
X53698917Y-53278343D01*
X53698907Y-53278340D01*
X53553920Y-53249500D01*
X53553918Y-53249500D01*
X53406082Y-53249500D01*
X53406080Y-53249500D01*
X53261092Y-53278340D01*
X53261082Y-53278343D01*
X53124511Y-53334912D01*
X53124498Y-53334919D01*
X53001584Y-53417048D01*
X53001580Y-53417051D01*
X52897051Y-53521580D01*
X52897048Y-53521584D01*
X52814919Y-53644498D01*
X52814912Y-53644511D01*
X52758343Y-53781082D01*
X52758340Y-53781092D01*
X52729500Y-53926079D01*
X52729500Y-53926082D01*
X52729500Y-54073918D01*
X52729500Y-54073920D01*
X52729499Y-54073920D01*
X49027500Y-54073920D01*
X49027500Y-52073920D01*
X52729499Y-52073920D01*
X52758340Y-52218907D01*
X52758343Y-52218917D01*
X52814912Y-52355488D01*
X52814919Y-52355501D01*
X52897048Y-52478415D01*
X52897051Y-52478419D01*
X53001580Y-52582948D01*
X53001584Y-52582951D01*
X53124498Y-52665080D01*
X53124511Y-52665087D01*
X53261082Y-52721656D01*
X53261087Y-52721658D01*
X53261091Y-52721658D01*
X53261092Y-52721659D01*
X53406079Y-52750500D01*
X53406082Y-52750500D01*
X53553920Y-52750500D01*
X53651462Y-52731096D01*
X53698913Y-52721658D01*
X53835495Y-52665084D01*
X53958416Y-52582951D01*
X53985187Y-52556179D01*
X54046508Y-52522695D01*
X54116200Y-52527679D01*
X54172134Y-52569549D01*
X54194485Y-52619669D01*
X54226410Y-52780161D01*
X54226413Y-52780171D01*
X54298814Y-52954965D01*
X54298816Y-52954968D01*
X54403927Y-53112278D01*
X54403933Y-53112286D01*
X54537713Y-53246066D01*
X54537721Y-53246072D01*
X54695031Y-53351183D01*
X54695034Y-53351185D01*
X54854044Y-53417048D01*
X54869833Y-53423588D01*
X54869837Y-53423588D01*
X54869838Y-53423589D01*
X55055396Y-53460500D01*
X55055399Y-53460500D01*
X55244603Y-53460500D01*
X55369442Y-53435667D01*
X55430167Y-53423588D01*
X55604967Y-53351184D01*
X55762283Y-53246069D01*
X55896069Y-53112283D01*
X56001184Y-52954967D01*
X56073588Y-52780167D01*
X56110500Y-52594601D01*
X56110500Y-52405399D01*
X56110500Y-52405396D01*
X56073589Y-52219838D01*
X56073588Y-52219837D01*
X56073588Y-52219833D01*
X56073207Y-52218913D01*
X56001185Y-52045034D01*
X56001183Y-52045031D01*
X55896072Y-51887721D01*
X55896066Y-51887713D01*
X55762286Y-51753933D01*
X55762278Y-51753927D01*
X55604968Y-51648816D01*
X55604965Y-51648814D01*
X55430171Y-51576413D01*
X55430161Y-51576410D01*
X55244603Y-51539500D01*
X55244601Y-51539500D01*
X55055399Y-51539500D01*
X55055397Y-51539500D01*
X54869838Y-51576410D01*
X54869828Y-51576413D01*
X54695034Y-51648814D01*
X54695031Y-51648816D01*
X54537721Y-51753927D01*
X54537718Y-51753929D01*
X54416948Y-51874699D01*
X54355625Y-51908183D01*
X54285933Y-51903199D01*
X54230000Y-51861327D01*
X54207650Y-51811208D01*
X54201659Y-51781094D01*
X54201659Y-51781092D01*
X54201658Y-51781087D01*
X54201656Y-51781082D01*
X54145087Y-51644511D01*
X54145080Y-51644498D01*
X54062951Y-51521584D01*
X54062948Y-51521580D01*
X53958419Y-51417051D01*
X53958415Y-51417048D01*
X53835501Y-51334919D01*
X53835488Y-51334912D01*
X53698917Y-51278343D01*
X53698907Y-51278340D01*
X53553920Y-51249500D01*
X53553918Y-51249500D01*
X53406082Y-51249500D01*
X53406080Y-51249500D01*
X53261092Y-51278340D01*
X53261082Y-51278343D01*
X53124511Y-51334912D01*
X53124498Y-51334919D01*
X53001584Y-51417048D01*
X53001580Y-51417051D01*
X52897051Y-51521580D01*
X52897048Y-51521584D01*
X52814919Y-51644498D01*
X52814912Y-51644511D01*
X52758343Y-51781082D01*
X52758340Y-51781092D01*
X52729500Y-51926079D01*
X52729500Y-51926082D01*
X52729500Y-52073918D01*
X52729500Y-52073920D01*
X52729499Y-52073920D01*
X49027500Y-52073920D01*
X49027500Y-50896099D01*
X94499500Y-50896099D01*
X94499500Y-51303901D01*
X94502555Y-51334916D01*
X94539470Y-51709728D01*
X94539473Y-51709745D01*
X94619024Y-52109684D01*
X94619027Y-52109695D01*
X94737409Y-52499948D01*
X94893465Y-52876700D01*
X94893472Y-52876714D01*
X95085697Y-53236345D01*
X95085708Y-53236363D01*
X95312261Y-53575422D01*
X95312271Y-53575436D01*
X95570978Y-53890672D01*
X95859327Y-54179021D01*
X95859332Y-54179025D01*
X95859333Y-54179026D01*
X96174569Y-54437733D01*
X96513643Y-54664296D01*
X96873293Y-54856532D01*
X97250053Y-55012591D01*
X97640295Y-55130970D01*
X97640301Y-55130971D01*
X97640304Y-55130972D01*
X97640315Y-55130975D01*
X97891111Y-55180860D01*
X98040261Y-55210528D01*
X98446099Y-55250500D01*
X98446102Y-55250500D01*
X98853898Y-55250500D01*
X98853901Y-55250500D01*
X99259739Y-55210528D01*
X99457711Y-55171148D01*
X99659684Y-55130975D01*
X99659695Y-55130972D01*
X99659695Y-55130971D01*
X99659705Y-55130970D01*
X100049947Y-55012591D01*
X100426707Y-54856532D01*
X100786357Y-54664296D01*
X101125431Y-54437733D01*
X101440667Y-54179026D01*
X101729026Y-53890667D01*
X101987733Y-53575431D01*
X102214296Y-53236357D01*
X102406532Y-52876707D01*
X102562591Y-52499947D01*
X102680970Y-52109705D01*
X102680972Y-52109695D01*
X102680975Y-52109684D01*
X102721148Y-51907711D01*
X102760528Y-51709739D01*
X102800500Y-51303901D01*
X102800500Y-50896099D01*
X102760528Y-50490261D01*
X102754332Y-50459110D01*
X102754332Y-50459108D01*
X105049500Y-50459108D01*
X105049500Y-50590891D01*
X105083608Y-50718187D01*
X105116554Y-50775250D01*
X105149500Y-50832314D01*
X105242686Y-50925500D01*
X105356814Y-50991392D01*
X105484108Y-51025500D01*
X105484110Y-51025500D01*
X105615890Y-51025500D01*
X105615892Y-51025500D01*
X105743186Y-50991392D01*
X105857314Y-50925500D01*
X105950500Y-50832314D01*
X106016392Y-50718186D01*
X106050500Y-50590892D01*
X106050500Y-50459108D01*
X106016392Y-50331814D01*
X105950500Y-50217686D01*
X105857314Y-50124500D01*
X105798069Y-50090295D01*
X105743187Y-50058608D01*
X105679539Y-50041554D01*
X105615892Y-50024500D01*
X105484108Y-50024500D01*
X105356812Y-50058608D01*
X105242686Y-50124500D01*
X105242683Y-50124502D01*
X105149502Y-50217683D01*
X105149500Y-50217686D01*
X105083608Y-50331812D01*
X105049500Y-50459108D01*
X102754332Y-50459108D01*
X102680975Y-50090315D01*
X102680972Y-50090304D01*
X102680971Y-50090301D01*
X102680970Y-50090295D01*
X102562591Y-49700053D01*
X102406532Y-49323293D01*
X102214296Y-48963643D01*
X101987733Y-48624569D01*
X101729026Y-48309333D01*
X101729025Y-48309332D01*
X101729021Y-48309327D01*
X101440672Y-48020978D01*
X101125436Y-47762271D01*
X101125435Y-47762270D01*
X101125431Y-47762267D01*
X100786357Y-47535704D01*
X100786352Y-47535701D01*
X100786345Y-47535697D01*
X100536792Y-47402309D01*
X100426707Y-47343468D01*
X100406051Y-47334912D01*
X100049948Y-47187409D01*
X99659695Y-47069027D01*
X99659684Y-47069024D01*
X99259745Y-46989473D01*
X99259728Y-46989470D01*
X98952831Y-46959243D01*
X98853901Y-46949500D01*
X98446099Y-46949500D01*
X98354603Y-46958511D01*
X98040271Y-46989470D01*
X98040254Y-46989473D01*
X97640315Y-47069024D01*
X97640304Y-47069027D01*
X97250051Y-47187409D01*
X96873299Y-47343465D01*
X96873285Y-47343472D01*
X96513654Y-47535697D01*
X96513636Y-47535708D01*
X96174577Y-47762261D01*
X96174563Y-47762271D01*
X95859327Y-48020978D01*
X95570978Y-48309327D01*
X95312271Y-48624563D01*
X95312261Y-48624577D01*
X95085708Y-48963636D01*
X95085697Y-48963654D01*
X94893472Y-49323285D01*
X94893465Y-49323299D01*
X94737409Y-49700051D01*
X94619027Y-50090304D01*
X94619024Y-50090315D01*
X94539473Y-50490254D01*
X94539470Y-50490271D01*
X94517023Y-50718186D01*
X94499500Y-50896099D01*
X49027500Y-50896099D01*
X49027500Y-50073920D01*
X52729499Y-50073920D01*
X52758340Y-50218907D01*
X52758343Y-50218917D01*
X52814912Y-50355488D01*
X52814919Y-50355501D01*
X52897048Y-50478415D01*
X52897051Y-50478419D01*
X53001580Y-50582948D01*
X53001584Y-50582951D01*
X53124498Y-50665080D01*
X53124511Y-50665087D01*
X53252705Y-50718186D01*
X53261087Y-50721658D01*
X53261091Y-50721658D01*
X53261092Y-50721659D01*
X53406079Y-50750500D01*
X53406082Y-50750500D01*
X53553920Y-50750500D01*
X53651462Y-50731096D01*
X53698913Y-50721658D01*
X53835495Y-50665084D01*
X53958416Y-50582951D01*
X54062951Y-50478416D01*
X54145084Y-50355495D01*
X54201658Y-50218913D01*
X54207650Y-50188791D01*
X54240034Y-50126880D01*
X54300750Y-50092306D01*
X54370519Y-50096045D01*
X54416948Y-50125301D01*
X54537713Y-50246066D01*
X54537721Y-50246072D01*
X54695031Y-50351183D01*
X54695034Y-50351185D01*
X54869828Y-50423586D01*
X54869833Y-50423588D01*
X54869837Y-50423588D01*
X54869838Y-50423589D01*
X55055396Y-50460500D01*
X55055399Y-50460500D01*
X55244603Y-50460500D01*
X55369442Y-50435667D01*
X55430167Y-50423588D01*
X55594545Y-50355501D01*
X55604965Y-50351185D01*
X55604968Y-50351183D01*
X55633959Y-50331812D01*
X55762283Y-50246069D01*
X55896069Y-50112283D01*
X56001184Y-49954967D01*
X56013149Y-49926082D01*
X56073586Y-49780171D01*
X56073588Y-49780167D01*
X56100572Y-49644511D01*
X56110500Y-49594603D01*
X56110500Y-49405396D01*
X56073589Y-49219838D01*
X56073588Y-49219837D01*
X56073588Y-49219833D01*
X56073586Y-49219828D01*
X56001185Y-49045034D01*
X56001183Y-49045031D01*
X55896072Y-48887721D01*
X55896066Y-48887713D01*
X55762286Y-48753933D01*
X55762278Y-48753927D01*
X55604968Y-48648816D01*
X55604965Y-48648814D01*
X55430171Y-48576413D01*
X55430161Y-48576410D01*
X55244603Y-48539500D01*
X55244601Y-48539500D01*
X55055399Y-48539500D01*
X55055397Y-48539500D01*
X54869838Y-48576410D01*
X54869828Y-48576413D01*
X54695034Y-48648814D01*
X54695031Y-48648816D01*
X54537721Y-48753927D01*
X54537713Y-48753933D01*
X54403933Y-48887713D01*
X54403927Y-48887721D01*
X54298816Y-49045031D01*
X54298814Y-49045034D01*
X54226413Y-49219828D01*
X54226411Y-49219837D01*
X54194485Y-49380331D01*
X54162099Y-49442241D01*
X54101383Y-49476815D01*
X54031614Y-49473074D01*
X53985187Y-49443819D01*
X53958419Y-49417051D01*
X53958415Y-49417048D01*
X53835501Y-49334919D01*
X53835488Y-49334912D01*
X53698917Y-49278343D01*
X53698907Y-49278340D01*
X53553920Y-49249500D01*
X53553918Y-49249500D01*
X53406082Y-49249500D01*
X53406080Y-49249500D01*
X53261092Y-49278340D01*
X53261082Y-49278343D01*
X53124511Y-49334912D01*
X53124498Y-49334919D01*
X53001584Y-49417048D01*
X53001580Y-49417051D01*
X52897051Y-49521580D01*
X52897048Y-49521584D01*
X52814919Y-49644498D01*
X52814912Y-49644511D01*
X52758343Y-49781082D01*
X52758340Y-49781092D01*
X52729500Y-49926079D01*
X52729500Y-49926082D01*
X52729500Y-50073918D01*
X52729500Y-50073920D01*
X52729499Y-50073920D01*
X49027500Y-50073920D01*
X49027500Y-48073920D01*
X52729499Y-48073920D01*
X52758340Y-48218907D01*
X52758343Y-48218917D01*
X52814912Y-48355488D01*
X52814919Y-48355501D01*
X52897048Y-48478415D01*
X52897051Y-48478419D01*
X53001580Y-48582948D01*
X53001584Y-48582951D01*
X53124498Y-48665080D01*
X53124511Y-48665087D01*
X53261082Y-48721656D01*
X53261087Y-48721658D01*
X53261091Y-48721658D01*
X53261092Y-48721659D01*
X53406079Y-48750500D01*
X53406082Y-48750500D01*
X53553920Y-48750500D01*
X53651462Y-48731096D01*
X53698913Y-48721658D01*
X53835495Y-48665084D01*
X53958416Y-48582951D01*
X54062951Y-48478416D01*
X54145084Y-48355495D01*
X54201658Y-48218913D01*
X54230500Y-48073918D01*
X54230500Y-47926082D01*
X54230500Y-47926079D01*
X54201659Y-47781092D01*
X54201658Y-47781091D01*
X54201658Y-47781087D01*
X54193860Y-47762261D01*
X54145087Y-47644511D01*
X54145080Y-47644498D01*
X54062951Y-47521584D01*
X54062948Y-47521580D01*
X53958419Y-47417051D01*
X53958415Y-47417048D01*
X53835501Y-47334919D01*
X53835488Y-47334912D01*
X53698917Y-47278343D01*
X53698907Y-47278340D01*
X53553920Y-47249500D01*
X53553918Y-47249500D01*
X53406082Y-47249500D01*
X53406080Y-47249500D01*
X53261092Y-47278340D01*
X53261082Y-47278343D01*
X53124511Y-47334912D01*
X53124498Y-47334919D01*
X53001584Y-47417048D01*
X53001580Y-47417051D01*
X52897051Y-47521580D01*
X52897048Y-47521584D01*
X52814919Y-47644498D01*
X52814912Y-47644511D01*
X52758343Y-47781082D01*
X52758340Y-47781092D01*
X52729500Y-47926079D01*
X52729500Y-47926082D01*
X52729500Y-48073918D01*
X52729500Y-48073920D01*
X52729499Y-48073920D01*
X49027500Y-48073920D01*
X49027500Y-46594603D01*
X54189499Y-46594603D01*
X54226410Y-46780161D01*
X54226413Y-46780171D01*
X54298814Y-46954965D01*
X54298816Y-46954968D01*
X54403927Y-47112278D01*
X54403933Y-47112286D01*
X54537713Y-47246066D01*
X54537721Y-47246072D01*
X54695031Y-47351183D01*
X54695034Y-47351185D01*
X54854044Y-47417048D01*
X54869833Y-47423588D01*
X54869837Y-47423588D01*
X54869838Y-47423589D01*
X55055396Y-47460500D01*
X55055399Y-47460500D01*
X55244603Y-47460500D01*
X55369442Y-47435667D01*
X55430167Y-47423588D01*
X55604967Y-47351184D01*
X55762283Y-47246069D01*
X55896069Y-47112283D01*
X56001184Y-46954967D01*
X56003449Y-46949500D01*
X56073586Y-46780171D01*
X56073588Y-46780167D01*
X56110500Y-46594601D01*
X56110500Y-46405399D01*
X56110500Y-46405396D01*
X56073589Y-46219838D01*
X56073588Y-46219837D01*
X56073588Y-46219833D01*
X56073586Y-46219828D01*
X56001185Y-46045034D01*
X56001183Y-46045031D01*
X55896072Y-45887721D01*
X55896066Y-45887713D01*
X55762286Y-45753933D01*
X55762278Y-45753927D01*
X55604968Y-45648816D01*
X55604965Y-45648814D01*
X55430171Y-45576413D01*
X55430161Y-45576410D01*
X55244603Y-45539500D01*
X55244601Y-45539500D01*
X55055399Y-45539500D01*
X55055397Y-45539500D01*
X54869838Y-45576410D01*
X54869828Y-45576413D01*
X54695034Y-45648814D01*
X54695031Y-45648816D01*
X54537721Y-45753927D01*
X54537713Y-45753933D01*
X54403933Y-45887713D01*
X54403927Y-45887721D01*
X54298816Y-46045031D01*
X54298814Y-46045034D01*
X54226413Y-46219828D01*
X54226410Y-46219838D01*
X54189500Y-46405396D01*
X54189500Y-46405399D01*
X54189500Y-46594601D01*
X54189500Y-46594603D01*
X54189499Y-46594603D01*
X49027500Y-46594603D01*
X49027500Y-44574626D01*
X49047185Y-44507587D01*
X49099989Y-44461832D01*
X49169147Y-44451888D01*
X49232703Y-44480913D01*
X49269885Y-44537736D01*
X49287335Y-44593736D01*
X49376601Y-44741400D01*
X49498599Y-44863398D01*
X49498601Y-44863399D01*
X49498603Y-44863401D01*
X49646260Y-44952663D01*
X49810988Y-45003994D01*
X49882581Y-45010500D01*
X51777418Y-45010499D01*
X51777425Y-45010499D01*
X51849007Y-45003995D01*
X51849010Y-45003994D01*
X51849012Y-45003994D01*
X52013740Y-44952663D01*
X52161397Y-44863401D01*
X52283401Y-44741397D01*
X52372663Y-44593740D01*
X52423994Y-44429012D01*
X52430500Y-44357419D01*
X52430499Y-44242582D01*
X52426673Y-44200474D01*
X52423995Y-44170992D01*
X52423993Y-44170984D01*
X52378619Y-44025374D01*
X52372663Y-44006260D01*
X52283401Y-43858603D01*
X52283399Y-43858601D01*
X52283398Y-43858599D01*
X52161400Y-43736601D01*
X52013740Y-43647337D01*
X52013737Y-43647336D01*
X51849012Y-43596006D01*
X51849010Y-43596005D01*
X51849008Y-43596005D01*
X51833580Y-43594603D01*
X54189499Y-43594603D01*
X54226410Y-43780161D01*
X54226413Y-43780171D01*
X54298814Y-43954965D01*
X54298816Y-43954968D01*
X54403927Y-44112278D01*
X54403933Y-44112286D01*
X54537713Y-44246066D01*
X54537721Y-44246072D01*
X54695031Y-44351183D01*
X54695034Y-44351185D01*
X54869828Y-44423586D01*
X54869833Y-44423588D01*
X54869837Y-44423588D01*
X54869838Y-44423589D01*
X55055396Y-44460500D01*
X55055399Y-44460500D01*
X55244603Y-44460500D01*
X55402919Y-44429008D01*
X55430167Y-44423588D01*
X55546700Y-44375318D01*
X55604965Y-44351185D01*
X55604968Y-44351183D01*
X55762283Y-44246069D01*
X55896069Y-44112283D01*
X56001184Y-43954967D01*
X56073588Y-43780167D01*
X56110500Y-43594601D01*
X56110500Y-43405399D01*
X56110500Y-43405396D01*
X56073589Y-43219838D01*
X56073588Y-43219837D01*
X56073588Y-43219833D01*
X56073586Y-43219828D01*
X56001185Y-43045034D01*
X56001183Y-43045031D01*
X55896072Y-42887721D01*
X55896066Y-42887713D01*
X55762286Y-42753933D01*
X55762278Y-42753927D01*
X55604968Y-42648816D01*
X55604965Y-42648814D01*
X55430171Y-42576413D01*
X55430161Y-42576410D01*
X55244603Y-42539500D01*
X55244601Y-42539500D01*
X55055399Y-42539500D01*
X55055397Y-42539500D01*
X54869838Y-42576410D01*
X54869828Y-42576413D01*
X54695034Y-42648814D01*
X54695031Y-42648816D01*
X54537721Y-42753927D01*
X54537713Y-42753933D01*
X54403933Y-42887713D01*
X54403927Y-42887721D01*
X54298816Y-43045031D01*
X54298814Y-43045034D01*
X54226413Y-43219828D01*
X54226410Y-43219838D01*
X54189500Y-43405396D01*
X54189500Y-43405399D01*
X54189500Y-43594601D01*
X54189500Y-43594603D01*
X54189499Y-43594603D01*
X51833580Y-43594603D01*
X51798884Y-43591450D01*
X51777419Y-43589500D01*
X51777416Y-43589500D01*
X49882573Y-43589500D01*
X49810992Y-43596004D01*
X49810984Y-43596006D01*
X49646262Y-43647336D01*
X49498599Y-43736601D01*
X49376601Y-43858599D01*
X49287335Y-44006263D01*
X49269885Y-44062264D01*
X49231148Y-44120412D01*
X49167122Y-44148386D01*
X49098137Y-44137304D01*
X49046094Y-44090686D01*
X49027500Y-44025374D01*
X49027500Y-40587017D01*
X49047185Y-40519978D01*
X49063819Y-40499336D01*
X50699336Y-38863819D01*
X50760659Y-38830334D01*
X50787017Y-38827500D01*
X53968324Y-38827500D01*
X54035363Y-38847185D01*
X54056005Y-38863819D01*
X54092686Y-38900500D01*
X54206814Y-38966392D01*
X54334108Y-39000500D01*
X54334110Y-39000500D01*
X54465890Y-39000500D01*
X54465892Y-39000500D01*
X54593186Y-38966392D01*
X54707314Y-38900500D01*
X54800500Y-38807314D01*
X54866392Y-38693186D01*
X54900500Y-38565892D01*
X54900500Y-38434108D01*
X54866392Y-38306814D01*
X54800500Y-38192686D01*
X54707314Y-38099500D01*
X54634641Y-38057542D01*
X54593187Y-38033608D01*
X54529539Y-38016554D01*
X54465892Y-37999500D01*
X54334108Y-37999500D01*
X54206812Y-38033608D01*
X54092686Y-38099500D01*
X54092683Y-38099502D01*
X54056005Y-38136181D01*
X53994682Y-38169666D01*
X53968324Y-38172500D01*
X50643116Y-38172500D01*
X50556884Y-38172500D01*
X50501354Y-38187379D01*
X50473589Y-38194819D01*
X50398911Y-38237934D01*
X50398908Y-38237936D01*
X48712181Y-39924664D01*
X48650858Y-39958149D01*
X48581166Y-39953165D01*
X48525233Y-39911293D01*
X48500816Y-39845829D01*
X48500500Y-39836983D01*
X48500500Y-39002706D01*
X48500618Y-38997297D01*
X48504844Y-38900497D01*
X48517386Y-38613226D01*
X48518326Y-38602495D01*
X48568152Y-38224025D01*
X48570025Y-38213405D01*
X48652649Y-37840709D01*
X48655440Y-37830295D01*
X48770230Y-37466227D01*
X48773917Y-37456095D01*
X48920003Y-37103412D01*
X48924561Y-37093638D01*
X49100822Y-36755045D01*
X49106217Y-36745700D01*
X49304722Y-36434108D01*
X51039500Y-36434108D01*
X51039500Y-36565891D01*
X51073608Y-36693187D01*
X51103921Y-36745689D01*
X51139500Y-36807314D01*
X51232686Y-36900500D01*
X51346814Y-36966392D01*
X51474108Y-37000500D01*
X51474110Y-37000500D01*
X51605890Y-37000500D01*
X51605892Y-37000500D01*
X51733186Y-36966392D01*
X51847314Y-36900500D01*
X51940500Y-36807314D01*
X52006392Y-36693186D01*
X52040500Y-36565892D01*
X52040500Y-36434108D01*
X52006392Y-36306814D01*
X51940500Y-36192686D01*
X51847314Y-36099500D01*
X51790250Y-36066554D01*
X51733187Y-36033608D01*
X51669539Y-36016554D01*
X51605892Y-35999500D01*
X51474108Y-35999500D01*
X51346812Y-36033608D01*
X51232686Y-36099500D01*
X51232683Y-36099502D01*
X51139502Y-36192683D01*
X51139500Y-36192686D01*
X51073608Y-36306812D01*
X51039500Y-36434108D01*
X49304722Y-36434108D01*
X49311325Y-36423744D01*
X49317515Y-36414905D01*
X49549896Y-36112060D01*
X49556834Y-36103791D01*
X49814726Y-35822352D01*
X49822352Y-35814726D01*
X50103791Y-35556834D01*
X50112060Y-35549896D01*
X50414905Y-35317515D01*
X50423744Y-35311325D01*
X50745700Y-35106217D01*
X50755045Y-35100822D01*
X51093638Y-34924561D01*
X51103412Y-34920003D01*
X51456095Y-34773917D01*
X51466227Y-34770230D01*
X51830295Y-34655440D01*
X51840709Y-34652649D01*
X52213405Y-34570025D01*
X52224025Y-34568152D01*
X52602495Y-34518326D01*
X52613226Y-34517386D01*
X52997297Y-34500617D01*
X53002706Y-34500500D01*
X53065892Y-34500500D01*
X57776000Y-34500500D01*
X57843039Y-34520185D01*
G37*
%TD.AperFunction*%
%TD*%
M02*
