%TF.GenerationSoftware,KiCad,Pcbnew,9.0.3*%
%TF.CreationDate,2025-09-21T09:36:47+10:00*%
%TF.ProjectId,12v-2x6,3132762d-3278-4362-9e6b-696361645f70,1*%
%TF.SameCoordinates,Original*%
%TF.FileFunction,Copper,L1,Top*%
%TF.FilePolarity,Positive*%
%FSLAX46Y46*%
G04 Gerber Fmt 4.6, Leading zero omitted, Abs format (unit mm)*
G04 Created by KiCad (PCBNEW 9.0.3) date 2025-09-21 09:36:47*
%MOMM*%
%LPD*%
G01*
G04 APERTURE LIST*
G04 Aperture macros list*
%AMRoundRect*
0 Rectangle with rounded corners*
0 $1 Rounding radius*
0 $2 $3 $4 $5 $6 $7 $8 $9 X,Y pos of 4 corners*
0 Add a 4 corners polygon primitive as box body*
4,1,4,$2,$3,$4,$5,$6,$7,$8,$9,$2,$3,0*
0 Add four circle primitives for the rounded corners*
1,1,$1+$1,$2,$3*
1,1,$1+$1,$4,$5*
1,1,$1+$1,$6,$7*
1,1,$1+$1,$8,$9*
0 Add four rect primitives between the rounded corners*
20,1,$1+$1,$2,$3,$4,$5,0*
20,1,$1+$1,$4,$5,$6,$7,0*
20,1,$1+$1,$6,$7,$8,$9,0*
20,1,$1+$1,$8,$9,$2,$3,0*%
%AMFreePoly0*
4,1,23,0.500000,-0.750000,0.000000,-0.750000,0.000000,-0.745722,-0.065263,-0.745722,-0.191342,-0.711940,-0.304381,-0.646677,-0.396677,-0.554381,-0.461940,-0.441342,-0.495722,-0.315263,-0.495722,-0.250000,-0.500000,-0.250000,-0.500000,0.250000,-0.495722,0.250000,-0.495722,0.315263,-0.461940,0.441342,-0.396677,0.554381,-0.304381,0.646677,-0.191342,0.711940,-0.065263,0.745722,0.000000,0.745722,
0.000000,0.750000,0.500000,0.750000,0.500000,-0.750000,0.500000,-0.750000,$1*%
%AMFreePoly1*
4,1,23,0.000000,0.745722,0.065263,0.745722,0.191342,0.711940,0.304381,0.646677,0.396677,0.554381,0.461940,0.441342,0.495722,0.315263,0.495722,0.250000,0.500000,0.250000,0.500000,-0.250000,0.495722,-0.250000,0.495722,-0.315263,0.461940,-0.441342,0.396677,-0.554381,0.304381,-0.646677,0.191342,-0.711940,0.065263,-0.745722,0.000000,-0.745722,0.000000,-0.750000,-0.500000,-0.750000,
-0.500000,0.750000,0.000000,0.750000,0.000000,0.745722,0.000000,0.745722,$1*%
G04 Aperture macros list end*
%TA.AperFunction,EtchedComponent*%
%ADD10C,0.000000*%
%TD*%
%TA.AperFunction,SMDPad,CuDef*%
%ADD11RoundRect,0.135000X-0.185000X0.135000X-0.185000X-0.135000X0.185000X-0.135000X0.185000X0.135000X0*%
%TD*%
%TA.AperFunction,SMDPad,CuDef*%
%ADD12RoundRect,0.140000X0.170000X-0.140000X0.170000X0.140000X-0.170000X0.140000X-0.170000X-0.140000X0*%
%TD*%
%TA.AperFunction,SMDPad,CuDef*%
%ADD13RoundRect,0.135000X-0.135000X-0.185000X0.135000X-0.185000X0.135000X0.185000X-0.135000X0.185000X0*%
%TD*%
%TA.AperFunction,SMDPad,CuDef*%
%ADD14RoundRect,0.140000X0.140000X0.170000X-0.140000X0.170000X-0.140000X-0.170000X0.140000X-0.170000X0*%
%TD*%
%TA.AperFunction,SMDPad,CuDef*%
%ADD15RoundRect,0.140000X-0.170000X0.140000X-0.170000X-0.140000X0.170000X-0.140000X0.170000X0.140000X0*%
%TD*%
%TA.AperFunction,ComponentPad*%
%ADD16RoundRect,0.250000X0.625000X-0.350000X0.625000X0.350000X-0.625000X0.350000X-0.625000X-0.350000X0*%
%TD*%
%TA.AperFunction,ComponentPad*%
%ADD17O,1.750000X1.200000*%
%TD*%
%TA.AperFunction,SMDPad,CuDef*%
%ADD18RoundRect,0.075000X0.650000X0.075000X-0.650000X0.075000X-0.650000X-0.075000X0.650000X-0.075000X0*%
%TD*%
%TA.AperFunction,SMDPad,CuDef*%
%ADD19RoundRect,0.225000X0.250000X-0.225000X0.250000X0.225000X-0.250000X0.225000X-0.250000X-0.225000X0*%
%TD*%
%TA.AperFunction,SMDPad,CuDef*%
%ADD20RoundRect,0.225000X0.225000X0.375000X-0.225000X0.375000X-0.225000X-0.375000X0.225000X-0.375000X0*%
%TD*%
%TA.AperFunction,SMDPad,CuDef*%
%ADD21RoundRect,0.087500X-0.250000X-0.087500X0.250000X-0.087500X0.250000X0.087500X-0.250000X0.087500X0*%
%TD*%
%TA.AperFunction,SMDPad,CuDef*%
%ADD22R,2.287000X1.010000*%
%TD*%
%TA.AperFunction,SMDPad,CuDef*%
%ADD23R,0.762000X1.010000*%
%TD*%
%TA.AperFunction,ComponentPad*%
%ADD24R,1.730000X2.030000*%
%TD*%
%TA.AperFunction,ComponentPad*%
%ADD25O,1.730000X2.030000*%
%TD*%
%TA.AperFunction,SMDPad,CuDef*%
%ADD26FreePoly0,180.000000*%
%TD*%
%TA.AperFunction,SMDPad,CuDef*%
%ADD27FreePoly1,180.000000*%
%TD*%
%TA.AperFunction,SMDPad,CuDef*%
%ADD28RoundRect,0.150000X0.150000X-0.512500X0.150000X0.512500X-0.150000X0.512500X-0.150000X-0.512500X0*%
%TD*%
%TA.AperFunction,SMDPad,CuDef*%
%ADD29RoundRect,0.150000X-0.825000X-0.150000X0.825000X-0.150000X0.825000X0.150000X-0.825000X0.150000X0*%
%TD*%
%TA.AperFunction,SMDPad,CuDef*%
%ADD30RoundRect,0.218750X-0.218750X-0.256250X0.218750X-0.256250X0.218750X0.256250X-0.218750X0.256250X0*%
%TD*%
%TA.AperFunction,SMDPad,CuDef*%
%ADD31RoundRect,0.135000X0.185000X-0.135000X0.185000X0.135000X-0.185000X0.135000X-0.185000X-0.135000X0*%
%TD*%
%TA.AperFunction,SMDPad,CuDef*%
%ADD32RoundRect,0.087500X0.087500X-0.250000X0.087500X0.250000X-0.087500X0.250000X-0.087500X-0.250000X0*%
%TD*%
%TA.AperFunction,SMDPad,CuDef*%
%ADD33RoundRect,0.140000X-0.140000X-0.170000X0.140000X-0.170000X0.140000X0.170000X-0.140000X0.170000X0*%
%TD*%
%TA.AperFunction,SMDPad,CuDef*%
%ADD34R,1.000000X1.800000*%
%TD*%
%TA.AperFunction,SMDPad,CuDef*%
%ADD35RoundRect,0.218750X0.256250X-0.218750X0.256250X0.218750X-0.256250X0.218750X-0.256250X-0.218750X0*%
%TD*%
%TA.AperFunction,ComponentPad*%
%ADD36R,1.700000X1.700000*%
%TD*%
%TA.AperFunction,ComponentPad*%
%ADD37C,1.700000*%
%TD*%
%TA.AperFunction,SMDPad,CuDef*%
%ADD38RoundRect,0.087500X-0.087500X0.537500X-0.087500X-0.537500X0.087500X-0.537500X0.087500X0.537500X0*%
%TD*%
%TA.AperFunction,SMDPad,CuDef*%
%ADD39RoundRect,0.200000X0.800000X-0.200000X0.800000X0.200000X-0.800000X0.200000X-0.800000X-0.200000X0*%
%TD*%
%TA.AperFunction,SMDPad,CuDef*%
%ADD40RoundRect,0.200000X-0.400000X-0.200000X0.400000X-0.200000X0.400000X0.200000X-0.400000X0.200000X0*%
%TD*%
%TA.AperFunction,ComponentPad*%
%ADD41C,1.520000*%
%TD*%
%TA.AperFunction,ComponentPad*%
%ADD42RoundRect,0.510000X-0.890000X0.000010X-0.890000X-0.000010X0.890000X-0.000010X0.890000X0.000010X0*%
%TD*%
%TA.AperFunction,ComponentPad*%
%ADD43C,1.100000*%
%TD*%
%TA.AperFunction,SMDPad,CuDef*%
%ADD44RoundRect,0.150000X-0.150000X0.587500X-0.150000X-0.587500X0.150000X-0.587500X0.150000X0.587500X0*%
%TD*%
%TA.AperFunction,SMDPad,CuDef*%
%ADD45RoundRect,0.150000X-0.875000X-0.150000X0.875000X-0.150000X0.875000X0.150000X-0.875000X0.150000X0*%
%TD*%
%TA.AperFunction,SMDPad,CuDef*%
%ADD46RoundRect,0.135000X0.135000X0.185000X-0.135000X0.185000X-0.135000X-0.185000X0.135000X-0.185000X0*%
%TD*%
%TA.AperFunction,SMDPad,CuDef*%
%ADD47R,2.500000X2.500000*%
%TD*%
%TA.AperFunction,SMDPad,CuDef*%
%ADD48RoundRect,0.150000X0.512500X0.150000X-0.512500X0.150000X-0.512500X-0.150000X0.512500X-0.150000X0*%
%TD*%
%TA.AperFunction,SMDPad,CuDef*%
%ADD49R,1.000000X0.800000*%
%TD*%
%TA.AperFunction,SMDPad,CuDef*%
%ADD50R,0.700000X1.500000*%
%TD*%
%TA.AperFunction,SMDPad,CuDef*%
%ADD51RoundRect,0.250000X-0.250000X-0.475000X0.250000X-0.475000X0.250000X0.475000X-0.250000X0.475000X0*%
%TD*%
%TA.AperFunction,SMDPad,CuDef*%
%ADD52R,1.905000X0.640000*%
%TD*%
%TA.AperFunction,SMDPad,CuDef*%
%ADD53RoundRect,0.225000X-0.250000X0.225000X-0.250000X-0.225000X0.250000X-0.225000X0.250000X0.225000X0*%
%TD*%
%TA.AperFunction,SMDPad,CuDef*%
%ADD54RoundRect,0.218750X0.218750X0.256250X-0.218750X0.256250X-0.218750X-0.256250X0.218750X-0.256250X0*%
%TD*%
%TA.AperFunction,SMDPad,CuDef*%
%ADD55RoundRect,0.075000X0.075000X-0.662500X0.075000X0.662500X-0.075000X0.662500X-0.075000X-0.662500X0*%
%TD*%
%TA.AperFunction,SMDPad,CuDef*%
%ADD56RoundRect,0.075000X0.662500X-0.075000X0.662500X0.075000X-0.662500X0.075000X-0.662500X-0.075000X0*%
%TD*%
%TA.AperFunction,SMDPad,CuDef*%
%ADD57RoundRect,0.250000X0.750000X0.950000X-0.750000X0.950000X-0.750000X-0.950000X0.750000X-0.950000X0*%
%TD*%
%TA.AperFunction,SMDPad,CuDef*%
%ADD58RoundRect,0.087500X0.250000X0.087500X-0.250000X0.087500X-0.250000X-0.087500X0.250000X-0.087500X0*%
%TD*%
%TA.AperFunction,SMDPad,CuDef*%
%ADD59R,1.450000X0.600000*%
%TD*%
%TA.AperFunction,SMDPad,CuDef*%
%ADD60R,1.450000X0.300000*%
%TD*%
%TA.AperFunction,HeatsinkPad*%
%ADD61O,2.100000X1.000000*%
%TD*%
%TA.AperFunction,HeatsinkPad*%
%ADD62O,1.600000X1.000000*%
%TD*%
%TA.AperFunction,ViaPad*%
%ADD63C,0.600000*%
%TD*%
%TA.AperFunction,Conductor*%
%ADD64C,0.254000*%
%TD*%
%TA.AperFunction,Conductor*%
%ADD65C,0.500000*%
%TD*%
G04 APERTURE END LIST*
D10*
%TA.AperFunction,EtchedComponent*%
%TO.C,JP2*%
G36*
X125450000Y-58700000D02*
G01*
X124950000Y-58700000D01*
X124950000Y-58100000D01*
X125450000Y-58100000D01*
X125450000Y-58700000D01*
G37*
%TD.AperFunction*%
%TA.AperFunction,EtchedComponent*%
%TO.C,JP1*%
G36*
X125450000Y-63900000D02*
G01*
X124950000Y-63900000D01*
X124950000Y-63300000D01*
X125450000Y-63300000D01*
X125450000Y-63900000D01*
G37*
%TD.AperFunction*%
%TD*%
D11*
%TO.P,R13,1*%
%TO.N,/Alert Isolation/ALERT_IN2*%
X93700000Y-74890000D03*
%TO.P,R13,2*%
%TO.N,+5VP*%
X93700000Y-75910000D03*
%TD*%
%TO.P,R34,1*%
%TO.N,/Input Output/LED_GREEN*%
X132728035Y-76209739D03*
%TO.P,R34,2*%
%TO.N,Net-(D2-A)*%
X132728035Y-77229739D03*
%TD*%
D12*
%TO.P,C27,1*%
%TO.N,+5VP*%
X101900000Y-99080000D03*
%TO.P,C27,2*%
%TO.N,GND1*%
X101900000Y-98120000D03*
%TD*%
D13*
%TO.P,R14,1*%
%TO.N,/Current Sensing/CurrentSense3/IN+*%
X84290000Y-72100000D03*
%TO.P,R14,2*%
%TO.N,Net-(U3-Vin+)*%
X85310000Y-72100000D03*
%TD*%
D14*
%TO.P,C20,1*%
%TO.N,/Input Output/RESET*%
X130980000Y-93700000D03*
%TO.P,C20,2*%
%TO.N,GND*%
X130020000Y-93700000D03*
%TD*%
D15*
%TO.P,C40,1*%
%TO.N,+5VP*%
X51800000Y-67520000D03*
%TO.P,C40,2*%
%TO.N,GND1*%
X51800000Y-68480000D03*
%TD*%
D16*
%TO.P,J7,1,Pin_1*%
%TO.N,/Input Output/NTC2*%
X141850000Y-47600000D03*
D17*
%TO.P,J7,2,Pin_2*%
%TO.N,GND*%
X141850000Y-45600000D03*
%TD*%
D18*
%TO.P,U4,1,A1*%
%TO.N,+5VP*%
X92200000Y-66900000D03*
%TO.P,U4,2,A0*%
%TO.N,GND1*%
X92200000Y-66400000D03*
%TO.P,U4,3,~{Alert}*%
%TO.N,/Alert Isolation/ALERT_IN4*%
X92200000Y-65900000D03*
%TO.P,U4,4,SDA*%
%TO.N,/Current Sensing/SDA1*%
X92200000Y-65400000D03*
%TO.P,U4,5,SCL*%
%TO.N,/Current Sensing/SCL1*%
X92200000Y-64900000D03*
%TO.P,U4,6,VS*%
%TO.N,+5VP*%
X87800000Y-64900000D03*
%TO.P,U4,7,GND*%
%TO.N,GND1*%
X87800000Y-65400000D03*
%TO.P,U4,8,Vbus*%
%TO.N,/12V-2x6 Connectors/12V_OUT4*%
X87800000Y-65900000D03*
%TO.P,U4,9,Vin-*%
%TO.N,Net-(U4-Vin-)*%
X87800000Y-66400000D03*
%TO.P,U4,10,Vin+*%
%TO.N,Net-(U4-Vin+)*%
X87800000Y-66900000D03*
%TD*%
D15*
%TO.P,C5,1*%
%TO.N,+5VP*%
X86300000Y-68620000D03*
%TO.P,C5,2*%
%TO.N,GND1*%
X86300000Y-69580000D03*
%TD*%
D19*
%TO.P,C34,1*%
%TO.N,Net-(U13-BP)*%
X132600000Y-56975000D03*
%TO.P,C34,2*%
%TO.N,GND*%
X132600000Y-55425000D03*
%TD*%
D14*
%TO.P,C29,1*%
%TO.N,+5VP*%
X106980000Y-68900000D03*
%TO.P,C29,2*%
%TO.N,GND1*%
X106020000Y-68900000D03*
%TD*%
D11*
%TO.P,R42,1*%
%TO.N,Net-(M2-Tacho)*%
X112150000Y-84740000D03*
%TO.P,R42,2*%
%TO.N,/Input Output/VREF2*%
X112150000Y-85760000D03*
%TD*%
%TO.P,R10,1*%
%TO.N,/Alert Isolation/ALERT_IN1*%
X93700000Y-79290000D03*
%TO.P,R10,2*%
%TO.N,+5VP*%
X93700000Y-80310000D03*
%TD*%
D13*
%TO.P,R9,1*%
%TO.N,/Current Sensing/CurrentSense1/IN-*%
X84290000Y-79900000D03*
%TO.P,R9,2*%
%TO.N,Net-(U1-Vin-)*%
X85310000Y-79900000D03*
%TD*%
D15*
%TO.P,C3,1*%
%TO.N,+5VP*%
X86300000Y-73020000D03*
%TO.P,C3,2*%
%TO.N,GND1*%
X86300000Y-73980000D03*
%TD*%
%TO.P,C9,1*%
%TO.N,+5VP*%
X86300000Y-64220000D03*
%TO.P,C9,2*%
%TO.N,GND1*%
X86300000Y-65180000D03*
%TD*%
D13*
%TO.P,R15,1*%
%TO.N,/Current Sensing/CurrentSense3/IN-*%
X84290000Y-71100000D03*
%TO.P,R15,2*%
%TO.N,Net-(U3-Vin-)*%
X85310000Y-71100000D03*
%TD*%
D20*
%TO.P,D6,1,K*%
%TO.N,+5V*%
X145550000Y-78075000D03*
%TO.P,D6,2,A*%
%TO.N,Net-(BZ1--)*%
X142250000Y-78075000D03*
%TD*%
D15*
%TO.P,C7,1*%
%TO.N,+5VP*%
X86300000Y-59820000D03*
%TO.P,C7,2*%
%TO.N,GND1*%
X86300000Y-60780000D03*
%TD*%
D21*
%TO.P,U17,1,SCL*%
%TO.N,/Current Sensing/SCL1*%
X51387500Y-97500000D03*
%TO.P,U17,2,GND*%
%TO.N,GND1*%
X51387500Y-98000000D03*
%TO.P,U17,3,ALERT*%
%TO.N,unconnected-(U17-ALERT-Pad3)*%
X51387500Y-98500000D03*
%TO.P,U17,4,ADD0*%
%TO.N,/Current Sensing/SDA1*%
X52812500Y-98500000D03*
%TO.P,U17,5,V+*%
%TO.N,+5VP*%
X52812500Y-98000000D03*
%TO.P,U17,6,SDA*%
%TO.N,/Current Sensing/SDA1*%
X52812500Y-97500000D03*
%TD*%
D13*
%TO.P,R24,1*%
%TO.N,/Current Sensing/CurrentSense6/IN-*%
X84290000Y-57900000D03*
%TO.P,R24,2*%
%TO.N,Net-(U6-Vin-)*%
X85310000Y-57900000D03*
%TD*%
D22*
%TO.P,R6,1,1*%
%TO.N,/12V-2x6 Connectors/12V_OUT6*%
X55428000Y-67115000D03*
D23*
%TO.P,R6,2,2*%
%TO.N,/Current Sensing/CurrentSense6/IN-*%
X57334000Y-67115000D03*
%TO.P,R6,3,3*%
%TO.N,/Current Sensing/CurrentSense6/IN+*%
X57334000Y-68885000D03*
D22*
%TO.P,R6,4,4*%
%TO.N,/12V-2x6 Connectors/12V_IN6*%
X55428500Y-68885000D03*
%TD*%
D13*
%TO.P,R51,1*%
%TO.N,GND*%
X137515000Y-75175000D03*
%TO.P,R51,2*%
%TO.N,Net-(Q1-G)*%
X138535000Y-75175000D03*
%TD*%
D11*
%TO.P,R31,1*%
%TO.N,/I2C Isolation/SDA2*%
X113900000Y-73090000D03*
%TO.P,R31,2*%
%TO.N,+5V*%
X113900000Y-74110000D03*
%TD*%
D24*
%TO.P,M2,1,-*%
%TO.N,GND*%
X119900000Y-90500000D03*
D25*
%TO.P,M2,2,+*%
%TO.N,+5V*%
X117360000Y-90500000D03*
%TO.P,M2,3,Tacho*%
%TO.N,Net-(M2-Tacho)*%
X114820000Y-90500000D03*
%TO.P,M2,4,PWM*%
%TO.N,Net-(M2-PWM)*%
X112280000Y-90500000D03*
%TD*%
D26*
%TO.P,JP2,1,A*%
%TO.N,+3.3V*%
X125850000Y-58400000D03*
D27*
%TO.P,JP2,2,B*%
%TO.N,Net-(JP2-B)*%
X124550000Y-58400000D03*
%TD*%
D12*
%TO.P,C26,1*%
%TO.N,+5V*%
X116100000Y-96480000D03*
%TO.P,C26,2*%
%TO.N,GND*%
X116100000Y-95520000D03*
%TD*%
D28*
%TO.P,U13,1,IN*%
%TO.N,+5V*%
X130850000Y-60937500D03*
%TO.P,U13,2,GND*%
%TO.N,GND*%
X131800000Y-60937500D03*
%TO.P,U13,3,EN*%
%TO.N,+5V*%
X132750000Y-60937500D03*
%TO.P,U13,4,BP*%
%TO.N,Net-(U13-BP)*%
X132750000Y-58662500D03*
%TO.P,U13,5,OUT*%
%TO.N,+3.3V*%
X130850000Y-58662500D03*
%TD*%
D22*
%TO.P,R3,1,1*%
%TO.N,/12V-2x6 Connectors/12V_OUT3*%
X67428000Y-67115000D03*
D23*
%TO.P,R3,2,2*%
%TO.N,/Current Sensing/CurrentSense3/IN-*%
X69334000Y-67115000D03*
%TO.P,R3,3,3*%
%TO.N,/Current Sensing/CurrentSense3/IN+*%
X69334000Y-68885000D03*
D22*
%TO.P,R3,4,4*%
%TO.N,/12V-2x6 Connectors/12V_IN3*%
X67428500Y-68885000D03*
%TD*%
D29*
%TO.P,U11,1,VCC1*%
%TO.N,+5VP*%
X106525000Y-70495000D03*
%TO.P,U11,2,SDA1*%
%TO.N,/Current Sensing/SCL1*%
X106525000Y-71765000D03*
%TO.P,U11,3,SCL1*%
%TO.N,/Current Sensing/SDA1*%
X106525000Y-73035000D03*
%TO.P,U11,4,GND1*%
%TO.N,GND1*%
X106525000Y-74305000D03*
%TO.P,U11,5,GND2*%
%TO.N,GND*%
X111475000Y-74305000D03*
%TO.P,U11,6,SCL2*%
%TO.N,/I2C Isolation/SDA2*%
X111475000Y-73035000D03*
%TO.P,U11,7,SDA2*%
%TO.N,/I2C Isolation/SCL2*%
X111475000Y-71765000D03*
%TO.P,U11,8,VCC2*%
%TO.N,+5V*%
X111475000Y-70495000D03*
%TD*%
D13*
%TO.P,R20,1*%
%TO.N,/Current Sensing/CurrentSense5/IN+*%
X84290000Y-63300000D03*
%TO.P,R20,2*%
%TO.N,Net-(U5-Vin+)*%
X85310000Y-63300000D03*
%TD*%
D11*
%TO.P,R36,1*%
%TO.N,/Current Sensing/SDA1*%
X104100000Y-73090000D03*
%TO.P,R36,2*%
%TO.N,+5VP*%
X104100000Y-74110000D03*
%TD*%
D30*
%TO.P,D5,1,K*%
%TO.N,GND*%
X119212500Y-58400000D03*
%TO.P,D5,2,A*%
%TO.N,Net-(D5-A)*%
X120787500Y-58400000D03*
%TD*%
D31*
%TO.P,R45,1*%
%TO.N,/Input Output/FAN_PWM*%
X111150000Y-78110000D03*
%TO.P,R45,2*%
%TO.N,+3.3V*%
X111150000Y-77090000D03*
%TD*%
D22*
%TO.P,R2,1,1*%
%TO.N,/12V-2x6 Connectors/12V_OUT2*%
X71428000Y-67115000D03*
D23*
%TO.P,R2,2,2*%
%TO.N,/Current Sensing/CurrentSense2/IN-*%
X73334000Y-67115000D03*
%TO.P,R2,3,3*%
%TO.N,/Current Sensing/CurrentSense2/IN+*%
X73334000Y-68885000D03*
D22*
%TO.P,R2,4,4*%
%TO.N,/12V-2x6 Connectors/12V_IN2*%
X71428500Y-68885000D03*
%TD*%
D32*
%TO.P,U16,1,SCL*%
%TO.N,/Current Sensing/SCL1*%
X49800000Y-68712500D03*
%TO.P,U16,2,GND*%
%TO.N,GND1*%
X50300000Y-68712500D03*
%TO.P,U16,3,ALERT*%
%TO.N,unconnected-(U16-ALERT-Pad3)*%
X50800000Y-68712500D03*
%TO.P,U16,4,ADD0*%
%TO.N,GND1*%
X50800000Y-67287500D03*
%TO.P,U16,5,V+*%
%TO.N,+5VP*%
X50300000Y-67287500D03*
%TO.P,U16,6,SDA*%
%TO.N,/Current Sensing/SDA1*%
X49800000Y-67287500D03*
%TD*%
D31*
%TO.P,R44,1*%
%TO.N,/Input Output/FAN_TACHO*%
X112150000Y-78110000D03*
%TO.P,R44,2*%
%TO.N,+3.3V*%
X112150000Y-77090000D03*
%TD*%
D11*
%TO.P,R40,1*%
%TO.N,/Input Output/NTC2*%
X139500000Y-48590000D03*
%TO.P,R40,2*%
%TO.N,+3.3V*%
X139500000Y-49610000D03*
%TD*%
D33*
%TO.P,C15,1*%
%TO.N,+3.3V*%
X119520000Y-67100000D03*
%TO.P,C15,2*%
%TO.N,GND*%
X120480000Y-67100000D03*
%TD*%
D13*
%TO.P,R11,1*%
%TO.N,/Current Sensing/CurrentSense2/IN+*%
X84290000Y-76500000D03*
%TO.P,R11,2*%
%TO.N,Net-(U2-Vin+)*%
X85310000Y-76500000D03*
%TD*%
D31*
%TO.P,R32,1*%
%TO.N,/I2C Isolation/SCL2*%
X113900000Y-71810000D03*
%TO.P,R32,2*%
%TO.N,+5V*%
X113900000Y-70790000D03*
%TD*%
D34*
%TO.P,Y2,1,1*%
%TO.N,Net-(C24-Pad2)*%
X118250000Y-80100000D03*
%TO.P,Y2,2,2*%
%TO.N,Net-(U7-PC14)*%
X115750000Y-80100000D03*
%TD*%
D11*
%TO.P,R35,1*%
%TO.N,/Input Output/LED_BLUE*%
X131028035Y-76209739D03*
%TO.P,R35,2*%
%TO.N,Net-(D3-A)*%
X131028035Y-77229739D03*
%TD*%
D15*
%TO.P,C36,1*%
%TO.N,/Input Output/VREF2*%
X113150000Y-84770000D03*
%TO.P,C36,2*%
%TO.N,GND*%
X113150000Y-85730000D03*
%TD*%
D35*
%TO.P,D1,1,K*%
%TO.N,GND*%
X134428035Y-80007239D03*
%TO.P,D1,2,A*%
%TO.N,Net-(D1-A)*%
X134428035Y-78432239D03*
%TD*%
D36*
%TO.P,J8,1,Pin_1*%
%TO.N,+3.3V*%
X112700000Y-36830000D03*
D37*
%TO.P,J8,2,Pin_2*%
%TO.N,/Input Output/RX*%
X112700000Y-39370000D03*
%TO.P,J8,3,Pin_3*%
%TO.N,/Input Output/TX*%
X112700000Y-41910000D03*
%TO.P,J8,4,Pin_4*%
%TO.N,GND*%
X112700000Y-44450000D03*
%TD*%
D16*
%TO.P,J6,1,Pin_1*%
%TO.N,/Input Output/NTC1*%
X141850000Y-55550000D03*
D17*
%TO.P,J6,2,Pin_2*%
%TO.N,GND*%
X141850000Y-53550000D03*
%TD*%
D13*
%TO.P,R48,1*%
%TO.N,/Input Output/VERSION*%
X131190000Y-73250000D03*
%TO.P,R48,2*%
%TO.N,+3.3V*%
X132210000Y-73250000D03*
%TD*%
D19*
%TO.P,C25,1*%
%TO.N,+5V*%
X117600000Y-96775000D03*
%TO.P,C25,2*%
%TO.N,GND*%
X117600000Y-95225000D03*
%TD*%
D15*
%TO.P,C1,1*%
%TO.N,+5VP*%
X86300000Y-77420000D03*
%TO.P,C1,2*%
%TO.N,GND1*%
X86300000Y-78380000D03*
%TD*%
D12*
%TO.P,C10,1*%
%TO.N,Net-(U5-Vin+)*%
X86300000Y-63080000D03*
%TO.P,C10,2*%
%TO.N,Net-(U5-Vin-)*%
X86300000Y-62120000D03*
%TD*%
D38*
%TO.P,U14,1,GND*%
%TO.N,GND*%
X112650000Y-79850000D03*
%TO.P,U14,2,VREF1*%
%TO.N,+3.3V*%
X112150000Y-79850000D03*
%TO.P,U14,3,SCL1*%
%TO.N,/Input Output/FAN_TACHO*%
X111650000Y-79850000D03*
%TO.P,U14,4,SDA1*%
%TO.N,/Input Output/FAN_PWM*%
X111150000Y-79850000D03*
%TO.P,U14,5,SDA2*%
%TO.N,Net-(M2-PWM)*%
X111150000Y-82650000D03*
%TO.P,U14,6,SCL2*%
%TO.N,Net-(M2-Tacho)*%
X111650000Y-82650000D03*
%TO.P,U14,7,VREF2*%
%TO.N,/Input Output/VREF2*%
X112150000Y-82650000D03*
%TO.P,U14,8,EN*%
X112650000Y-82650000D03*
%TD*%
D33*
%TO.P,C33,1*%
%TO.N,+5V*%
X130820000Y-62400000D03*
%TO.P,C33,2*%
%TO.N,GND*%
X131780000Y-62400000D03*
%TD*%
D12*
%TO.P,C21,1*%
%TO.N,GND*%
X119400000Y-85130000D03*
%TO.P,C21,2*%
%TO.N,Net-(U7-PD0)*%
X119400000Y-84170000D03*
%TD*%
D31*
%TO.P,R27,1*%
%TO.N,Net-(C22-Pad2)*%
X122000000Y-80810000D03*
%TO.P,R27,2*%
%TO.N,Net-(U7-PD1)*%
X122000000Y-79790000D03*
%TD*%
%TO.P,R37,1*%
%TO.N,/Current Sensing/SCL1*%
X104100000Y-71810000D03*
%TO.P,R37,2*%
%TO.N,+5VP*%
X104100000Y-70790000D03*
%TD*%
D13*
%TO.P,R18,1*%
%TO.N,/Current Sensing/CurrentSense4/IN-*%
X84290000Y-66700000D03*
%TO.P,R18,2*%
%TO.N,Net-(U4-Vin-)*%
X85310000Y-66700000D03*
%TD*%
D33*
%TO.P,C24,1*%
%TO.N,GND*%
X117620000Y-81750000D03*
%TO.P,C24,2*%
%TO.N,Net-(C24-Pad2)*%
X118580000Y-81750000D03*
%TD*%
D31*
%TO.P,R28,1*%
%TO.N,Net-(C24-Pad2)*%
X119500000Y-80810000D03*
%TO.P,R28,2*%
%TO.N,Net-(U7-PC15)*%
X119500000Y-79790000D03*
%TD*%
D11*
%TO.P,R16,1*%
%TO.N,/Alert Isolation/ALERT_IN3*%
X93700000Y-70490000D03*
%TO.P,R16,2*%
%TO.N,+5VP*%
X93700000Y-71510000D03*
%TD*%
D14*
%TO.P,C13,1*%
%TO.N,+3.3V*%
X118280000Y-77100000D03*
%TO.P,C13,2*%
%TO.N,GND*%
X117320000Y-77100000D03*
%TD*%
D36*
%TO.P,J4,1,Pin_1*%
%TO.N,Net-(J4-Pin_1)*%
X119385000Y-44385000D03*
D37*
%TO.P,J4,2,Pin_2*%
%TO.N,Net-(J4-Pin_2)*%
X121925000Y-44385000D03*
%TD*%
D14*
%TO.P,C18,1*%
%TO.N,Net-(U7-VDDA)*%
X124080000Y-79500000D03*
%TO.P,C18,2*%
%TO.N,GND*%
X123120000Y-79500000D03*
%TD*%
D39*
%TO.P,SW1,1,1*%
%TO.N,GND*%
X131500000Y-99100000D03*
%TO.P,SW1,2,2*%
%TO.N,/Input Output/RESET*%
X131500000Y-94900000D03*
%TD*%
D22*
%TO.P,R5,1,1*%
%TO.N,/12V-2x6 Connectors/12V_OUT5*%
X59428000Y-67115000D03*
D23*
%TO.P,R5,2,2*%
%TO.N,/Current Sensing/CurrentSense5/IN-*%
X61334000Y-67115000D03*
%TO.P,R5,3,3*%
%TO.N,/Current Sensing/CurrentSense5/IN+*%
X61334000Y-68885000D03*
D22*
%TO.P,R5,4,4*%
%TO.N,/12V-2x6 Connectors/12V_IN5*%
X59428500Y-68885000D03*
%TD*%
D40*
%TO.P,U9,1*%
%TO.N,Net-(R38-Pad2)*%
X121050000Y-49430000D03*
%TO.P,U9,3*%
%TO.N,GND*%
X121050000Y-51970000D03*
%TO.P,U9,4*%
%TO.N,Net-(J4-Pin_2)*%
X127350000Y-51970000D03*
%TO.P,U9,6*%
%TO.N,Net-(J4-Pin_1)*%
X127350000Y-49430000D03*
%TD*%
D41*
%TO.P,J2,1,+12*%
%TO.N,/12V-2x6 Connectors/12V_OUT6*%
X55150000Y-58500000D03*
%TO.P,J2,2,+12*%
%TO.N,/12V-2x6 Connectors/12V_OUT5*%
X55150000Y-55500000D03*
%TO.P,J2,3,+12*%
%TO.N,/12V-2x6 Connectors/12V_OUT4*%
X55150000Y-52500000D03*
%TO.P,J2,4,+12*%
%TO.N,/12V-2x6 Connectors/12V_OUT3*%
X55150000Y-49500000D03*
%TO.P,J2,5,+12*%
%TO.N,/12V-2x6 Connectors/12V_OUT2*%
X55150000Y-46500000D03*
%TO.P,J2,6,+12*%
%TO.N,/12V-2x6 Connectors/12V_OUT1*%
X55150000Y-43500000D03*
%TO.P,J2,7,GND*%
%TO.N,GND1*%
X58150000Y-58500000D03*
%TO.P,J2,8,GND*%
X58150000Y-55500000D03*
%TO.P,J2,9,GND*%
X58150000Y-52500000D03*
%TO.P,J2,10,GND*%
X58150000Y-49500000D03*
%TO.P,J2,11,GND*%
X58150000Y-46500000D03*
%TO.P,J2,12,GND*%
X58150000Y-43500000D03*
D42*
%TO.P,J2,M1*%
%TO.N,N/C*%
X50830000Y-57700000D03*
%TO.P,J2,M2*%
X50830000Y-44300000D03*
D43*
%TO.P,J2,S1,S1*%
%TO.N,/12V-2x6 Connectors/S1*%
X53480000Y-54000000D03*
%TO.P,J2,S2,S2*%
%TO.N,/12V-2x6 Connectors/S2*%
X53480000Y-52000000D03*
%TO.P,J2,S3,S3*%
%TO.N,/12V-2x6 Connectors/S3*%
X53480000Y-50000000D03*
%TO.P,J2,S4,S4*%
%TO.N,/12V-2x6 Connectors/S4*%
X53480000Y-48000000D03*
%TD*%
D35*
%TO.P,D3,1,K*%
%TO.N,GND*%
X131028035Y-80007239D03*
%TO.P,D3,2,A*%
%TO.N,Net-(D3-A)*%
X131028035Y-78432239D03*
%TD*%
D44*
%TO.P,Q1,1,G*%
%TO.N,Net-(Q1-G)*%
X139550000Y-76737500D03*
%TO.P,Q1,2,S*%
%TO.N,GND*%
X137650000Y-76737500D03*
%TO.P,Q1,3,D*%
%TO.N,Net-(BZ1--)*%
X138600000Y-78612500D03*
%TD*%
D12*
%TO.P,C6,1*%
%TO.N,Net-(U3-Vin+)*%
X86300000Y-71880000D03*
%TO.P,C6,2*%
%TO.N,Net-(U3-Vin-)*%
X86300000Y-70920000D03*
%TD*%
D14*
%TO.P,C32,1*%
%TO.N,+5V*%
X112680000Y-51900000D03*
%TO.P,C32,2*%
%TO.N,GND*%
X111720000Y-51900000D03*
%TD*%
D13*
%TO.P,R8,1*%
%TO.N,/Current Sensing/CurrentSense1/IN+*%
X84290000Y-80900000D03*
%TO.P,R8,2*%
%TO.N,Net-(U1-Vin+)*%
X85310000Y-80900000D03*
%TD*%
D11*
%TO.P,R25,1*%
%TO.N,/Alert Isolation/ALERT_IN6*%
X93700000Y-57290000D03*
%TO.P,R25,2*%
%TO.N,+5VP*%
X93700000Y-58310000D03*
%TD*%
D13*
%TO.P,R49,1*%
%TO.N,GND*%
X129190000Y-73250000D03*
%TO.P,R49,2*%
%TO.N,/Input Output/VERSION*%
X130210000Y-73250000D03*
%TD*%
D12*
%TO.P,C12,1*%
%TO.N,Net-(U6-Vin+)*%
X86300000Y-58680000D03*
%TO.P,C12,2*%
%TO.N,Net-(U6-Vin-)*%
X86300000Y-57720000D03*
%TD*%
D31*
%TO.P,R38,1*%
%TO.N,/Input Output/CASE_SW*%
X119587500Y-51210000D03*
%TO.P,R38,2*%
%TO.N,Net-(R38-Pad2)*%
X119587500Y-50190000D03*
%TD*%
D45*
%TO.P,U12,1,VDD1*%
%TO.N,+5VP*%
X104450000Y-54655000D03*
%TO.P,U12,2,VIA*%
%TO.N,/Alert Isolation/ALERT_IN6*%
X104450000Y-55925000D03*
%TO.P,U12,3,VIB*%
%TO.N,/Alert Isolation/ALERT_IN5*%
X104450000Y-57195000D03*
%TO.P,U12,4,VIC*%
%TO.N,/Alert Isolation/ALERT_IN4*%
X104450000Y-58465000D03*
%TO.P,U12,5,VID*%
%TO.N,/Alert Isolation/ALERT_IN3*%
X104450000Y-59735000D03*
%TO.P,U12,6,VIE*%
%TO.N,/Alert Isolation/ALERT_IN2*%
X104450000Y-61005000D03*
%TO.P,U12,7,VIF*%
%TO.N,/Alert Isolation/ALERT_IN1*%
X104450000Y-62275000D03*
%TO.P,U12,8,GND1*%
%TO.N,GND1*%
X104450000Y-63545000D03*
%TO.P,U12,9,GND2*%
%TO.N,GND*%
X113750000Y-63545000D03*
%TO.P,U12,10,VOF*%
%TO.N,/Alert Isolation/ALERT_OUT1*%
X113750000Y-62275000D03*
%TO.P,U12,11,VOE*%
%TO.N,/Alert Isolation/ALERT_OUT2*%
X113750000Y-61005000D03*
%TO.P,U12,12,VOD*%
%TO.N,/Alert Isolation/ALERT_OUT3*%
X113750000Y-59735000D03*
%TO.P,U12,13,VOC*%
%TO.N,/Alert Isolation/ALERT_OUT4*%
X113750000Y-58465000D03*
%TO.P,U12,14,VOB*%
%TO.N,/Alert Isolation/ALERT_OUT5*%
X113750000Y-57195000D03*
%TO.P,U12,15,VOA*%
%TO.N,/Alert Isolation/ALERT_OUT6*%
X113750000Y-55925000D03*
%TO.P,U12,16,VDD2*%
%TO.N,+5V*%
X113750000Y-54655000D03*
%TD*%
D19*
%TO.P,C28,1*%
%TO.N,+5VP*%
X100400000Y-99375000D03*
%TO.P,C28,2*%
%TO.N,GND1*%
X100400000Y-97825000D03*
%TD*%
D36*
%TO.P,J5,1,Pin_1*%
%TO.N,Net-(J4-Pin_1)*%
X126525000Y-44385000D03*
D37*
%TO.P,J5,2,Pin_2*%
%TO.N,Net-(J4-Pin_2)*%
X129065000Y-44385000D03*
%TD*%
D15*
%TO.P,C11,1*%
%TO.N,+5VP*%
X86300000Y-55420000D03*
%TO.P,C11,2*%
%TO.N,GND1*%
X86300000Y-56380000D03*
%TD*%
D11*
%TO.P,R43,1*%
%TO.N,Net-(M2-PWM)*%
X111150000Y-84740000D03*
%TO.P,R43,2*%
%TO.N,/Input Output/VREF2*%
X111150000Y-85760000D03*
%TD*%
D18*
%TO.P,U3,1,A1*%
%TO.N,GND1*%
X92200000Y-71300000D03*
%TO.P,U3,2,A0*%
%TO.N,/Current Sensing/SDA1*%
X92200000Y-70800000D03*
%TO.P,U3,3,~{Alert}*%
%TO.N,/Alert Isolation/ALERT_IN3*%
X92200000Y-70300000D03*
%TO.P,U3,4,SDA*%
%TO.N,/Current Sensing/SDA1*%
X92200000Y-69800000D03*
%TO.P,U3,5,SCL*%
%TO.N,/Current Sensing/SCL1*%
X92200000Y-69300000D03*
%TO.P,U3,6,VS*%
%TO.N,+5VP*%
X87800000Y-69300000D03*
%TO.P,U3,7,GND*%
%TO.N,GND1*%
X87800000Y-69800000D03*
%TO.P,U3,8,Vbus*%
%TO.N,/12V-2x6 Connectors/12V_OUT3*%
X87800000Y-70300000D03*
%TO.P,U3,9,Vin-*%
%TO.N,Net-(U3-Vin-)*%
X87800000Y-70800000D03*
%TO.P,U3,10,Vin+*%
%TO.N,Net-(U3-Vin+)*%
X87800000Y-71300000D03*
%TD*%
D33*
%TO.P,C31,1*%
%TO.N,+5VP*%
X105545000Y-51875000D03*
%TO.P,C31,2*%
%TO.N,GND1*%
X106505000Y-51875000D03*
%TD*%
D35*
%TO.P,D2,1,K*%
%TO.N,GND*%
X132738035Y-80007239D03*
%TO.P,D2,2,A*%
%TO.N,Net-(D2-A)*%
X132738035Y-78432239D03*
%TD*%
D12*
%TO.P,C4,1*%
%TO.N,Net-(U2-Vin+)*%
X86300000Y-76280000D03*
%TO.P,C4,2*%
%TO.N,Net-(U2-Vin-)*%
X86300000Y-75320000D03*
%TD*%
D18*
%TO.P,U5,1,A1*%
%TO.N,+5VP*%
X92200000Y-62500000D03*
%TO.P,U5,2,A0*%
X92200000Y-62000000D03*
%TO.P,U5,3,~{Alert}*%
%TO.N,/Alert Isolation/ALERT_IN5*%
X92200000Y-61500000D03*
%TO.P,U5,4,SDA*%
%TO.N,/Current Sensing/SDA1*%
X92200000Y-61000000D03*
%TO.P,U5,5,SCL*%
%TO.N,/Current Sensing/SCL1*%
X92200000Y-60500000D03*
%TO.P,U5,6,VS*%
%TO.N,+5VP*%
X87800000Y-60500000D03*
%TO.P,U5,7,GND*%
%TO.N,GND1*%
X87800000Y-61000000D03*
%TO.P,U5,8,Vbus*%
%TO.N,/12V-2x6 Connectors/12V_OUT5*%
X87800000Y-61500000D03*
%TO.P,U5,9,Vin-*%
%TO.N,Net-(U5-Vin-)*%
X87800000Y-62000000D03*
%TO.P,U5,10,Vin+*%
%TO.N,Net-(U5-Vin+)*%
X87800000Y-62500000D03*
%TD*%
%TO.P,U6,1,A1*%
%TO.N,+5VP*%
X92200000Y-58100000D03*
%TO.P,U6,2,A0*%
%TO.N,/Current Sensing/SDA1*%
X92200000Y-57600000D03*
%TO.P,U6,3,~{Alert}*%
%TO.N,/Alert Isolation/ALERT_IN6*%
X92200000Y-57100000D03*
%TO.P,U6,4,SDA*%
%TO.N,/Current Sensing/SDA1*%
X92200000Y-56600000D03*
%TO.P,U6,5,SCL*%
%TO.N,/Current Sensing/SCL1*%
X92200000Y-56100000D03*
%TO.P,U6,6,VS*%
%TO.N,+5VP*%
X87800000Y-56100000D03*
%TO.P,U6,7,GND*%
%TO.N,GND1*%
X87800000Y-56600000D03*
%TO.P,U6,8,Vbus*%
%TO.N,/12V-2x6 Connectors/12V_OUT6*%
X87800000Y-57100000D03*
%TO.P,U6,9,Vin-*%
%TO.N,Net-(U6-Vin-)*%
X87800000Y-57600000D03*
%TO.P,U6,10,Vin+*%
%TO.N,Net-(U6-Vin+)*%
X87800000Y-58100000D03*
%TD*%
D30*
%TO.P,D4,1,K*%
%TO.N,GND*%
X119212500Y-63600000D03*
%TO.P,D4,2,A*%
%TO.N,Net-(D4-A)*%
X120787500Y-63600000D03*
%TD*%
D14*
%TO.P,C41,1*%
%TO.N,+5VP*%
X52580000Y-99500000D03*
%TO.P,C41,2*%
%TO.N,GND1*%
X51620000Y-99500000D03*
%TD*%
D46*
%TO.P,R26,1*%
%TO.N,Net-(SW2-B)*%
X125260000Y-93900000D03*
%TO.P,R26,2*%
%TO.N,/Input Output/BOOT*%
X124240000Y-93900000D03*
%TD*%
D47*
%TO.P,BZ1,1,+*%
%TO.N,+5V*%
X145550000Y-81350000D03*
%TO.P,BZ1,2,-*%
%TO.N,Net-(BZ1--)*%
X138550000Y-81350000D03*
%TO.P,BZ1,3*%
%TO.N,N/C*%
X138550000Y-88350000D03*
%TO.P,BZ1,4*%
X145550000Y-88350000D03*
%TD*%
D13*
%TO.P,R47,1*%
%TO.N,Net-(D5-A)*%
X121990000Y-58400000D03*
%TO.P,R47,2*%
%TO.N,Net-(JP2-B)*%
X123010000Y-58400000D03*
%TD*%
%TO.P,R30,1*%
%TO.N,GND*%
X138090000Y-67800000D03*
%TO.P,R30,2*%
%TO.N,Net-(J3-CC1)*%
X139110000Y-67800000D03*
%TD*%
D22*
%TO.P,R4,1,1*%
%TO.N,/12V-2x6 Connectors/12V_OUT4*%
X63428000Y-67115000D03*
D23*
%TO.P,R4,2,2*%
%TO.N,/Current Sensing/CurrentSense4/IN-*%
X65334000Y-67115000D03*
%TO.P,R4,3,3*%
%TO.N,/Current Sensing/CurrentSense4/IN+*%
X65334000Y-68885000D03*
D22*
%TO.P,R4,4,4*%
%TO.N,/12V-2x6 Connectors/12V_IN4*%
X63428500Y-68885000D03*
%TD*%
D11*
%TO.P,R19,1*%
%TO.N,/Alert Isolation/ALERT_IN4*%
X93700000Y-66090000D03*
%TO.P,R19,2*%
%TO.N,+5VP*%
X93700000Y-67110000D03*
%TD*%
D13*
%TO.P,R21,1*%
%TO.N,/Current Sensing/CurrentSense5/IN-*%
X84290000Y-62300000D03*
%TO.P,R21,2*%
%TO.N,Net-(U5-Vin-)*%
X85310000Y-62300000D03*
%TD*%
D48*
%TO.P,U8,1,I/O1*%
%TO.N,Net-(J3-D--PadA7)*%
X135637500Y-67350000D03*
%TO.P,U8,2,GND*%
%TO.N,GND*%
X135637500Y-66400000D03*
%TO.P,U8,3,I/O2*%
%TO.N,Net-(J3-D+-PadA6)*%
X135637500Y-65450000D03*
%TO.P,U8,4,I/O2*%
%TO.N,/Microcontroller/DP*%
X133362500Y-65450000D03*
%TO.P,U8,5,VBUS*%
%TO.N,+5V*%
X133362500Y-66400000D03*
%TO.P,U8,6,I/O1*%
%TO.N,/Microcontroller/DM*%
X133362500Y-67350000D03*
%TD*%
D49*
%TO.P,SW2,*%
%TO.N,*%
X120850000Y-96220000D03*
X120850000Y-98430000D03*
X128150000Y-96220000D03*
X128150000Y-98430000D03*
D50*
%TO.P,SW2,1,A*%
%TO.N,GND*%
X122250000Y-95570000D03*
%TO.P,SW2,2,B*%
%TO.N,Net-(SW2-B)*%
X125250000Y-95570000D03*
%TO.P,SW2,3,C*%
%TO.N,+3.3V*%
X126750000Y-95570000D03*
%TD*%
D33*
%TO.P,C39,1*%
%TO.N,+5VP*%
X51520000Y-36500000D03*
%TO.P,C39,2*%
%TO.N,GND1*%
X52480000Y-36500000D03*
%TD*%
D51*
%TO.P,C38,1*%
%TO.N,+5V*%
X115850000Y-85300000D03*
%TO.P,C38,2*%
%TO.N,GND*%
X117750000Y-85300000D03*
%TD*%
D52*
%TO.P,U10,1,PDIS*%
%TO.N,GND*%
X114347500Y-99205000D03*
%TO.P,U10,2,GND1*%
X114347500Y-97935000D03*
%TO.P,U10,3,VDDP*%
%TO.N,+5V*%
X114347500Y-96665000D03*
%TO.P,U10,4,GND1*%
%TO.N,GND*%
X114347500Y-95395000D03*
%TO.P,U10,5,GNDISO*%
%TO.N,GND1*%
X103652500Y-95395000D03*
%TO.P,U10,6,VISO*%
%TO.N,+5VP*%
X103652500Y-96665000D03*
%TO.P,U10,7,GNDISO*%
%TO.N,GND1*%
X103652500Y-97935000D03*
%TO.P,U10,8,VSEL*%
%TO.N,+5VP*%
X103652500Y-99205000D03*
%TD*%
D53*
%TO.P,C19,1*%
%TO.N,+3.3V*%
X129700000Y-69725000D03*
%TO.P,C19,2*%
%TO.N,GND*%
X129700000Y-71275000D03*
%TD*%
D13*
%TO.P,R12,1*%
%TO.N,/Current Sensing/CurrentSense2/IN-*%
X84290000Y-75500000D03*
%TO.P,R12,2*%
%TO.N,Net-(U2-Vin-)*%
X85310000Y-75500000D03*
%TD*%
D18*
%TO.P,U1,1,A1*%
%TO.N,GND1*%
X92200000Y-80100000D03*
%TO.P,U1,2,A0*%
X92200000Y-79600000D03*
%TO.P,U1,3,~{Alert}*%
%TO.N,/Alert Isolation/ALERT_IN1*%
X92200000Y-79100000D03*
%TO.P,U1,4,SDA*%
%TO.N,/Current Sensing/SDA1*%
X92200000Y-78600000D03*
%TO.P,U1,5,SCL*%
%TO.N,/Current Sensing/SCL1*%
X92200000Y-78100000D03*
%TO.P,U1,6,VS*%
%TO.N,+5VP*%
X87800000Y-78100000D03*
%TO.P,U1,7,GND*%
%TO.N,GND1*%
X87800000Y-78600000D03*
%TO.P,U1,8,Vbus*%
%TO.N,/12V-2x6 Connectors/12V_OUT1*%
X87800000Y-79100000D03*
%TO.P,U1,9,Vin-*%
%TO.N,Net-(U1-Vin-)*%
X87800000Y-79600000D03*
%TO.P,U1,10,Vin+*%
%TO.N,Net-(U1-Vin+)*%
X87800000Y-80100000D03*
%TD*%
D13*
%TO.P,R7,1*%
%TO.N,/Input Output/RESET*%
X131990000Y-93700000D03*
%TO.P,R7,2*%
%TO.N,+3.3V*%
X133010000Y-93700000D03*
%TD*%
D54*
%TO.P,FB2,1*%
%TO.N,/USB/VBUS*%
X138787500Y-63300000D03*
%TO.P,FB2,2*%
%TO.N,+5V*%
X137212500Y-63300000D03*
%TD*%
D55*
%TO.P,U7,1,VBAT*%
%TO.N,+3.3V*%
X119750000Y-76962500D03*
%TO.P,U7,2,PC13*%
%TO.N,unconnected-(U7-PC13-Pad2)*%
X120250000Y-76962500D03*
%TO.P,U7,3,PC14*%
%TO.N,Net-(U7-PC14)*%
X120750000Y-76962500D03*
%TO.P,U7,4,PC15*%
%TO.N,Net-(U7-PC15)*%
X121250000Y-76962500D03*
%TO.P,U7,5,PD0*%
%TO.N,Net-(U7-PD0)*%
X121750000Y-76962500D03*
%TO.P,U7,6,PD1*%
%TO.N,Net-(U7-PD1)*%
X122250000Y-76962500D03*
%TO.P,U7,7,NRST*%
%TO.N,/Input Output/RESET*%
X122750000Y-76962500D03*
%TO.P,U7,8,VSSA*%
%TO.N,GND*%
X123250000Y-76962500D03*
%TO.P,U7,9,VDDA*%
%TO.N,Net-(U7-VDDA)*%
X123750000Y-76962500D03*
%TO.P,U7,10,PA0*%
%TO.N,unconnected-(U7-PA0-Pad10)*%
X124250000Y-76962500D03*
%TO.P,U7,11,PA1*%
%TO.N,/Input Output/NTC1*%
X124750000Y-76962500D03*
%TO.P,U7,12,PA2*%
%TO.N,/Input Output/NTC2*%
X125250000Y-76962500D03*
D56*
%TO.P,U7,13,PA3*%
%TO.N,/Input Output/LED_BLUE*%
X126662500Y-75550000D03*
%TO.P,U7,14,PA4*%
%TO.N,/Input Output/LED_GREEN*%
X126662500Y-75050000D03*
%TO.P,U7,15,PA5*%
%TO.N,/Input Output/LED_RED*%
X126662500Y-74550000D03*
%TO.P,U7,16,PA6*%
%TO.N,/Input Output/BUZZER*%
X126662500Y-74050000D03*
%TO.P,U7,17,PA7*%
%TO.N,unconnected-(U7-PA7-Pad17)*%
X126662500Y-73550000D03*
%TO.P,U7,18,PB0*%
%TO.N,/Input Output/CASE_SW*%
X126662500Y-73050000D03*
%TO.P,U7,19,PB1*%
%TO.N,/Input Output/VERSION*%
X126662500Y-72550000D03*
%TO.P,U7,20,PB2*%
%TO.N,unconnected-(U7-PB2-Pad20)*%
X126662500Y-72050000D03*
%TO.P,U7,21,PB10*%
%TO.N,unconnected-(U7-PB10-Pad21)*%
X126662500Y-71550000D03*
%TO.P,U7,22,PB11*%
%TO.N,unconnected-(U7-PB11-Pad22)*%
X126662500Y-71050000D03*
%TO.P,U7,23,VSS*%
%TO.N,GND*%
X126662500Y-70550000D03*
%TO.P,U7,24,VDD*%
%TO.N,+3.3V*%
X126662500Y-70050000D03*
D55*
%TO.P,U7,25,PB12*%
%TO.N,/Alert Isolation/ALERT_OUT6*%
X125250000Y-68637500D03*
%TO.P,U7,26,PB13*%
%TO.N,/Alert Isolation/ALERT_OUT5*%
X124750000Y-68637500D03*
%TO.P,U7,27,PB14*%
%TO.N,/Alert Isolation/ALERT_OUT4*%
X124250000Y-68637500D03*
%TO.P,U7,28,PB15*%
%TO.N,/Alert Isolation/ALERT_OUT3*%
X123750000Y-68637500D03*
%TO.P,U7,29,PA8*%
%TO.N,/Input Output/RX*%
X123250000Y-68637500D03*
%TO.P,U7,30,PA9*%
%TO.N,/Input Output/TX*%
X122750000Y-68637500D03*
%TO.P,U7,31,PA10*%
%TO.N,/Alert Isolation/ALERT_OUT2*%
X122250000Y-68637500D03*
%TO.P,U7,32,PA11*%
%TO.N,/Microcontroller/DM*%
X121750000Y-68637500D03*
%TO.P,U7,33,PA12*%
%TO.N,/Microcontroller/DP*%
X121250000Y-68637500D03*
%TO.P,U7,34,PA13*%
%TO.N,/Alert Isolation/ALERT_OUT1*%
X120750000Y-68637500D03*
%TO.P,U7,35,VSS*%
%TO.N,GND*%
X120250000Y-68637500D03*
%TO.P,U7,36,VDD*%
%TO.N,+3.3V*%
X119750000Y-68637500D03*
D56*
%TO.P,U7,37,PA14*%
%TO.N,/Input Output/FAN_PWM*%
X118337500Y-70050000D03*
%TO.P,U7,38,PA15*%
%TO.N,/Input Output/FAN_TACHO*%
X118337500Y-70550000D03*
%TO.P,U7,39,PB3*%
%TO.N,unconnected-(U7-PB3-Pad39)*%
X118337500Y-71050000D03*
%TO.P,U7,40,PB4*%
%TO.N,unconnected-(U7-PB4-Pad40)*%
X118337500Y-71550000D03*
%TO.P,U7,41,PB5*%
%TO.N,unconnected-(U7-PB5-Pad41)*%
X118337500Y-72050000D03*
%TO.P,U7,42,PB6*%
%TO.N,/I2C Isolation/SCL2*%
X118337500Y-72550000D03*
%TO.P,U7,43,PB7*%
%TO.N,/I2C Isolation/SDA2*%
X118337500Y-73050000D03*
%TO.P,U7,44,BOOT0*%
%TO.N,/Input Output/BOOT*%
X118337500Y-73550000D03*
%TO.P,U7,45,PB8*%
%TO.N,unconnected-(U7-PB8-Pad45)*%
X118337500Y-74050000D03*
%TO.P,U7,46,PB9*%
%TO.N,unconnected-(U7-PB9-Pad46)*%
X118337500Y-74550000D03*
%TO.P,U7,47,VSS*%
%TO.N,GND*%
X118337500Y-75050000D03*
%TO.P,U7,48,VDD*%
%TO.N,+3.3V*%
X118337500Y-75550000D03*
%TD*%
D26*
%TO.P,JP1,1,A*%
%TO.N,+5V*%
X125850000Y-63600000D03*
D27*
%TO.P,JP1,2,B*%
%TO.N,Net-(JP1-B)*%
X124550000Y-63600000D03*
%TD*%
D41*
%TO.P,J1,1,+12*%
%TO.N,/12V-2x6 Connectors/12V_IN1*%
X55150000Y-92500000D03*
%TO.P,J1,2,+12*%
%TO.N,/12V-2x6 Connectors/12V_IN2*%
X55150000Y-89500000D03*
%TO.P,J1,3,+12*%
%TO.N,/12V-2x6 Connectors/12V_IN3*%
X55150000Y-86500000D03*
%TO.P,J1,4,+12*%
%TO.N,/12V-2x6 Connectors/12V_IN4*%
X55150000Y-83500000D03*
%TO.P,J1,5,+12*%
%TO.N,/12V-2x6 Connectors/12V_IN5*%
X55150000Y-80500000D03*
%TO.P,J1,6,+12*%
%TO.N,/12V-2x6 Connectors/12V_IN6*%
X55150000Y-77500000D03*
%TO.P,J1,7,GND*%
%TO.N,GND1*%
X58150000Y-92500000D03*
%TO.P,J1,8,GND*%
X58150000Y-89500000D03*
%TO.P,J1,9,GND*%
X58150000Y-86500000D03*
%TO.P,J1,10,GND*%
X58150000Y-83500000D03*
%TO.P,J1,11,GND*%
X58150000Y-80500000D03*
%TO.P,J1,12,GND*%
X58150000Y-77500000D03*
D42*
%TO.P,J1,M1*%
%TO.N,N/C*%
X50830000Y-91700000D03*
%TO.P,J1,M2*%
X50830000Y-78300000D03*
D43*
%TO.P,J1,S1,S1*%
%TO.N,/12V-2x6 Connectors/S1*%
X53480000Y-88000000D03*
%TO.P,J1,S2,S2*%
%TO.N,/12V-2x6 Connectors/S2*%
X53480000Y-86000000D03*
%TO.P,J1,S3,S3*%
%TO.N,/12V-2x6 Connectors/S3*%
X53480000Y-84000000D03*
%TO.P,J1,S4,S4*%
%TO.N,/12V-2x6 Connectors/S4*%
X53480000Y-82000000D03*
%TD*%
D13*
%TO.P,R23,1*%
%TO.N,/Current Sensing/CurrentSense6/IN+*%
X84290000Y-58900000D03*
%TO.P,R23,2*%
%TO.N,Net-(U6-Vin+)*%
X85310000Y-58900000D03*
%TD*%
D11*
%TO.P,R22,1*%
%TO.N,/Alert Isolation/ALERT_IN5*%
X93700000Y-61690000D03*
%TO.P,R22,2*%
%TO.N,+5VP*%
X93700000Y-62710000D03*
%TD*%
D15*
%TO.P,C16,1*%
%TO.N,+3.3V*%
X128200000Y-69520000D03*
%TO.P,C16,2*%
%TO.N,GND*%
X128200000Y-70480000D03*
%TD*%
D11*
%TO.P,R46,1*%
%TO.N,/Input Output/VREF2*%
X114150000Y-84740000D03*
%TO.P,R46,2*%
%TO.N,+5V*%
X114150000Y-85760000D03*
%TD*%
%TO.P,R33,1*%
%TO.N,/Input Output/LED_RED*%
X134428035Y-76209739D03*
%TO.P,R33,2*%
%TO.N,Net-(D1-A)*%
X134428035Y-77229739D03*
%TD*%
D46*
%TO.P,R29,1*%
%TO.N,Net-(J3-CC2)*%
X139110000Y-64700000D03*
%TO.P,R29,2*%
%TO.N,GND*%
X138090000Y-64700000D03*
%TD*%
D19*
%TO.P,C35,1*%
%TO.N,+3.3V*%
X131000000Y-56975000D03*
%TO.P,C35,2*%
%TO.N,GND*%
X131000000Y-55425000D03*
%TD*%
D12*
%TO.P,C14,1*%
%TO.N,+3.3V*%
X116800000Y-75780000D03*
%TO.P,C14,2*%
%TO.N,GND*%
X116800000Y-74820000D03*
%TD*%
D22*
%TO.P,R1,1,1*%
%TO.N,/12V-2x6 Connectors/12V_OUT1*%
X75428000Y-67115000D03*
D23*
%TO.P,R1,2,2*%
%TO.N,/Current Sensing/CurrentSense1/IN-*%
X77334000Y-67115000D03*
%TO.P,R1,3,3*%
%TO.N,/Current Sensing/CurrentSense1/IN+*%
X77334000Y-68885000D03*
D22*
%TO.P,R1,4,4*%
%TO.N,/12V-2x6 Connectors/12V_IN1*%
X75428500Y-68885000D03*
%TD*%
D57*
%TO.P,Y1,1,1*%
%TO.N,Net-(C22-Pad2)*%
X124900000Y-84150000D03*
%TO.P,Y1,2,2*%
%TO.N,Net-(U7-PD0)*%
X121200000Y-84150000D03*
%TD*%
D14*
%TO.P,C23,1*%
%TO.N,GND*%
X116380000Y-81750000D03*
%TO.P,C23,2*%
%TO.N,Net-(U7-PC14)*%
X115420000Y-81750000D03*
%TD*%
%TO.P,C17,1*%
%TO.N,Net-(U7-VDDA)*%
X124080000Y-78500000D03*
%TO.P,C17,2*%
%TO.N,GND*%
X123120000Y-78500000D03*
%TD*%
D58*
%TO.P,U15,1,SCL*%
%TO.N,/Current Sensing/SCL1*%
X52712500Y-38500000D03*
%TO.P,U15,2,GND*%
%TO.N,GND1*%
X52712500Y-38000000D03*
%TO.P,U15,3,ALERT*%
%TO.N,unconnected-(U15-ALERT-Pad3)*%
X52712500Y-37500000D03*
%TO.P,U15,4,ADD0*%
%TO.N,+5VP*%
X51287500Y-37500000D03*
%TO.P,U15,5,V+*%
X51287500Y-38000000D03*
%TO.P,U15,6,SDA*%
%TO.N,/Current Sensing/SDA1*%
X51287500Y-38500000D03*
%TD*%
D12*
%TO.P,C37,1*%
%TO.N,+3.3V*%
X113150000Y-78080000D03*
%TO.P,C37,2*%
%TO.N,GND*%
X113150000Y-77120000D03*
%TD*%
%TO.P,C2,1*%
%TO.N,Net-(U1-Vin+)*%
X86300000Y-80680000D03*
%TO.P,C2,2*%
%TO.N,Net-(U1-Vin-)*%
X86300000Y-79720000D03*
%TD*%
D54*
%TO.P,FB1,1*%
%TO.N,+3.3V*%
X126837500Y-79500000D03*
%TO.P,FB1,2*%
%TO.N,Net-(U7-VDDA)*%
X125262500Y-79500000D03*
%TD*%
D18*
%TO.P,U2,1,A1*%
%TO.N,GND1*%
X92200000Y-75700000D03*
%TO.P,U2,2,A0*%
%TO.N,+5VP*%
X92200000Y-75200000D03*
%TO.P,U2,3,~{Alert}*%
%TO.N,/Alert Isolation/ALERT_IN2*%
X92200000Y-74700000D03*
%TO.P,U2,4,SDA*%
%TO.N,/Current Sensing/SDA1*%
X92200000Y-74200000D03*
%TO.P,U2,5,SCL*%
%TO.N,/Current Sensing/SCL1*%
X92200000Y-73700000D03*
%TO.P,U2,6,VS*%
%TO.N,+5VP*%
X87800000Y-73700000D03*
%TO.P,U2,7,GND*%
%TO.N,GND1*%
X87800000Y-74200000D03*
%TO.P,U2,8,Vbus*%
%TO.N,/12V-2x6 Connectors/12V_OUT2*%
X87800000Y-74700000D03*
%TO.P,U2,9,Vin-*%
%TO.N,Net-(U2-Vin-)*%
X87800000Y-75200000D03*
%TO.P,U2,10,Vin+*%
%TO.N,Net-(U2-Vin+)*%
X87800000Y-75700000D03*
%TD*%
D13*
%TO.P,R17,1*%
%TO.N,/Current Sensing/CurrentSense4/IN+*%
X84290000Y-67700000D03*
%TO.P,R17,2*%
%TO.N,Net-(U4-Vin+)*%
X85310000Y-67700000D03*
%TD*%
D31*
%TO.P,R50,1*%
%TO.N,Net-(Q1-G)*%
X139575000Y-75185000D03*
%TO.P,R50,2*%
%TO.N,/Input Output/BUZZER*%
X139575000Y-74165000D03*
%TD*%
D13*
%TO.P,R41,1*%
%TO.N,Net-(D4-A)*%
X121990000Y-63600000D03*
%TO.P,R41,2*%
%TO.N,Net-(JP1-B)*%
X123010000Y-63600000D03*
%TD*%
D12*
%TO.P,C22,1*%
%TO.N,GND*%
X126750000Y-85130000D03*
%TO.P,C22,2*%
%TO.N,Net-(C22-Pad2)*%
X126750000Y-84170000D03*
%TD*%
%TO.P,C8,1*%
%TO.N,Net-(U4-Vin+)*%
X86300000Y-67480000D03*
%TO.P,C8,2*%
%TO.N,Net-(U4-Vin-)*%
X86300000Y-66520000D03*
%TD*%
D59*
%TO.P,J3,A1,GND*%
%TO.N,GND*%
X140855000Y-69650000D03*
%TO.P,J3,A4,VBUS*%
%TO.N,/USB/VBUS*%
X140855000Y-68850000D03*
D60*
%TO.P,J3,A5,CC1*%
%TO.N,Net-(J3-CC1)*%
X140855000Y-67650000D03*
%TO.P,J3,A6,D+*%
%TO.N,Net-(J3-D+-PadA6)*%
X140855000Y-66650000D03*
%TO.P,J3,A7,D-*%
%TO.N,Net-(J3-D--PadA7)*%
X140855000Y-66150000D03*
%TO.P,J3,A8,SBU1*%
%TO.N,unconnected-(J3-SBU1-PadA8)*%
X140855000Y-65150000D03*
D59*
%TO.P,J3,A9,VBUS*%
%TO.N,/USB/VBUS*%
X140855000Y-63950000D03*
%TO.P,J3,A12,GND*%
%TO.N,GND*%
X140855000Y-63150000D03*
%TO.P,J3,B1,GND*%
X140855000Y-63150000D03*
%TO.P,J3,B4,VBUS*%
%TO.N,/USB/VBUS*%
X140855000Y-63950000D03*
D60*
%TO.P,J3,B5,CC2*%
%TO.N,Net-(J3-CC2)*%
X140855000Y-64650000D03*
%TO.P,J3,B6,D+*%
%TO.N,Net-(J3-D+-PadA6)*%
X140855000Y-65650000D03*
%TO.P,J3,B7,D-*%
%TO.N,Net-(J3-D--PadA7)*%
X140855000Y-67150000D03*
%TO.P,J3,B8,SBU2*%
%TO.N,unconnected-(J3-SBU2-PadB8)*%
X140855000Y-68150000D03*
D59*
%TO.P,J3,B9,VBUS*%
%TO.N,/USB/VBUS*%
X140855000Y-68850000D03*
%TO.P,J3,B12,GND*%
%TO.N,GND*%
X140855000Y-69650000D03*
D61*
%TO.P,J3,S1,SHIELD*%
X141770000Y-70720000D03*
D62*
X145950000Y-70720000D03*
D61*
X141770000Y-62080000D03*
D62*
X145950000Y-62080000D03*
%TD*%
D11*
%TO.P,R39,1*%
%TO.N,/Input Output/NTC1*%
X139400000Y-56580000D03*
%TO.P,R39,2*%
%TO.N,+3.3V*%
X139400000Y-57600000D03*
%TD*%
D33*
%TO.P,C30,1*%
%TO.N,+5V*%
X111020000Y-68800000D03*
%TO.P,C30,2*%
%TO.N,GND*%
X111980000Y-68800000D03*
%TD*%
D63*
%TO.N,GND*%
X137100000Y-64600000D03*
X119400000Y-82950000D03*
X117600000Y-63600000D03*
X117750000Y-85300000D03*
X132600000Y-54000000D03*
X132710000Y-81250000D03*
X116500000Y-97935000D03*
X114400000Y-80200000D03*
X128900000Y-93700000D03*
X131000000Y-54000000D03*
X129700000Y-71275000D03*
X111475000Y-75400000D03*
X126750000Y-86000000D03*
X119300000Y-95100000D03*
X124950000Y-86750000D03*
X121100000Y-86700000D03*
X124400000Y-81550000D03*
X120550000Y-81050000D03*
X119400000Y-86050000D03*
X114400000Y-78850000D03*
X126050000Y-81550000D03*
X131000000Y-81250000D03*
X120550000Y-79900000D03*
X115800000Y-74800000D03*
X114400000Y-81700000D03*
X117300000Y-78100000D03*
X131500000Y-100400000D03*
X137200000Y-67800000D03*
X115400000Y-82900000D03*
X121087500Y-53300000D03*
X117000000Y-81750000D03*
X111980000Y-68800000D03*
X135700000Y-59300000D03*
X119150000Y-78100000D03*
X137100000Y-66400000D03*
X126750000Y-83100000D03*
X123050000Y-86750000D03*
X136400000Y-75175000D03*
X129700000Y-76300000D03*
X111725000Y-50525000D03*
X124900000Y-75100000D03*
X119550000Y-81750000D03*
X133000000Y-68500000D03*
X122300000Y-93900000D03*
X115500000Y-63600000D03*
X128200000Y-73250000D03*
X115500000Y-78100000D03*
X129100000Y-78900000D03*
X134400000Y-81250000D03*
X118050000Y-82950000D03*
X116500000Y-99200000D03*
X123150000Y-80450000D03*
X135000000Y-52100000D03*
X120500000Y-66100000D03*
X131800000Y-63400000D03*
X113150000Y-85730000D03*
%TO.N,/Input Output/NTC1*%
X127700000Y-78300000D03*
X137200000Y-56600000D03*
%TO.N,/Input Output/NTC2*%
X137400000Y-48600000D03*
X127700000Y-77000000D03*
%TO.N,+3.3V*%
X119500000Y-66100000D03*
X126800000Y-93900000D03*
X113150000Y-78080000D03*
X128100000Y-79500000D03*
X118300000Y-78100000D03*
X139400000Y-58700000D03*
X139500000Y-50800000D03*
X111150000Y-76200000D03*
X129700000Y-69725000D03*
X115800000Y-75800000D03*
X134100000Y-93700000D03*
X129700000Y-57000000D03*
X133200000Y-73250000D03*
%TO.N,/Input Output/RESET*%
X130950000Y-92700000D03*
X122700000Y-75200000D03*
%TO.N,/Alert Isolation/ALERT_OUT2*%
X115600000Y-61000000D03*
X122250000Y-70400000D03*
%TO.N,/Alert Isolation/ALERT_OUT3*%
X115600000Y-59700000D03*
X124175735Y-66750000D03*
%TO.N,/Alert Isolation/ALERT_OUT5*%
X125800000Y-66900000D03*
X115600000Y-57200000D03*
%TO.N,+5VP*%
X105550000Y-50525000D03*
X85400000Y-77400000D03*
X85400000Y-59790000D03*
X52580000Y-99500000D03*
X85400000Y-68590000D03*
X93700000Y-68090000D03*
X93700000Y-63690000D03*
X104100000Y-75400000D03*
X93700000Y-81300000D03*
X90500000Y-62300000D03*
X90600000Y-67000000D03*
X51800000Y-67540000D03*
X93700000Y-76890000D03*
X98700000Y-99600000D03*
X85400000Y-72990000D03*
X101600000Y-96700000D03*
X51540000Y-36500000D03*
X85400000Y-64190000D03*
X90500000Y-58100000D03*
X90700000Y-75100000D03*
X106980000Y-68900000D03*
X93700000Y-72490000D03*
X104100000Y-68900000D03*
X85400000Y-55390000D03*
X93700000Y-59290000D03*
%TO.N,GND1*%
X58000000Y-41000000D03*
X56000000Y-41000000D03*
X51000000Y-62000000D03*
X76000000Y-45000000D03*
X76000000Y-46000000D03*
X51000000Y-88000000D03*
X77000000Y-49000000D03*
X50000000Y-86000000D03*
X77000000Y-81000000D03*
X79000000Y-72000000D03*
X51000000Y-82000000D03*
X76000000Y-52000000D03*
X77000000Y-83000000D03*
X76000000Y-42000000D03*
X71000000Y-95000000D03*
X53000000Y-41000000D03*
X52000000Y-41000000D03*
X77000000Y-53000000D03*
X85400000Y-56390000D03*
X98500000Y-97700000D03*
X51000000Y-86000000D03*
X78000000Y-60000000D03*
X50000000Y-73000000D03*
X68000000Y-40000000D03*
X50000000Y-85000000D03*
X75000000Y-41000000D03*
X69000000Y-95000000D03*
X79000000Y-62000000D03*
X70000000Y-96000000D03*
X70000000Y-40000000D03*
X68000000Y-95000000D03*
X77000000Y-57000000D03*
X50000000Y-51000000D03*
X50000000Y-84000000D03*
X51000000Y-74000000D03*
X78000000Y-83000000D03*
X51000000Y-96000000D03*
X50000000Y-50000000D03*
X50000000Y-88000000D03*
X51000000Y-95000000D03*
X53000000Y-40000000D03*
X50000000Y-83000000D03*
X54000000Y-95000000D03*
X73000000Y-40000000D03*
X51000000Y-53000000D03*
X76000000Y-43000000D03*
X77000000Y-47000000D03*
X76000000Y-51000000D03*
X68000000Y-41000000D03*
X106500000Y-50525000D03*
X52000000Y-96000000D03*
X77000000Y-50000000D03*
X106020000Y-68900000D03*
X51800000Y-68500000D03*
X74000000Y-41000000D03*
X53000000Y-95000000D03*
X76000000Y-84000000D03*
X67000000Y-40000000D03*
X79000000Y-71000000D03*
X75000000Y-42000000D03*
X77000000Y-51000000D03*
X77000000Y-80000000D03*
X50000000Y-62000000D03*
X79000000Y-64100000D03*
X52000000Y-40000000D03*
X77000000Y-48000000D03*
X55000000Y-96000000D03*
X78000000Y-56000000D03*
X78000000Y-76000000D03*
X50000000Y-64000000D03*
X76000000Y-88000000D03*
X85400000Y-78400000D03*
X75000000Y-94000000D03*
X75000000Y-40000000D03*
X72000000Y-96000000D03*
X79000000Y-73000000D03*
X76000000Y-41000000D03*
X90700000Y-75900000D03*
X50000000Y-52000000D03*
X77000000Y-88000000D03*
X51000000Y-84000000D03*
X50000000Y-63000000D03*
X55000000Y-41000000D03*
X76000000Y-48000000D03*
X77000000Y-55000000D03*
X85400000Y-69590000D03*
X76000000Y-85000000D03*
X51000000Y-73000000D03*
X51000000Y-83000000D03*
X51000000Y-85000000D03*
X71000000Y-96000000D03*
X76000000Y-93000000D03*
X51000000Y-54000000D03*
X78000000Y-61000000D03*
X75000000Y-90000000D03*
X76000000Y-89000000D03*
X78000000Y-54000000D03*
X51000000Y-50000000D03*
X75000000Y-46000000D03*
X77000000Y-82000000D03*
X78000000Y-80000000D03*
X56000000Y-95000000D03*
X77000000Y-84000000D03*
X66000000Y-41000000D03*
X51000000Y-51000000D03*
X68000000Y-96000000D03*
X56000000Y-40000000D03*
X85400000Y-60790000D03*
X78000000Y-75000000D03*
X50000000Y-53000000D03*
X72000000Y-41000000D03*
X51000000Y-49000000D03*
X51000000Y-41000000D03*
X55000000Y-95000000D03*
X54000000Y-40000000D03*
X69000000Y-96000000D03*
X77000000Y-87000000D03*
X51620000Y-99500000D03*
X85400000Y-65190000D03*
X76000000Y-91000000D03*
X76000000Y-87000000D03*
X77000000Y-52000000D03*
X72000000Y-40000000D03*
X50000000Y-82000000D03*
X90600000Y-66200000D03*
X78000000Y-55000000D03*
X51000000Y-48000000D03*
X78000000Y-62000000D03*
X73000000Y-95000000D03*
X75000000Y-91000000D03*
X69000000Y-40000000D03*
X76000000Y-95000000D03*
X90600000Y-71500000D03*
X76000000Y-90000000D03*
X76000000Y-50000000D03*
X77000000Y-54000000D03*
X78000000Y-57000000D03*
X70000000Y-95000000D03*
X51000000Y-52000000D03*
X74000000Y-96000000D03*
X76000000Y-92000000D03*
X77000000Y-85000000D03*
X78000000Y-82000000D03*
X50000000Y-87000000D03*
X75000000Y-93000000D03*
X78000000Y-77000000D03*
X53000000Y-96000000D03*
X79000000Y-63100000D03*
X71000000Y-40000000D03*
X78000000Y-74000000D03*
X50000000Y-48000000D03*
X67000000Y-95000000D03*
X69000000Y-41000000D03*
X76000000Y-44000000D03*
X73000000Y-41000000D03*
X76000000Y-49000000D03*
X79000000Y-69900000D03*
X50000000Y-72000000D03*
X77000000Y-79000000D03*
X50000000Y-74000000D03*
X75000000Y-43000000D03*
X75000000Y-95000000D03*
X55000000Y-40000000D03*
X85400000Y-73990000D03*
X78000000Y-81000000D03*
X75000000Y-45000000D03*
X78000000Y-52000000D03*
X50000000Y-49000000D03*
X78000000Y-59000000D03*
X77000000Y-86000000D03*
X51000000Y-87000000D03*
X106525000Y-75400000D03*
X57000000Y-95000000D03*
X65000000Y-41000000D03*
X101600000Y-95400000D03*
X67000000Y-41000000D03*
X78000000Y-58000000D03*
X75000000Y-92000000D03*
X50000000Y-54000000D03*
X58000000Y-40000000D03*
X104400000Y-64900000D03*
X54000000Y-96000000D03*
X75000000Y-96000000D03*
X75000000Y-44000000D03*
X78000000Y-78000000D03*
X59000000Y-41000000D03*
X90550000Y-79850000D03*
X56000000Y-96000000D03*
X54000000Y-41000000D03*
X51000000Y-64000000D03*
X52500000Y-36500000D03*
X51000000Y-72000000D03*
X77000000Y-89000000D03*
X72000000Y-95000000D03*
X70000000Y-41000000D03*
X76000000Y-86000000D03*
X76000000Y-47000000D03*
X66000000Y-40000000D03*
X79000000Y-65100000D03*
X74000000Y-40000000D03*
X77000000Y-56000000D03*
X79000000Y-74000000D03*
X76000000Y-94000000D03*
X74000000Y-95000000D03*
X78000000Y-53000000D03*
X51000000Y-40000000D03*
X71000000Y-41000000D03*
X57000000Y-40000000D03*
X52000000Y-95000000D03*
X78000000Y-79000000D03*
X51000000Y-63000000D03*
X73000000Y-96000000D03*
X57000000Y-41000000D03*
%TO.N,/Alert Isolation/ALERT_OUT1*%
X115600000Y-62300000D03*
X120750000Y-70400000D03*
%TO.N,+5V*%
X135800000Y-63300000D03*
X111020000Y-68800000D03*
X115850000Y-85300000D03*
X114150000Y-85760000D03*
X113900000Y-75400000D03*
X131800000Y-66400000D03*
X137200000Y-61900000D03*
X145575000Y-76250000D03*
X113900000Y-69000000D03*
X127500000Y-63600000D03*
X135800000Y-61900000D03*
X112675000Y-50525000D03*
X119300000Y-96950000D03*
X130800000Y-63400000D03*
%TO.N,/Input Output/CASE_SW*%
X119587500Y-52400000D03*
X125000000Y-73100000D03*
%TO.N,/Alert Isolation/ALERT_OUT6*%
X115600000Y-55900000D03*
X126600000Y-67900000D03*
%TO.N,/Alert Isolation/ALERT_OUT4*%
X115600000Y-58500000D03*
X125000000Y-66550000D03*
%TO.N,/Alert Isolation/ALERT_IN6*%
X98300000Y-57800000D03*
X95400000Y-57800000D03*
%TO.N,/Alert Isolation/ALERT_IN3*%
X98200000Y-65300000D03*
X95400000Y-71000000D03*
%TO.N,/Alert Isolation/ALERT_IN4*%
X98200000Y-63800000D03*
X95400000Y-66600000D03*
%TO.N,/Alert Isolation/ALERT_IN5*%
X98200000Y-62200000D03*
X95400000Y-62200000D03*
%TO.N,/Alert Isolation/ALERT_IN1*%
X96800000Y-78000000D03*
X98200000Y-67800000D03*
%TO.N,/Alert Isolation/ALERT_IN2*%
X98200000Y-66600000D03*
X95400000Y-75400000D03*
%TO.N,/12V-2x6 Connectors/12V_IN4*%
X64750000Y-71750000D03*
X63250000Y-72500000D03*
X63750000Y-71750000D03*
X64250000Y-70250000D03*
X63750000Y-71000000D03*
X62750000Y-71750000D03*
X63250000Y-70250000D03*
X62750000Y-71000000D03*
X64750000Y-71000000D03*
X64250000Y-72500000D03*
%TO.N,/12V-2x6 Connectors/12V_IN3*%
X67250000Y-72500000D03*
X67750000Y-71750000D03*
X67750000Y-71000000D03*
X67250000Y-70250000D03*
X68250000Y-72500000D03*
X66750000Y-71000000D03*
X66750000Y-71750000D03*
X68750000Y-71000000D03*
X68250000Y-70250000D03*
X68750000Y-71750000D03*
%TO.N,/12V-2x6 Connectors/12V_IN5*%
X60250000Y-70250000D03*
X59250000Y-70250000D03*
X59750000Y-71000000D03*
X58750000Y-71000000D03*
X60750000Y-71750000D03*
X60250000Y-72500000D03*
X58750000Y-71750000D03*
X60750000Y-71000000D03*
X59250000Y-72500000D03*
X59750000Y-71750000D03*
%TO.N,/12V-2x6 Connectors/12V_IN2*%
X72750000Y-71000000D03*
X71250000Y-70250000D03*
X70750000Y-71000000D03*
X72250000Y-72500000D03*
X72250000Y-70250000D03*
X70750000Y-71750000D03*
X71750000Y-71750000D03*
X71750000Y-71000000D03*
X72750000Y-71750000D03*
X71250000Y-72500000D03*
%TO.N,/12V-2x6 Connectors/12V_IN1*%
X75250000Y-72500000D03*
X76750000Y-71750000D03*
X74750000Y-71000000D03*
X75750000Y-71000000D03*
X76250000Y-72500000D03*
X74750000Y-71750000D03*
X75250000Y-70250000D03*
X76750000Y-71000000D03*
X76250000Y-70250000D03*
X75750000Y-71750000D03*
%TO.N,/12V-2x6 Connectors/12V_IN6*%
X56750000Y-71000000D03*
X56250000Y-70250000D03*
X55250000Y-70250000D03*
X55750000Y-71750000D03*
X55750000Y-71000000D03*
X56250000Y-72500000D03*
X56750000Y-71750000D03*
X54750000Y-71750000D03*
X55250000Y-72500000D03*
X54750000Y-71000000D03*
%TO.N,/12V-2x6 Connectors/12V_OUT5*%
X58750000Y-64250000D03*
X60750000Y-65000000D03*
X59750000Y-65000000D03*
X58750000Y-65000000D03*
X60750000Y-64250000D03*
X83100000Y-61400000D03*
X59750000Y-64250000D03*
X60250000Y-65750000D03*
X59250000Y-65750000D03*
X60250000Y-63500000D03*
X59250000Y-63500000D03*
%TO.N,/12V-2x6 Connectors/12V_OUT6*%
X55750000Y-65000000D03*
X56750000Y-65000000D03*
X55250000Y-65750000D03*
X56250000Y-63500000D03*
X56250000Y-65750000D03*
X54750000Y-65000000D03*
X55750000Y-64250000D03*
X55250000Y-63500000D03*
X54750000Y-64250000D03*
X83000000Y-57000000D03*
X56750000Y-64250000D03*
%TO.N,/12V-2x6 Connectors/12V_OUT4*%
X83100000Y-65800000D03*
X64250000Y-63500000D03*
X64250000Y-65750000D03*
X64750000Y-65000000D03*
X62750000Y-64250000D03*
X63750000Y-65000000D03*
X64750000Y-64250000D03*
X63750000Y-64250000D03*
X62750000Y-65000000D03*
X63250000Y-63500000D03*
X63250000Y-65750000D03*
%TO.N,/12V-2x6 Connectors/12V_OUT1*%
X76250000Y-65750000D03*
X74750000Y-64250000D03*
X75750000Y-65000000D03*
X75250000Y-65750000D03*
X76750000Y-65000000D03*
X74750000Y-65000000D03*
X76250000Y-63500000D03*
X75750000Y-64250000D03*
X75250000Y-63500000D03*
X76750000Y-64250000D03*
%TO.N,/12V-2x6 Connectors/12V_OUT3*%
X68750000Y-64250000D03*
X67750000Y-65000000D03*
X66750000Y-65000000D03*
X66750000Y-64250000D03*
X68750000Y-65000000D03*
X68250000Y-65750000D03*
X67250000Y-63500000D03*
X68250000Y-63500000D03*
X67750000Y-64250000D03*
X83100000Y-70200000D03*
X67250000Y-65750000D03*
%TO.N,/12V-2x6 Connectors/12V_OUT2*%
X71750000Y-65000000D03*
X72250000Y-63500000D03*
X71750000Y-64250000D03*
X71250000Y-63500000D03*
X70750000Y-65000000D03*
X72750000Y-64250000D03*
X71250000Y-65750000D03*
X72250000Y-65750000D03*
X70750000Y-64250000D03*
X83100000Y-74600000D03*
X72750000Y-65000000D03*
%TO.N,/Input Output/BOOT*%
X124200000Y-92800000D03*
X119950000Y-73550000D03*
%TO.N,/Current Sensing/CurrentSense2/IN+*%
X83100000Y-76500000D03*
X73334000Y-69150000D03*
%TO.N,/Current Sensing/CurrentSense2/IN-*%
X83100000Y-75500000D03*
X73334000Y-66850000D03*
%TO.N,/Current Sensing/CurrentSense3/IN+*%
X69334000Y-69150000D03*
X83100000Y-72100000D03*
%TO.N,/Current Sensing/CurrentSense3/IN-*%
X83100000Y-71100000D03*
X69334000Y-66850000D03*
%TO.N,/Current Sensing/CurrentSense4/IN+*%
X83100000Y-67700000D03*
X65350000Y-69150000D03*
%TO.N,/Current Sensing/CurrentSense4/IN-*%
X83100000Y-66700000D03*
X65334000Y-66850000D03*
%TO.N,/Current Sensing/CurrentSense5/IN+*%
X61334000Y-69150000D03*
X83100000Y-63300000D03*
%TO.N,/Current Sensing/CurrentSense5/IN-*%
X83100000Y-62300000D03*
X61334000Y-66850000D03*
%TO.N,/Current Sensing/CurrentSense6/IN+*%
X83000000Y-58900000D03*
X57334000Y-69150000D03*
%TO.N,/Current Sensing/CurrentSense6/IN-*%
X83000000Y-57900000D03*
X57334000Y-66850000D03*
%TO.N,/Current Sensing/SCL1*%
X100000000Y-75000000D03*
X54400000Y-38500000D03*
X49700000Y-70700000D03*
X100000000Y-71810000D03*
X70000000Y-98000000D03*
X49400000Y-97500000D03*
%TO.N,/Current Sensing/SDA1*%
X94725735Y-65600000D03*
X94700000Y-70000000D03*
X94725735Y-56800000D03*
X94700000Y-78600000D03*
X94700000Y-74400000D03*
X94725735Y-61200000D03*
%TO.N,Net-(M2-Tacho)*%
X112150000Y-84740000D03*
%TO.N,Net-(M2-PWM)*%
X111150000Y-84740000D03*
%TO.N,/Input Output/FAN_TACHO*%
X116400000Y-70800000D03*
X112150000Y-78110000D03*
%TO.N,/Input Output/FAN_PWM*%
X116400000Y-69750000D03*
X111150000Y-78110000D03*
%TO.N,/Input Output/TX*%
X119700000Y-56850000D03*
X122500000Y-67050000D03*
%TO.N,/Input Output/RX*%
X123150000Y-66500000D03*
X120400000Y-56100000D03*
%TD*%
D64*
%TO.N,Net-(U1-Vin+)*%
X85310000Y-80800000D02*
X85310000Y-80900000D01*
X87100000Y-80100000D02*
X86520000Y-80680000D01*
X85430000Y-80680000D02*
X85310000Y-80800000D01*
X87800000Y-80100000D02*
X87100000Y-80100000D01*
X86520000Y-80680000D02*
X86300000Y-80680000D01*
X86300000Y-80680000D02*
X85430000Y-80680000D01*
%TO.N,Net-(U1-Vin-)*%
X87800000Y-79600000D02*
X86420000Y-79600000D01*
X85310000Y-79800000D02*
X85310000Y-79900000D01*
X86420000Y-79600000D02*
X86300000Y-79720000D01*
X85390000Y-79720000D02*
X85310000Y-79800000D01*
X86300000Y-79720000D02*
X85390000Y-79720000D01*
%TO.N,Net-(U2-Vin+)*%
X87800000Y-75690000D02*
X87110000Y-75690000D01*
X87110000Y-75690000D02*
X86520000Y-76280000D01*
X86520000Y-76280000D02*
X85420000Y-76280000D01*
X85420000Y-76280000D02*
X85310000Y-76390000D01*
%TO.N,Net-(U2-Vin-)*%
X87800000Y-75190000D02*
X86420000Y-75190000D01*
X86290000Y-75320000D02*
X85380000Y-75320000D01*
X85380000Y-75320000D02*
X85310000Y-75390000D01*
X86420000Y-75190000D02*
X86290000Y-75320000D01*
%TO.N,Net-(U3-Vin+)*%
X87110000Y-71290000D02*
X86520000Y-71880000D01*
X87800000Y-71290000D02*
X87110000Y-71290000D01*
X85420000Y-71880000D02*
X85310000Y-71990000D01*
X86520000Y-71880000D02*
X85420000Y-71880000D01*
%TO.N,Net-(U3-Vin-)*%
X86420000Y-70790000D02*
X86300000Y-70910000D01*
X87800000Y-70790000D02*
X86420000Y-70790000D01*
X85390000Y-70910000D02*
X85310000Y-70990000D01*
X86300000Y-70910000D02*
X85390000Y-70910000D01*
%TO.N,Net-(U4-Vin+)*%
X87110000Y-66890000D02*
X86520000Y-67480000D01*
X85310000Y-67480000D02*
X85310000Y-67700000D01*
X87800000Y-66890000D02*
X87110000Y-66890000D01*
X86520000Y-67480000D02*
X85310000Y-67480000D01*
%TO.N,Net-(U4-Vin-)*%
X87800000Y-66390000D02*
X86420000Y-66390000D01*
X86420000Y-66390000D02*
X86290000Y-66520000D01*
X85490000Y-66520000D02*
X85310000Y-66700000D01*
X86290000Y-66520000D02*
X85490000Y-66520000D01*
%TO.N,Net-(U5-Vin-)*%
X86300000Y-62110000D02*
X85390000Y-62110000D01*
X86420000Y-61990000D02*
X86300000Y-62110000D01*
X87800000Y-61990000D02*
X86420000Y-61990000D01*
X85390000Y-62110000D02*
X85310000Y-62190000D01*
%TO.N,Net-(U5-Vin+)*%
X86300000Y-63080000D02*
X85310000Y-63080000D01*
X86470000Y-63080000D02*
X86300000Y-63080000D01*
X87060000Y-62490000D02*
X86470000Y-63080000D01*
X87800000Y-62490000D02*
X87060000Y-62490000D01*
X85310000Y-63080000D02*
X85310000Y-63300000D01*
%TO.N,Net-(U6-Vin+)*%
X87800000Y-58090000D02*
X87110000Y-58090000D01*
X85310000Y-58680000D02*
X85310000Y-58900000D01*
X87110000Y-58090000D02*
X86520000Y-58680000D01*
X86520000Y-58680000D02*
X85310000Y-58680000D01*
%TO.N,Net-(U6-Vin-)*%
X87800000Y-57590000D02*
X86420000Y-57590000D01*
X86290000Y-57720000D02*
X85380000Y-57720000D01*
X86420000Y-57590000D02*
X86290000Y-57720000D01*
X85380000Y-57720000D02*
X85310000Y-57790000D01*
%TO.N,GND*%
X120250000Y-67330000D02*
X120480000Y-67100000D01*
X113670000Y-77120000D02*
X114400000Y-77850000D01*
X118337500Y-75050000D02*
X117030000Y-75050000D01*
X137650000Y-75310000D02*
X137515000Y-75175000D01*
D65*
X117750000Y-85300000D02*
X117750000Y-88350000D01*
D64*
X134400000Y-81250000D02*
X134400000Y-80035274D01*
X131000000Y-81250000D02*
X131000000Y-80035274D01*
X114400000Y-77850000D02*
X114400000Y-78850000D01*
X129700000Y-71275000D02*
X128901000Y-70476000D01*
X132710000Y-80035274D02*
X132738035Y-80007239D01*
X113150000Y-77120000D02*
X113670000Y-77120000D01*
X117030000Y-75050000D02*
X116800000Y-74820000D01*
X137990000Y-64600000D02*
X137100000Y-64600000D01*
X112650000Y-79850000D02*
X113400000Y-79850000D01*
X111720000Y-51900000D02*
X111720000Y-50530000D01*
X123120000Y-79500000D02*
X123120000Y-78500000D01*
D65*
X140855000Y-69650000D02*
X141491860Y-69650000D01*
D64*
X113750000Y-63545000D02*
X115445000Y-63545000D01*
X111475000Y-75400000D02*
X111475000Y-74305000D01*
D65*
X141770000Y-69928140D02*
X141770000Y-70720000D01*
D64*
X114300000Y-78850000D02*
X114250000Y-78900000D01*
X128100000Y-70480000D02*
X128200000Y-70480000D01*
D65*
X117105000Y-95520000D02*
X116100000Y-95520000D01*
D64*
X137515000Y-75175000D02*
X136400000Y-75175000D01*
D65*
X114347500Y-99205000D02*
X116495000Y-99205000D01*
D64*
X117600000Y-63600000D02*
X117600000Y-60012500D01*
X135637500Y-66400000D02*
X137100000Y-66400000D01*
D65*
X141491860Y-69650000D02*
X141770000Y-69928140D01*
D64*
X119212500Y-63600000D02*
X117600000Y-63600000D01*
X134400000Y-80035274D02*
X134428035Y-80007239D01*
X116800000Y-74820000D02*
X115820000Y-74820000D01*
D65*
X116500000Y-97935000D02*
X114347500Y-97935000D01*
D64*
X128901000Y-70476000D02*
X128204000Y-70476000D01*
X122250000Y-93950000D02*
X122300000Y-93900000D01*
D65*
X141770000Y-62871860D02*
X141770000Y-62080000D01*
D64*
X129190000Y-73250000D02*
X128200000Y-73250000D01*
D65*
X141491860Y-63150000D02*
X141770000Y-62871860D01*
D64*
X115445000Y-63545000D02*
X115500000Y-63600000D01*
D65*
X131780000Y-63380000D02*
X131800000Y-63400000D01*
X115975000Y-95395000D02*
X116100000Y-95520000D01*
D64*
X119400000Y-85130000D02*
X119400000Y-86050000D01*
X113400000Y-79850000D02*
X114400000Y-78850000D01*
X138090000Y-67800000D02*
X137200000Y-67800000D01*
D65*
X140855000Y-63150000D02*
X141491860Y-63150000D01*
D64*
X130020000Y-93700000D02*
X128900000Y-93700000D01*
D65*
X117750000Y-88350000D02*
X119900000Y-90500000D01*
X114347500Y-95395000D02*
X115975000Y-95395000D01*
X131000000Y-54000000D02*
X131000000Y-55425000D01*
D64*
X117320000Y-78080000D02*
X117300000Y-78100000D01*
X131500000Y-99100000D02*
X131500000Y-100400000D01*
X137650000Y-76737500D02*
X137650000Y-75310000D01*
X117000000Y-81750000D02*
X116380000Y-81750000D01*
D65*
X131780000Y-62400000D02*
X131780000Y-63380000D01*
D64*
X123120000Y-78400000D02*
X123120000Y-78500000D01*
X121050000Y-51970000D02*
X121050000Y-53262500D01*
X120250000Y-68637500D02*
X120250000Y-67330000D01*
X120480000Y-66120000D02*
X120500000Y-66100000D01*
D65*
X131800000Y-62380000D02*
X131780000Y-62400000D01*
X119300000Y-95100000D02*
X117525000Y-95100000D01*
D64*
X131000000Y-80035274D02*
X131028035Y-80007239D01*
X123250000Y-78270000D02*
X123120000Y-78400000D01*
X117320000Y-77100000D02*
X117320000Y-78080000D01*
X120480000Y-67100000D02*
X120480000Y-66120000D01*
X128204000Y-70476000D02*
X128200000Y-70480000D01*
X123250000Y-76962500D02*
X123250000Y-78270000D01*
X123150000Y-80450000D02*
X123120000Y-80420000D01*
X117000000Y-81750000D02*
X117620000Y-81750000D01*
D65*
X117525000Y-95100000D02*
X117105000Y-95520000D01*
D64*
X122250000Y-95570000D02*
X122250000Y-93950000D01*
X132600000Y-55425000D02*
X132600000Y-54000000D01*
X123120000Y-80420000D02*
X123120000Y-79500000D01*
X126662500Y-70550000D02*
X128030000Y-70550000D01*
D65*
X116495000Y-99205000D02*
X116500000Y-99200000D01*
D64*
X114400000Y-78850000D02*
X114300000Y-78850000D01*
X115820000Y-74820000D02*
X115800000Y-74800000D01*
X138090000Y-64700000D02*
X137990000Y-64600000D01*
X121050000Y-53262500D02*
X121087500Y-53300000D01*
X126750000Y-85130000D02*
X126750000Y-86000000D01*
X132710000Y-81250000D02*
X132710000Y-80035274D01*
D65*
X131800000Y-60937500D02*
X131800000Y-62380000D01*
D64*
X117600000Y-60012500D02*
X119212500Y-58400000D01*
X128030000Y-70550000D02*
X128100000Y-70480000D01*
X111720000Y-50530000D02*
X111725000Y-50525000D01*
%TO.N,/Input Output/BUZZER*%
X139460000Y-74050000D02*
X139575000Y-74165000D01*
X126662500Y-74050000D02*
X139460000Y-74050000D01*
%TO.N,/Input Output/NTC1*%
X140430000Y-55550000D02*
X139400000Y-56580000D01*
X141850000Y-55550000D02*
X140430000Y-55550000D01*
X124750000Y-77831824D02*
X124750000Y-76962500D01*
X125218176Y-78300000D02*
X124750000Y-77831824D01*
X137220000Y-56580000D02*
X137200000Y-56600000D01*
X139400000Y-56580000D02*
X137220000Y-56580000D01*
X127700000Y-78300000D02*
X125218176Y-78300000D01*
%TO.N,/Input Output/NTC2*%
X127700000Y-77000000D02*
X127662500Y-76962500D01*
X140490000Y-47600000D02*
X139500000Y-48590000D01*
X127662500Y-76962500D02*
X125250000Y-76962500D01*
X139500000Y-48590000D02*
X137410000Y-48590000D01*
X141850000Y-47600000D02*
X140490000Y-47600000D01*
X137410000Y-48590000D02*
X137400000Y-48600000D01*
%TO.N,+3.3V*%
X139400000Y-57600000D02*
X139400000Y-58700000D01*
X118280000Y-78080000D02*
X118300000Y-78100000D01*
X126837500Y-79500000D02*
X128100000Y-79500000D01*
X125850000Y-58400000D02*
X128300000Y-58400000D01*
X132210000Y-73250000D02*
X133200000Y-73250000D01*
X126662500Y-70050000D02*
X127500000Y-70050000D01*
X116800000Y-75780000D02*
X115820000Y-75780000D01*
X112150000Y-79850000D02*
X112150000Y-79150000D01*
X119750000Y-76962500D02*
X118417500Y-76962500D01*
X118280000Y-77100000D02*
X118280000Y-78080000D01*
X128300000Y-58400000D02*
X129700000Y-57000000D01*
D65*
X130850000Y-58662500D02*
X130850000Y-57125000D01*
D64*
X129700000Y-69725000D02*
X129495000Y-69520000D01*
X119750000Y-68637500D02*
X119750000Y-67330000D01*
X113150000Y-78150000D02*
X113150000Y-78080000D01*
X128030000Y-69520000D02*
X128200000Y-69520000D01*
X126750000Y-93950000D02*
X126800000Y-93900000D01*
X112150000Y-77090000D02*
X111150000Y-77090000D01*
D65*
X129725000Y-56975000D02*
X129700000Y-57000000D01*
D64*
X118417500Y-76962500D02*
X118280000Y-77100000D01*
X127500000Y-70050000D02*
X128030000Y-69520000D01*
X115820000Y-75780000D02*
X115800000Y-75800000D01*
X118450000Y-76930000D02*
X118280000Y-77100000D01*
X133010000Y-93700000D02*
X134100000Y-93700000D01*
X119750000Y-67330000D02*
X119520000Y-67100000D01*
X112150000Y-79150000D02*
X113150000Y-78150000D01*
X129495000Y-69520000D02*
X128200000Y-69520000D01*
X139500000Y-49610000D02*
X139500000Y-50800000D01*
X118337500Y-75550000D02*
X117030000Y-75550000D01*
X117030000Y-75550000D02*
X116800000Y-75780000D01*
D65*
X131000000Y-56975000D02*
X129725000Y-56975000D01*
D64*
X119520000Y-67100000D02*
X119520000Y-66120000D01*
X111150000Y-77090000D02*
X111150000Y-76200000D01*
X119520000Y-66120000D02*
X119500000Y-66100000D01*
X126750000Y-95570000D02*
X126750000Y-93950000D01*
D65*
X130850000Y-57125000D02*
X131000000Y-56975000D01*
D64*
%TO.N,Net-(U7-VDDA)*%
X124080000Y-79500000D02*
X125262500Y-79500000D01*
X124080000Y-78500000D02*
X124080000Y-79500000D01*
X123750000Y-76962500D02*
X123750000Y-78170000D01*
X123750000Y-78170000D02*
X124080000Y-78500000D01*
%TO.N,/Input Output/RESET*%
X130950000Y-92700000D02*
X130950000Y-93650000D01*
X122750000Y-76962500D02*
X122750000Y-75250000D01*
X130980000Y-94900000D02*
X131500000Y-94900000D01*
X130980000Y-93680000D02*
X130980000Y-93700000D01*
X130980000Y-93700000D02*
X130980000Y-94900000D01*
X122750000Y-75250000D02*
X122700000Y-75200000D01*
X130950000Y-93650000D02*
X130980000Y-93680000D01*
X131990000Y-93700000D02*
X130980000Y-93700000D01*
%TO.N,Net-(J3-CC2)*%
X139160000Y-64650000D02*
X139110000Y-64700000D01*
X140855000Y-64650000D02*
X139160000Y-64650000D01*
%TO.N,Net-(J3-CC1)*%
X139260000Y-67650000D02*
X139110000Y-67800000D01*
X140855000Y-67650000D02*
X139260000Y-67650000D01*
%TO.N,Net-(SW2-B)*%
X125260000Y-93900000D02*
X125260000Y-95560000D01*
X125260000Y-95560000D02*
X125250000Y-95570000D01*
%TO.N,Net-(C22-Pad2)*%
X124900000Y-84000000D02*
X124900000Y-84150000D01*
X124900000Y-83800000D02*
X124900000Y-84150000D01*
X122000000Y-80810000D02*
X122000000Y-80900000D01*
X122000000Y-80900000D02*
X124900000Y-83800000D01*
X126730000Y-84150000D02*
X126750000Y-84170000D01*
X124900000Y-84150000D02*
X126730000Y-84150000D01*
%TO.N,Net-(U7-PD1)*%
X122250000Y-79540000D02*
X122250000Y-76962500D01*
X122000000Y-79790000D02*
X122250000Y-79540000D01*
%TO.N,Net-(C24-Pad2)*%
X118580000Y-81750000D02*
X118580000Y-80430000D01*
X119400000Y-80810000D02*
X119390000Y-80800000D01*
X118580000Y-80430000D02*
X118250000Y-80100000D01*
X118050000Y-80800000D02*
X118050000Y-80300000D01*
X118050000Y-80300000D02*
X118250000Y-80100000D01*
X119390000Y-80800000D02*
X118050000Y-80800000D01*
X119500000Y-80810000D02*
X119400000Y-80810000D01*
%TO.N,Net-(U7-PC15)*%
X119560000Y-79790000D02*
X119500000Y-79790000D01*
X121250000Y-76962500D02*
X121250000Y-78100000D01*
X121250000Y-78100000D02*
X119560000Y-79790000D01*
%TO.N,Net-(U7-PC14)*%
X115550000Y-79700000D02*
X115550000Y-79950000D01*
X115420000Y-81750000D02*
X115420000Y-80430000D01*
X116450000Y-78800000D02*
X115550000Y-79700000D01*
X115420000Y-80430000D02*
X115750000Y-80100000D01*
X115550000Y-79900000D02*
X115750000Y-80100000D01*
X120750000Y-77850000D02*
X119800000Y-78800000D01*
X120750000Y-76962500D02*
X120750000Y-77850000D01*
X119800000Y-78800000D02*
X116450000Y-78800000D01*
X115550000Y-79750000D02*
X115550000Y-79900000D01*
%TO.N,/Input Output/LED_RED*%
X132768296Y-74550000D02*
X134428035Y-76209739D01*
X126662500Y-74550000D02*
X132768296Y-74550000D01*
%TO.N,/Alert Isolation/ALERT_OUT2*%
X113750000Y-61005000D02*
X115595000Y-61005000D01*
X122250000Y-68637500D02*
X122250000Y-70400000D01*
X115595000Y-61005000D02*
X115600000Y-61000000D01*
%TO.N,Net-(U7-PD0)*%
X121750000Y-76962500D02*
X121750000Y-78850000D01*
X121750000Y-78850000D02*
X121200000Y-79400000D01*
X121200000Y-84150000D02*
X119420000Y-84150000D01*
X121200000Y-79400000D02*
X121200000Y-85150000D01*
X119420000Y-84150000D02*
X119400000Y-84170000D01*
X121250000Y-84100000D02*
X121200000Y-84150000D01*
%TO.N,/Alert Isolation/ALERT_OUT3*%
X124175735Y-66812392D02*
X123750000Y-67238127D01*
X124175735Y-66750000D02*
X124175735Y-66812392D01*
X123750000Y-67238127D02*
X123750000Y-68637500D01*
X113750000Y-59735000D02*
X115565000Y-59735000D01*
X115565000Y-59735000D02*
X115600000Y-59700000D01*
%TO.N,/Input Output/VERSION*%
X129510000Y-72550000D02*
X126662500Y-72550000D01*
X129510000Y-72550000D02*
X130210000Y-73250000D01*
X131190000Y-73250000D02*
X130210000Y-73250000D01*
%TO.N,Net-(J3-D+-PadA6)*%
X140855000Y-65650000D02*
X141832000Y-65650000D01*
X140855000Y-65650000D02*
X136900000Y-65650000D01*
X141850000Y-66650000D02*
X140855000Y-66650000D01*
X136900000Y-65650000D02*
X136700000Y-65450000D01*
X142100000Y-65918000D02*
X142100000Y-66400000D01*
X142100000Y-66400000D02*
X141850000Y-66650000D01*
X136700000Y-65450000D02*
X135637500Y-65450000D01*
X141832000Y-65650000D02*
X142100000Y-65918000D01*
%TO.N,Net-(J3-D--PadA7)*%
X139600000Y-67150000D02*
X140855000Y-67150000D01*
X140855000Y-66150000D02*
X139878000Y-66150000D01*
X139600000Y-66428000D02*
X139600000Y-67150000D01*
X139878000Y-66150000D02*
X139600000Y-66428000D01*
X135637500Y-67350000D02*
X136700000Y-67350000D01*
X136900000Y-67150000D02*
X139600000Y-67150000D01*
X136700000Y-67350000D02*
X136900000Y-67150000D01*
%TO.N,/Alert Isolation/ALERT_OUT5*%
X115595000Y-57195000D02*
X115600000Y-57200000D01*
X125049000Y-67501000D02*
X124750000Y-67800000D01*
X125800000Y-67000000D02*
X125299000Y-67501000D01*
X124750000Y-67800000D02*
X124750000Y-68637500D01*
X113750000Y-57195000D02*
X115595000Y-57195000D01*
X125800000Y-66900000D02*
X125800000Y-67000000D01*
X125299000Y-67501000D02*
X125049000Y-67501000D01*
%TO.N,/Microcontroller/DM*%
X122549000Y-65851000D02*
X130251000Y-65851000D01*
X121750000Y-68637500D02*
X121750000Y-66650000D01*
X130251000Y-65851000D02*
X131750000Y-67350000D01*
X131750000Y-67350000D02*
X133362500Y-67350000D01*
X121750000Y-66650000D02*
X122549000Y-65851000D01*
%TO.N,+5VP*%
X85420000Y-55410000D02*
X85400000Y-55390000D01*
X86300000Y-72910000D02*
X85420000Y-72910000D01*
X106980000Y-70495000D02*
X106525000Y-70495000D01*
X104100000Y-74110000D02*
X104100000Y-75400000D01*
D65*
X103652500Y-96665000D02*
X101635000Y-96665000D01*
D64*
X87090000Y-64890000D02*
X86410000Y-64210000D01*
X50520000Y-36800000D02*
X50820000Y-36500000D01*
X90800000Y-62000000D02*
X90500000Y-62300000D01*
X85420000Y-68610000D02*
X85400000Y-68590000D01*
X53300000Y-99500000D02*
X52580000Y-99500000D01*
X87800000Y-60490000D02*
X87090000Y-60490000D01*
X51800000Y-66820000D02*
X51800000Y-67540000D01*
X86410000Y-73010000D02*
X86300000Y-73010000D01*
X50820000Y-36500000D02*
X51540000Y-36500000D01*
X90700000Y-62500000D02*
X90500000Y-62300000D01*
X93700000Y-80310000D02*
X93700000Y-81300000D01*
X53600000Y-99200000D02*
X53300000Y-99500000D01*
X87090000Y-69290000D02*
X86410000Y-68610000D01*
X87800000Y-64890000D02*
X87090000Y-64890000D01*
X92200000Y-62000000D02*
X90800000Y-62000000D01*
D65*
X103652500Y-99205000D02*
X102025000Y-99205000D01*
D64*
X50300000Y-66820000D02*
X50600000Y-66520000D01*
X86410000Y-68610000D02*
X85420000Y-68610000D01*
X87800000Y-78100000D02*
X87100000Y-78100000D01*
X85420000Y-77420000D02*
X85400000Y-77400000D01*
X53600000Y-98300000D02*
X53600000Y-99200000D01*
X93700000Y-58300000D02*
X93700000Y-59290000D01*
X50520000Y-37700000D02*
X50520000Y-36800000D01*
X87800000Y-69290000D02*
X87090000Y-69290000D01*
X92200000Y-75200000D02*
X90800000Y-75200000D01*
X104450000Y-52970000D02*
X105545000Y-51875000D01*
X87090000Y-56090000D02*
X86410000Y-55410000D01*
X85420000Y-72910000D02*
X85400000Y-72890000D01*
D65*
X102025000Y-99205000D02*
X101900000Y-99080000D01*
D64*
X104450000Y-54655000D02*
X104450000Y-52970000D01*
X85420000Y-59810000D02*
X85400000Y-59790000D01*
X105545000Y-50530000D02*
X105550000Y-50525000D01*
D65*
X100895000Y-99080000D02*
X101900000Y-99080000D01*
D64*
X105545000Y-51875000D02*
X105545000Y-50530000D01*
X106980000Y-68900000D02*
X106980000Y-70495000D01*
X86410000Y-55410000D02*
X85420000Y-55410000D01*
D65*
X98700000Y-99600000D02*
X100375000Y-99600000D01*
D64*
X86410000Y-64210000D02*
X85420000Y-64210000D01*
X92200000Y-62500000D02*
X90700000Y-62500000D01*
X51287500Y-37500000D02*
X51287500Y-38000000D01*
X52812500Y-98000000D02*
X53300000Y-98000000D01*
X86300000Y-77420000D02*
X85420000Y-77420000D01*
X53300000Y-98000000D02*
X53600000Y-98300000D01*
X51500000Y-66520000D02*
X51800000Y-66820000D01*
X86410000Y-59810000D02*
X85420000Y-59810000D01*
D65*
X101635000Y-96665000D02*
X101600000Y-96700000D01*
D64*
X50820000Y-38000000D02*
X50520000Y-37700000D01*
X93700000Y-75900000D02*
X93700000Y-76890000D01*
X92200000Y-66900000D02*
X90700000Y-66900000D01*
X104100000Y-70790000D02*
X104100000Y-68900000D01*
X93700000Y-71500000D02*
X93700000Y-72490000D01*
X86420000Y-77420000D02*
X86300000Y-77420000D01*
X87090000Y-73690000D02*
X86410000Y-73010000D01*
X87090000Y-60490000D02*
X86410000Y-59810000D01*
X50300000Y-67307500D02*
X50300000Y-66820000D01*
X93700000Y-62700000D02*
X93700000Y-63690000D01*
X87800000Y-73690000D02*
X87090000Y-73690000D01*
X93700000Y-67100000D02*
X93700000Y-68090000D01*
D65*
X100375000Y-99600000D02*
X100895000Y-99080000D01*
D64*
X51307500Y-38000000D02*
X50820000Y-38000000D01*
X50600000Y-66520000D02*
X51500000Y-66520000D01*
X92200000Y-58100000D02*
X90500000Y-58100000D01*
X87100000Y-78100000D02*
X86420000Y-77420000D01*
X90800000Y-75200000D02*
X90700000Y-75100000D01*
X87800000Y-56090000D02*
X87090000Y-56090000D01*
X85420000Y-64210000D02*
X85400000Y-64190000D01*
X90700000Y-66900000D02*
X90600000Y-67000000D01*
%TO.N,GND1*%
X50900000Y-99500000D02*
X51620000Y-99500000D01*
X52732500Y-38000000D02*
X53270000Y-38000000D01*
X50800000Y-67700000D02*
X50800000Y-67287500D01*
X85420000Y-73970000D02*
X85400000Y-73990000D01*
X50300000Y-68732500D02*
X50300000Y-69270000D01*
X53520000Y-36800000D02*
X53220000Y-36500000D01*
X51800000Y-69220000D02*
X51800000Y-68500000D01*
X86520000Y-69790000D02*
X86300000Y-69570000D01*
D65*
X102085000Y-97935000D02*
X101900000Y-98120000D01*
D64*
X87800000Y-74190000D02*
X86520000Y-74190000D01*
X85420000Y-56370000D02*
X85400000Y-56390000D01*
D65*
X103652500Y-95395000D02*
X101605000Y-95395000D01*
D64*
X51387500Y-98000000D02*
X50850000Y-98000000D01*
X104400000Y-63595000D02*
X104450000Y-63545000D01*
X86300000Y-78380000D02*
X85420000Y-78380000D01*
X86300000Y-56370000D02*
X85420000Y-56370000D01*
D65*
X100895000Y-98120000D02*
X101900000Y-98120000D01*
D64*
X53270000Y-38000000D02*
X53520000Y-37750000D01*
X53520000Y-37750000D02*
X53520000Y-36800000D01*
X90550000Y-79850000D02*
X90800000Y-79600000D01*
X90800000Y-66400000D02*
X90600000Y-66200000D01*
X86300000Y-60770000D02*
X85420000Y-60770000D01*
X87800000Y-65390000D02*
X86520000Y-65390000D01*
X50300000Y-69270000D02*
X50550000Y-69520000D01*
X53220000Y-36500000D02*
X52500000Y-36500000D01*
X50550000Y-69520000D02*
X51500000Y-69520000D01*
X85420000Y-69570000D02*
X85400000Y-69590000D01*
X90800000Y-79600000D02*
X92200000Y-79600000D01*
X50300000Y-68712500D02*
X50300000Y-68200000D01*
X106525000Y-75400000D02*
X106525000Y-74305000D01*
X90900000Y-75700000D02*
X90700000Y-75900000D01*
X90800000Y-80100000D02*
X92200000Y-80100000D01*
X50300000Y-68200000D02*
X50800000Y-67700000D01*
X92200000Y-71300000D02*
X90800000Y-71300000D01*
X86520000Y-74190000D02*
X86300000Y-73970000D01*
X92200000Y-66400000D02*
X90800000Y-66400000D01*
D65*
X101605000Y-95395000D02*
X101600000Y-95400000D01*
D64*
X87800000Y-78600000D02*
X86520000Y-78600000D01*
X92200000Y-75700000D02*
X90900000Y-75700000D01*
X85420000Y-78380000D02*
X85400000Y-78400000D01*
X86520000Y-60990000D02*
X86300000Y-60770000D01*
X90800000Y-71300000D02*
X90600000Y-71500000D01*
X104400000Y-64900000D02*
X104400000Y-63595000D01*
X90550000Y-79850000D02*
X90800000Y-80100000D01*
X87800000Y-60990000D02*
X86520000Y-60990000D01*
X50600000Y-99200000D02*
X50900000Y-99500000D01*
X50600000Y-98250000D02*
X50600000Y-99200000D01*
X87800000Y-56590000D02*
X86520000Y-56590000D01*
X86520000Y-65390000D02*
X86300000Y-65170000D01*
X50850000Y-98000000D02*
X50600000Y-98250000D01*
X106505000Y-51875000D02*
X106505000Y-50530000D01*
X86520000Y-56590000D02*
X86300000Y-56370000D01*
X85420000Y-65170000D02*
X85400000Y-65190000D01*
D65*
X100475000Y-97700000D02*
X100895000Y-98120000D01*
D64*
X86520000Y-78600000D02*
X86300000Y-78380000D01*
X106505000Y-50530000D02*
X106500000Y-50525000D01*
X87800000Y-69790000D02*
X86520000Y-69790000D01*
X86300000Y-65170000D02*
X85420000Y-65170000D01*
D65*
X103652500Y-97935000D02*
X102085000Y-97935000D01*
D64*
X86300000Y-73970000D02*
X85420000Y-73970000D01*
X85420000Y-60770000D02*
X85400000Y-60790000D01*
X86300000Y-69570000D02*
X85420000Y-69570000D01*
X51500000Y-69520000D02*
X51800000Y-69220000D01*
D65*
X98500000Y-97700000D02*
X100475000Y-97700000D01*
D64*
%TO.N,/Microcontroller/DP*%
X122304000Y-65396000D02*
X121250000Y-66450000D01*
X133362500Y-65450000D02*
X133308500Y-65396000D01*
X133308500Y-65396000D02*
X122304000Y-65396000D01*
X121250000Y-66450000D02*
X121250000Y-68637500D01*
%TO.N,/Alert Isolation/ALERT_OUT1*%
X113750000Y-62275000D02*
X115575000Y-62275000D01*
X120750000Y-68637500D02*
X120750000Y-70400000D01*
X115575000Y-62275000D02*
X115600000Y-62300000D01*
%TO.N,+5V*%
X132750000Y-60937500D02*
X132750000Y-60275001D01*
X112680000Y-50530000D02*
X112675000Y-50525000D01*
X127500000Y-63600000D02*
X125850000Y-63600000D01*
X111100000Y-68880000D02*
X111100000Y-70495000D01*
X133362500Y-66400000D02*
X131800000Y-66400000D01*
X113750000Y-52970000D02*
X112680000Y-51900000D01*
X145575000Y-76250000D02*
X145550000Y-76275000D01*
D65*
X114347500Y-96665000D02*
X115915000Y-96665000D01*
X130820000Y-62400000D02*
X130820000Y-63380000D01*
X115915000Y-96665000D02*
X116100000Y-96480000D01*
D64*
X113900000Y-74110000D02*
X113900000Y-75400000D01*
X111100000Y-70495000D02*
X111475000Y-70495000D01*
X125850000Y-63600000D02*
X125850000Y-63450000D01*
D65*
X115850000Y-85300000D02*
X115850000Y-88990000D01*
D64*
X132374999Y-59900000D02*
X131225001Y-59900000D01*
D65*
X119300000Y-96950000D02*
X117575000Y-96950000D01*
X115850000Y-88990000D02*
X117360000Y-90500000D01*
D64*
X145550000Y-76275000D02*
X145550000Y-78075000D01*
D65*
X130820000Y-63380000D02*
X130800000Y-63400000D01*
D64*
X131225001Y-59900000D02*
X130850000Y-60275001D01*
X112680000Y-51900000D02*
X112680000Y-50530000D01*
X113900000Y-69000000D02*
X113900000Y-70690000D01*
D65*
X117105000Y-96480000D02*
X116100000Y-96480000D01*
D64*
X145550000Y-81350000D02*
X145550000Y-78075000D01*
D65*
X130820000Y-60967500D02*
X130820000Y-62240000D01*
D64*
X111020000Y-68800000D02*
X111100000Y-68880000D01*
D65*
X130820000Y-62240000D02*
X130850000Y-62270000D01*
X130850000Y-60937500D02*
X130820000Y-60967500D01*
D64*
X132750000Y-60275001D02*
X132374999Y-59900000D01*
X130850000Y-60275001D02*
X130850000Y-60937500D01*
X113750000Y-54655000D02*
X113750000Y-52970000D01*
D65*
X117575000Y-96950000D02*
X117105000Y-96480000D01*
D64*
%TO.N,Net-(D1-A)*%
X134428035Y-77229739D02*
X134428035Y-78432239D01*
%TO.N,Net-(D2-A)*%
X132728035Y-78422239D02*
X132738035Y-78432239D01*
X132728035Y-77229739D02*
X132728035Y-78422239D01*
%TO.N,/Input Output/LED_GREEN*%
X131568296Y-75050000D02*
X132728035Y-76209739D01*
X126662500Y-75050000D02*
X131568296Y-75050000D01*
%TO.N,Net-(D3-A)*%
X131028035Y-77229739D02*
X131028035Y-78432239D01*
%TO.N,/Input Output/LED_BLUE*%
X130368296Y-75550000D02*
X131028035Y-76209739D01*
X126662500Y-75550000D02*
X130368296Y-75550000D01*
%TO.N,/Input Output/CASE_SW*%
X125000000Y-73100000D02*
X125050000Y-73050000D01*
X125050000Y-73050000D02*
X126662500Y-73050000D01*
X119587500Y-52400000D02*
X119587500Y-51210000D01*
%TO.N,Net-(J4-Pin_1)*%
X126525000Y-44385000D02*
X125110000Y-45800000D01*
X127362500Y-47462500D02*
X127362500Y-49417500D01*
X126525000Y-46625000D02*
X127362500Y-47462500D01*
X120800000Y-45800000D02*
X119385000Y-44385000D01*
X126460000Y-44450000D02*
X126525000Y-44385000D01*
X126525000Y-44385000D02*
X126525000Y-46625000D01*
X125110000Y-45800000D02*
X120800000Y-45800000D01*
X127362500Y-49417500D02*
X127350000Y-49430000D01*
%TO.N,Net-(J4-Pin_2)*%
X127350000Y-51970000D02*
X129065000Y-50255000D01*
X129065000Y-44385000D02*
X127680000Y-43000000D01*
X123310000Y-43000000D02*
X121925000Y-44385000D01*
X129065000Y-50255000D02*
X129065000Y-44385000D01*
X127680000Y-43000000D02*
X123310000Y-43000000D01*
X129000000Y-44450000D02*
X129065000Y-44385000D01*
%TO.N,Net-(R38-Pad2)*%
X119587500Y-50190000D02*
X120290000Y-50190000D01*
X120290000Y-50190000D02*
X121050000Y-49430000D01*
%TO.N,/Alert Isolation/ALERT_OUT6*%
X126600000Y-67900000D02*
X125862500Y-68637500D01*
X113750000Y-55925000D02*
X115575000Y-55925000D01*
X115575000Y-55925000D02*
X115600000Y-55900000D01*
X125862500Y-68637500D02*
X125250000Y-68637500D01*
%TO.N,/Alert Isolation/ALERT_OUT4*%
X115565000Y-58465000D02*
X115600000Y-58500000D01*
X124250000Y-67650000D02*
X124250000Y-68637500D01*
X113750000Y-58465000D02*
X115565000Y-58465000D01*
X125000000Y-66550000D02*
X125000000Y-66900000D01*
X125000000Y-66900000D02*
X124250000Y-67650000D01*
%TO.N,/I2C Isolation/SCL2*%
X111510000Y-71800000D02*
X111475000Y-71765000D01*
X113855000Y-71765000D02*
X114640000Y-72550000D01*
X111475000Y-71765000D02*
X113855000Y-71765000D01*
X114640000Y-72550000D02*
X118337500Y-72550000D01*
%TO.N,/I2C Isolation/SDA2*%
X113940000Y-73050000D02*
X118337500Y-73050000D01*
X111475000Y-73035000D02*
X113845000Y-73035000D01*
X113845000Y-73035000D02*
X113900000Y-73090000D01*
X113900000Y-73090000D02*
X113940000Y-73050000D01*
%TO.N,/Alert Isolation/ALERT_IN6*%
X93790000Y-57290000D02*
X93700000Y-57290000D01*
X95400000Y-57800000D02*
X94300000Y-57800000D01*
X93510000Y-57090000D02*
X93700000Y-57280000D01*
X92200000Y-57090000D02*
X93510000Y-57090000D01*
X98300000Y-57800000D02*
X100050000Y-56050000D01*
X100050000Y-56050000D02*
X104325000Y-56050000D01*
X104325000Y-56050000D02*
X104450000Y-55925000D01*
X94300000Y-57800000D02*
X93790000Y-57290000D01*
%TO.N,/Alert Isolation/ALERT_IN3*%
X93510000Y-70290000D02*
X93700000Y-70480000D01*
X92200000Y-70290000D02*
X93510000Y-70290000D01*
X104385000Y-59800000D02*
X104450000Y-59735000D01*
X103700000Y-59800000D02*
X104385000Y-59800000D01*
X95400000Y-71000000D02*
X94210000Y-71000000D01*
X94210000Y-71000000D02*
X93700000Y-70490000D01*
X98200000Y-65300000D02*
X103700000Y-59800000D01*
%TO.N,/Alert Isolation/ALERT_IN4*%
X95400000Y-66600000D02*
X94210000Y-66600000D01*
X103500000Y-58500000D02*
X104415000Y-58500000D01*
X104415000Y-58500000D02*
X104450000Y-58465000D01*
X94210000Y-66600000D02*
X93700000Y-66090000D01*
X93510000Y-65890000D02*
X93700000Y-66080000D01*
X98200000Y-63800000D02*
X103500000Y-58500000D01*
X92200000Y-65890000D02*
X93510000Y-65890000D01*
%TO.N,/Alert Isolation/ALERT_IN5*%
X102500000Y-57900000D02*
X102505000Y-57900000D01*
X92200000Y-61490000D02*
X93510000Y-61490000D01*
X93510000Y-61490000D02*
X93700000Y-61680000D01*
X102505000Y-57900000D02*
X103210000Y-57195000D01*
X98200000Y-62200000D02*
X102500000Y-57900000D01*
X95400000Y-62200000D02*
X94210000Y-62200000D01*
X103210000Y-57195000D02*
X104450000Y-57195000D01*
X94210000Y-62200000D02*
X93700000Y-61690000D01*
%TO.N,/Alert Isolation/ALERT_IN1*%
X98200000Y-67800000D02*
X103700000Y-62300000D01*
X103700000Y-62300000D02*
X104425000Y-62300000D01*
X92200000Y-79100000D02*
X93510000Y-79100000D01*
X95510000Y-79290000D02*
X93700000Y-79290000D01*
X104425000Y-62300000D02*
X104450000Y-62275000D01*
X96800000Y-78000000D02*
X95510000Y-79290000D01*
X93510000Y-79100000D02*
X93700000Y-79290000D01*
%TO.N,/Alert Isolation/ALERT_IN2*%
X92200000Y-74690000D02*
X93510000Y-74690000D01*
X98200000Y-66600000D02*
X103795000Y-61005000D01*
X95400000Y-75400000D02*
X94210000Y-75400000D01*
X103795000Y-61005000D02*
X104450000Y-61005000D01*
X93510000Y-74700000D02*
X93700000Y-74890000D01*
X93510000Y-74690000D02*
X93700000Y-74880000D01*
X94210000Y-75400000D02*
X93700000Y-74890000D01*
X92200000Y-74700000D02*
X93510000Y-74700000D01*
%TO.N,/12V-2x6 Connectors/S4*%
X52600000Y-48880000D02*
X53480000Y-48000000D01*
X52600000Y-81120000D02*
X52600000Y-48880000D01*
X53480000Y-82000000D02*
X52600000Y-81120000D01*
%TO.N,/12V-2x6 Connectors/12V_OUT5*%
X83200000Y-61500000D02*
X83100000Y-61400000D01*
X87800000Y-61500000D02*
X83200000Y-61500000D01*
%TO.N,/12V-2x6 Connectors/12V_OUT6*%
X83100000Y-57100000D02*
X83000000Y-57000000D01*
X87800000Y-57100000D02*
X83100000Y-57100000D01*
%TO.N,/12V-2x6 Connectors/12V_OUT4*%
X87800000Y-65900000D02*
X83200000Y-65900000D01*
X83200000Y-65900000D02*
X83100000Y-65800000D01*
%TO.N,/12V-2x6 Connectors/12V_OUT1*%
X79000000Y-66100000D02*
X81200000Y-68300000D01*
X76600000Y-66100000D02*
X79000000Y-66100000D01*
X81200000Y-75700000D02*
X84600000Y-79100000D01*
X76250000Y-65750000D02*
X76600000Y-66100000D01*
X81200000Y-68300000D02*
X81200000Y-75700000D01*
X84600000Y-79100000D02*
X87800000Y-79100000D01*
%TO.N,/12V-2x6 Connectors/12V_OUT3*%
X83100000Y-70200000D02*
X83200000Y-70300000D01*
X83200000Y-70300000D02*
X87800000Y-70300000D01*
%TO.N,/12V-2x6 Connectors/12V_OUT2*%
X83100000Y-74600000D02*
X83200000Y-74700000D01*
X83200000Y-74700000D02*
X87800000Y-74700000D01*
%TO.N,/Input Output/BOOT*%
X124240000Y-93900000D02*
X124240000Y-92840000D01*
X124240000Y-92840000D02*
X124200000Y-92800000D01*
X119950000Y-73550000D02*
X118337500Y-73550000D01*
%TO.N,/Current Sensing/CurrentSense1/IN-*%
X80700000Y-76310000D02*
X84290000Y-79900000D01*
X80000000Y-68000000D02*
X80700000Y-68700000D01*
X80700000Y-68700000D02*
X80700000Y-76310000D01*
X77334000Y-67115000D02*
X78219000Y-68000000D01*
X78219000Y-68000000D02*
X80000000Y-68000000D01*
%TO.N,/Current Sensing/CurrentSense1/IN+*%
X80150000Y-76760000D02*
X84290000Y-80900000D01*
X80150000Y-69150000D02*
X80150000Y-76760000D01*
X77719000Y-68500000D02*
X79500000Y-68500000D01*
X77334000Y-68885000D02*
X77719000Y-68500000D01*
X79500000Y-68500000D02*
X80150000Y-69150000D01*
%TO.N,/Current Sensing/CurrentSense2/IN+*%
X83100000Y-76500000D02*
X84290000Y-76500000D01*
%TO.N,/Current Sensing/CurrentSense2/IN-*%
X83100000Y-75500000D02*
X84290000Y-75500000D01*
%TO.N,/Current Sensing/CurrentSense3/IN+*%
X83100000Y-72100000D02*
X84290000Y-72100000D01*
%TO.N,/Current Sensing/CurrentSense3/IN-*%
X83100000Y-71100000D02*
X84290000Y-71100000D01*
%TO.N,/Current Sensing/CurrentSense4/IN+*%
X84290000Y-67700000D02*
X83100000Y-67700000D01*
%TO.N,/Current Sensing/CurrentSense4/IN-*%
X83100000Y-66700000D02*
X84290000Y-66700000D01*
%TO.N,/Current Sensing/CurrentSense5/IN+*%
X83100000Y-63300000D02*
X84290000Y-63300000D01*
%TO.N,/Current Sensing/CurrentSense5/IN-*%
X83100000Y-62300000D02*
X84290000Y-62300000D01*
%TO.N,/Current Sensing/CurrentSense6/IN+*%
X83000000Y-58900000D02*
X84290000Y-58900000D01*
%TO.N,/Current Sensing/CurrentSense6/IN-*%
X83000000Y-57900000D02*
X84290000Y-57900000D01*
%TO.N,/Current Sensing/SCL1*%
X96100000Y-76200000D02*
X94200000Y-78100000D01*
X104335000Y-71765000D02*
X106525000Y-71765000D01*
X49400000Y-97500000D02*
X51387500Y-97500000D01*
X96100000Y-59900000D02*
X95500000Y-60500000D01*
X96100000Y-57200000D02*
X96100000Y-59900000D01*
X96100000Y-61100000D02*
X96100000Y-64300000D01*
X96100000Y-64300000D02*
X95500000Y-64900000D01*
X92200000Y-73700000D02*
X95500000Y-73700000D01*
X106525000Y-71765000D02*
X106490000Y-71800000D01*
X92200000Y-56100000D02*
X95000000Y-56100000D01*
X95500000Y-60500000D02*
X92200000Y-60500000D01*
X49800000Y-70600000D02*
X49700000Y-70700000D01*
X95500000Y-64900000D02*
X96100000Y-65500000D01*
X96125000Y-73075000D02*
X95500000Y-73700000D01*
X100000000Y-71810000D02*
X96810000Y-71810000D01*
X49800000Y-68712500D02*
X49800000Y-70600000D01*
X96810000Y-71810000D02*
X96125000Y-72495000D01*
X70000000Y-98000000D02*
X92000000Y-98000000D01*
X96100000Y-74300000D02*
X96100000Y-76200000D01*
X104000000Y-86000000D02*
X104000000Y-79000000D01*
X96810000Y-71810000D02*
X96125000Y-71125000D01*
X104100000Y-71810000D02*
X100000000Y-71810000D01*
X95500000Y-69300000D02*
X92200000Y-69300000D01*
X96125000Y-71125000D02*
X96125000Y-69925000D01*
X96100000Y-65500000D02*
X96100000Y-68700000D01*
X95500000Y-60500000D02*
X96100000Y-61100000D01*
X104100000Y-71810000D02*
X104290000Y-71810000D01*
X96100000Y-68700000D02*
X95500000Y-69300000D01*
X94200000Y-78100000D02*
X92200000Y-78100000D01*
X95000000Y-56100000D02*
X96100000Y-57200000D01*
X96125000Y-72495000D02*
X96125000Y-73075000D01*
X104290000Y-71810000D02*
X104335000Y-71765000D01*
X96125000Y-69925000D02*
X95500000Y-69300000D01*
X92200000Y-64900000D02*
X95500000Y-64900000D01*
X52712500Y-38500000D02*
X54400000Y-38500000D01*
X92000000Y-98000000D02*
X104000000Y-86000000D01*
X95500000Y-73700000D02*
X96100000Y-74300000D01*
X104000000Y-79000000D02*
X100000000Y-75000000D01*
%TO.N,/Current Sensing/SDA1*%
X94725735Y-56800000D02*
X94725735Y-56700000D01*
X50600000Y-38500000D02*
X48700000Y-40400000D01*
X91000000Y-70600000D02*
X91000000Y-70000000D01*
X49812500Y-67387500D02*
X49812500Y-67300000D01*
X91000000Y-57400000D02*
X91000000Y-56800000D01*
X94725735Y-56700000D02*
X94625735Y-56600000D01*
X94725735Y-65500000D02*
X94625735Y-65400000D01*
X59488127Y-94400000D02*
X64400000Y-94400000D01*
X101000000Y-74700000D02*
X101000000Y-73600000D01*
X49600000Y-96700000D02*
X48700000Y-95800000D01*
X94725735Y-69974265D02*
X94725735Y-69900000D01*
X51800000Y-96700000D02*
X49600000Y-96700000D01*
X91200000Y-70800000D02*
X91000000Y-70600000D01*
X92450000Y-99000000D02*
X105000000Y-86450000D01*
X48700000Y-95800000D02*
X48700000Y-68500000D01*
X94725735Y-69900000D02*
X94625735Y-69800000D01*
X106470000Y-73090000D02*
X106525000Y-73035000D01*
X52526392Y-98500000D02*
X52247000Y-98220608D01*
X101510000Y-73090000D02*
X104100000Y-73090000D01*
X49812500Y-67300000D02*
X49800000Y-67287500D01*
X64400000Y-94400000D02*
X69000000Y-99000000D01*
X96800000Y-76500000D02*
X96800000Y-74300000D01*
X101000000Y-73600000D02*
X101510000Y-73090000D01*
X48700000Y-68500000D02*
X49812500Y-67387500D01*
X94700000Y-70000000D02*
X94725735Y-69974265D01*
X91000000Y-70000000D02*
X91200000Y-69800000D01*
X56388127Y-97500000D02*
X59488127Y-94400000D01*
X48700000Y-40400000D02*
X48700000Y-66000000D01*
X94700000Y-74400000D02*
X94500000Y-74200000D01*
X52247000Y-98220608D02*
X52247000Y-97728001D01*
X94625735Y-69800000D02*
X92200000Y-69800000D01*
X94725735Y-61100000D02*
X94625735Y-61000000D01*
X91000000Y-56800000D02*
X91200000Y-56600000D01*
X49800000Y-67100000D02*
X49800000Y-67287500D01*
X48700000Y-66000000D02*
X49800000Y-67100000D01*
X94700000Y-78600000D02*
X92200000Y-78600000D01*
X98010000Y-73090000D02*
X100490000Y-73090000D01*
X52812500Y-98500000D02*
X52526392Y-98500000D01*
X52812500Y-97500000D02*
X52600000Y-97500000D01*
X94625735Y-61000000D02*
X92200000Y-61000000D01*
X105000000Y-78700000D02*
X101000000Y-74700000D01*
X94700000Y-78600000D02*
X96800000Y-76500000D01*
X96800000Y-74300000D02*
X98010000Y-73090000D01*
X94625735Y-56600000D02*
X92200000Y-56600000D01*
X91200000Y-56600000D02*
X92200000Y-56600000D01*
X92200000Y-57600000D02*
X91200000Y-57600000D01*
X69000000Y-99000000D02*
X92450000Y-99000000D01*
X51287500Y-38500000D02*
X50600000Y-38500000D01*
X91200000Y-57600000D02*
X91000000Y-57400000D01*
X94500000Y-74200000D02*
X92200000Y-74200000D01*
X52600000Y-97500000D02*
X51800000Y-96700000D01*
X92200000Y-70800000D02*
X91200000Y-70800000D01*
X52475001Y-97500000D02*
X52812500Y-97500000D01*
X105000000Y-86450000D02*
X105000000Y-78700000D01*
X52247000Y-97728001D02*
X52475001Y-97500000D01*
X94625735Y-65400000D02*
X92200000Y-65400000D01*
X91200000Y-69800000D02*
X92200000Y-69800000D01*
X100490000Y-73090000D02*
X101000000Y-73600000D01*
X104100000Y-73090000D02*
X106470000Y-73090000D01*
X52812500Y-97500000D02*
X56388127Y-97500000D01*
X94725735Y-65600000D02*
X94725735Y-65500000D01*
X94725735Y-61200000D02*
X94725735Y-61100000D01*
%TO.N,Net-(U13-BP)*%
X132750000Y-57125000D02*
X132600000Y-56975000D01*
X132750000Y-58662500D02*
X132750000Y-57125000D01*
%TO.N,Net-(D4-A)*%
X121990000Y-63600000D02*
X120787500Y-63600000D01*
%TO.N,Net-(JP1-B)*%
X124550000Y-63600000D02*
X123010000Y-63600000D01*
%TO.N,Net-(M2-Tacho)*%
X111650000Y-82650000D02*
X111650000Y-84240000D01*
X111650000Y-84240000D02*
X112150000Y-84740000D01*
%TO.N,Net-(M2-PWM)*%
X111150000Y-82650000D02*
X111150000Y-84740000D01*
X111300000Y-84590000D02*
X111150000Y-84740000D01*
%TO.N,/Input Output/FAN_TACHO*%
X118337500Y-70550000D02*
X116650000Y-70550000D01*
X116650000Y-70550000D02*
X116400000Y-70800000D01*
X111650000Y-78610000D02*
X112150000Y-78110000D01*
X111650000Y-79850000D02*
X111650000Y-78610000D01*
%TO.N,/Input Output/FAN_PWM*%
X111150000Y-79850000D02*
X111150000Y-78110000D01*
X118337500Y-70050000D02*
X116700000Y-70050000D01*
X116700000Y-70050000D02*
X116400000Y-69750000D01*
%TO.N,/Input Output/VREF2*%
X112150000Y-83735000D02*
X113150000Y-84735000D01*
X114120000Y-84770000D02*
X114150000Y-84740000D01*
X111150000Y-85760000D02*
X112150000Y-85760000D01*
X113150000Y-84770000D02*
X114120000Y-84770000D01*
X112150000Y-82650000D02*
X112650000Y-82650000D01*
X113150000Y-84735000D02*
X113150000Y-84770000D01*
X112150000Y-82650000D02*
X112150000Y-83735000D01*
X113140000Y-84770000D02*
X112150000Y-85760000D01*
X113150000Y-84770000D02*
X113140000Y-84770000D01*
%TO.N,Net-(D5-A)*%
X121990000Y-58400000D02*
X120787500Y-58400000D01*
%TO.N,Net-(JP2-B)*%
X124550000Y-58400000D02*
X123010000Y-58400000D01*
%TO.N,Net-(BZ1--)*%
X138600000Y-81300000D02*
X138600000Y-78612500D01*
X142250000Y-78075000D02*
X138600000Y-78075000D01*
X138600000Y-78075000D02*
X138600000Y-78612500D01*
X138550000Y-81350000D02*
X138600000Y-81300000D01*
%TO.N,Net-(Q1-G)*%
X139575000Y-76712500D02*
X139575000Y-75185000D01*
X139550000Y-76737500D02*
X139575000Y-76712500D01*
X139565000Y-75175000D02*
X139575000Y-75185000D01*
X138535000Y-75175000D02*
X139565000Y-75175000D01*
%TO.N,/Input Output/TX*%
X115000000Y-44210000D02*
X112700000Y-41910000D01*
X122750000Y-68637500D02*
X122750000Y-67300000D01*
X115000000Y-52150000D02*
X115000000Y-44210000D01*
X122750000Y-67300000D02*
X122500000Y-67050000D01*
X119700000Y-56850000D02*
X115000000Y-52150000D01*
%TO.N,/Input Output/RX*%
X116000000Y-42670000D02*
X112700000Y-39370000D01*
X120400000Y-56100000D02*
X116000000Y-51700000D01*
X116000000Y-51700000D02*
X116000000Y-42670000D01*
X123250000Y-66600000D02*
X123150000Y-66500000D01*
X123250000Y-68637500D02*
X123250000Y-66600000D01*
%TD*%
%TA.AperFunction,Conductor*%
%TO.N,+5V*%
G36*
X137943039Y-61219685D02*
G01*
X137988794Y-61272489D01*
X138000000Y-61324000D01*
X138000000Y-62348386D01*
X137980315Y-62415425D01*
X137942501Y-62450276D01*
X137943656Y-62451957D01*
X137937917Y-62455898D01*
X137885104Y-62501660D01*
X137867160Y-62519242D01*
X137867154Y-62519249D01*
X137822511Y-62599059D01*
X137822509Y-62599064D01*
X137802826Y-62666096D01*
X137802825Y-62666101D01*
X137802825Y-62666102D01*
X137796316Y-62711375D01*
X137794500Y-62724003D01*
X137794500Y-63876000D01*
X137774815Y-63943039D01*
X137722011Y-63988794D01*
X137670500Y-64000000D01*
X135224000Y-64000000D01*
X135156961Y-63980315D01*
X135111206Y-63927511D01*
X135100000Y-63876000D01*
X135100000Y-61324000D01*
X135119685Y-61256961D01*
X135172489Y-61211206D01*
X135224000Y-61200000D01*
X137876000Y-61200000D01*
X137943039Y-61219685D01*
G37*
%TD.AperFunction*%
%TD*%
%TA.AperFunction,Conductor*%
%TO.N,/USB/VBUS*%
G36*
X139893742Y-62619685D02*
G01*
X139939497Y-62672489D01*
X139949441Y-62741647D01*
X139941262Y-62771457D01*
X139941131Y-62771771D01*
X139929500Y-62830247D01*
X139929500Y-63469752D01*
X139941131Y-63528229D01*
X139941132Y-63528230D01*
X139985447Y-63594552D01*
X140051769Y-63638867D01*
X140051770Y-63638868D01*
X140110247Y-63650499D01*
X140110250Y-63650500D01*
X140110252Y-63650500D01*
X141599748Y-63650500D01*
X141620746Y-63646323D01*
X141690337Y-63652549D01*
X141745515Y-63695411D01*
X141759589Y-63725054D01*
X141760611Y-63724631D01*
X141763718Y-63732134D01*
X141783497Y-63766392D01*
X141839485Y-63863365D01*
X141946635Y-63970515D01*
X142077865Y-64046281D01*
X142224234Y-64085500D01*
X142224236Y-64085500D01*
X142375764Y-64085500D01*
X142375766Y-64085500D01*
X142522135Y-64046281D01*
X142653365Y-63970515D01*
X142760515Y-63863365D01*
X142836281Y-63732135D01*
X142875500Y-63585766D01*
X142875500Y-63434234D01*
X142836281Y-63287865D01*
X142760515Y-63156635D01*
X142653365Y-63049485D01*
X142554987Y-62992686D01*
X142518798Y-62971792D01*
X142470583Y-62921224D01*
X142457361Y-62852617D01*
X142483329Y-62787753D01*
X142533346Y-62749844D01*
X142614788Y-62716110D01*
X142651804Y-62700778D01*
X142651804Y-62700777D01*
X142651811Y-62700775D01*
X142694144Y-62672489D01*
X142771356Y-62620898D01*
X142838034Y-62600020D01*
X142840247Y-62600000D01*
X143676000Y-62600000D01*
X143743039Y-62619685D01*
X143788794Y-62672489D01*
X143800000Y-62724000D01*
X143800000Y-69176000D01*
X143780315Y-69243039D01*
X143727511Y-69288794D01*
X143676000Y-69300000D01*
X142993629Y-69300000D01*
X142926590Y-69280315D01*
X142880835Y-69227511D01*
X142873856Y-69208098D01*
X142836281Y-69067865D01*
X142760515Y-68936635D01*
X142653365Y-68829485D01*
X142587750Y-68791602D01*
X142522136Y-68753719D01*
X142448950Y-68734109D01*
X142375766Y-68714500D01*
X142224234Y-68714500D01*
X142077863Y-68753719D01*
X141946635Y-68829485D01*
X141946632Y-68829487D01*
X141839487Y-68936632D01*
X141839485Y-68936635D01*
X141763718Y-69067865D01*
X141760611Y-69075369D01*
X141758429Y-69074465D01*
X141728344Y-69123817D01*
X141665496Y-69154343D01*
X141620750Y-69153677D01*
X141599749Y-69149500D01*
X141599748Y-69149500D01*
X140224000Y-69149500D01*
X140156961Y-69129815D01*
X140111206Y-69077011D01*
X140100000Y-69025500D01*
X140100000Y-68624500D01*
X140119685Y-68557461D01*
X140172489Y-68511706D01*
X140224000Y-68500500D01*
X141599750Y-68500500D01*
X141599751Y-68500499D01*
X141614568Y-68497552D01*
X141658229Y-68488868D01*
X141658229Y-68488867D01*
X141658231Y-68488867D01*
X141724552Y-68444552D01*
X141768867Y-68378231D01*
X141768867Y-68378229D01*
X141768868Y-68378229D01*
X141780499Y-68319752D01*
X141780500Y-68319750D01*
X141780500Y-67980249D01*
X141769349Y-67924192D01*
X141769349Y-67875808D01*
X141780500Y-67819750D01*
X141780500Y-67480249D01*
X141769349Y-67424192D01*
X141769349Y-67375808D01*
X141780500Y-67319750D01*
X141780500Y-67101071D01*
X141800185Y-67034032D01*
X141852989Y-66988277D01*
X141888315Y-66978132D01*
X141893113Y-66977500D01*
X141893116Y-66977500D01*
X141976410Y-66955181D01*
X142051090Y-66912065D01*
X142362065Y-66601090D01*
X142405181Y-66526410D01*
X142427500Y-66443116D01*
X142427500Y-66356884D01*
X142427500Y-65874884D01*
X142405181Y-65791590D01*
X142362065Y-65716910D01*
X142301090Y-65655935D01*
X142033090Y-65387935D01*
X141958410Y-65344819D01*
X141875116Y-65322500D01*
X141875114Y-65322500D01*
X141872405Y-65321774D01*
X141812745Y-65285408D01*
X141782217Y-65222561D01*
X141780500Y-65201999D01*
X141780500Y-64980249D01*
X141769349Y-64924192D01*
X141769349Y-64875808D01*
X141780500Y-64819750D01*
X141780500Y-64480249D01*
X141780499Y-64480247D01*
X141768868Y-64421770D01*
X141768867Y-64421769D01*
X141724552Y-64355447D01*
X141658230Y-64311132D01*
X141658229Y-64311131D01*
X141599752Y-64299500D01*
X141599748Y-64299500D01*
X140110252Y-64299500D01*
X140110249Y-64299500D01*
X140051769Y-64311132D01*
X140047116Y-64313060D01*
X139999662Y-64322500D01*
X139724871Y-64322500D01*
X139657832Y-64302815D01*
X139612077Y-64250011D01*
X139601931Y-64214680D01*
X139600000Y-64200000D01*
X139599999Y-64200000D01*
X139390832Y-64200000D01*
X139338426Y-64188381D01*
X139333178Y-64185933D01*
X139333169Y-64185931D01*
X139284317Y-64179500D01*
X139284316Y-64179500D01*
X138935684Y-64179500D01*
X138935683Y-64179500D01*
X138886830Y-64185931D01*
X138886821Y-64185933D01*
X138881574Y-64188381D01*
X138829168Y-64200000D01*
X138370832Y-64200000D01*
X138360569Y-64199575D01*
X138338499Y-64197742D01*
X138313173Y-64185932D01*
X138264316Y-64179500D01*
X138118854Y-64179500D01*
X138113737Y-64179075D01*
X138085741Y-64168266D01*
X138056961Y-64159815D01*
X138053495Y-64155815D01*
X138048557Y-64153909D01*
X138030849Y-64129680D01*
X138011206Y-64107011D01*
X138009902Y-64101020D01*
X138007329Y-64097499D01*
X138006640Y-64086024D01*
X138000000Y-64055500D01*
X138000000Y-62724000D01*
X138019685Y-62656961D01*
X138072489Y-62611206D01*
X138124000Y-62600000D01*
X139826703Y-62600000D01*
X139893742Y-62619685D01*
G37*
%TD.AperFunction*%
%TD*%
%TA.AperFunction,Conductor*%
%TO.N,/12V-2x6 Connectors/12V_IN5*%
G36*
X60699226Y-68225185D02*
G01*
X60744981Y-68277989D01*
X60754925Y-68347147D01*
X60753805Y-68353688D01*
X60752500Y-68360249D01*
X60752500Y-69409752D01*
X60764131Y-69468229D01*
X60764132Y-69468230D01*
X60808447Y-69534552D01*
X60874769Y-69578867D01*
X60874770Y-69578868D01*
X60933247Y-69590499D01*
X60933250Y-69590500D01*
X60933252Y-69590500D01*
X61062742Y-69590500D01*
X61124744Y-69607114D01*
X61140811Y-69616391D01*
X61140813Y-69616391D01*
X61140814Y-69616392D01*
X61268108Y-69650500D01*
X61268110Y-69650500D01*
X61399890Y-69650500D01*
X61399892Y-69650500D01*
X61527186Y-69616392D01*
X61543256Y-69607114D01*
X61558745Y-69602963D01*
X61570323Y-69595523D01*
X61605258Y-69590500D01*
X61670500Y-69590500D01*
X61737539Y-69610185D01*
X61783294Y-69662989D01*
X61794500Y-69714500D01*
X61794500Y-69966041D01*
X61791894Y-69991331D01*
X61269255Y-72500000D01*
X59354113Y-81692686D01*
X59353466Y-81695790D01*
X59320522Y-81757406D01*
X59259496Y-81791429D01*
X59232072Y-81794500D01*
X54346957Y-81794500D01*
X54323194Y-81795880D01*
X54323174Y-81795882D01*
X54306157Y-81797865D01*
X54237290Y-81786071D01*
X54185732Y-81738917D01*
X54177246Y-81722150D01*
X54145087Y-81644511D01*
X54145080Y-81644498D01*
X54062951Y-81521584D01*
X54062948Y-81521580D01*
X53958419Y-81417051D01*
X53958415Y-81417048D01*
X53835501Y-81334919D01*
X53835488Y-81334912D01*
X53698917Y-81278343D01*
X53698908Y-81278340D01*
X53599807Y-81258627D01*
X53537897Y-81226241D01*
X53503323Y-81165525D01*
X53500000Y-81137010D01*
X53500000Y-80594603D01*
X57189499Y-80594603D01*
X57226410Y-80780161D01*
X57226413Y-80780171D01*
X57298814Y-80954965D01*
X57298816Y-80954968D01*
X57403927Y-81112278D01*
X57403933Y-81112286D01*
X57537713Y-81246066D01*
X57537721Y-81246072D01*
X57695031Y-81351183D01*
X57695034Y-81351185D01*
X57854044Y-81417048D01*
X57869833Y-81423588D01*
X57869837Y-81423588D01*
X57869838Y-81423589D01*
X58055396Y-81460500D01*
X58055399Y-81460500D01*
X58244603Y-81460500D01*
X58369442Y-81435667D01*
X58430167Y-81423588D01*
X58604967Y-81351184D01*
X58762283Y-81246069D01*
X58896069Y-81112283D01*
X59001184Y-80954967D01*
X59073588Y-80780167D01*
X59110500Y-80594601D01*
X59110500Y-80405399D01*
X59110500Y-80405396D01*
X59073589Y-80219838D01*
X59073588Y-80219837D01*
X59073588Y-80219833D01*
X59073586Y-80219828D01*
X59001185Y-80045034D01*
X59001183Y-80045031D01*
X58896072Y-79887721D01*
X58896066Y-79887713D01*
X58762286Y-79753933D01*
X58762278Y-79753927D01*
X58604968Y-79648816D01*
X58604965Y-79648814D01*
X58430171Y-79576413D01*
X58430161Y-79576410D01*
X58244603Y-79539500D01*
X58244601Y-79539500D01*
X58055399Y-79539500D01*
X58055397Y-79539500D01*
X57869838Y-79576410D01*
X57869828Y-79576413D01*
X57695034Y-79648814D01*
X57695031Y-79648816D01*
X57537721Y-79753927D01*
X57537713Y-79753933D01*
X57403933Y-79887713D01*
X57403927Y-79887721D01*
X57298816Y-80045031D01*
X57298814Y-80045034D01*
X57226413Y-80219828D01*
X57226410Y-80219838D01*
X57189500Y-80405396D01*
X57189500Y-80405399D01*
X57189500Y-80594601D01*
X57189500Y-80594603D01*
X57189499Y-80594603D01*
X53500000Y-80594603D01*
X53500000Y-79329500D01*
X53519685Y-79262461D01*
X53572489Y-79216706D01*
X53624000Y-79205500D01*
X56394964Y-79205500D01*
X56406943Y-79204709D01*
X56421928Y-79203722D01*
X56435750Y-79201891D01*
X56454191Y-79199451D01*
X56454193Y-79199450D01*
X56454195Y-79199450D01*
X56534432Y-79171046D01*
X56594040Y-79134595D01*
X56614645Y-79120192D01*
X56671806Y-79048800D01*
X56702244Y-78985908D01*
X56719973Y-78930169D01*
X56943842Y-77586954D01*
X56974279Y-77524065D01*
X57033887Y-77487614D01*
X57103739Y-77489175D01*
X57161658Y-77528254D01*
X57187670Y-77588753D01*
X57188311Y-77588626D01*
X57188909Y-77591637D01*
X57189256Y-77592442D01*
X57189483Y-77594521D01*
X57226410Y-77780161D01*
X57226413Y-77780171D01*
X57298814Y-77954965D01*
X57298816Y-77954968D01*
X57403927Y-78112278D01*
X57403933Y-78112286D01*
X57537713Y-78246066D01*
X57537721Y-78246072D01*
X57695031Y-78351183D01*
X57695034Y-78351185D01*
X57869828Y-78423586D01*
X57869833Y-78423588D01*
X57869837Y-78423588D01*
X57869838Y-78423589D01*
X58055396Y-78460500D01*
X58055399Y-78460500D01*
X58244603Y-78460500D01*
X58402899Y-78429012D01*
X58430167Y-78423588D01*
X58604967Y-78351184D01*
X58762283Y-78246069D01*
X58896069Y-78112283D01*
X59001184Y-77954967D01*
X59073588Y-77780167D01*
X59110500Y-77594601D01*
X59110500Y-77405399D01*
X59110500Y-77405396D01*
X59073589Y-77219838D01*
X59073588Y-77219837D01*
X59073588Y-77219833D01*
X59060422Y-77188047D01*
X59001185Y-77045034D01*
X59001183Y-77045031D01*
X58896072Y-76887721D01*
X58896066Y-76887713D01*
X58762286Y-76753933D01*
X58762278Y-76753927D01*
X58604968Y-76648816D01*
X58604965Y-76648814D01*
X58430171Y-76576413D01*
X58430161Y-76576410D01*
X58244603Y-76539500D01*
X58244601Y-76539500D01*
X58055399Y-76539500D01*
X58055397Y-76539500D01*
X57869838Y-76576410D01*
X57869828Y-76576413D01*
X57695034Y-76648814D01*
X57695031Y-76648816D01*
X57537721Y-76753927D01*
X57537713Y-76753933D01*
X57403933Y-76887713D01*
X57403927Y-76887721D01*
X57298816Y-77045031D01*
X57271251Y-77111579D01*
X57227409Y-77165983D01*
X57161115Y-77188047D01*
X57093416Y-77170767D01*
X57045806Y-77119630D01*
X57033401Y-77050870D01*
X57034373Y-77043764D01*
X58201017Y-70043906D01*
X58203113Y-70027071D01*
X58204800Y-70006686D01*
X58205005Y-70001701D01*
X58205500Y-69989749D01*
X58205500Y-69672700D01*
X58205500Y-69672696D01*
X58200405Y-69627221D01*
X58188261Y-69573703D01*
X58185178Y-69561784D01*
X58140735Y-69481852D01*
X58128498Y-69468229D01*
X58094045Y-69429873D01*
X58076133Y-69412234D01*
X58065404Y-69406482D01*
X58015624Y-69357455D01*
X58000000Y-69297200D01*
X58000000Y-68329500D01*
X58019685Y-68262461D01*
X58072489Y-68216706D01*
X58124000Y-68205500D01*
X60632187Y-68205500D01*
X60699226Y-68225185D01*
G37*
%TD.AperFunction*%
%TD*%
%TA.AperFunction,Conductor*%
%TO.N,/12V-2x6 Connectors/12V_OUT3*%
G36*
X54310410Y-48200243D02*
G01*
X54346967Y-48205500D01*
X66228398Y-48205500D01*
X66295437Y-48225185D01*
X66341192Y-48277989D01*
X66350118Y-48305832D01*
X69781085Y-65950801D01*
X69792220Y-66008064D01*
X69794500Y-66031732D01*
X69794500Y-66285500D01*
X69791949Y-66294185D01*
X69793238Y-66303147D01*
X69782259Y-66327187D01*
X69774815Y-66352539D01*
X69767974Y-66358466D01*
X69764213Y-66366703D01*
X69741978Y-66380992D01*
X69722011Y-66398294D01*
X69711496Y-66400581D01*
X69705435Y-66404477D01*
X69670500Y-66409500D01*
X69605258Y-66409500D01*
X69543256Y-66392886D01*
X69527188Y-66383608D01*
X69433354Y-66358466D01*
X69399892Y-66349500D01*
X69268108Y-66349500D01*
X69140811Y-66383608D01*
X69124744Y-66392886D01*
X69062742Y-66409500D01*
X68933247Y-66409500D01*
X68874770Y-66421131D01*
X68874769Y-66421132D01*
X68808447Y-66465447D01*
X68764132Y-66531769D01*
X68764131Y-66531770D01*
X68752500Y-66590247D01*
X68752500Y-66590252D01*
X68752500Y-67639748D01*
X68752500Y-67639750D01*
X68752499Y-67639750D01*
X68753805Y-67646312D01*
X68747576Y-67715904D01*
X68704711Y-67771080D01*
X68638821Y-67794322D01*
X68632187Y-67794500D01*
X66124000Y-67794500D01*
X66056961Y-67774815D01*
X66011206Y-67722011D01*
X66000000Y-67670500D01*
X66000000Y-66702916D01*
X66019685Y-66635877D01*
X66057503Y-66601026D01*
X66056347Y-66599343D01*
X66062076Y-66595407D01*
X66062085Y-66595403D01*
X66114889Y-66549648D01*
X66132843Y-66532057D01*
X66177490Y-66452240D01*
X66197175Y-66385201D01*
X66205500Y-66327303D01*
X66205500Y-66012278D01*
X66204500Y-65992028D01*
X66202092Y-65967710D01*
X66199101Y-65947658D01*
X65909669Y-64500500D01*
X63556428Y-52734294D01*
X63221445Y-51059380D01*
X63215457Y-51036423D01*
X63206659Y-51009230D01*
X63166444Y-50937915D01*
X63120689Y-50885111D01*
X63120683Y-50885104D01*
X63103101Y-50867160D01*
X63103100Y-50867159D01*
X63103098Y-50867157D01*
X63103096Y-50867156D01*
X63103094Y-50867154D01*
X63023284Y-50822511D01*
X63023279Y-50822509D01*
X62956247Y-50802826D01*
X62956243Y-50802825D01*
X62956242Y-50802825D01*
X62898344Y-50794500D01*
X54046230Y-50794500D01*
X53979191Y-50774815D01*
X53933436Y-50722011D01*
X53923492Y-50652853D01*
X53952517Y-50589297D01*
X53958549Y-50582819D01*
X54062948Y-50478419D01*
X54062951Y-50478416D01*
X54145084Y-50355495D01*
X54201658Y-50218913D01*
X54230500Y-50073918D01*
X54230500Y-49926082D01*
X54230500Y-49926079D01*
X54201659Y-49781092D01*
X54201658Y-49781091D01*
X54201658Y-49781087D01*
X54201277Y-49780167D01*
X54145087Y-49644511D01*
X54145080Y-49644498D01*
X54111741Y-49594603D01*
X57189499Y-49594603D01*
X57226410Y-49780161D01*
X57226413Y-49780171D01*
X57298814Y-49954965D01*
X57298816Y-49954968D01*
X57403927Y-50112278D01*
X57403933Y-50112286D01*
X57537713Y-50246066D01*
X57537721Y-50246072D01*
X57695031Y-50351183D01*
X57695034Y-50351185D01*
X57814093Y-50400500D01*
X57869833Y-50423588D01*
X57869837Y-50423588D01*
X57869838Y-50423589D01*
X58055396Y-50460500D01*
X58055399Y-50460500D01*
X58244603Y-50460500D01*
X58369442Y-50435667D01*
X58430167Y-50423588D01*
X58594545Y-50355501D01*
X58604965Y-50351185D01*
X58604968Y-50351183D01*
X58670623Y-50307314D01*
X58762283Y-50246069D01*
X58896069Y-50112283D01*
X59001184Y-49954967D01*
X59013149Y-49926082D01*
X59025318Y-49896700D01*
X59073588Y-49780167D01*
X59100572Y-49644511D01*
X59110500Y-49594603D01*
X59110500Y-49405396D01*
X59073589Y-49219838D01*
X59073588Y-49219837D01*
X59073588Y-49219833D01*
X59039282Y-49137010D01*
X59001185Y-49045034D01*
X59001183Y-49045031D01*
X58896072Y-48887721D01*
X58896066Y-48887713D01*
X58762286Y-48753933D01*
X58762278Y-48753927D01*
X58604968Y-48648816D01*
X58604965Y-48648814D01*
X58430171Y-48576413D01*
X58430161Y-48576410D01*
X58244603Y-48539500D01*
X58244601Y-48539500D01*
X58055399Y-48539500D01*
X58055397Y-48539500D01*
X57869838Y-48576410D01*
X57869828Y-48576413D01*
X57695034Y-48648814D01*
X57695031Y-48648816D01*
X57537721Y-48753927D01*
X57537713Y-48753933D01*
X57403933Y-48887713D01*
X57403927Y-48887721D01*
X57298816Y-49045031D01*
X57298814Y-49045034D01*
X57226413Y-49219828D01*
X57226410Y-49219838D01*
X57189500Y-49405396D01*
X57189500Y-49405399D01*
X57189500Y-49594601D01*
X57189500Y-49594603D01*
X57189499Y-49594603D01*
X54111741Y-49594603D01*
X54062951Y-49521584D01*
X54062948Y-49521580D01*
X53958419Y-49417051D01*
X53958415Y-49417048D01*
X53835501Y-49334919D01*
X53835488Y-49334912D01*
X53698917Y-49278343D01*
X53698908Y-49278340D01*
X53599807Y-49258627D01*
X53537897Y-49226241D01*
X53503323Y-49165525D01*
X53500000Y-49137010D01*
X53500000Y-48862989D01*
X53519685Y-48795950D01*
X53572489Y-48750195D01*
X53599808Y-48741372D01*
X53660859Y-48729227D01*
X53698913Y-48721658D01*
X53835495Y-48665084D01*
X53958416Y-48582951D01*
X54062951Y-48478416D01*
X54145084Y-48355495D01*
X54178208Y-48275526D01*
X54222045Y-48221126D01*
X54288339Y-48199060D01*
X54310410Y-48200243D01*
G37*
%TD.AperFunction*%
%TD*%
%TA.AperFunction,Conductor*%
%TO.N,/12V-2x6 Connectors/12V_IN4*%
G36*
X64699226Y-68225185D02*
G01*
X64744981Y-68277989D01*
X64754925Y-68347147D01*
X64753805Y-68353688D01*
X64752500Y-68360249D01*
X64752500Y-69409752D01*
X64764131Y-69468229D01*
X64764132Y-69468230D01*
X64808447Y-69534552D01*
X64874769Y-69578867D01*
X64874770Y-69578868D01*
X64933247Y-69590499D01*
X64933250Y-69590500D01*
X64933252Y-69590500D01*
X65078742Y-69590500D01*
X65140744Y-69607114D01*
X65156811Y-69616391D01*
X65156813Y-69616391D01*
X65156814Y-69616392D01*
X65284108Y-69650500D01*
X65284110Y-69650500D01*
X65415890Y-69650500D01*
X65415892Y-69650500D01*
X65543186Y-69616392D01*
X65559256Y-69607114D01*
X65574745Y-69602963D01*
X65586323Y-69595523D01*
X65621258Y-69590500D01*
X65670500Y-69590500D01*
X65737539Y-69610185D01*
X65783294Y-69662989D01*
X65794500Y-69714500D01*
X65794500Y-69967375D01*
X65792092Y-69991693D01*
X62851467Y-84694818D01*
X62819017Y-84756696D01*
X62758265Y-84791206D01*
X62729875Y-84794500D01*
X54046230Y-84794500D01*
X53979191Y-84774815D01*
X53933436Y-84722011D01*
X53923492Y-84652853D01*
X53952517Y-84589297D01*
X53958549Y-84582819D01*
X54062948Y-84478419D01*
X54062951Y-84478416D01*
X54145084Y-84355495D01*
X54201658Y-84218913D01*
X54230500Y-84073918D01*
X54230500Y-83926082D01*
X54230500Y-83926079D01*
X54201659Y-83781092D01*
X54201658Y-83781091D01*
X54201658Y-83781087D01*
X54201277Y-83780167D01*
X54145087Y-83644511D01*
X54145080Y-83644498D01*
X54111741Y-83594603D01*
X57189499Y-83594603D01*
X57226410Y-83780161D01*
X57226413Y-83780171D01*
X57298814Y-83954965D01*
X57298816Y-83954968D01*
X57403927Y-84112278D01*
X57403933Y-84112286D01*
X57537713Y-84246066D01*
X57537721Y-84246072D01*
X57695031Y-84351183D01*
X57695034Y-84351185D01*
X57814093Y-84400500D01*
X57869833Y-84423588D01*
X57869837Y-84423588D01*
X57869838Y-84423589D01*
X58055396Y-84460500D01*
X58055399Y-84460500D01*
X58244603Y-84460500D01*
X58369442Y-84435667D01*
X58430167Y-84423588D01*
X58594545Y-84355501D01*
X58604965Y-84351185D01*
X58604968Y-84351183D01*
X58670623Y-84307314D01*
X58762283Y-84246069D01*
X58896069Y-84112283D01*
X59001184Y-83954967D01*
X59013149Y-83926082D01*
X59025318Y-83896700D01*
X59073588Y-83780167D01*
X59100572Y-83644511D01*
X59110500Y-83594603D01*
X59110500Y-83405396D01*
X59073589Y-83219838D01*
X59073588Y-83219837D01*
X59073588Y-83219833D01*
X59039282Y-83137010D01*
X59001185Y-83045034D01*
X59001183Y-83045031D01*
X58896072Y-82887721D01*
X58896066Y-82887713D01*
X58762286Y-82753933D01*
X58762278Y-82753927D01*
X58604968Y-82648816D01*
X58604965Y-82648814D01*
X58430171Y-82576413D01*
X58430161Y-82576410D01*
X58244603Y-82539500D01*
X58244601Y-82539500D01*
X58055399Y-82539500D01*
X58055397Y-82539500D01*
X57869838Y-82576410D01*
X57869828Y-82576413D01*
X57695034Y-82648814D01*
X57695031Y-82648816D01*
X57537721Y-82753927D01*
X57537713Y-82753933D01*
X57403933Y-82887713D01*
X57403927Y-82887721D01*
X57298816Y-83045031D01*
X57298814Y-83045034D01*
X57226413Y-83219828D01*
X57226410Y-83219838D01*
X57189500Y-83405396D01*
X57189500Y-83405399D01*
X57189500Y-83594601D01*
X57189500Y-83594603D01*
X57189499Y-83594603D01*
X54111741Y-83594603D01*
X54062951Y-83521584D01*
X54062948Y-83521580D01*
X53958419Y-83417051D01*
X53958415Y-83417048D01*
X53835501Y-83334919D01*
X53835488Y-83334912D01*
X53698917Y-83278343D01*
X53698908Y-83278340D01*
X53599807Y-83258627D01*
X53537897Y-83226241D01*
X53503323Y-83165525D01*
X53500000Y-83137010D01*
X53500000Y-82862989D01*
X53519685Y-82795950D01*
X53572489Y-82750195D01*
X53599808Y-82741372D01*
X53660859Y-82729227D01*
X53698913Y-82721658D01*
X53835495Y-82665084D01*
X53958416Y-82582951D01*
X54062951Y-82478416D01*
X54145084Y-82355495D01*
X54201658Y-82218913D01*
X54225350Y-82099809D01*
X54257735Y-82037898D01*
X54318451Y-82003324D01*
X54346967Y-82000000D01*
X59499999Y-82000000D01*
X59500000Y-82000000D01*
X62000000Y-70000000D01*
X62000000Y-68329500D01*
X62019685Y-68262461D01*
X62072489Y-68216706D01*
X62124000Y-68205500D01*
X64632187Y-68205500D01*
X64699226Y-68225185D01*
G37*
%TD.AperFunction*%
%TD*%
%TA.AperFunction,Conductor*%
%TO.N,/12V-2x6 Connectors/12V_OUT4*%
G36*
X62965383Y-51019685D02*
G01*
X63011138Y-51072489D01*
X63019936Y-51099682D01*
X65997592Y-65987960D01*
X66000000Y-66012278D01*
X66000000Y-66327303D01*
X65980315Y-66394342D01*
X65927511Y-66440097D01*
X65858353Y-66450041D01*
X65807111Y-66430407D01*
X65793229Y-66421131D01*
X65734752Y-66409500D01*
X65734748Y-66409500D01*
X65605258Y-66409500D01*
X65543256Y-66392886D01*
X65527188Y-66383608D01*
X65442323Y-66360869D01*
X65399892Y-66349500D01*
X65268108Y-66349500D01*
X65140811Y-66383608D01*
X65124744Y-66392886D01*
X65062742Y-66409500D01*
X64933247Y-66409500D01*
X64874770Y-66421131D01*
X64874769Y-66421132D01*
X64808447Y-66465447D01*
X64764132Y-66531769D01*
X64764131Y-66531770D01*
X64752500Y-66590247D01*
X64752500Y-67639752D01*
X64764131Y-67698229D01*
X64764132Y-67698230D01*
X64808447Y-67764552D01*
X64820938Y-67772898D01*
X64865743Y-67826510D01*
X64874450Y-67895835D01*
X64844295Y-67958863D01*
X64784852Y-67995582D01*
X64752047Y-68000000D01*
X62124000Y-68000000D01*
X62056961Y-67980315D01*
X62011206Y-67927511D01*
X62000000Y-67876000D01*
X62000000Y-66702916D01*
X62019685Y-66635877D01*
X62057503Y-66601026D01*
X62056347Y-66599343D01*
X62062076Y-66595407D01*
X62062085Y-66595403D01*
X62114889Y-66549648D01*
X62132843Y-66532057D01*
X62177490Y-66452240D01*
X62197175Y-66385201D01*
X62205500Y-66327303D01*
X62205500Y-66012781D01*
X62204418Y-65991717D01*
X62201812Y-65966427D01*
X62198574Y-65945578D01*
X59721743Y-54056793D01*
X59715830Y-54034667D01*
X59707232Y-54008450D01*
X59667271Y-53937915D01*
X59621516Y-53885111D01*
X59621510Y-53885104D01*
X59603928Y-53867160D01*
X59603927Y-53867159D01*
X59603925Y-53867157D01*
X59603923Y-53867156D01*
X59603921Y-53867154D01*
X59524111Y-53822511D01*
X59524106Y-53822509D01*
X59457074Y-53802826D01*
X59457070Y-53802825D01*
X59457069Y-53802825D01*
X59399171Y-53794500D01*
X54346967Y-53794500D01*
X54346957Y-53794500D01*
X54323194Y-53795880D01*
X54323174Y-53795882D01*
X54306157Y-53797865D01*
X54237290Y-53786071D01*
X54185732Y-53738917D01*
X54177246Y-53722150D01*
X54145087Y-53644511D01*
X54145080Y-53644498D01*
X54062951Y-53521584D01*
X54062948Y-53521580D01*
X53958419Y-53417051D01*
X53958415Y-53417048D01*
X53835501Y-53334919D01*
X53835488Y-53334912D01*
X53698917Y-53278343D01*
X53698908Y-53278340D01*
X53599807Y-53258627D01*
X53537897Y-53226241D01*
X53503323Y-53165525D01*
X53500000Y-53137010D01*
X53500000Y-52862989D01*
X53519685Y-52795950D01*
X53572489Y-52750195D01*
X53599808Y-52741372D01*
X53660859Y-52729227D01*
X53698913Y-52721658D01*
X53835495Y-52665084D01*
X53940978Y-52594603D01*
X57189499Y-52594603D01*
X57226410Y-52780161D01*
X57226413Y-52780171D01*
X57298814Y-52954965D01*
X57298816Y-52954968D01*
X57403927Y-53112278D01*
X57403933Y-53112286D01*
X57537713Y-53246066D01*
X57537721Y-53246072D01*
X57695031Y-53351183D01*
X57695034Y-53351185D01*
X57814093Y-53400500D01*
X57869833Y-53423588D01*
X57869837Y-53423588D01*
X57869838Y-53423589D01*
X58055396Y-53460500D01*
X58055399Y-53460500D01*
X58244603Y-53460500D01*
X58369442Y-53435667D01*
X58430167Y-53423588D01*
X58604967Y-53351184D01*
X58762283Y-53246069D01*
X58896069Y-53112283D01*
X59001184Y-52954967D01*
X59073588Y-52780167D01*
X59110500Y-52594601D01*
X59110500Y-52405399D01*
X59110500Y-52405396D01*
X59073589Y-52219838D01*
X59073588Y-52219837D01*
X59073588Y-52219833D01*
X59073207Y-52218913D01*
X59001185Y-52045034D01*
X59001183Y-52045031D01*
X58896072Y-51887721D01*
X58896066Y-51887713D01*
X58762286Y-51753933D01*
X58762278Y-51753927D01*
X58604968Y-51648816D01*
X58604965Y-51648814D01*
X58430171Y-51576413D01*
X58430161Y-51576410D01*
X58244603Y-51539500D01*
X58244601Y-51539500D01*
X58055399Y-51539500D01*
X58055397Y-51539500D01*
X57869838Y-51576410D01*
X57869828Y-51576413D01*
X57695034Y-51648814D01*
X57695031Y-51648816D01*
X57537721Y-51753927D01*
X57537713Y-51753933D01*
X57403933Y-51887713D01*
X57403927Y-51887721D01*
X57298816Y-52045031D01*
X57298814Y-52045034D01*
X57226413Y-52219828D01*
X57226410Y-52219838D01*
X57189500Y-52405396D01*
X57189500Y-52405399D01*
X57189500Y-52594601D01*
X57189500Y-52594603D01*
X57189499Y-52594603D01*
X53940978Y-52594603D01*
X53958416Y-52582951D01*
X54062951Y-52478416D01*
X54145084Y-52355495D01*
X54201658Y-52218913D01*
X54230500Y-52073918D01*
X54230500Y-51926082D01*
X54230500Y-51926079D01*
X54201659Y-51781092D01*
X54201658Y-51781091D01*
X54201658Y-51781087D01*
X54201656Y-51781082D01*
X54145087Y-51644511D01*
X54145080Y-51644498D01*
X54062951Y-51521584D01*
X54062948Y-51521580D01*
X53958419Y-51417051D01*
X53958415Y-51417048D01*
X53835501Y-51334919D01*
X53835488Y-51334912D01*
X53698917Y-51278343D01*
X53698908Y-51278340D01*
X53599807Y-51258627D01*
X53571680Y-51243913D01*
X53542797Y-51230723D01*
X53540939Y-51227832D01*
X53537897Y-51226241D01*
X53522189Y-51198657D01*
X53505023Y-51171945D01*
X53504362Y-51167350D01*
X53503323Y-51165525D01*
X53500000Y-51137010D01*
X53500000Y-51124000D01*
X53519685Y-51056961D01*
X53572489Y-51011206D01*
X53624000Y-51000000D01*
X62898344Y-51000000D01*
X62965383Y-51019685D01*
G37*
%TD.AperFunction*%
%TD*%
%TA.AperFunction,Conductor*%
%TO.N,/12V-2x6 Connectors/12V_IN1*%
G36*
X76699226Y-68225185D02*
G01*
X76744981Y-68277989D01*
X76754925Y-68347147D01*
X76753805Y-68353688D01*
X76752500Y-68360249D01*
X76752500Y-69409752D01*
X76764131Y-69468229D01*
X76764132Y-69468230D01*
X76808447Y-69534552D01*
X76874769Y-69578867D01*
X76874770Y-69578868D01*
X76933247Y-69590499D01*
X76933250Y-69590500D01*
X76933252Y-69590500D01*
X77734750Y-69590500D01*
X77734751Y-69590499D01*
X77754418Y-69586587D01*
X77793228Y-69578868D01*
X77793228Y-69578867D01*
X77793231Y-69578867D01*
X77807109Y-69569593D01*
X77873786Y-69548716D01*
X77941166Y-69567200D01*
X77987856Y-69619178D01*
X78000000Y-69672696D01*
X78000000Y-69988476D01*
X77997876Y-70011328D01*
X73518965Y-93898852D01*
X73487263Y-93961115D01*
X73426931Y-93996355D01*
X73397089Y-94000000D01*
X53624000Y-94000000D01*
X53556961Y-93980315D01*
X53511206Y-93927511D01*
X53500000Y-93876000D01*
X53500000Y-92594603D01*
X57189499Y-92594603D01*
X57226410Y-92780161D01*
X57226413Y-92780171D01*
X57298814Y-92954965D01*
X57298816Y-92954968D01*
X57403927Y-93112278D01*
X57403933Y-93112286D01*
X57537713Y-93246066D01*
X57537721Y-93246072D01*
X57695031Y-93351183D01*
X57695034Y-93351185D01*
X57814093Y-93400500D01*
X57869833Y-93423588D01*
X57869837Y-93423588D01*
X57869838Y-93423589D01*
X58055396Y-93460500D01*
X58055399Y-93460500D01*
X58244603Y-93460500D01*
X58369442Y-93435667D01*
X58430167Y-93423588D01*
X58604967Y-93351184D01*
X58762283Y-93246069D01*
X58896069Y-93112283D01*
X59001184Y-92954967D01*
X59073588Y-92780167D01*
X59110500Y-92594601D01*
X59110500Y-92405399D01*
X59110500Y-92405396D01*
X59073589Y-92219838D01*
X59073588Y-92219837D01*
X59073588Y-92219833D01*
X59010597Y-92067758D01*
X59001185Y-92045034D01*
X59001183Y-92045031D01*
X58896072Y-91887721D01*
X58896066Y-91887713D01*
X58762286Y-91753933D01*
X58762278Y-91753927D01*
X58604968Y-91648816D01*
X58604965Y-91648814D01*
X58430171Y-91576413D01*
X58430161Y-91576410D01*
X58244603Y-91539500D01*
X58244601Y-91539500D01*
X58055399Y-91539500D01*
X58055397Y-91539500D01*
X57869838Y-91576410D01*
X57869828Y-91576413D01*
X57695034Y-91648814D01*
X57695031Y-91648816D01*
X57537721Y-91753927D01*
X57537713Y-91753933D01*
X57403933Y-91887713D01*
X57403927Y-91887721D01*
X57298816Y-92045031D01*
X57298814Y-92045034D01*
X57226413Y-92219828D01*
X57226410Y-92219838D01*
X57189500Y-92405396D01*
X57189500Y-92405399D01*
X57189500Y-92594601D01*
X57189500Y-92594603D01*
X57189499Y-92594603D01*
X53500000Y-92594603D01*
X53500000Y-91329500D01*
X53519685Y-91262461D01*
X53572489Y-91216706D01*
X53624000Y-91205500D01*
X69897381Y-91205500D01*
X69897390Y-91205500D01*
X69922006Y-91204020D01*
X69951503Y-91200461D01*
X70030026Y-91174184D01*
X70090458Y-91139117D01*
X70111386Y-91125196D01*
X70170179Y-91055142D01*
X70202060Y-90992970D01*
X70221071Y-90937654D01*
X74199680Y-70049949D01*
X74202399Y-70030817D01*
X74204590Y-70007615D01*
X74205500Y-69988295D01*
X74205500Y-69672696D01*
X74200405Y-69627221D01*
X74188261Y-69573703D01*
X74185178Y-69561784D01*
X74140735Y-69481852D01*
X74121125Y-69460021D01*
X74094045Y-69429873D01*
X74076133Y-69412234D01*
X74065404Y-69406482D01*
X74015624Y-69357455D01*
X74000000Y-69297200D01*
X74000000Y-68329500D01*
X74019685Y-68262461D01*
X74072489Y-68216706D01*
X74124000Y-68205500D01*
X76632187Y-68205500D01*
X76699226Y-68225185D01*
G37*
%TD.AperFunction*%
%TD*%
%TA.AperFunction,Conductor*%
%TO.N,/12V-2x6 Connectors/12V_OUT1*%
G36*
X73464128Y-42019685D02*
G01*
X73509883Y-42072489D01*
X73518965Y-42101148D01*
X77997876Y-65988672D01*
X78000000Y-66011524D01*
X78000000Y-66327303D01*
X77980315Y-66394342D01*
X77927511Y-66440097D01*
X77858353Y-66450041D01*
X77807111Y-66430407D01*
X77793229Y-66421131D01*
X77734752Y-66409500D01*
X77734748Y-66409500D01*
X76933252Y-66409500D01*
X76933247Y-66409500D01*
X76874770Y-66421131D01*
X76874769Y-66421132D01*
X76808447Y-66465447D01*
X76764132Y-66531769D01*
X76764131Y-66531770D01*
X76752500Y-66590247D01*
X76752500Y-67639752D01*
X76764131Y-67698229D01*
X76764132Y-67698230D01*
X76808447Y-67764552D01*
X76820938Y-67772898D01*
X76865743Y-67826510D01*
X76874450Y-67895835D01*
X76844295Y-67958863D01*
X76784852Y-67995582D01*
X76752047Y-68000000D01*
X74124000Y-68000000D01*
X74056961Y-67980315D01*
X74011206Y-67927511D01*
X74000000Y-67876000D01*
X74000000Y-66702916D01*
X74019685Y-66635877D01*
X74057503Y-66601026D01*
X74056347Y-66599343D01*
X74062076Y-66595407D01*
X74062085Y-66595403D01*
X74114889Y-66549648D01*
X74132843Y-66532057D01*
X74177490Y-66452240D01*
X74197175Y-66385201D01*
X74205500Y-66327303D01*
X74205500Y-66011704D01*
X74204591Y-65992393D01*
X74202401Y-65969191D01*
X74199681Y-65950050D01*
X70221070Y-45062343D01*
X70215008Y-45038433D01*
X70206112Y-45010500D01*
X70205994Y-45010130D01*
X70205993Y-45010129D01*
X70205993Y-45010127D01*
X70165490Y-44937915D01*
X70119735Y-44885111D01*
X70119729Y-44885104D01*
X70102147Y-44867160D01*
X70102146Y-44867159D01*
X70102144Y-44867157D01*
X70102142Y-44867156D01*
X70102140Y-44867154D01*
X70022330Y-44822511D01*
X70022325Y-44822509D01*
X69955293Y-44802826D01*
X69955289Y-44802825D01*
X69955288Y-44802825D01*
X69897390Y-44794500D01*
X53624000Y-44794500D01*
X53556961Y-44774815D01*
X53511206Y-44722011D01*
X53500000Y-44670500D01*
X53500000Y-43594603D01*
X57189499Y-43594603D01*
X57226410Y-43780161D01*
X57226413Y-43780171D01*
X57298814Y-43954965D01*
X57298816Y-43954968D01*
X57403927Y-44112278D01*
X57403933Y-44112286D01*
X57537713Y-44246066D01*
X57537721Y-44246072D01*
X57695031Y-44351183D01*
X57695034Y-44351185D01*
X57814093Y-44400500D01*
X57869833Y-44423588D01*
X57869837Y-44423588D01*
X57869838Y-44423589D01*
X58055396Y-44460500D01*
X58055399Y-44460500D01*
X58244603Y-44460500D01*
X58402899Y-44429012D01*
X58430167Y-44423588D01*
X58546700Y-44375318D01*
X58604965Y-44351185D01*
X58604968Y-44351183D01*
X58670623Y-44307314D01*
X58762283Y-44246069D01*
X58896069Y-44112283D01*
X59001184Y-43954967D01*
X59073588Y-43780167D01*
X59110500Y-43594601D01*
X59110500Y-43405399D01*
X59110500Y-43405396D01*
X59073589Y-43219838D01*
X59073588Y-43219837D01*
X59073588Y-43219833D01*
X59010597Y-43067758D01*
X59001185Y-43045034D01*
X59001183Y-43045031D01*
X58896072Y-42887721D01*
X58896066Y-42887713D01*
X58762286Y-42753933D01*
X58762278Y-42753927D01*
X58604968Y-42648816D01*
X58604965Y-42648814D01*
X58430171Y-42576413D01*
X58430161Y-42576410D01*
X58244603Y-42539500D01*
X58244601Y-42539500D01*
X58055399Y-42539500D01*
X58055397Y-42539500D01*
X57869838Y-42576410D01*
X57869828Y-42576413D01*
X57695034Y-42648814D01*
X57695031Y-42648816D01*
X57537721Y-42753927D01*
X57537713Y-42753933D01*
X57403933Y-42887713D01*
X57403927Y-42887721D01*
X57298816Y-43045031D01*
X57298814Y-43045034D01*
X57226413Y-43219828D01*
X57226410Y-43219838D01*
X57189500Y-43405396D01*
X57189500Y-43405399D01*
X57189500Y-43594601D01*
X57189500Y-43594603D01*
X57189499Y-43594603D01*
X53500000Y-43594603D01*
X53500000Y-42124000D01*
X53519685Y-42056961D01*
X53572489Y-42011206D01*
X53624000Y-42000000D01*
X73397089Y-42000000D01*
X73464128Y-42019685D01*
G37*
%TD.AperFunction*%
%TD*%
%TA.AperFunction,Conductor*%
%TO.N,/12V-2x6 Connectors/12V_IN3*%
G36*
X68819086Y-68019685D02*
G01*
X68864841Y-68072489D01*
X68874785Y-68141647D01*
X68845760Y-68205203D01*
X68820938Y-68227102D01*
X68808447Y-68235447D01*
X68764132Y-68301769D01*
X68764131Y-68301770D01*
X68752500Y-68360247D01*
X68752500Y-69409752D01*
X68764131Y-69468229D01*
X68764132Y-69468230D01*
X68808447Y-69534552D01*
X68874769Y-69578867D01*
X68874770Y-69578868D01*
X68933247Y-69590499D01*
X68933250Y-69590500D01*
X68933252Y-69590500D01*
X69062742Y-69590500D01*
X69124744Y-69607114D01*
X69140811Y-69616391D01*
X69140813Y-69616391D01*
X69140814Y-69616392D01*
X69268108Y-69650500D01*
X69268110Y-69650500D01*
X69399890Y-69650500D01*
X69399892Y-69650500D01*
X69527186Y-69616392D01*
X69543256Y-69607114D01*
X69558745Y-69602963D01*
X69570323Y-69595523D01*
X69605258Y-69590500D01*
X69670500Y-69590500D01*
X69737539Y-69610185D01*
X69783294Y-69662989D01*
X69794500Y-69714500D01*
X69794500Y-69968265D01*
X69792220Y-69991933D01*
X66350118Y-87694168D01*
X66318000Y-87756218D01*
X66257433Y-87791053D01*
X66228398Y-87794500D01*
X54346957Y-87794500D01*
X54323194Y-87795880D01*
X54323174Y-87795882D01*
X54306157Y-87797865D01*
X54237290Y-87786071D01*
X54185732Y-87738917D01*
X54177246Y-87722150D01*
X54145087Y-87644511D01*
X54145080Y-87644498D01*
X54062951Y-87521584D01*
X54062948Y-87521580D01*
X53958419Y-87417051D01*
X53958415Y-87417048D01*
X53835501Y-87334919D01*
X53835488Y-87334912D01*
X53698917Y-87278343D01*
X53698908Y-87278340D01*
X53599807Y-87258627D01*
X53537897Y-87226241D01*
X53503323Y-87165525D01*
X53500000Y-87137010D01*
X53500000Y-86862989D01*
X53519685Y-86795950D01*
X53572489Y-86750195D01*
X53599808Y-86741372D01*
X53660859Y-86729227D01*
X53698913Y-86721658D01*
X53835495Y-86665084D01*
X53940978Y-86594603D01*
X57189499Y-86594603D01*
X57226410Y-86780161D01*
X57226413Y-86780171D01*
X57298814Y-86954965D01*
X57298816Y-86954968D01*
X57403927Y-87112278D01*
X57403933Y-87112286D01*
X57537713Y-87246066D01*
X57537721Y-87246072D01*
X57695031Y-87351183D01*
X57695034Y-87351185D01*
X57814093Y-87400500D01*
X57869833Y-87423588D01*
X57869837Y-87423588D01*
X57869838Y-87423589D01*
X58055396Y-87460500D01*
X58055399Y-87460500D01*
X58244603Y-87460500D01*
X58369442Y-87435667D01*
X58430167Y-87423588D01*
X58604967Y-87351184D01*
X58762283Y-87246069D01*
X58896069Y-87112283D01*
X59001184Y-86954967D01*
X59073588Y-86780167D01*
X59110500Y-86594601D01*
X59110500Y-86405399D01*
X59110500Y-86405396D01*
X59073589Y-86219838D01*
X59073588Y-86219837D01*
X59073588Y-86219833D01*
X59073207Y-86218913D01*
X59001185Y-86045034D01*
X59001183Y-86045031D01*
X58896072Y-85887721D01*
X58896066Y-85887713D01*
X58762286Y-85753933D01*
X58762278Y-85753927D01*
X58604968Y-85648816D01*
X58604965Y-85648814D01*
X58430171Y-85576413D01*
X58430161Y-85576410D01*
X58244603Y-85539500D01*
X58244601Y-85539500D01*
X58055399Y-85539500D01*
X58055397Y-85539500D01*
X57869838Y-85576410D01*
X57869828Y-85576413D01*
X57695034Y-85648814D01*
X57695031Y-85648816D01*
X57537721Y-85753927D01*
X57537713Y-85753933D01*
X57403933Y-85887713D01*
X57403927Y-85887721D01*
X57298816Y-86045031D01*
X57298814Y-86045034D01*
X57226413Y-86219828D01*
X57226410Y-86219838D01*
X57189500Y-86405396D01*
X57189500Y-86405399D01*
X57189500Y-86594601D01*
X57189500Y-86594603D01*
X57189499Y-86594603D01*
X53940978Y-86594603D01*
X53958416Y-86582951D01*
X54062951Y-86478416D01*
X54145084Y-86355495D01*
X54201658Y-86218913D01*
X54230500Y-86073918D01*
X54230500Y-85926082D01*
X54230500Y-85926079D01*
X54201659Y-85781092D01*
X54201658Y-85781091D01*
X54201658Y-85781087D01*
X54201656Y-85781082D01*
X54145087Y-85644511D01*
X54145080Y-85644498D01*
X54062951Y-85521584D01*
X54062948Y-85521580D01*
X53958419Y-85417051D01*
X53958415Y-85417048D01*
X53835501Y-85334919D01*
X53835488Y-85334912D01*
X53698917Y-85278343D01*
X53698908Y-85278340D01*
X53599807Y-85258627D01*
X53571680Y-85243913D01*
X53542797Y-85230723D01*
X53540939Y-85227832D01*
X53537897Y-85226241D01*
X53522189Y-85198657D01*
X53505023Y-85171945D01*
X53504362Y-85167350D01*
X53503323Y-85165525D01*
X53500000Y-85137010D01*
X53500000Y-85124000D01*
X53519685Y-85056961D01*
X53572489Y-85011206D01*
X53624000Y-85000000D01*
X63000000Y-85000000D01*
X66000000Y-70000000D01*
X66000000Y-68124000D01*
X66019685Y-68056961D01*
X66072489Y-68011206D01*
X66124000Y-68000000D01*
X68752047Y-68000000D01*
X68819086Y-68019685D01*
G37*
%TD.AperFunction*%
%TD*%
%TA.AperFunction,Conductor*%
%TO.N,/12V-2x6 Connectors/12V_OUT5*%
G36*
X59466210Y-54019685D02*
G01*
X59511965Y-54072489D01*
X59520563Y-54098706D01*
X60637604Y-59460500D01*
X61997394Y-65987491D01*
X62000000Y-66012781D01*
X62000000Y-66327303D01*
X61980315Y-66394342D01*
X61927511Y-66440097D01*
X61858353Y-66450041D01*
X61807111Y-66430407D01*
X61793229Y-66421131D01*
X61734752Y-66409500D01*
X61734748Y-66409500D01*
X61605258Y-66409500D01*
X61543256Y-66392886D01*
X61527188Y-66383608D01*
X61442323Y-66360869D01*
X61399892Y-66349500D01*
X61268108Y-66349500D01*
X61140811Y-66383608D01*
X61124744Y-66392886D01*
X61062742Y-66409500D01*
X60933247Y-66409500D01*
X60874770Y-66421131D01*
X60874769Y-66421132D01*
X60808447Y-66465447D01*
X60764132Y-66531769D01*
X60764131Y-66531770D01*
X60752500Y-66590247D01*
X60752500Y-67639752D01*
X60764131Y-67698229D01*
X60764132Y-67698230D01*
X60808447Y-67764552D01*
X60820938Y-67772898D01*
X60865743Y-67826510D01*
X60874450Y-67895835D01*
X60844295Y-67958863D01*
X60784852Y-67995582D01*
X60752047Y-68000000D01*
X58124000Y-68000000D01*
X58056961Y-67980315D01*
X58011206Y-67927511D01*
X58000000Y-67876000D01*
X58000000Y-66702916D01*
X58019685Y-66635877D01*
X58057503Y-66601026D01*
X58056347Y-66599343D01*
X58062076Y-66595407D01*
X58062085Y-66595403D01*
X58114889Y-66549648D01*
X58132843Y-66532057D01*
X58177490Y-66452240D01*
X58197175Y-66385201D01*
X58205500Y-66327303D01*
X58205500Y-66010263D01*
X58205500Y-66010250D01*
X58204800Y-65993318D01*
X58204800Y-65993314D01*
X58203113Y-65972929D01*
X58201017Y-65956094D01*
X57034376Y-58956251D01*
X57042772Y-58886893D01*
X57087335Y-58833080D01*
X57153918Y-58811902D01*
X57221381Y-58830083D01*
X57268304Y-58881852D01*
X57271250Y-58888418D01*
X57298816Y-58954968D01*
X57403927Y-59112278D01*
X57403933Y-59112286D01*
X57537713Y-59246066D01*
X57537721Y-59246072D01*
X57695031Y-59351183D01*
X57695034Y-59351185D01*
X57869828Y-59423586D01*
X57869833Y-59423588D01*
X57869837Y-59423588D01*
X57869838Y-59423589D01*
X58055396Y-59460500D01*
X58055399Y-59460500D01*
X58244603Y-59460500D01*
X58369442Y-59435667D01*
X58430167Y-59423588D01*
X58604967Y-59351184D01*
X58762283Y-59246069D01*
X58896069Y-59112283D01*
X59001184Y-58954967D01*
X59073588Y-58780167D01*
X59110500Y-58594601D01*
X59110500Y-58405399D01*
X59110500Y-58405396D01*
X59073589Y-58219838D01*
X59073588Y-58219837D01*
X59073588Y-58219833D01*
X59073586Y-58219828D01*
X59001185Y-58045034D01*
X59001183Y-58045031D01*
X58896072Y-57887721D01*
X58896066Y-57887713D01*
X58762286Y-57753933D01*
X58762278Y-57753927D01*
X58604968Y-57648816D01*
X58604965Y-57648814D01*
X58430171Y-57576413D01*
X58430161Y-57576410D01*
X58244603Y-57539500D01*
X58244601Y-57539500D01*
X58055399Y-57539500D01*
X58055397Y-57539500D01*
X57869838Y-57576410D01*
X57869828Y-57576413D01*
X57695034Y-57648814D01*
X57695031Y-57648816D01*
X57537721Y-57753927D01*
X57537713Y-57753933D01*
X57403933Y-57887713D01*
X57403927Y-57887721D01*
X57298816Y-58045031D01*
X57298814Y-58045034D01*
X57226413Y-58219828D01*
X57226410Y-58219838D01*
X57188311Y-58411374D01*
X57187015Y-58411116D01*
X57163388Y-58469610D01*
X57106350Y-58509963D01*
X57036549Y-58513073D01*
X56976148Y-58477952D01*
X56944323Y-58415751D01*
X56943854Y-58413119D01*
X56719973Y-57069831D01*
X56713785Y-57043516D01*
X56704266Y-57012390D01*
X56663056Y-56937915D01*
X56646879Y-56919246D01*
X56617304Y-56885114D01*
X56617300Y-56885110D01*
X56599713Y-56867160D01*
X56599712Y-56867159D01*
X56599710Y-56867157D01*
X56599708Y-56867156D01*
X56599706Y-56867154D01*
X56519896Y-56822511D01*
X56519891Y-56822509D01*
X56452859Y-56802826D01*
X56452855Y-56802825D01*
X56452854Y-56802825D01*
X56394956Y-56794500D01*
X53624000Y-56794500D01*
X53556961Y-56774815D01*
X53511206Y-56722011D01*
X53500000Y-56670500D01*
X53500000Y-55594603D01*
X57189499Y-55594603D01*
X57226410Y-55780161D01*
X57226413Y-55780171D01*
X57298814Y-55954965D01*
X57298816Y-55954968D01*
X57403927Y-56112278D01*
X57403933Y-56112286D01*
X57537713Y-56246066D01*
X57537721Y-56246072D01*
X57695031Y-56351183D01*
X57695034Y-56351185D01*
X57869828Y-56423586D01*
X57869833Y-56423588D01*
X57869837Y-56423588D01*
X57869838Y-56423589D01*
X58055396Y-56460500D01*
X58055399Y-56460500D01*
X58244603Y-56460500D01*
X58369442Y-56435667D01*
X58430167Y-56423588D01*
X58604967Y-56351184D01*
X58762283Y-56246069D01*
X58896069Y-56112283D01*
X59001184Y-55954967D01*
X59073588Y-55780167D01*
X59110500Y-55594601D01*
X59110500Y-55405399D01*
X59110500Y-55405396D01*
X59073589Y-55219838D01*
X59073588Y-55219837D01*
X59073588Y-55219833D01*
X59073586Y-55219828D01*
X59001185Y-55045034D01*
X59001183Y-55045031D01*
X58896072Y-54887721D01*
X58896066Y-54887713D01*
X58762286Y-54753933D01*
X58762278Y-54753927D01*
X58604968Y-54648816D01*
X58604965Y-54648814D01*
X58430171Y-54576413D01*
X58430161Y-54576410D01*
X58244603Y-54539500D01*
X58244601Y-54539500D01*
X58055399Y-54539500D01*
X58055397Y-54539500D01*
X57869838Y-54576410D01*
X57869828Y-54576413D01*
X57695034Y-54648814D01*
X57695031Y-54648816D01*
X57537721Y-54753927D01*
X57537713Y-54753933D01*
X57403933Y-54887713D01*
X57403927Y-54887721D01*
X57298816Y-55045031D01*
X57298814Y-55045034D01*
X57226413Y-55219828D01*
X57226410Y-55219838D01*
X57189500Y-55405396D01*
X57189500Y-55405399D01*
X57189500Y-55594601D01*
X57189500Y-55594603D01*
X57189499Y-55594603D01*
X53500000Y-55594603D01*
X53500000Y-54862989D01*
X53519685Y-54795950D01*
X53572489Y-54750195D01*
X53599808Y-54741372D01*
X53660859Y-54729227D01*
X53698913Y-54721658D01*
X53835495Y-54665084D01*
X53958416Y-54582951D01*
X54062951Y-54478416D01*
X54145084Y-54355495D01*
X54201658Y-54218913D01*
X54225350Y-54099809D01*
X54257735Y-54037898D01*
X54318451Y-54003324D01*
X54346967Y-54000000D01*
X59399171Y-54000000D01*
X59466210Y-54019685D01*
G37*
%TD.AperFunction*%
%TD*%
%TA.AperFunction,Conductor*%
%TO.N,/12V-2x6 Connectors/12V_OUT6*%
G36*
X56461995Y-57019685D02*
G01*
X56507750Y-57072489D01*
X56517269Y-57103615D01*
X57998313Y-65989878D01*
X58000000Y-66010263D01*
X58000000Y-66327303D01*
X57980315Y-66394342D01*
X57927511Y-66440097D01*
X57858353Y-66450041D01*
X57807111Y-66430407D01*
X57793229Y-66421131D01*
X57734752Y-66409500D01*
X57734748Y-66409500D01*
X57605258Y-66409500D01*
X57543256Y-66392886D01*
X57527188Y-66383608D01*
X57442323Y-66360869D01*
X57399892Y-66349500D01*
X57268108Y-66349500D01*
X57140811Y-66383608D01*
X57124744Y-66392886D01*
X57062742Y-66409500D01*
X56933247Y-66409500D01*
X56874770Y-66421131D01*
X56874769Y-66421132D01*
X56808447Y-66465447D01*
X56764132Y-66531769D01*
X56764131Y-66531770D01*
X56752500Y-66590247D01*
X56752500Y-66590252D01*
X56752500Y-67639748D01*
X56752500Y-67639750D01*
X56752499Y-67639750D01*
X56753805Y-67646312D01*
X56747576Y-67715904D01*
X56704711Y-67771080D01*
X56638821Y-67794322D01*
X56632187Y-67794500D01*
X53624000Y-67794500D01*
X53556961Y-67774815D01*
X53511206Y-67722011D01*
X53500000Y-67670500D01*
X53500000Y-57124000D01*
X53519685Y-57056961D01*
X53572489Y-57011206D01*
X53624000Y-57000000D01*
X56394956Y-57000000D01*
X56461995Y-57019685D01*
G37*
%TD.AperFunction*%
%TD*%
%TA.AperFunction,Conductor*%
%TO.N,/12V-2x6 Connectors/12V_OUT2*%
G36*
X69964429Y-45019685D02*
G01*
X70010184Y-45072489D01*
X70019199Y-45100795D01*
X70557621Y-47927511D01*
X73997810Y-65988502D01*
X74000000Y-66011704D01*
X74000000Y-66327303D01*
X73980315Y-66394342D01*
X73927511Y-66440097D01*
X73858353Y-66450041D01*
X73807111Y-66430407D01*
X73793229Y-66421131D01*
X73734752Y-66409500D01*
X73734748Y-66409500D01*
X73605258Y-66409500D01*
X73543256Y-66392886D01*
X73527188Y-66383608D01*
X73442323Y-66360869D01*
X73399892Y-66349500D01*
X73268108Y-66349500D01*
X73140811Y-66383608D01*
X73124744Y-66392886D01*
X73062742Y-66409500D01*
X72933247Y-66409500D01*
X72874770Y-66421131D01*
X72874769Y-66421132D01*
X72808447Y-66465447D01*
X72764132Y-66531769D01*
X72764131Y-66531770D01*
X72752500Y-66590247D01*
X72752500Y-66590252D01*
X72752500Y-67639748D01*
X72752500Y-67639750D01*
X72752499Y-67639750D01*
X72753805Y-67646312D01*
X72747576Y-67715904D01*
X72704711Y-67771080D01*
X72638821Y-67794322D01*
X72632187Y-67794500D01*
X70124000Y-67794500D01*
X70056961Y-67774815D01*
X70011206Y-67722011D01*
X70000000Y-67670500D01*
X70000000Y-65999996D01*
X66500000Y-48000000D01*
X54346967Y-48000000D01*
X54279928Y-47980315D01*
X54234173Y-47927511D01*
X54225350Y-47900191D01*
X54218327Y-47864887D01*
X54201658Y-47781087D01*
X54201656Y-47781082D01*
X54145087Y-47644511D01*
X54145080Y-47644498D01*
X54062951Y-47521584D01*
X54062948Y-47521580D01*
X53958419Y-47417051D01*
X53958415Y-47417048D01*
X53835501Y-47334919D01*
X53835488Y-47334912D01*
X53698917Y-47278343D01*
X53698908Y-47278340D01*
X53599807Y-47258627D01*
X53537897Y-47226241D01*
X53503323Y-47165525D01*
X53500000Y-47137010D01*
X53500000Y-46594603D01*
X57189499Y-46594603D01*
X57226410Y-46780161D01*
X57226413Y-46780171D01*
X57298814Y-46954965D01*
X57298816Y-46954968D01*
X57403927Y-47112278D01*
X57403933Y-47112286D01*
X57537713Y-47246066D01*
X57537721Y-47246072D01*
X57695031Y-47351183D01*
X57695034Y-47351185D01*
X57814093Y-47400500D01*
X57869833Y-47423588D01*
X57869837Y-47423588D01*
X57869838Y-47423589D01*
X58055396Y-47460500D01*
X58055399Y-47460500D01*
X58244603Y-47460500D01*
X58369442Y-47435667D01*
X58430167Y-47423588D01*
X58604967Y-47351184D01*
X58762283Y-47246069D01*
X58896069Y-47112283D01*
X59001184Y-46954967D01*
X59073588Y-46780167D01*
X59110500Y-46594601D01*
X59110500Y-46405399D01*
X59110500Y-46405396D01*
X59073589Y-46219838D01*
X59073588Y-46219837D01*
X59073588Y-46219833D01*
X59010597Y-46067758D01*
X59001185Y-46045034D01*
X59001183Y-46045031D01*
X58896072Y-45887721D01*
X58896066Y-45887713D01*
X58762286Y-45753933D01*
X58762278Y-45753927D01*
X58604968Y-45648816D01*
X58604965Y-45648814D01*
X58430171Y-45576413D01*
X58430161Y-45576410D01*
X58244603Y-45539500D01*
X58244601Y-45539500D01*
X58055399Y-45539500D01*
X58055397Y-45539500D01*
X57869838Y-45576410D01*
X57869828Y-45576413D01*
X57695034Y-45648814D01*
X57695031Y-45648816D01*
X57537721Y-45753927D01*
X57537713Y-45753933D01*
X57403933Y-45887713D01*
X57403927Y-45887721D01*
X57298816Y-46045031D01*
X57298814Y-46045034D01*
X57226413Y-46219828D01*
X57226410Y-46219838D01*
X57189500Y-46405396D01*
X57189500Y-46405399D01*
X57189500Y-46594601D01*
X57189500Y-46594603D01*
X57189499Y-46594603D01*
X53500000Y-46594603D01*
X53500000Y-45124000D01*
X53519685Y-45056961D01*
X53572489Y-45011206D01*
X53624000Y-45000000D01*
X69897390Y-45000000D01*
X69964429Y-45019685D01*
G37*
%TD.AperFunction*%
%TD*%
%TA.AperFunction,Conductor*%
%TO.N,/12V-2x6 Connectors/12V_IN6*%
G36*
X56819086Y-68019685D02*
G01*
X56864841Y-68072489D01*
X56874785Y-68141647D01*
X56845760Y-68205203D01*
X56820938Y-68227102D01*
X56808447Y-68235447D01*
X56764132Y-68301769D01*
X56764131Y-68301770D01*
X56752500Y-68360247D01*
X56752500Y-69409752D01*
X56764131Y-69468229D01*
X56764132Y-69468230D01*
X56808447Y-69534552D01*
X56874769Y-69578867D01*
X56874770Y-69578868D01*
X56933247Y-69590499D01*
X56933250Y-69590500D01*
X56933252Y-69590500D01*
X57062742Y-69590500D01*
X57124744Y-69607114D01*
X57140811Y-69616391D01*
X57140813Y-69616391D01*
X57140814Y-69616392D01*
X57268108Y-69650500D01*
X57268110Y-69650500D01*
X57399890Y-69650500D01*
X57399892Y-69650500D01*
X57527186Y-69616392D01*
X57543256Y-69607114D01*
X57605258Y-69590500D01*
X57734750Y-69590500D01*
X57734751Y-69590499D01*
X57754418Y-69586587D01*
X57793228Y-69578868D01*
X57793228Y-69578867D01*
X57793231Y-69578867D01*
X57807109Y-69569593D01*
X57873786Y-69548716D01*
X57941166Y-69567200D01*
X57987856Y-69619178D01*
X58000000Y-69672696D01*
X58000000Y-69989737D01*
X57998313Y-70010122D01*
X56517269Y-78896385D01*
X56486831Y-78959277D01*
X56427223Y-78995728D01*
X56394956Y-79000000D01*
X53624000Y-79000000D01*
X53556961Y-78980315D01*
X53511206Y-78927511D01*
X53500000Y-78876000D01*
X53500000Y-68124000D01*
X53519685Y-68056961D01*
X53572489Y-68011206D01*
X53624000Y-68000000D01*
X56752047Y-68000000D01*
X56819086Y-68019685D01*
G37*
%TD.AperFunction*%
%TD*%
%TA.AperFunction,Conductor*%
%TO.N,/12V-2x6 Connectors/12V_IN2*%
G36*
X72819086Y-68019685D02*
G01*
X72864841Y-68072489D01*
X72874785Y-68141647D01*
X72845760Y-68205203D01*
X72820938Y-68227102D01*
X72808447Y-68235447D01*
X72764132Y-68301769D01*
X72764131Y-68301770D01*
X72752500Y-68360247D01*
X72752500Y-69409752D01*
X72764131Y-69468229D01*
X72764132Y-69468230D01*
X72808447Y-69534552D01*
X72874769Y-69578867D01*
X72874770Y-69578868D01*
X72933247Y-69590499D01*
X72933250Y-69590500D01*
X72933252Y-69590500D01*
X73062742Y-69590500D01*
X73124744Y-69607114D01*
X73140811Y-69616391D01*
X73140813Y-69616391D01*
X73140814Y-69616392D01*
X73268108Y-69650500D01*
X73268110Y-69650500D01*
X73399890Y-69650500D01*
X73399892Y-69650500D01*
X73527186Y-69616392D01*
X73543256Y-69607114D01*
X73605258Y-69590500D01*
X73734750Y-69590500D01*
X73734751Y-69590499D01*
X73754418Y-69586587D01*
X73793228Y-69578868D01*
X73793228Y-69578867D01*
X73793231Y-69578867D01*
X73807109Y-69569593D01*
X73873786Y-69548716D01*
X73941166Y-69567200D01*
X73987856Y-69619178D01*
X74000000Y-69672696D01*
X74000000Y-69988295D01*
X73997809Y-70011497D01*
X70109794Y-90423586D01*
X70019200Y-90899202D01*
X69987319Y-90961374D01*
X69926887Y-90996441D01*
X69897390Y-91000000D01*
X53624000Y-91000000D01*
X53556961Y-90980315D01*
X53511206Y-90927511D01*
X53500000Y-90876000D01*
X53500000Y-89594603D01*
X57189499Y-89594603D01*
X57226410Y-89780161D01*
X57226413Y-89780171D01*
X57298814Y-89954965D01*
X57298816Y-89954968D01*
X57403927Y-90112278D01*
X57403933Y-90112286D01*
X57537713Y-90246066D01*
X57537721Y-90246072D01*
X57695031Y-90351183D01*
X57695034Y-90351185D01*
X57814093Y-90400500D01*
X57869833Y-90423588D01*
X57869837Y-90423588D01*
X57869838Y-90423589D01*
X58055396Y-90460500D01*
X58055399Y-90460500D01*
X58244603Y-90460500D01*
X58369442Y-90435667D01*
X58430167Y-90423588D01*
X58604967Y-90351184D01*
X58762283Y-90246069D01*
X58896069Y-90112283D01*
X59001184Y-89954967D01*
X59073588Y-89780167D01*
X59110500Y-89594601D01*
X59110500Y-89405399D01*
X59110500Y-89405396D01*
X59073589Y-89219838D01*
X59073588Y-89219837D01*
X59073588Y-89219833D01*
X59062551Y-89193186D01*
X59001185Y-89045034D01*
X59001183Y-89045031D01*
X58896072Y-88887721D01*
X58896066Y-88887713D01*
X58762286Y-88753933D01*
X58762278Y-88753927D01*
X58604968Y-88648816D01*
X58604965Y-88648814D01*
X58430171Y-88576413D01*
X58430161Y-88576410D01*
X58244603Y-88539500D01*
X58244601Y-88539500D01*
X58055399Y-88539500D01*
X58055397Y-88539500D01*
X57869838Y-88576410D01*
X57869828Y-88576413D01*
X57695034Y-88648814D01*
X57695031Y-88648816D01*
X57537721Y-88753927D01*
X57537713Y-88753933D01*
X57403933Y-88887713D01*
X57403927Y-88887721D01*
X57298816Y-89045031D01*
X57298814Y-89045034D01*
X57226413Y-89219828D01*
X57226410Y-89219838D01*
X57189500Y-89405396D01*
X57189500Y-89405399D01*
X57189500Y-89594601D01*
X57189500Y-89594603D01*
X57189499Y-89594603D01*
X53500000Y-89594603D01*
X53500000Y-88862989D01*
X53519685Y-88795950D01*
X53572489Y-88750195D01*
X53599808Y-88741372D01*
X53660859Y-88729227D01*
X53698913Y-88721658D01*
X53835495Y-88665084D01*
X53958416Y-88582951D01*
X54062951Y-88478416D01*
X54145084Y-88355495D01*
X54201658Y-88218913D01*
X54225350Y-88099809D01*
X54257735Y-88037898D01*
X54318451Y-88003324D01*
X54346967Y-88000000D01*
X66500000Y-88000000D01*
X70000000Y-70000003D01*
X70000000Y-68124000D01*
X70019685Y-68056961D01*
X70072489Y-68011206D01*
X70124000Y-68000000D01*
X72752047Y-68000000D01*
X72819086Y-68019685D01*
G37*
%TD.AperFunction*%
%TD*%
M02*
