%TF.GenerationSoftware,KiCad,Pcbnew,9.0.5*%
%TF.CreationDate,2025-10-16T19:16:23+10:00*%
%TF.ProjectId,12v-2x6,3132762d-3278-4362-9e6b-696361645f70,1*%
%TF.SameCoordinates,Original*%
%TF.FileFunction,Soldermask,Bot*%
%TF.FilePolarity,Negative*%
%FSLAX46Y46*%
G04 Gerber Fmt 4.6, Leading zero omitted, Abs format (unit mm)*
G04 Created by KiCad (PCBNEW 9.0.5) date 2025-10-16 19:16:23*
%MOMM*%
%LPD*%
G01*
G04 APERTURE LIST*
G04 Aperture macros list*
%AMRoundRect*
0 Rectangle with rounded corners*
0 $1 Rounding radius*
0 $2 $3 $4 $5 $6 $7 $8 $9 X,Y pos of 4 corners*
0 Add a 4 corners polygon primitive as box body*
4,1,4,$2,$3,$4,$5,$6,$7,$8,$9,$2,$3,0*
0 Add four circle primitives for the rounded corners*
1,1,$1+$1,$2,$3*
1,1,$1+$1,$4,$5*
1,1,$1+$1,$6,$7*
1,1,$1+$1,$8,$9*
0 Add four rect primitives between the rounded corners*
20,1,$1+$1,$2,$3,$4,$5,0*
20,1,$1+$1,$4,$5,$6,$7,0*
20,1,$1+$1,$6,$7,$8,$9,0*
20,1,$1+$1,$8,$9,$2,$3,0*%
G04 Aperture macros list end*
%ADD10RoundRect,0.250000X0.625000X-0.350000X0.625000X0.350000X-0.625000X0.350000X-0.625000X-0.350000X0*%
%ADD11O,1.750000X1.200000*%
%ADD12C,3.200000*%
%ADD13C,1.100000*%
%ADD14R,1.730000X2.030000*%
%ADD15O,1.730000X2.030000*%
%ADD16R,1.700000X1.700000*%
%ADD17C,1.700000*%
%ADD18C,1.520000*%
%ADD19RoundRect,0.510000X-0.890000X0.000010X-0.890000X-0.000010X0.890000X-0.000010X0.890000X0.000010X0*%
%ADD20C,4.300000*%
%ADD21C,0.900000*%
%ADD22C,0.650000*%
%ADD23O,2.100000X1.000000*%
%ADD24O,1.600000X1.000000*%
G04 APERTURE END LIST*
D10*
%TO.C,J7*%
X141850000Y-47600000D03*
D11*
X141850000Y-45600000D03*
%TD*%
D12*
%TO.C,H4*%
X138600000Y-98780000D03*
%TD*%
%TO.C,H2*%
X62000000Y-37060000D03*
%TD*%
D13*
%TO.C,M2*%
X114820000Y-92660000D03*
D14*
X119900000Y-90500000D03*
D15*
X117360000Y-90500000D03*
X114820000Y-90500000D03*
X112280000Y-90500000D03*
%TD*%
D16*
%TO.C,J8*%
X112700000Y-36830000D03*
D17*
X112700000Y-39370000D03*
X112700000Y-41910000D03*
X112700000Y-44450000D03*
%TD*%
D10*
%TO.C,J6*%
X141850000Y-55550000D03*
D11*
X141850000Y-53550000D03*
%TD*%
D16*
%TO.C,J4*%
X119385000Y-44385000D03*
D17*
X121925000Y-44385000D03*
%TD*%
D18*
%TO.C,J2*%
X55150000Y-58500000D03*
X55150000Y-55500000D03*
X55150000Y-52500000D03*
X55150000Y-49500000D03*
X55150000Y-46500000D03*
X55150000Y-43500000D03*
X58150000Y-58500000D03*
X58150000Y-55500000D03*
X58150000Y-52500000D03*
X58150000Y-49500000D03*
X58150000Y-46500000D03*
X58150000Y-43500000D03*
D19*
X50830000Y-57700000D03*
X50830000Y-44300000D03*
D13*
X53480000Y-54000000D03*
X53480000Y-52000000D03*
X53480000Y-50000000D03*
X53480000Y-48000000D03*
%TD*%
D20*
%TO.C,H5*%
X98650000Y-83100000D03*
%TD*%
D12*
%TO.C,H3*%
X138600000Y-37060000D03*
%TD*%
D16*
%TO.C,J5*%
X126525000Y-44385000D03*
D17*
X129065000Y-44385000D03*
%TD*%
D12*
%TO.C,H1*%
X62000000Y-98780000D03*
%TD*%
D20*
%TO.C,H6*%
X98650000Y-51100000D03*
%TD*%
D21*
%TO.C,SW2*%
X123000000Y-97330000D03*
X126000000Y-97330000D03*
%TD*%
D18*
%TO.C,J1*%
X55150000Y-92500000D03*
X55150000Y-89500000D03*
X55150000Y-86500000D03*
X55150000Y-83500000D03*
X55150000Y-80500000D03*
X55150000Y-77500000D03*
X58150000Y-92500000D03*
X58150000Y-89500000D03*
X58150000Y-86500000D03*
X58150000Y-83500000D03*
X58150000Y-80500000D03*
X58150000Y-77500000D03*
D19*
X50830000Y-91700000D03*
X50830000Y-78300000D03*
D13*
X53480000Y-88000000D03*
X53480000Y-86000000D03*
X53480000Y-84000000D03*
X53480000Y-82000000D03*
%TD*%
D22*
%TO.C,J3*%
X142300000Y-69290000D03*
X142300000Y-63510000D03*
D23*
X141770000Y-70720000D03*
D24*
X145950000Y-70720000D03*
D23*
X141770000Y-62080000D03*
D24*
X145950000Y-62080000D03*
%TD*%
M02*
