M48
; DRILL file {KiCad 9.0.3} date 2025-08-23T16:32:45+1000
; FORMAT={-:-/ absolute / inch / decimal}
; #@! TF.CreationDate,2025-08-23T16:32:45+10:00
; #@! TF.GenerationSoftware,Kicad,Pcbnew,9.0.3
; #@! TF.FileFunction,Plated,1,6,PTH
FMAT,2
INCH
; #@! TA.AperFunction,Plated,PTH,ViaDrill
T1C0.0118
; #@! TA.AperFunction,Plated,PTH,ComponentDrill
T2C0.0236
; #@! TA.AperFunction,Plated,PTH,ComponentDrill
T3C0.0295
; #@! TA.AperFunction,Plated,PTH,ComponentDrill
T4C0.0394
; #@! TA.AperFunction,Plated,PTH,ComponentDrill
T5C0.0402
%
G90
G05
T1
X1.9449Y-3.8386
X1.9567Y-2.7835
X1.9685Y-1.8898
X1.9685Y-1.9291
X1.9685Y-1.9685
X1.9685Y-2.0079
X1.9685Y-2.0472
X1.9685Y-2.0866
X1.9685Y-2.126
X1.9685Y-2.4409
X1.9685Y-2.4803
X1.9685Y-2.5197
X1.9685Y-2.8346
X1.9685Y-2.874
X1.9685Y-2.9134
X1.9685Y-3.2283
X1.9685Y-3.2677
X1.9685Y-3.3071
X1.9685Y-3.3465
X1.9685Y-3.3858
X1.9685Y-3.4252
X1.9685Y-3.4646
X2.0079Y-1.5748
X2.0079Y-1.6142
X2.0079Y-1.8898
X2.0079Y-1.9291
X2.0079Y-1.9685
X2.0079Y-2.0079
X2.0079Y-2.0472
X2.0079Y-2.0866
X2.0079Y-2.126
X2.0079Y-2.4409
X2.0079Y-2.4803
X2.0079Y-2.5197
X2.0079Y-2.8346
X2.0079Y-2.874
X2.0079Y-2.9134
X2.0079Y-3.2283
X2.0079Y-3.2677
X2.0079Y-3.3071
X2.0079Y-3.3465
X2.0079Y-3.3858
X2.0079Y-3.4252
X2.0079Y-3.4646
X2.0079Y-3.7402
X2.0079Y-3.7795
X2.0291Y-1.437
X2.0323Y-3.9173
X2.0394Y-2.6591
X2.0394Y-2.6969
X2.0472Y-1.5748
X2.0472Y-1.6142
X2.0472Y-3.7402
X2.0472Y-3.7795
X2.0669Y-1.437
X2.0701Y-3.9173
X2.0866Y-1.5748
X2.0866Y-1.6142
X2.0866Y-3.7402
X2.0866Y-3.7795
X2.126Y-1.5748
X2.126Y-1.6142
X2.126Y-3.7402
X2.126Y-3.7795
X2.1417Y-1.5157
X2.1555Y-2.5295
X2.1555Y-2.5591
X2.1555Y-2.7953
X2.1555Y-2.8248
X2.1654Y-1.5748
X2.1654Y-1.6142
X2.1654Y-3.7402
X2.1654Y-3.7795
X2.1752Y-2.5
X2.1752Y-2.5886
X2.1752Y-2.7657
X2.1752Y-2.8543
X2.1949Y-2.5295
X2.1949Y-2.5591
X2.1949Y-2.7953
X2.1949Y-2.8248
X2.2047Y-1.5748
X2.2047Y-1.6142
X2.2047Y-3.7402
X2.2047Y-3.7795
X2.2146Y-2.5
X2.2146Y-2.5886
X2.2146Y-2.7657
X2.2146Y-2.8543
X2.2343Y-2.5295
X2.2343Y-2.5591
X2.2343Y-2.7953
X2.2343Y-2.8248
X2.2441Y-1.5748
X2.2441Y-1.6142
X2.2441Y-3.7402
X2.2572Y-2.6319
X2.2572Y-2.7224
X2.2835Y-1.5748
X2.2835Y-1.6142
X2.313Y-2.5295
X2.313Y-2.5591
X2.313Y-2.7953
X2.313Y-2.8248
X2.3228Y-1.6142
X2.3327Y-2.5
X2.3327Y-2.5886
X2.3327Y-2.7657
X2.3327Y-2.8543
X2.3524Y-2.5295
X2.3524Y-2.5591
X2.3524Y-2.7953
X2.3524Y-2.8248
X2.372Y-2.5
X2.372Y-2.5886
X2.372Y-2.7657
X2.372Y-2.8543
X2.3917Y-2.5295
X2.3917Y-2.5591
X2.3917Y-2.7953
X2.3917Y-2.8248
X2.4147Y-2.6319
X2.4147Y-2.7224
X2.4705Y-2.5295
X2.4705Y-2.5591
X2.4705Y-2.7953
X2.4705Y-2.8248
X2.4902Y-2.5
X2.4902Y-2.5886
X2.4902Y-2.7657
X2.4902Y-2.8543
X2.5098Y-2.5295
X2.5098Y-2.5591
X2.5098Y-2.7953
X2.5098Y-2.8248
X2.5295Y-2.5
X2.5295Y-2.5886
X2.5295Y-2.7657
X2.5295Y-2.8543
X2.5492Y-2.5295
X2.5492Y-2.5591
X2.5492Y-2.7953
X2.5492Y-2.8248
X2.5591Y-1.6142
X2.5722Y-2.6319
X2.5728Y-2.7224
X2.5984Y-1.5748
X2.5984Y-1.6142
X2.628Y-2.5295
X2.628Y-2.5591
X2.628Y-2.7953
X2.628Y-2.8248
X2.6378Y-1.5748
X2.6378Y-1.6142
X2.6378Y-3.7402
X2.6476Y-2.5
X2.6476Y-2.5886
X2.6476Y-2.7657
X2.6476Y-2.8543
X2.6673Y-2.5295
X2.6673Y-2.5591
X2.6673Y-2.7953
X2.6673Y-2.8248
X2.6772Y-1.5748
X2.6772Y-1.6142
X2.6772Y-3.7402
X2.6772Y-3.7795
X2.687Y-2.5
X2.687Y-2.5886
X2.687Y-2.7657
X2.687Y-2.8543
X2.7067Y-2.5295
X2.7067Y-2.5591
X2.7067Y-2.7953
X2.7067Y-2.8248
X2.7165Y-1.5748
X2.7165Y-1.6142
X2.7165Y-3.7402
X2.7165Y-3.7795
X2.7297Y-2.6319
X2.7297Y-2.7224
X2.7559Y-1.5748
X2.7559Y-1.6142
X2.7559Y-3.7402
X2.7559Y-3.7795
X2.7559Y-3.8583
X2.7854Y-2.5295
X2.7854Y-2.5591
X2.7854Y-2.7953
X2.7854Y-2.8248
X2.7953Y-1.5748
X2.7953Y-1.6142
X2.7953Y-3.7402
X2.7953Y-3.7795
X2.8051Y-2.5
X2.8051Y-2.5886
X2.8051Y-2.7657
X2.8051Y-2.8543
X2.8248Y-2.5295
X2.8248Y-2.5591
X2.8248Y-2.7953
X2.8248Y-2.8248
X2.8346Y-1.5748
X2.8346Y-1.6142
X2.8346Y-3.7402
X2.8346Y-3.7795
X2.8445Y-2.5
X2.8445Y-2.5886
X2.8445Y-2.7657
X2.8445Y-2.8543
X2.8642Y-2.5295
X2.8642Y-2.5591
X2.8642Y-2.7953
X2.8642Y-2.8248
X2.874Y-1.5748
X2.874Y-1.6142
X2.874Y-3.7402
X2.874Y-3.7795
X2.8872Y-2.6319
X2.8872Y-2.7224
X2.9134Y-1.5748
X2.9134Y-1.6142
X2.9134Y-3.7402
X2.9134Y-3.7795
X2.9429Y-2.5295
X2.9429Y-2.5591
X2.9429Y-2.7953
X2.9429Y-2.8248
X2.9528Y-1.5748
X2.9528Y-1.6142
X2.9528Y-1.6535
X2.9528Y-1.6929
X2.9528Y-1.7323
X2.9528Y-1.7717
X2.9528Y-1.811
X2.9528Y-3.5433
X2.9528Y-3.5827
X2.9528Y-3.622
X2.9528Y-3.6614
X2.9528Y-3.7008
X2.9528Y-3.7402
X2.9528Y-3.7795
X2.9626Y-2.5
X2.9626Y-2.5886
X2.9626Y-2.7657
X2.9626Y-2.8543
X2.9823Y-2.5295
X2.9823Y-2.5591
X2.9823Y-2.7953
X2.9823Y-2.8248
X2.9921Y-1.6142
X2.9921Y-1.6535
X2.9921Y-1.6929
X2.9921Y-1.7323
X2.9921Y-1.7717
X2.9921Y-1.811
X2.9921Y-1.8504
X2.9921Y-1.8898
X2.9921Y-1.9291
X2.9921Y-1.9685
X2.9921Y-2.0079
X2.9921Y-2.0472
X2.9921Y-3.3071
X2.9921Y-3.3465
X2.9921Y-3.3858
X2.9921Y-3.4252
X2.9921Y-3.4646
X2.9921Y-3.5039
X2.9921Y-3.5433
X2.9921Y-3.5827
X2.9921Y-3.622
X2.9921Y-3.6614
X2.9921Y-3.7008
X2.9921Y-3.7402
X3.002Y-2.5
X3.002Y-2.5886
X3.002Y-2.7657
X3.002Y-2.8543
X3.0217Y-2.5295
X3.0217Y-2.5591
X3.0217Y-2.7953
X3.0217Y-2.8248
X3.0315Y-1.8504
X3.0315Y-1.8898
X3.0315Y-1.9291
X3.0315Y-1.9685
X3.0315Y-2.0079
X3.0315Y-2.0472
X3.0315Y-2.0866
X3.0315Y-2.126
X3.0315Y-2.1654
X3.0315Y-2.2047
X3.0315Y-2.2441
X3.0315Y-3.1102
X3.0315Y-3.1496
X3.0315Y-3.189
X3.0315Y-3.2283
X3.0315Y-3.2677
X3.0315Y-3.3071
X3.0315Y-3.3465
X3.0315Y-3.3858
X3.0315Y-3.4252
X3.0315Y-3.4646
X3.0315Y-3.5039
X3.0709Y-2.0472
X3.0709Y-2.0866
X3.0709Y-2.126
X3.0709Y-2.1654
X3.0709Y-2.2047
X3.0709Y-2.2441
X3.0709Y-2.2835
X3.0709Y-2.3228
X3.0709Y-2.3622
X3.0709Y-2.4016
X3.0709Y-2.4409
X3.0709Y-2.9134
X3.0709Y-2.9528
X3.0709Y-2.9921
X3.0709Y-3.0315
X3.0709Y-3.0709
X3.0709Y-3.1102
X3.0709Y-3.1496
X3.0709Y-3.189
X3.0709Y-3.2283
X3.0709Y-3.2677
X3.1102Y-2.4409
X3.1102Y-2.4843
X3.1102Y-2.5236
X3.1102Y-2.563
X3.1102Y-2.752
X3.1102Y-2.7953
X3.1102Y-2.8346
X3.1102Y-2.874
X3.1102Y-2.9134
X3.2677Y-2.2441
X3.2677Y-2.2795
X3.2677Y-2.3189
X3.2717Y-2.4173
X3.2717Y-2.4528
X3.2717Y-2.4921
X3.2717Y-2.5906
X3.2717Y-2.626
X3.2717Y-2.6654
X3.2717Y-2.7638
X3.2717Y-2.7992
X3.2717Y-2.8386
X3.2717Y-2.937
X3.2717Y-2.9724
X3.2717Y-3.0118
X3.3622Y-2.1807
X3.3622Y-2.2201
X3.3622Y-2.3539
X3.3622Y-2.3933
X3.3622Y-2.5272
X3.3622Y-2.5665
X3.3622Y-2.7004
X3.3622Y-2.7398
X3.3622Y-2.8736
X3.3622Y-2.913
X3.3622Y-3.0472
X3.3622Y-3.0866
X3.563Y-2.2874
X3.563Y-2.4528
X3.565Y-3.1437
X3.5669Y-2.6063
X3.5669Y-2.6378
X3.5669Y-2.815
X3.5709Y-2.9567
X3.5709Y-2.9882
X3.689Y-2.3343
X3.689Y-2.5075
X3.689Y-2.6807
X3.689Y-2.8539
X3.689Y-3.0272
X3.689Y-3.2008
X3.7283Y-2.7559
X3.7283Y-2.9291
X3.7283Y-3.0945
X3.7294Y-2.2362
X3.7294Y-2.4094
X3.7294Y-2.5827
X3.7559Y-2.2756
X3.7559Y-2.4488
X3.7559Y-2.622
X3.7559Y-2.7953
X3.7559Y-2.9685
X3.811Y-3.0709
X3.8661Y-2.4488
X3.8661Y-2.5118
X3.8661Y-2.5709
X3.8661Y-2.622
X3.8661Y-2.6693
X3.8701Y-2.2756
X3.878Y-3.8465
X3.8858Y-3.9213
X3.937Y-2.8272
X3.937Y-2.9528
X4.0Y-3.7559
X4.0Y-3.8071
X4.0984Y-2.7126
X4.0984Y-2.9685
X4.1102Y-2.5551
X4.1555Y-1.9892
X4.174Y-2.7126
X4.1929Y-1.9892
X4.1939Y-2.9685
X4.2118Y-2.7126
X4.3709Y-2.7087
X4.376Y-3.0
X4.376Y-3.0752
X4.376Y-3.3362
X4.3888Y-2.9685
X4.3986Y-1.9892
X4.4087Y-2.7087
X4.4154Y-3.0752
X4.4154Y-3.3362
X4.436Y-1.9892
X4.4547Y-3.074
X4.4547Y-3.3752
X4.4843Y-2.7165
X4.4843Y-2.9685
X4.4941Y-3.3764
X4.5039Y-3.1043
X4.5039Y-3.1575
X4.5039Y-3.2165
X4.5433Y-3.2638
X4.5472Y-2.5039
X4.5472Y-3.0748
X4.5512Y-2.2008
X4.5512Y-2.252
X4.5512Y-2.3031
X4.5512Y-2.3504
X4.5512Y-2.4016
X4.5512Y-2.4528
X4.5591Y-2.9449
X4.5591Y-2.9843
X4.561Y-3.3583
X4.5827Y-2.7461
X4.5827Y-2.7874
X4.5866Y-3.8557
X4.5866Y-3.9055
X4.6063Y-3.2185
X4.6181Y-3.0748
X4.6299Y-2.5039
X4.6358Y-3.3583
X4.6476Y-3.2657
X4.6575Y-3.0748
X4.6909Y-3.0748
X4.6969Y-3.7441
X4.6969Y-3.8169
X4.7008Y-3.2657
X4.7008Y-3.3878
X4.7047Y-2.6024
X4.7067Y-3.2185
X4.7082Y-2.063
X4.7126Y-2.2382
X4.7224Y-2.8957
X4.7402Y-2.2087
X4.7441Y-2.6024
X4.7461Y-3.1457
X4.7461Y-3.1909
X4.7539Y-2.7717
X4.7672Y-2.0984
X4.7677Y-3.4134
X4.813Y-2.7717
X4.815Y-3.6969
X4.8228Y-2.6398
X4.8307Y-2.9606
X4.8445Y-3.4154
X4.8484Y-2.6181
X4.8484Y-3.1673
X4.8888Y-2.628
X4.8898Y-3.6535
X4.8976Y-3.2106
X4.9173Y-2.9567
X4.9193Y-3.4154
X4.9213Y-2.6201
X4.9213Y-2.878
X4.9528Y-2.6339
X4.9626Y-3.2106
X4.9843Y-2.6732
X4.9902Y-3.2717
X4.9902Y-3.3858
X4.9921Y-3.6969
X5.0197Y-2.5039
X5.0276Y-3.0315
X5.0276Y-3.0827
X5.0433Y-3.1299
X5.0472Y-2.8839
X5.0748Y-3.689
X5.0827Y-3.1063
X5.1063Y-2.2441
X5.1063Y-2.7451
X5.1063Y-2.8061
X5.1063Y-3.0039
X5.1496Y-2.4961
X5.1555Y-3.6496
X5.1575Y-2.126
X5.1575Y-3.1988
X5.1772Y-3.9528
X5.189Y-2.4961
X5.189Y-2.6142
X5.2205Y-2.126
X5.2248Y-3.1988
X5.2362Y-2.6969
X5.2441Y-2.8839
X5.2795Y-3.689
X5.2913Y-3.1988
X5.315Y-2.0512
X5.3425Y-2.3346
X5.3465Y-2.437
X5.3465Y-2.4921
X5.3701Y-2.9596
X5.3976Y-2.5433
X5.3976Y-2.6142
X5.4016Y-2.2283
X5.4016Y-2.437
X5.4016Y-2.6693
X5.4094Y-1.9134
X5.4882Y-2.311
X5.4921Y-2.0
X5.7313Y-3.002
T2
X2.1055Y-1.8898
X2.1055Y-1.9685
X2.1055Y-2.0472
X2.1055Y-2.126
X2.1055Y-3.2283
X2.1055Y-3.3071
X2.1055Y-3.3858
X2.1055Y-3.4646
T3
X5.5846Y-1.7953
X5.5846Y-1.874
X5.5846Y-2.1083
X5.5846Y-2.187
T4
X4.437Y-1.45
X4.437Y-1.55
X4.437Y-1.65
X4.437Y-1.75
X4.7002Y-1.7474
X4.8002Y-1.7474
X4.9813Y-1.7474
X5.0813Y-1.7474
T5
X2.1713Y-1.7126
X2.1713Y-1.8307
X2.1713Y-1.9488
X2.1713Y-2.0669
X2.1713Y-2.185
X2.1713Y-2.3031
X2.1713Y-3.0512
X2.1713Y-3.1693
X2.1713Y-3.2874
X2.1713Y-3.4055
X2.1713Y-3.5236
X2.1713Y-3.6417
X2.2894Y-1.7126
X2.2894Y-1.8307
X2.2894Y-1.9488
X2.2894Y-2.0669
X2.2894Y-2.185
X2.2894Y-2.3031
X2.2894Y-3.0512
X2.2894Y-3.1693
X2.2894Y-3.2874
X2.2894Y-3.4055
X2.2894Y-3.5236
X2.2894Y-3.6417
X4.4205Y-3.563
X4.5205Y-3.563
X4.6205Y-3.563
X4.7205Y-3.563
T2
G00X2.0327Y-1.7441
M15
G01X1.9697Y-1.7441
M16
G05
G00X2.0327Y-2.2717
M15
G01X1.9697Y-2.2717
M16
G05
G00X2.0327Y-3.0827
M15
G01X1.9697Y-3.0827
M16
G05
G00X2.0327Y-3.6102
M15
G01X1.9697Y-3.6102
M16
G05
G00X5.5598Y-2.4441
M15
G01X5.6031Y-2.4441
M16
G05
G00X5.5598Y-2.7843
M15
G01X5.6031Y-2.7843
M16
G05
G00X5.7343Y-2.4441
M15
G01X5.7579Y-2.4441
M16
G05
G00X5.7343Y-2.7843
M15
G01X5.7579Y-2.7843
M16
G05
M30
